G04 #@! TF.GenerationSoftware,KiCad,Pcbnew,9.0.0*
G04 #@! TF.CreationDate,2025-04-11T10:03:59+08:00*
G04 #@! TF.ProjectId,learn,6c656172-6e2e-46b6-9963-61645f706362,v1.0*
G04 #@! TF.SameCoordinates,Original*
G04 #@! TF.FileFunction,Legend,Top*
G04 #@! TF.FilePolarity,Positive*
%FSLAX46Y46*%
G04 Gerber Fmt 4.6, Leading zero omitted, Abs format (unit mm)*
G04 Created by KiCad (PCBNEW 9.0.0) date 2025-04-11 10:03:59*
%MOMM*%
%LPD*%
G01*
G04 APERTURE LIST*
%ADD10C,0.200000*%
%ADD11C,0.000000*%
%ADD12C,0.127000*%
%ADD13C,0.100000*%
%ADD14C,0.120000*%
G04 APERTURE END LIST*
D10*
X99569673Y-119367219D02*
X99569673Y-118367219D01*
X99569673Y-118367219D02*
X99950625Y-118367219D01*
X99950625Y-118367219D02*
X100045863Y-118414838D01*
X100045863Y-118414838D02*
X100093482Y-118462457D01*
X100093482Y-118462457D02*
X100141101Y-118557695D01*
X100141101Y-118557695D02*
X100141101Y-118700552D01*
X100141101Y-118700552D02*
X100093482Y-118795790D01*
X100093482Y-118795790D02*
X100045863Y-118843409D01*
X100045863Y-118843409D02*
X99950625Y-118891028D01*
X99950625Y-118891028D02*
X99569673Y-118891028D01*
X100474435Y-118367219D02*
X100712530Y-119367219D01*
X100712530Y-119367219D02*
X100903006Y-118652933D01*
X100903006Y-118652933D02*
X101093482Y-119367219D01*
X101093482Y-119367219D02*
X101331578Y-118367219D01*
X101712530Y-119367219D02*
X101712530Y-118367219D01*
X101712530Y-118367219D02*
X102045863Y-119081504D01*
X102045863Y-119081504D02*
X102379196Y-118367219D01*
X102379196Y-118367219D02*
X102379196Y-119367219D01*
X102617292Y-119462457D02*
X103379196Y-119462457D01*
X104141101Y-118414838D02*
X104045863Y-118367219D01*
X104045863Y-118367219D02*
X103903006Y-118367219D01*
X103903006Y-118367219D02*
X103760149Y-118414838D01*
X103760149Y-118414838D02*
X103664911Y-118510076D01*
X103664911Y-118510076D02*
X103617292Y-118605314D01*
X103617292Y-118605314D02*
X103569673Y-118795790D01*
X103569673Y-118795790D02*
X103569673Y-118938647D01*
X103569673Y-118938647D02*
X103617292Y-119129123D01*
X103617292Y-119129123D02*
X103664911Y-119224361D01*
X103664911Y-119224361D02*
X103760149Y-119319600D01*
X103760149Y-119319600D02*
X103903006Y-119367219D01*
X103903006Y-119367219D02*
X103998244Y-119367219D01*
X103998244Y-119367219D02*
X104141101Y-119319600D01*
X104141101Y-119319600D02*
X104188720Y-119271980D01*
X104188720Y-119271980D02*
X104188720Y-118938647D01*
X104188720Y-118938647D02*
X103998244Y-118938647D01*
X104617292Y-118843409D02*
X104950625Y-118843409D01*
X105093482Y-119367219D02*
X104617292Y-119367219D01*
X104617292Y-119367219D02*
X104617292Y-118367219D01*
X104617292Y-118367219D02*
X105093482Y-118367219D01*
X105522054Y-119367219D02*
X105522054Y-118367219D01*
X105522054Y-118367219D02*
X106093482Y-119367219D01*
X106093482Y-119367219D02*
X106093482Y-118367219D01*
X106569673Y-118843409D02*
X106903006Y-118843409D01*
X107045863Y-119367219D02*
X106569673Y-119367219D01*
X106569673Y-119367219D02*
X106569673Y-118367219D01*
X106569673Y-118367219D02*
X107045863Y-118367219D01*
X108045863Y-119367219D02*
X107712530Y-118891028D01*
X107474435Y-119367219D02*
X107474435Y-118367219D01*
X107474435Y-118367219D02*
X107855387Y-118367219D01*
X107855387Y-118367219D02*
X107950625Y-118414838D01*
X107950625Y-118414838D02*
X107998244Y-118462457D01*
X107998244Y-118462457D02*
X108045863Y-118557695D01*
X108045863Y-118557695D02*
X108045863Y-118700552D01*
X108045863Y-118700552D02*
X107998244Y-118795790D01*
X107998244Y-118795790D02*
X107950625Y-118843409D01*
X107950625Y-118843409D02*
X107855387Y-118891028D01*
X107855387Y-118891028D02*
X107474435Y-118891028D01*
X108426816Y-119081504D02*
X108903006Y-119081504D01*
X108331578Y-119367219D02*
X108664911Y-118367219D01*
X108664911Y-118367219D02*
X108998244Y-119367219D01*
X109188721Y-118367219D02*
X109760149Y-118367219D01*
X109474435Y-119367219D02*
X109474435Y-118367219D01*
X110283959Y-118367219D02*
X110474435Y-118367219D01*
X110474435Y-118367219D02*
X110569673Y-118414838D01*
X110569673Y-118414838D02*
X110664911Y-118510076D01*
X110664911Y-118510076D02*
X110712530Y-118700552D01*
X110712530Y-118700552D02*
X110712530Y-119033885D01*
X110712530Y-119033885D02*
X110664911Y-119224361D01*
X110664911Y-119224361D02*
X110569673Y-119319600D01*
X110569673Y-119319600D02*
X110474435Y-119367219D01*
X110474435Y-119367219D02*
X110283959Y-119367219D01*
X110283959Y-119367219D02*
X110188721Y-119319600D01*
X110188721Y-119319600D02*
X110093483Y-119224361D01*
X110093483Y-119224361D02*
X110045864Y-119033885D01*
X110045864Y-119033885D02*
X110045864Y-118700552D01*
X110045864Y-118700552D02*
X110093483Y-118510076D01*
X110093483Y-118510076D02*
X110188721Y-118414838D01*
X110188721Y-118414838D02*
X110283959Y-118367219D01*
X111712530Y-119367219D02*
X111379197Y-118891028D01*
X111141102Y-119367219D02*
X111141102Y-118367219D01*
X111141102Y-118367219D02*
X111522054Y-118367219D01*
X111522054Y-118367219D02*
X111617292Y-118414838D01*
X111617292Y-118414838D02*
X111664911Y-118462457D01*
X111664911Y-118462457D02*
X111712530Y-118557695D01*
X111712530Y-118557695D02*
X111712530Y-118700552D01*
X111712530Y-118700552D02*
X111664911Y-118795790D01*
X111664911Y-118795790D02*
X111617292Y-118843409D01*
X111617292Y-118843409D02*
X111522054Y-118891028D01*
X111522054Y-118891028D02*
X111141102Y-118891028D01*
X100141101Y-122367219D02*
X99807768Y-121891028D01*
X99569673Y-122367219D02*
X99569673Y-121367219D01*
X99569673Y-121367219D02*
X99950625Y-121367219D01*
X99950625Y-121367219D02*
X100045863Y-121414838D01*
X100045863Y-121414838D02*
X100093482Y-121462457D01*
X100093482Y-121462457D02*
X100141101Y-121557695D01*
X100141101Y-121557695D02*
X100141101Y-121700552D01*
X100141101Y-121700552D02*
X100093482Y-121795790D01*
X100093482Y-121795790D02*
X100045863Y-121843409D01*
X100045863Y-121843409D02*
X99950625Y-121891028D01*
X99950625Y-121891028D02*
X99569673Y-121891028D01*
X100950625Y-122319600D02*
X100855387Y-122367219D01*
X100855387Y-122367219D02*
X100664911Y-122367219D01*
X100664911Y-122367219D02*
X100569673Y-122319600D01*
X100569673Y-122319600D02*
X100522054Y-122224361D01*
X100522054Y-122224361D02*
X100522054Y-121843409D01*
X100522054Y-121843409D02*
X100569673Y-121748171D01*
X100569673Y-121748171D02*
X100664911Y-121700552D01*
X100664911Y-121700552D02*
X100855387Y-121700552D01*
X100855387Y-121700552D02*
X100950625Y-121748171D01*
X100950625Y-121748171D02*
X100998244Y-121843409D01*
X100998244Y-121843409D02*
X100998244Y-121938647D01*
X100998244Y-121938647D02*
X100522054Y-122033885D01*
X101331578Y-121700552D02*
X101569673Y-122367219D01*
X101569673Y-122367219D02*
X101807768Y-121700552D01*
X102712530Y-122367219D02*
X102141102Y-122367219D01*
X102426816Y-122367219D02*
X102426816Y-121367219D01*
X102426816Y-121367219D02*
X102331578Y-121510076D01*
X102331578Y-121510076D02*
X102236340Y-121605314D01*
X102236340Y-121605314D02*
X102141102Y-121652933D01*
X103141102Y-122271980D02*
X103188721Y-122319600D01*
X103188721Y-122319600D02*
X103141102Y-122367219D01*
X103141102Y-122367219D02*
X103093483Y-122319600D01*
X103093483Y-122319600D02*
X103141102Y-122271980D01*
X103141102Y-122271980D02*
X103141102Y-122367219D01*
X103807768Y-121367219D02*
X103903006Y-121367219D01*
X103903006Y-121367219D02*
X103998244Y-121414838D01*
X103998244Y-121414838D02*
X104045863Y-121462457D01*
X104045863Y-121462457D02*
X104093482Y-121557695D01*
X104093482Y-121557695D02*
X104141101Y-121748171D01*
X104141101Y-121748171D02*
X104141101Y-121986266D01*
X104141101Y-121986266D02*
X104093482Y-122176742D01*
X104093482Y-122176742D02*
X104045863Y-122271980D01*
X104045863Y-122271980D02*
X103998244Y-122319600D01*
X103998244Y-122319600D02*
X103903006Y-122367219D01*
X103903006Y-122367219D02*
X103807768Y-122367219D01*
X103807768Y-122367219D02*
X103712530Y-122319600D01*
X103712530Y-122319600D02*
X103664911Y-122271980D01*
X103664911Y-122271980D02*
X103617292Y-122176742D01*
X103617292Y-122176742D02*
X103569673Y-121986266D01*
X103569673Y-121986266D02*
X103569673Y-121748171D01*
X103569673Y-121748171D02*
X103617292Y-121557695D01*
X103617292Y-121557695D02*
X103664911Y-121462457D01*
X103664911Y-121462457D02*
X103712530Y-121414838D01*
X103712530Y-121414838D02*
X103807768Y-121367219D01*
X103769673Y-88364838D02*
X103674435Y-88317219D01*
X103674435Y-88317219D02*
X103531578Y-88317219D01*
X103531578Y-88317219D02*
X103388721Y-88364838D01*
X103388721Y-88364838D02*
X103293483Y-88460076D01*
X103293483Y-88460076D02*
X103245864Y-88555314D01*
X103245864Y-88555314D02*
X103198245Y-88745790D01*
X103198245Y-88745790D02*
X103198245Y-88888647D01*
X103198245Y-88888647D02*
X103245864Y-89079123D01*
X103245864Y-89079123D02*
X103293483Y-89174361D01*
X103293483Y-89174361D02*
X103388721Y-89269600D01*
X103388721Y-89269600D02*
X103531578Y-89317219D01*
X103531578Y-89317219D02*
X103626816Y-89317219D01*
X103626816Y-89317219D02*
X103769673Y-89269600D01*
X103769673Y-89269600D02*
X103817292Y-89221980D01*
X103817292Y-89221980D02*
X103817292Y-88888647D01*
X103817292Y-88888647D02*
X103626816Y-88888647D01*
X104245864Y-89317219D02*
X104245864Y-88317219D01*
X104245864Y-88317219D02*
X104817292Y-89317219D01*
X104817292Y-89317219D02*
X104817292Y-88317219D01*
X105293483Y-89317219D02*
X105293483Y-88317219D01*
X105293483Y-88317219D02*
X105531578Y-88317219D01*
X105531578Y-88317219D02*
X105674435Y-88364838D01*
X105674435Y-88364838D02*
X105769673Y-88460076D01*
X105769673Y-88460076D02*
X105817292Y-88555314D01*
X105817292Y-88555314D02*
X105864911Y-88745790D01*
X105864911Y-88745790D02*
X105864911Y-88888647D01*
X105864911Y-88888647D02*
X105817292Y-89079123D01*
X105817292Y-89079123D02*
X105769673Y-89174361D01*
X105769673Y-89174361D02*
X105674435Y-89269600D01*
X105674435Y-89269600D02*
X105531578Y-89317219D01*
X105531578Y-89317219D02*
X105293483Y-89317219D01*
X103198245Y-111917219D02*
X103531578Y-112917219D01*
X103531578Y-112917219D02*
X103864911Y-111917219D01*
X104769673Y-112821980D02*
X104722054Y-112869600D01*
X104722054Y-112869600D02*
X104579197Y-112917219D01*
X104579197Y-112917219D02*
X104483959Y-112917219D01*
X104483959Y-112917219D02*
X104341102Y-112869600D01*
X104341102Y-112869600D02*
X104245864Y-112774361D01*
X104245864Y-112774361D02*
X104198245Y-112679123D01*
X104198245Y-112679123D02*
X104150626Y-112488647D01*
X104150626Y-112488647D02*
X104150626Y-112345790D01*
X104150626Y-112345790D02*
X104198245Y-112155314D01*
X104198245Y-112155314D02*
X104245864Y-112060076D01*
X104245864Y-112060076D02*
X104341102Y-111964838D01*
X104341102Y-111964838D02*
X104483959Y-111917219D01*
X104483959Y-111917219D02*
X104579197Y-111917219D01*
X104579197Y-111917219D02*
X104722054Y-111964838D01*
X104722054Y-111964838D02*
X104769673Y-112012457D01*
X105769673Y-112821980D02*
X105722054Y-112869600D01*
X105722054Y-112869600D02*
X105579197Y-112917219D01*
X105579197Y-112917219D02*
X105483959Y-112917219D01*
X105483959Y-112917219D02*
X105341102Y-112869600D01*
X105341102Y-112869600D02*
X105245864Y-112774361D01*
X105245864Y-112774361D02*
X105198245Y-112679123D01*
X105198245Y-112679123D02*
X105150626Y-112488647D01*
X105150626Y-112488647D02*
X105150626Y-112345790D01*
X105150626Y-112345790D02*
X105198245Y-112155314D01*
X105198245Y-112155314D02*
X105245864Y-112060076D01*
X105245864Y-112060076D02*
X105341102Y-111964838D01*
X105341102Y-111964838D02*
X105483959Y-111917219D01*
X105483959Y-111917219D02*
X105579197Y-111917219D01*
X105579197Y-111917219D02*
X105722054Y-111964838D01*
X105722054Y-111964838D02*
X105769673Y-112012457D01*
X139369673Y-124467219D02*
X139369673Y-123467219D01*
X139369673Y-123467219D02*
X139607768Y-123467219D01*
X139607768Y-123467219D02*
X139750625Y-123514838D01*
X139750625Y-123514838D02*
X139845863Y-123610076D01*
X139845863Y-123610076D02*
X139893482Y-123705314D01*
X139893482Y-123705314D02*
X139941101Y-123895790D01*
X139941101Y-123895790D02*
X139941101Y-124038647D01*
X139941101Y-124038647D02*
X139893482Y-124229123D01*
X139893482Y-124229123D02*
X139845863Y-124324361D01*
X139845863Y-124324361D02*
X139750625Y-124419600D01*
X139750625Y-124419600D02*
X139607768Y-124467219D01*
X139607768Y-124467219D02*
X139369673Y-124467219D01*
X140750625Y-124419600D02*
X140655387Y-124467219D01*
X140655387Y-124467219D02*
X140464911Y-124467219D01*
X140464911Y-124467219D02*
X140369673Y-124419600D01*
X140369673Y-124419600D02*
X140322054Y-124324361D01*
X140322054Y-124324361D02*
X140322054Y-123943409D01*
X140322054Y-123943409D02*
X140369673Y-123848171D01*
X140369673Y-123848171D02*
X140464911Y-123800552D01*
X140464911Y-123800552D02*
X140655387Y-123800552D01*
X140655387Y-123800552D02*
X140750625Y-123848171D01*
X140750625Y-123848171D02*
X140798244Y-123943409D01*
X140798244Y-123943409D02*
X140798244Y-124038647D01*
X140798244Y-124038647D02*
X140322054Y-124133885D01*
X141179197Y-124419600D02*
X141274435Y-124467219D01*
X141274435Y-124467219D02*
X141464911Y-124467219D01*
X141464911Y-124467219D02*
X141560149Y-124419600D01*
X141560149Y-124419600D02*
X141607768Y-124324361D01*
X141607768Y-124324361D02*
X141607768Y-124276742D01*
X141607768Y-124276742D02*
X141560149Y-124181504D01*
X141560149Y-124181504D02*
X141464911Y-124133885D01*
X141464911Y-124133885D02*
X141322054Y-124133885D01*
X141322054Y-124133885D02*
X141226816Y-124086266D01*
X141226816Y-124086266D02*
X141179197Y-123991028D01*
X141179197Y-123991028D02*
X141179197Y-123943409D01*
X141179197Y-123943409D02*
X141226816Y-123848171D01*
X141226816Y-123848171D02*
X141322054Y-123800552D01*
X141322054Y-123800552D02*
X141464911Y-123800552D01*
X141464911Y-123800552D02*
X141560149Y-123848171D01*
X142036340Y-124467219D02*
X142036340Y-123800552D01*
X142036340Y-123467219D02*
X141988721Y-123514838D01*
X141988721Y-123514838D02*
X142036340Y-123562457D01*
X142036340Y-123562457D02*
X142083959Y-123514838D01*
X142083959Y-123514838D02*
X142036340Y-123467219D01*
X142036340Y-123467219D02*
X142036340Y-123562457D01*
X142941101Y-123800552D02*
X142941101Y-124610076D01*
X142941101Y-124610076D02*
X142893482Y-124705314D01*
X142893482Y-124705314D02*
X142845863Y-124752933D01*
X142845863Y-124752933D02*
X142750625Y-124800552D01*
X142750625Y-124800552D02*
X142607768Y-124800552D01*
X142607768Y-124800552D02*
X142512530Y-124752933D01*
X142941101Y-124419600D02*
X142845863Y-124467219D01*
X142845863Y-124467219D02*
X142655387Y-124467219D01*
X142655387Y-124467219D02*
X142560149Y-124419600D01*
X142560149Y-124419600D02*
X142512530Y-124371980D01*
X142512530Y-124371980D02*
X142464911Y-124276742D01*
X142464911Y-124276742D02*
X142464911Y-123991028D01*
X142464911Y-123991028D02*
X142512530Y-123895790D01*
X142512530Y-123895790D02*
X142560149Y-123848171D01*
X142560149Y-123848171D02*
X142655387Y-123800552D01*
X142655387Y-123800552D02*
X142845863Y-123800552D01*
X142845863Y-123800552D02*
X142941101Y-123848171D01*
X143417292Y-123800552D02*
X143417292Y-124467219D01*
X143417292Y-123895790D02*
X143464911Y-123848171D01*
X143464911Y-123848171D02*
X143560149Y-123800552D01*
X143560149Y-123800552D02*
X143703006Y-123800552D01*
X143703006Y-123800552D02*
X143798244Y-123848171D01*
X143798244Y-123848171D02*
X143845863Y-123943409D01*
X143845863Y-123943409D02*
X143845863Y-124467219D01*
X144703006Y-124419600D02*
X144607768Y-124467219D01*
X144607768Y-124467219D02*
X144417292Y-124467219D01*
X144417292Y-124467219D02*
X144322054Y-124419600D01*
X144322054Y-124419600D02*
X144274435Y-124324361D01*
X144274435Y-124324361D02*
X144274435Y-123943409D01*
X144274435Y-123943409D02*
X144322054Y-123848171D01*
X144322054Y-123848171D02*
X144417292Y-123800552D01*
X144417292Y-123800552D02*
X144607768Y-123800552D01*
X144607768Y-123800552D02*
X144703006Y-123848171D01*
X144703006Y-123848171D02*
X144750625Y-123943409D01*
X144750625Y-123943409D02*
X144750625Y-124038647D01*
X144750625Y-124038647D02*
X144274435Y-124133885D01*
X145607768Y-124467219D02*
X145607768Y-123467219D01*
X145607768Y-124419600D02*
X145512530Y-124467219D01*
X145512530Y-124467219D02*
X145322054Y-124467219D01*
X145322054Y-124467219D02*
X145226816Y-124419600D01*
X145226816Y-124419600D02*
X145179197Y-124371980D01*
X145179197Y-124371980D02*
X145131578Y-124276742D01*
X145131578Y-124276742D02*
X145131578Y-123991028D01*
X145131578Y-123991028D02*
X145179197Y-123895790D01*
X145179197Y-123895790D02*
X145226816Y-123848171D01*
X145226816Y-123848171D02*
X145322054Y-123800552D01*
X145322054Y-123800552D02*
X145512530Y-123800552D01*
X145512530Y-123800552D02*
X145607768Y-123848171D01*
X146845864Y-124467219D02*
X146845864Y-123467219D01*
X146845864Y-123848171D02*
X146941102Y-123800552D01*
X146941102Y-123800552D02*
X147131578Y-123800552D01*
X147131578Y-123800552D02*
X147226816Y-123848171D01*
X147226816Y-123848171D02*
X147274435Y-123895790D01*
X147274435Y-123895790D02*
X147322054Y-123991028D01*
X147322054Y-123991028D02*
X147322054Y-124276742D01*
X147322054Y-124276742D02*
X147274435Y-124371980D01*
X147274435Y-124371980D02*
X147226816Y-124419600D01*
X147226816Y-124419600D02*
X147131578Y-124467219D01*
X147131578Y-124467219D02*
X146941102Y-124467219D01*
X146941102Y-124467219D02*
X146845864Y-124419600D01*
X147655388Y-123800552D02*
X147893483Y-124467219D01*
X148131578Y-123800552D02*
X147893483Y-124467219D01*
X147893483Y-124467219D02*
X147798245Y-124705314D01*
X147798245Y-124705314D02*
X147750626Y-124752933D01*
X147750626Y-124752933D02*
X147655388Y-124800552D01*
X149179198Y-123467219D02*
X149845864Y-123467219D01*
X149845864Y-123467219D02*
X149179198Y-124467219D01*
X149179198Y-124467219D02*
X149845864Y-124467219D01*
X150226817Y-124467219D02*
X150226817Y-123467219D01*
X150655388Y-124467219D02*
X150655388Y-123943409D01*
X150655388Y-123943409D02*
X150607769Y-123848171D01*
X150607769Y-123848171D02*
X150512531Y-123800552D01*
X150512531Y-123800552D02*
X150369674Y-123800552D01*
X150369674Y-123800552D02*
X150274436Y-123848171D01*
X150274436Y-123848171D02*
X150226817Y-123895790D01*
X151274436Y-124467219D02*
X151179198Y-124419600D01*
X151179198Y-124419600D02*
X151131579Y-124371980D01*
X151131579Y-124371980D02*
X151083960Y-124276742D01*
X151083960Y-124276742D02*
X151083960Y-123991028D01*
X151083960Y-123991028D02*
X151131579Y-123895790D01*
X151131579Y-123895790D02*
X151179198Y-123848171D01*
X151179198Y-123848171D02*
X151274436Y-123800552D01*
X151274436Y-123800552D02*
X151417293Y-123800552D01*
X151417293Y-123800552D02*
X151512531Y-123848171D01*
X151512531Y-123848171D02*
X151560150Y-123895790D01*
X151560150Y-123895790D02*
X151607769Y-123991028D01*
X151607769Y-123991028D02*
X151607769Y-124276742D01*
X151607769Y-124276742D02*
X151560150Y-124371980D01*
X151560150Y-124371980D02*
X151512531Y-124419600D01*
X151512531Y-124419600D02*
X151417293Y-124467219D01*
X151417293Y-124467219D02*
X151274436Y-124467219D01*
X152464912Y-123800552D02*
X152464912Y-124467219D01*
X152036341Y-123800552D02*
X152036341Y-124324361D01*
X152036341Y-124324361D02*
X152083960Y-124419600D01*
X152083960Y-124419600D02*
X152179198Y-124467219D01*
X152179198Y-124467219D02*
X152322055Y-124467219D01*
X152322055Y-124467219D02*
X152417293Y-124419600D01*
X152417293Y-124419600D02*
X152464912Y-124371980D01*
X152845865Y-123800552D02*
X153083960Y-124467219D01*
X153322055Y-123800552D02*
X153083960Y-124467219D01*
X153083960Y-124467219D02*
X152988722Y-124705314D01*
X152988722Y-124705314D02*
X152941103Y-124752933D01*
X152941103Y-124752933D02*
X152845865Y-124800552D01*
X154131579Y-124419600D02*
X154036341Y-124467219D01*
X154036341Y-124467219D02*
X153845865Y-124467219D01*
X153845865Y-124467219D02*
X153750627Y-124419600D01*
X153750627Y-124419600D02*
X153703008Y-124371980D01*
X153703008Y-124371980D02*
X153655389Y-124276742D01*
X153655389Y-124276742D02*
X153655389Y-123991028D01*
X153655389Y-123991028D02*
X153703008Y-123895790D01*
X153703008Y-123895790D02*
X153750627Y-123848171D01*
X153750627Y-123848171D02*
X153845865Y-123800552D01*
X153845865Y-123800552D02*
X154036341Y-123800552D01*
X154036341Y-123800552D02*
X154131579Y-123848171D01*
X154560151Y-124467219D02*
X154560151Y-123467219D01*
X154988722Y-124467219D02*
X154988722Y-123943409D01*
X154988722Y-123943409D02*
X154941103Y-123848171D01*
X154941103Y-123848171D02*
X154845865Y-123800552D01*
X154845865Y-123800552D02*
X154703008Y-123800552D01*
X154703008Y-123800552D02*
X154607770Y-123848171D01*
X154607770Y-123848171D02*
X154560151Y-123895790D01*
X155845865Y-124419600D02*
X155750627Y-124467219D01*
X155750627Y-124467219D02*
X155560151Y-124467219D01*
X155560151Y-124467219D02*
X155464913Y-124419600D01*
X155464913Y-124419600D02*
X155417294Y-124324361D01*
X155417294Y-124324361D02*
X155417294Y-123943409D01*
X155417294Y-123943409D02*
X155464913Y-123848171D01*
X155464913Y-123848171D02*
X155560151Y-123800552D01*
X155560151Y-123800552D02*
X155750627Y-123800552D01*
X155750627Y-123800552D02*
X155845865Y-123848171D01*
X155845865Y-123848171D02*
X155893484Y-123943409D01*
X155893484Y-123943409D02*
X155893484Y-124038647D01*
X155893484Y-124038647D02*
X155417294Y-124133885D01*
X156322056Y-123800552D02*
X156322056Y-124467219D01*
X156322056Y-123895790D02*
X156369675Y-123848171D01*
X156369675Y-123848171D02*
X156464913Y-123800552D01*
X156464913Y-123800552D02*
X156607770Y-123800552D01*
X156607770Y-123800552D02*
X156703008Y-123848171D01*
X156703008Y-123848171D02*
X156750627Y-123943409D01*
X156750627Y-123943409D02*
X156750627Y-124467219D01*
X157655389Y-123800552D02*
X157655389Y-124610076D01*
X157655389Y-124610076D02*
X157607770Y-124705314D01*
X157607770Y-124705314D02*
X157560151Y-124752933D01*
X157560151Y-124752933D02*
X157464913Y-124800552D01*
X157464913Y-124800552D02*
X157322056Y-124800552D01*
X157322056Y-124800552D02*
X157226818Y-124752933D01*
X157655389Y-124419600D02*
X157560151Y-124467219D01*
X157560151Y-124467219D02*
X157369675Y-124467219D01*
X157369675Y-124467219D02*
X157274437Y-124419600D01*
X157274437Y-124419600D02*
X157226818Y-124371980D01*
X157226818Y-124371980D02*
X157179199Y-124276742D01*
X157179199Y-124276742D02*
X157179199Y-123991028D01*
X157179199Y-123991028D02*
X157226818Y-123895790D01*
X157226818Y-123895790D02*
X157274437Y-123848171D01*
X157274437Y-123848171D02*
X157369675Y-123800552D01*
X157369675Y-123800552D02*
X157560151Y-123800552D01*
X157560151Y-123800552D02*
X157655389Y-123848171D01*
X114988095Y-81452219D02*
X114988095Y-82261742D01*
X114988095Y-82261742D02*
X115035714Y-82356980D01*
X115035714Y-82356980D02*
X115083333Y-82404600D01*
X115083333Y-82404600D02*
X115178571Y-82452219D01*
X115178571Y-82452219D02*
X115369047Y-82452219D01*
X115369047Y-82452219D02*
X115464285Y-82404600D01*
X115464285Y-82404600D02*
X115511904Y-82356980D01*
X115511904Y-82356980D02*
X115559523Y-82261742D01*
X115559523Y-82261742D02*
X115559523Y-81452219D01*
X116559523Y-82452219D02*
X115988095Y-82452219D01*
X116273809Y-82452219D02*
X116273809Y-81452219D01*
X116273809Y-81452219D02*
X116178571Y-81595076D01*
X116178571Y-81595076D02*
X116083333Y-81690314D01*
X116083333Y-81690314D02*
X115988095Y-81737933D01*
X126404761Y-82452219D02*
X126071428Y-81976028D01*
X125833333Y-82452219D02*
X125833333Y-81452219D01*
X125833333Y-81452219D02*
X126214285Y-81452219D01*
X126214285Y-81452219D02*
X126309523Y-81499838D01*
X126309523Y-81499838D02*
X126357142Y-81547457D01*
X126357142Y-81547457D02*
X126404761Y-81642695D01*
X126404761Y-81642695D02*
X126404761Y-81785552D01*
X126404761Y-81785552D02*
X126357142Y-81880790D01*
X126357142Y-81880790D02*
X126309523Y-81928409D01*
X126309523Y-81928409D02*
X126214285Y-81976028D01*
X126214285Y-81976028D02*
X125833333Y-81976028D01*
X126690476Y-81452219D02*
X127023809Y-82452219D01*
X127023809Y-82452219D02*
X127357142Y-81452219D01*
X128214285Y-82452219D02*
X127642857Y-82452219D01*
X127928571Y-82452219D02*
X127928571Y-81452219D01*
X127928571Y-81452219D02*
X127833333Y-81595076D01*
X127833333Y-81595076D02*
X127738095Y-81690314D01*
X127738095Y-81690314D02*
X127642857Y-81737933D01*
X124358971Y-85810149D02*
X123882780Y-85810149D01*
X124882780Y-85476816D02*
X124358971Y-85810149D01*
X124358971Y-85810149D02*
X124882780Y-86143482D01*
X124882780Y-86476816D02*
X124073257Y-86476816D01*
X124073257Y-86476816D02*
X123978019Y-86524435D01*
X123978019Y-86524435D02*
X123930400Y-86572054D01*
X123930400Y-86572054D02*
X123882780Y-86667292D01*
X123882780Y-86667292D02*
X123882780Y-86857768D01*
X123882780Y-86857768D02*
X123930400Y-86953006D01*
X123930400Y-86953006D02*
X123978019Y-87000625D01*
X123978019Y-87000625D02*
X124073257Y-87048244D01*
X124073257Y-87048244D02*
X124882780Y-87048244D01*
X123882780Y-88000625D02*
X123882780Y-87524435D01*
X123882780Y-87524435D02*
X124882780Y-87524435D01*
X124168495Y-88286340D02*
X124168495Y-88762530D01*
X123882780Y-88191102D02*
X124882780Y-88524435D01*
X124882780Y-88524435D02*
X123882780Y-88857768D01*
X123882780Y-89191102D02*
X124882780Y-89191102D01*
X124882780Y-89191102D02*
X123882780Y-89762530D01*
X123882780Y-89762530D02*
X124882780Y-89762530D01*
X124835161Y-90762530D02*
X124882780Y-90667292D01*
X124882780Y-90667292D02*
X124882780Y-90524435D01*
X124882780Y-90524435D02*
X124835161Y-90381578D01*
X124835161Y-90381578D02*
X124739923Y-90286340D01*
X124739923Y-90286340D02*
X124644685Y-90238721D01*
X124644685Y-90238721D02*
X124454209Y-90191102D01*
X124454209Y-90191102D02*
X124311352Y-90191102D01*
X124311352Y-90191102D02*
X124120876Y-90238721D01*
X124120876Y-90238721D02*
X124025638Y-90286340D01*
X124025638Y-90286340D02*
X123930400Y-90381578D01*
X123930400Y-90381578D02*
X123882780Y-90524435D01*
X123882780Y-90524435D02*
X123882780Y-90619673D01*
X123882780Y-90619673D02*
X123930400Y-90762530D01*
X123930400Y-90762530D02*
X123978019Y-90810149D01*
X123978019Y-90810149D02*
X124311352Y-90810149D01*
X124311352Y-90810149D02*
X124311352Y-90619673D01*
X100761905Y-97202219D02*
X100761905Y-96202219D01*
X100761905Y-96202219D02*
X101000000Y-96202219D01*
X101000000Y-96202219D02*
X101142857Y-96249838D01*
X101142857Y-96249838D02*
X101238095Y-96345076D01*
X101238095Y-96345076D02*
X101285714Y-96440314D01*
X101285714Y-96440314D02*
X101333333Y-96630790D01*
X101333333Y-96630790D02*
X101333333Y-96773647D01*
X101333333Y-96773647D02*
X101285714Y-96964123D01*
X101285714Y-96964123D02*
X101238095Y-97059361D01*
X101238095Y-97059361D02*
X101142857Y-97154600D01*
X101142857Y-97154600D02*
X101000000Y-97202219D01*
X101000000Y-97202219D02*
X100761905Y-97202219D01*
X101666667Y-96202219D02*
X102285714Y-96202219D01*
X102285714Y-96202219D02*
X101952381Y-96583171D01*
X101952381Y-96583171D02*
X102095238Y-96583171D01*
X102095238Y-96583171D02*
X102190476Y-96630790D01*
X102190476Y-96630790D02*
X102238095Y-96678409D01*
X102238095Y-96678409D02*
X102285714Y-96773647D01*
X102285714Y-96773647D02*
X102285714Y-97011742D01*
X102285714Y-97011742D02*
X102238095Y-97106980D01*
X102238095Y-97106980D02*
X102190476Y-97154600D01*
X102190476Y-97154600D02*
X102095238Y-97202219D01*
X102095238Y-97202219D02*
X101809524Y-97202219D01*
X101809524Y-97202219D02*
X101714286Y-97154600D01*
X101714286Y-97154600D02*
X101666667Y-97106980D01*
X103338095Y-105252219D02*
X103909523Y-105252219D01*
X103623809Y-106252219D02*
X103623809Y-105252219D01*
X104242857Y-106252219D02*
X104242857Y-105252219D01*
X104242857Y-105252219D02*
X104623809Y-105252219D01*
X104623809Y-105252219D02*
X104719047Y-105299838D01*
X104719047Y-105299838D02*
X104766666Y-105347457D01*
X104766666Y-105347457D02*
X104814285Y-105442695D01*
X104814285Y-105442695D02*
X104814285Y-105585552D01*
X104814285Y-105585552D02*
X104766666Y-105680790D01*
X104766666Y-105680790D02*
X104719047Y-105728409D01*
X104719047Y-105728409D02*
X104623809Y-105776028D01*
X104623809Y-105776028D02*
X104242857Y-105776028D01*
X105766666Y-106252219D02*
X105195238Y-106252219D01*
X105480952Y-106252219D02*
X105480952Y-105252219D01*
X105480952Y-105252219D02*
X105385714Y-105395076D01*
X105385714Y-105395076D02*
X105290476Y-105490314D01*
X105290476Y-105490314D02*
X105195238Y-105537933D01*
X149964285Y-81928409D02*
X150107142Y-81976028D01*
X150107142Y-81976028D02*
X150154761Y-82023647D01*
X150154761Y-82023647D02*
X150202380Y-82118885D01*
X150202380Y-82118885D02*
X150202380Y-82261742D01*
X150202380Y-82261742D02*
X150154761Y-82356980D01*
X150154761Y-82356980D02*
X150107142Y-82404600D01*
X150107142Y-82404600D02*
X150011904Y-82452219D01*
X150011904Y-82452219D02*
X149630952Y-82452219D01*
X149630952Y-82452219D02*
X149630952Y-81452219D01*
X149630952Y-81452219D02*
X149964285Y-81452219D01*
X149964285Y-81452219D02*
X150059523Y-81499838D01*
X150059523Y-81499838D02*
X150107142Y-81547457D01*
X150107142Y-81547457D02*
X150154761Y-81642695D01*
X150154761Y-81642695D02*
X150154761Y-81737933D01*
X150154761Y-81737933D02*
X150107142Y-81833171D01*
X150107142Y-81833171D02*
X150059523Y-81880790D01*
X150059523Y-81880790D02*
X149964285Y-81928409D01*
X149964285Y-81928409D02*
X149630952Y-81928409D01*
X150488095Y-81452219D02*
X151059523Y-81452219D01*
X150773809Y-82452219D02*
X150773809Y-81452219D01*
X151916666Y-82452219D02*
X151345238Y-82452219D01*
X151630952Y-82452219D02*
X151630952Y-81452219D01*
X151630952Y-81452219D02*
X151535714Y-81595076D01*
X151535714Y-81595076D02*
X151440476Y-81690314D01*
X151440476Y-81690314D02*
X151345238Y-81737933D01*
X103338095Y-81352219D02*
X103909523Y-81352219D01*
X103623809Y-82352219D02*
X103623809Y-81352219D01*
X104242857Y-82352219D02*
X104242857Y-81352219D01*
X104242857Y-81352219D02*
X104623809Y-81352219D01*
X104623809Y-81352219D02*
X104719047Y-81399838D01*
X104719047Y-81399838D02*
X104766666Y-81447457D01*
X104766666Y-81447457D02*
X104814285Y-81542695D01*
X104814285Y-81542695D02*
X104814285Y-81685552D01*
X104814285Y-81685552D02*
X104766666Y-81780790D01*
X104766666Y-81780790D02*
X104719047Y-81828409D01*
X104719047Y-81828409D02*
X104623809Y-81876028D01*
X104623809Y-81876028D02*
X104242857Y-81876028D01*
X105195238Y-81447457D02*
X105242857Y-81399838D01*
X105242857Y-81399838D02*
X105338095Y-81352219D01*
X105338095Y-81352219D02*
X105576190Y-81352219D01*
X105576190Y-81352219D02*
X105671428Y-81399838D01*
X105671428Y-81399838D02*
X105719047Y-81447457D01*
X105719047Y-81447457D02*
X105766666Y-81542695D01*
X105766666Y-81542695D02*
X105766666Y-81637933D01*
X105766666Y-81637933D02*
X105719047Y-81780790D01*
X105719047Y-81780790D02*
X105147619Y-82352219D01*
X105147619Y-82352219D02*
X105766666Y-82352219D01*
X117681905Y-93952219D02*
X117681905Y-92952219D01*
X117681905Y-92952219D02*
X117920000Y-92952219D01*
X117920000Y-92952219D02*
X118062857Y-92999838D01*
X118062857Y-92999838D02*
X118158095Y-93095076D01*
X118158095Y-93095076D02*
X118205714Y-93190314D01*
X118205714Y-93190314D02*
X118253333Y-93380790D01*
X118253333Y-93380790D02*
X118253333Y-93523647D01*
X118253333Y-93523647D02*
X118205714Y-93714123D01*
X118205714Y-93714123D02*
X118158095Y-93809361D01*
X118158095Y-93809361D02*
X118062857Y-93904600D01*
X118062857Y-93904600D02*
X117920000Y-93952219D01*
X117920000Y-93952219D02*
X117681905Y-93952219D01*
X119205714Y-93952219D02*
X118634286Y-93952219D01*
X118920000Y-93952219D02*
X118920000Y-92952219D01*
X118920000Y-92952219D02*
X118824762Y-93095076D01*
X118824762Y-93095076D02*
X118729524Y-93190314D01*
X118729524Y-93190314D02*
X118634286Y-93237933D01*
X119666667Y-108154600D02*
X119809524Y-108202219D01*
X119809524Y-108202219D02*
X120047619Y-108202219D01*
X120047619Y-108202219D02*
X120142857Y-108154600D01*
X120142857Y-108154600D02*
X120190476Y-108106980D01*
X120190476Y-108106980D02*
X120238095Y-108011742D01*
X120238095Y-108011742D02*
X120238095Y-107916504D01*
X120238095Y-107916504D02*
X120190476Y-107821266D01*
X120190476Y-107821266D02*
X120142857Y-107773647D01*
X120142857Y-107773647D02*
X120047619Y-107726028D01*
X120047619Y-107726028D02*
X119857143Y-107678409D01*
X119857143Y-107678409D02*
X119761905Y-107630790D01*
X119761905Y-107630790D02*
X119714286Y-107583171D01*
X119714286Y-107583171D02*
X119666667Y-107487933D01*
X119666667Y-107487933D02*
X119666667Y-107392695D01*
X119666667Y-107392695D02*
X119714286Y-107297457D01*
X119714286Y-107297457D02*
X119761905Y-107249838D01*
X119761905Y-107249838D02*
X119857143Y-107202219D01*
X119857143Y-107202219D02*
X120095238Y-107202219D01*
X120095238Y-107202219D02*
X120238095Y-107249838D01*
X120571429Y-107202219D02*
X120809524Y-108202219D01*
X120809524Y-108202219D02*
X121000000Y-107487933D01*
X121000000Y-107487933D02*
X121190476Y-108202219D01*
X121190476Y-108202219D02*
X121428572Y-107202219D01*
X122333333Y-108202219D02*
X121761905Y-108202219D01*
X122047619Y-108202219D02*
X122047619Y-107202219D01*
X122047619Y-107202219D02*
X121952381Y-107345076D01*
X121952381Y-107345076D02*
X121857143Y-107440314D01*
X121857143Y-107440314D02*
X121761905Y-107487933D01*
X109547457Y-109345238D02*
X109499838Y-109440476D01*
X109499838Y-109440476D02*
X109404600Y-109535714D01*
X109404600Y-109535714D02*
X109261742Y-109678571D01*
X109261742Y-109678571D02*
X109214123Y-109773809D01*
X109214123Y-109773809D02*
X109214123Y-109869047D01*
X109452219Y-109821428D02*
X109404600Y-109916666D01*
X109404600Y-109916666D02*
X109309361Y-110011904D01*
X109309361Y-110011904D02*
X109118885Y-110059523D01*
X109118885Y-110059523D02*
X108785552Y-110059523D01*
X108785552Y-110059523D02*
X108595076Y-110011904D01*
X108595076Y-110011904D02*
X108499838Y-109916666D01*
X108499838Y-109916666D02*
X108452219Y-109821428D01*
X108452219Y-109821428D02*
X108452219Y-109630952D01*
X108452219Y-109630952D02*
X108499838Y-109535714D01*
X108499838Y-109535714D02*
X108595076Y-109440476D01*
X108595076Y-109440476D02*
X108785552Y-109392857D01*
X108785552Y-109392857D02*
X109118885Y-109392857D01*
X109118885Y-109392857D02*
X109309361Y-109440476D01*
X109309361Y-109440476D02*
X109404600Y-109535714D01*
X109404600Y-109535714D02*
X109452219Y-109630952D01*
X109452219Y-109630952D02*
X109452219Y-109821428D01*
X109452219Y-108440476D02*
X109452219Y-109011904D01*
X109452219Y-108726190D02*
X108452219Y-108726190D01*
X108452219Y-108726190D02*
X108595076Y-108821428D01*
X108595076Y-108821428D02*
X108690314Y-108916666D01*
X108690314Y-108916666D02*
X108737933Y-109011904D01*
X126404761Y-93952219D02*
X126071428Y-93476028D01*
X125833333Y-93952219D02*
X125833333Y-92952219D01*
X125833333Y-92952219D02*
X126214285Y-92952219D01*
X126214285Y-92952219D02*
X126309523Y-92999838D01*
X126309523Y-92999838D02*
X126357142Y-93047457D01*
X126357142Y-93047457D02*
X126404761Y-93142695D01*
X126404761Y-93142695D02*
X126404761Y-93285552D01*
X126404761Y-93285552D02*
X126357142Y-93380790D01*
X126357142Y-93380790D02*
X126309523Y-93428409D01*
X126309523Y-93428409D02*
X126214285Y-93476028D01*
X126214285Y-93476028D02*
X125833333Y-93476028D01*
X126690476Y-92952219D02*
X127023809Y-93952219D01*
X127023809Y-93952219D02*
X127357142Y-92952219D01*
X127642857Y-93047457D02*
X127690476Y-92999838D01*
X127690476Y-92999838D02*
X127785714Y-92952219D01*
X127785714Y-92952219D02*
X128023809Y-92952219D01*
X128023809Y-92952219D02*
X128119047Y-92999838D01*
X128119047Y-92999838D02*
X128166666Y-93047457D01*
X128166666Y-93047457D02*
X128214285Y-93142695D01*
X128214285Y-93142695D02*
X128214285Y-93237933D01*
X128214285Y-93237933D02*
X128166666Y-93380790D01*
X128166666Y-93380790D02*
X127595238Y-93952219D01*
X127595238Y-93952219D02*
X128214285Y-93952219D01*
X124358971Y-96810149D02*
X123882780Y-96810149D01*
X124882780Y-96476816D02*
X124358971Y-96810149D01*
X124358971Y-96810149D02*
X124882780Y-97143482D01*
X124882780Y-97476816D02*
X124073257Y-97476816D01*
X124073257Y-97476816D02*
X123978019Y-97524435D01*
X123978019Y-97524435D02*
X123930400Y-97572054D01*
X123930400Y-97572054D02*
X123882780Y-97667292D01*
X123882780Y-97667292D02*
X123882780Y-97857768D01*
X123882780Y-97857768D02*
X123930400Y-97953006D01*
X123930400Y-97953006D02*
X123978019Y-98000625D01*
X123978019Y-98000625D02*
X124073257Y-98048244D01*
X124073257Y-98048244D02*
X124882780Y-98048244D01*
X123882780Y-99000625D02*
X123882780Y-98524435D01*
X123882780Y-98524435D02*
X124882780Y-98524435D01*
X124168495Y-99286340D02*
X124168495Y-99762530D01*
X123882780Y-99191102D02*
X124882780Y-99524435D01*
X124882780Y-99524435D02*
X123882780Y-99857768D01*
X123882780Y-100191102D02*
X124882780Y-100191102D01*
X124882780Y-100191102D02*
X123882780Y-100762530D01*
X123882780Y-100762530D02*
X124882780Y-100762530D01*
X124835161Y-101762530D02*
X124882780Y-101667292D01*
X124882780Y-101667292D02*
X124882780Y-101524435D01*
X124882780Y-101524435D02*
X124835161Y-101381578D01*
X124835161Y-101381578D02*
X124739923Y-101286340D01*
X124739923Y-101286340D02*
X124644685Y-101238721D01*
X124644685Y-101238721D02*
X124454209Y-101191102D01*
X124454209Y-101191102D02*
X124311352Y-101191102D01*
X124311352Y-101191102D02*
X124120876Y-101238721D01*
X124120876Y-101238721D02*
X124025638Y-101286340D01*
X124025638Y-101286340D02*
X123930400Y-101381578D01*
X123930400Y-101381578D02*
X123882780Y-101524435D01*
X123882780Y-101524435D02*
X123882780Y-101619673D01*
X123882780Y-101619673D02*
X123930400Y-101762530D01*
X123930400Y-101762530D02*
X123978019Y-101810149D01*
X123978019Y-101810149D02*
X124311352Y-101810149D01*
X124311352Y-101810149D02*
X124311352Y-101619673D01*
X112761905Y-93952219D02*
X112761905Y-92952219D01*
X112761905Y-92952219D02*
X113000000Y-92952219D01*
X113000000Y-92952219D02*
X113142857Y-92999838D01*
X113142857Y-92999838D02*
X113238095Y-93095076D01*
X113238095Y-93095076D02*
X113285714Y-93190314D01*
X113285714Y-93190314D02*
X113333333Y-93380790D01*
X113333333Y-93380790D02*
X113333333Y-93523647D01*
X113333333Y-93523647D02*
X113285714Y-93714123D01*
X113285714Y-93714123D02*
X113238095Y-93809361D01*
X113238095Y-93809361D02*
X113142857Y-93904600D01*
X113142857Y-93904600D02*
X113000000Y-93952219D01*
X113000000Y-93952219D02*
X112761905Y-93952219D01*
X113714286Y-93047457D02*
X113761905Y-92999838D01*
X113761905Y-92999838D02*
X113857143Y-92952219D01*
X113857143Y-92952219D02*
X114095238Y-92952219D01*
X114095238Y-92952219D02*
X114190476Y-92999838D01*
X114190476Y-92999838D02*
X114238095Y-93047457D01*
X114238095Y-93047457D02*
X114285714Y-93142695D01*
X114285714Y-93142695D02*
X114285714Y-93237933D01*
X114285714Y-93237933D02*
X114238095Y-93380790D01*
X114238095Y-93380790D02*
X113666667Y-93952219D01*
X113666667Y-93952219D02*
X114285714Y-93952219D01*
X115533333Y-100956980D02*
X115485714Y-101004600D01*
X115485714Y-101004600D02*
X115342857Y-101052219D01*
X115342857Y-101052219D02*
X115247619Y-101052219D01*
X115247619Y-101052219D02*
X115104762Y-101004600D01*
X115104762Y-101004600D02*
X115009524Y-100909361D01*
X115009524Y-100909361D02*
X114961905Y-100814123D01*
X114961905Y-100814123D02*
X114914286Y-100623647D01*
X114914286Y-100623647D02*
X114914286Y-100480790D01*
X114914286Y-100480790D02*
X114961905Y-100290314D01*
X114961905Y-100290314D02*
X115009524Y-100195076D01*
X115009524Y-100195076D02*
X115104762Y-100099838D01*
X115104762Y-100099838D02*
X115247619Y-100052219D01*
X115247619Y-100052219D02*
X115342857Y-100052219D01*
X115342857Y-100052219D02*
X115485714Y-100099838D01*
X115485714Y-100099838D02*
X115533333Y-100147457D01*
X116485714Y-101052219D02*
X115914286Y-101052219D01*
X116200000Y-101052219D02*
X116200000Y-100052219D01*
X116200000Y-100052219D02*
X116104762Y-100195076D01*
X116104762Y-100195076D02*
X116009524Y-100290314D01*
X116009524Y-100290314D02*
X115914286Y-100337933D01*
D11*
G04 #@! TO.C,G\u002A\u002A\u002A*
G36*
X124905830Y-115803073D02*
G01*
X124991968Y-115840534D01*
X125055879Y-115907117D01*
X125068386Y-115927005D01*
X125096147Y-115987400D01*
X125110705Y-116056828D01*
X125111379Y-116142476D01*
X125097490Y-116251532D01*
X125068357Y-116391184D01*
X125023297Y-116568619D01*
X124999245Y-116656914D01*
X124969542Y-116777505D01*
X124935264Y-116939057D01*
X124898315Y-117132039D01*
X124860599Y-117346923D01*
X124856484Y-117371496D01*
X124847809Y-117453689D01*
X124841896Y-117572578D01*
X124838596Y-117718534D01*
X124837757Y-117881926D01*
X124839231Y-118053125D01*
X124842865Y-118222501D01*
X124848511Y-118380426D01*
X124856017Y-118517269D01*
X124865234Y-118623401D01*
X124876011Y-118689192D01*
X124877108Y-118692986D01*
X124891001Y-118733621D01*
X124901518Y-118741055D01*
X124913362Y-118709883D01*
X124931233Y-118634701D01*
X124932444Y-118629358D01*
X124942727Y-118591182D01*
X124958820Y-118531435D01*
X124990537Y-118438508D01*
X125006731Y-118400300D01*
X125049890Y-118322423D01*
X125106859Y-118235598D01*
X125167497Y-118153656D01*
X125221664Y-118090428D01*
X125254899Y-118061811D01*
X125287517Y-118025766D01*
X125276140Y-117976092D01*
X125219771Y-117908882D01*
X125214729Y-117904008D01*
X125154823Y-117822963D01*
X125146883Y-117775568D01*
X125265631Y-117775568D01*
X125283116Y-117814210D01*
X125320045Y-117855524D01*
X125368729Y-117914020D01*
X125409430Y-117986640D01*
X125409465Y-117986723D01*
X125442205Y-118041962D01*
X125476560Y-118068918D01*
X125480862Y-118069439D01*
X125521630Y-118088552D01*
X125556276Y-118125150D01*
X125595297Y-118180862D01*
X125706849Y-118125150D01*
X125777133Y-118092508D01*
X125829791Y-118072457D01*
X125844191Y-118069439D01*
X125880933Y-118059795D01*
X125945784Y-118035227D01*
X125987084Y-118017639D01*
X126107109Y-117980712D01*
X126260915Y-117956980D01*
X126434676Y-117946270D01*
X126614561Y-117948409D01*
X126786743Y-117963224D01*
X126937392Y-117990542D01*
X127052681Y-118030190D01*
X127054289Y-118030987D01*
X127119782Y-118057788D01*
X127171536Y-118069424D01*
X127172714Y-118069439D01*
X127218684Y-118083306D01*
X127282638Y-118117883D01*
X127302421Y-118131005D01*
X127359277Y-118168199D01*
X127391930Y-118177282D01*
X127417161Y-118160337D01*
X127428958Y-118146709D01*
X127483226Y-118097705D01*
X127524399Y-118071522D01*
X127568062Y-118037851D01*
X127581663Y-118010317D01*
X127597136Y-117972916D01*
X127636137Y-117915957D01*
X127656981Y-117890321D01*
X127714140Y-117812733D01*
X127731935Y-117760748D01*
X127709703Y-117736613D01*
X127702555Y-117735502D01*
X127559968Y-117739189D01*
X127482245Y-117753039D01*
X127395553Y-117771981D01*
X127412348Y-117688008D01*
X127416124Y-117614206D01*
X127400483Y-117569502D01*
X127358552Y-117547579D01*
X127292167Y-117536643D01*
X127222859Y-117537512D01*
X127172159Y-117551006D01*
X127161723Y-117560421D01*
X127125526Y-117586874D01*
X127089745Y-117573138D01*
X127072680Y-117526680D01*
X127072645Y-117524062D01*
X127055337Y-117444756D01*
X127005005Y-117402643D01*
X126924038Y-117398353D01*
X126814827Y-117432515D01*
X126782412Y-117447618D01*
X126726240Y-117474806D01*
X126700206Y-117477091D01*
X126687507Y-117449259D01*
X126679212Y-117415586D01*
X126639517Y-117335931D01*
X126574190Y-117277529D01*
X126500000Y-117255010D01*
X126438813Y-117271894D01*
X126379147Y-117312569D01*
X126340054Y-117362070D01*
X126334179Y-117385250D01*
X126320586Y-117443477D01*
X126289092Y-117473866D01*
X126253793Y-117466660D01*
X126208032Y-117441364D01*
X126139151Y-117413899D01*
X126126441Y-117409666D01*
X126032636Y-117395890D01*
X125965604Y-117420400D01*
X125930928Y-117480225D01*
X125927354Y-117515641D01*
X125913020Y-117568221D01*
X125880048Y-117588179D01*
X125843488Y-117567949D01*
X125838276Y-117560421D01*
X125801491Y-117541491D01*
X125737236Y-117535524D01*
X125667041Y-117541700D01*
X125612436Y-117559200D01*
X125599517Y-117569502D01*
X125583258Y-117619921D01*
X125586856Y-117684031D01*
X125590164Y-117740725D01*
X125566240Y-117764020D01*
X125508866Y-117756513D01*
X125456403Y-117738535D01*
X125387693Y-117725035D01*
X125321710Y-117731074D01*
X125276066Y-117753236D01*
X125265631Y-117775568D01*
X125146883Y-117775568D01*
X125142029Y-117746595D01*
X125172597Y-117681576D01*
X125242776Y-117634574D01*
X125348816Y-117612262D01*
X125379286Y-117611322D01*
X125452233Y-117601032D01*
X125486211Y-117567932D01*
X125486631Y-117566783D01*
X125526597Y-117491732D01*
X125587738Y-117449705D01*
X125681769Y-117433850D01*
X125714966Y-117433166D01*
X125800337Y-117428936D01*
X125842816Y-117414965D01*
X125851002Y-117397917D01*
X125873669Y-117348121D01*
X125931578Y-117310057D01*
X126009591Y-117288194D01*
X126092569Y-117286998D01*
X126158660Y-117307114D01*
X126195213Y-117317356D01*
X126233442Y-117300584D01*
X126287161Y-117250286D01*
X126293609Y-117243487D01*
X126354354Y-117186682D01*
X126410616Y-117160274D01*
X126487536Y-117153266D01*
X126500000Y-117153206D01*
X126581322Y-117158545D01*
X126638807Y-117181894D01*
X126697597Y-117234249D01*
X126706390Y-117243487D01*
X126762312Y-117297330D01*
X126801424Y-117317024D01*
X126837540Y-117309082D01*
X126841339Y-117307114D01*
X126915921Y-117286021D01*
X126999088Y-117289595D01*
X127075702Y-117313368D01*
X127130625Y-117352872D01*
X127148998Y-117397917D01*
X127165323Y-117420038D01*
X127219238Y-117431045D01*
X127285033Y-117433166D01*
X127390167Y-117443024D01*
X127459189Y-117477167D01*
X127503813Y-117542448D01*
X127513368Y-117566783D01*
X127546475Y-117600497D01*
X127618350Y-117611316D01*
X127620714Y-117611322D01*
X127734828Y-117626694D01*
X127813984Y-117668360D01*
X127854432Y-117729651D01*
X127852421Y-117803896D01*
X127804201Y-117884425D01*
X127785270Y-117904008D01*
X127725911Y-117973960D01*
X127711424Y-118026091D01*
X127742347Y-118058398D01*
X127743838Y-118058985D01*
X127783321Y-118090751D01*
X127837604Y-118155076D01*
X127898287Y-118239212D01*
X127956971Y-118330409D01*
X128005256Y-118415919D01*
X128034742Y-118482993D01*
X128039921Y-118508374D01*
X128046764Y-118551733D01*
X128063630Y-118620421D01*
X128069750Y-118642084D01*
X128099437Y-118743887D01*
X128132997Y-118603908D01*
X128144499Y-118528796D01*
X128153739Y-118415505D01*
X128160643Y-118274337D01*
X128165136Y-118115593D01*
X128167144Y-117949575D01*
X128166593Y-117786584D01*
X128163409Y-117636921D01*
X128157518Y-117510888D01*
X128148844Y-117418786D01*
X128141806Y-117382432D01*
X128123824Y-117297727D01*
X128116345Y-117217799D01*
X128116346Y-117217001D01*
X128109151Y-117141856D01*
X128087157Y-117021280D01*
X128050193Y-116854493D01*
X127998085Y-116640713D01*
X127936765Y-116402405D01*
X127898275Y-116210716D01*
X127893824Y-116056569D01*
X127924140Y-115939013D01*
X127989952Y-115857100D01*
X128091987Y-115809881D01*
X128230975Y-115796408D01*
X128389620Y-115812580D01*
X128488256Y-115833941D01*
X128572302Y-115860502D01*
X128624153Y-115886658D01*
X128625332Y-115887637D01*
X128672575Y-115920741D01*
X128701539Y-115931563D01*
X128727641Y-115948754D01*
X128781846Y-115995879D01*
X128856887Y-116066269D01*
X128945495Y-116153252D01*
X128970639Y-116178552D01*
X129185308Y-116413901D01*
X129396622Y-116679362D01*
X129589698Y-116955464D01*
X129696234Y-117127755D01*
X129748616Y-117214781D01*
X129792748Y-117283150D01*
X129821595Y-117322158D01*
X129827227Y-117327121D01*
X129843738Y-117356268D01*
X129846793Y-117382883D01*
X129856929Y-117429324D01*
X129868156Y-117443365D01*
X129889758Y-117472788D01*
X129927366Y-117540157D01*
X129976736Y-117636719D01*
X130033625Y-117753718D01*
X130093791Y-117882400D01*
X130152991Y-118014010D01*
X130206983Y-118139793D01*
X130214741Y-118158517D01*
X130260166Y-118268358D01*
X130302436Y-118369849D01*
X130335015Y-118447331D01*
X130345189Y-118471154D01*
X130369441Y-118534427D01*
X130381084Y-118578725D01*
X130381262Y-118581836D01*
X130390598Y-118622266D01*
X130413292Y-118683932D01*
X130415491Y-118689139D01*
X130441496Y-118758289D01*
X130472591Y-118852341D01*
X130493617Y-118922044D01*
X130522459Y-119021015D01*
X130550401Y-119114708D01*
X130565470Y-119163827D01*
X130605288Y-119312299D01*
X130641706Y-119495421D01*
X130660259Y-119609218D01*
X130679120Y-119727171D01*
X130700765Y-119855631D01*
X130711143Y-119914629D01*
X130723870Y-120019190D01*
X130732954Y-120163266D01*
X130738483Y-120335791D01*
X130740546Y-120525693D01*
X130739234Y-120721905D01*
X130734634Y-120913357D01*
X130726836Y-121088981D01*
X130715929Y-121237708D01*
X130702002Y-121348468D01*
X130699483Y-121362012D01*
X130655883Y-121577745D01*
X130619139Y-121750951D01*
X130589722Y-121879541D01*
X130568101Y-121961425D01*
X130558328Y-121988877D01*
X130540696Y-122033293D01*
X130514534Y-122107341D01*
X130494650Y-122167034D01*
X130413855Y-122383545D01*
X130321707Y-122574434D01*
X130223254Y-122730042D01*
X130161891Y-122803899D01*
X130095324Y-122871455D01*
X130045687Y-122909416D01*
X129996130Y-122926265D01*
X129929802Y-122930485D01*
X129910278Y-122930561D01*
X129832645Y-122928762D01*
X129789720Y-122916834D01*
X129765310Y-122884978D01*
X129745727Y-122830990D01*
X129727514Y-122738284D01*
X129722750Y-122626307D01*
X129724812Y-122587354D01*
X129736759Y-122443288D01*
X129641400Y-122405133D01*
X129558581Y-122353738D01*
X129510198Y-122276091D01*
X129493471Y-122165807D01*
X129498033Y-122075763D01*
X129504393Y-121994022D01*
X129499478Y-121948114D01*
X129479652Y-121923544D01*
X129456960Y-121912116D01*
X129382654Y-121875950D01*
X129338654Y-121835538D01*
X129318676Y-121777811D01*
X129316436Y-121689698D01*
X129320185Y-121627671D01*
X129329187Y-121525982D01*
X129339855Y-121436699D01*
X129349910Y-121378821D01*
X129350104Y-121378056D01*
X129352405Y-121324386D01*
X129316547Y-121292092D01*
X129309907Y-121288978D01*
X129249014Y-121238119D01*
X129198153Y-121153943D01*
X129166142Y-121054019D01*
X129159619Y-120989528D01*
X129156083Y-120928463D01*
X129136947Y-120893979D01*
X129089421Y-120872987D01*
X129032364Y-120859300D01*
X128976735Y-120822318D01*
X128927681Y-120741351D01*
X128888367Y-120623201D01*
X128865161Y-120500000D01*
X128851409Y-120418753D01*
X128835934Y-120355652D01*
X128828747Y-120337010D01*
X128819943Y-120322046D01*
X128810169Y-120318244D01*
X128794671Y-120331726D01*
X128768695Y-120368615D01*
X128727487Y-120435032D01*
X128666291Y-120537099D01*
X128642866Y-120576352D01*
X128577887Y-120674260D01*
X128503121Y-120771117D01*
X128449298Y-120830861D01*
X128393289Y-120889425D01*
X128355732Y-120934238D01*
X128346027Y-120951290D01*
X128329573Y-120979393D01*
X128288759Y-121029581D01*
X128262475Y-121058720D01*
X128206751Y-121119141D01*
X128164807Y-121167158D01*
X128122634Y-121219614D01*
X128066225Y-121293348D01*
X128055079Y-121308066D01*
X127999757Y-121370442D01*
X127947451Y-121398335D01*
X127896779Y-121403507D01*
X127838821Y-121407747D01*
X127815249Y-121430915D01*
X127810723Y-121488683D01*
X127810721Y-121491428D01*
X127787277Y-121583149D01*
X127724315Y-121666854D01*
X127632886Y-121728734D01*
X127614653Y-121736340D01*
X127560390Y-121776888D01*
X127523225Y-121835498D01*
X127478068Y-121902089D01*
X127423725Y-121940143D01*
X127370806Y-121976551D01*
X127352605Y-122015914D01*
X127340176Y-122063343D01*
X127327154Y-122077956D01*
X127302866Y-122116248D01*
X127314615Y-122180743D01*
X127363285Y-122273766D01*
X127446882Y-122393826D01*
X127522290Y-122490449D01*
X127598204Y-122581574D01*
X127661912Y-122652134D01*
X127680182Y-122670332D01*
X127750088Y-122755355D01*
X127771298Y-122835682D01*
X127743478Y-122916367D01*
X127666295Y-123002461D01*
X127657710Y-123009963D01*
X127547540Y-123086112D01*
X127406477Y-123156825D01*
X127254405Y-123213120D01*
X127148998Y-123239733D01*
X127080651Y-123252944D01*
X126981972Y-123272064D01*
X126872597Y-123293288D01*
X126856312Y-123296451D01*
X126745750Y-123315676D01*
X126641377Y-123330008D01*
X126563520Y-123336712D01*
X126555728Y-123336887D01*
X126492847Y-123340092D01*
X126467051Y-123358092D01*
X126464522Y-123405830D01*
X126466650Y-123433216D01*
X126473666Y-123489621D01*
X126491762Y-123519420D01*
X126534722Y-123533549D01*
X126603301Y-123541630D01*
X126695364Y-123559054D01*
X126778388Y-123587995D01*
X126804788Y-123602261D01*
X126857800Y-123631767D01*
X126889192Y-123630534D01*
X126905788Y-123614739D01*
X126957131Y-123571440D01*
X127035547Y-123525433D01*
X127120490Y-123486957D01*
X127191415Y-123466250D01*
X127206214Y-123465030D01*
X127264636Y-123475747D01*
X127293015Y-123491973D01*
X127329792Y-123501064D01*
X127392594Y-123474791D01*
X127406272Y-123466760D01*
X127487914Y-123419245D01*
X127568737Y-123374821D01*
X127573250Y-123372453D01*
X127625994Y-123339187D01*
X127640468Y-123306615D01*
X127631106Y-123270311D01*
X127626277Y-123199737D01*
X127734368Y-123199737D01*
X127755618Y-123235851D01*
X127797285Y-123261152D01*
X127855053Y-123307597D01*
X127877147Y-123355963D01*
X127897475Y-123418604D01*
X127917103Y-123456200D01*
X127941234Y-123501094D01*
X127962589Y-123558004D01*
X127984407Y-123622744D01*
X128016269Y-123711084D01*
X128038544Y-123770441D01*
X128074736Y-123894942D01*
X128077648Y-123997430D01*
X128076390Y-124005861D01*
X128069051Y-124068001D01*
X128079904Y-124094925D01*
X128116676Y-124101230D01*
X128126905Y-124101302D01*
X128189051Y-124089888D01*
X128269942Y-124061019D01*
X128306600Y-124044038D01*
X128384782Y-123990803D01*
X128421115Y-123934788D01*
X128413314Y-123882733D01*
X128373008Y-123848060D01*
X128340609Y-123812173D01*
X128300424Y-123741402D01*
X128260055Y-123649382D01*
X128255424Y-123637195D01*
X128216911Y-123536691D01*
X128180244Y-123445405D01*
X128152883Y-123381873D01*
X128151253Y-123378404D01*
X128126509Y-123318322D01*
X128115978Y-123276858D01*
X128115975Y-123276601D01*
X128104877Y-123235084D01*
X128081729Y-123183374D01*
X128048938Y-123107402D01*
X128030499Y-123049756D01*
X128014403Y-123011519D01*
X128125755Y-123011519D01*
X128150982Y-123051550D01*
X128201937Y-123071994D01*
X128254089Y-123103894D01*
X128301535Y-123176285D01*
X128317640Y-123211282D01*
X128352292Y-123284149D01*
X128383089Y-123336063D01*
X128396175Y-123350552D01*
X128419494Y-123387315D01*
X128421543Y-123403029D01*
X128432100Y-123444939D01*
X128459349Y-123514606D01*
X128486151Y-123573321D01*
X128524954Y-123670710D01*
X128538404Y-123745934D01*
X128536275Y-123765248D01*
X128530263Y-123833899D01*
X128556194Y-123866523D01*
X128615506Y-123863364D01*
X128709634Y-123824672D01*
X128752025Y-123802254D01*
X128828045Y-123755422D01*
X128866945Y-123715602D01*
X128879129Y-123671575D01*
X128879292Y-123665033D01*
X128865867Y-123609143D01*
X128816284Y-123581899D01*
X128815132Y-123581607D01*
X128754069Y-123543580D01*
X128724788Y-123497509D01*
X128703805Y-123448320D01*
X128665978Y-123365146D01*
X128616743Y-123259768D01*
X128603715Y-123232429D01*
X128726954Y-123232429D01*
X128742086Y-123287082D01*
X128779549Y-123360126D01*
X128827441Y-123432276D01*
X128873860Y-123484252D01*
X128888938Y-123494862D01*
X128941465Y-123532966D01*
X128965519Y-123561183D01*
X128985640Y-123578563D01*
X129015939Y-123564465D01*
X129063599Y-123517848D01*
X129109409Y-123465852D01*
X129123487Y-123433626D01*
X129109772Y-123404629D01*
X129094686Y-123387234D01*
X129052650Y-123349922D01*
X129025986Y-123337775D01*
X128990413Y-123324179D01*
X128936656Y-123291190D01*
X128932937Y-123288566D01*
X128865270Y-123249007D01*
X128799134Y-123223718D01*
X128748417Y-123216484D01*
X128727006Y-123231089D01*
X128726954Y-123232429D01*
X128603715Y-123232429D01*
X128563609Y-123148270D01*
X128509860Y-123035550D01*
X128503302Y-123021531D01*
X128651591Y-123021531D01*
X128662865Y-123065474D01*
X128711001Y-123083200D01*
X128715242Y-123083266D01*
X128781012Y-123097866D01*
X128875973Y-123137776D01*
X128989052Y-123197162D01*
X129109179Y-123270192D01*
X129225281Y-123351030D01*
X129229609Y-123354287D01*
X129289833Y-123413332D01*
X129311623Y-123477280D01*
X129312324Y-123494744D01*
X129307030Y-123548236D01*
X129284859Y-123563341D01*
X129261330Y-123559435D01*
X129203881Y-123564393D01*
X129157461Y-123588914D01*
X129122210Y-123626357D01*
X129122408Y-123667162D01*
X129135649Y-123699901D01*
X129185385Y-123763929D01*
X129250195Y-123783212D01*
X129321803Y-123758238D01*
X129391934Y-123689492D01*
X129395452Y-123684634D01*
X129436426Y-123585261D01*
X129445017Y-123447410D01*
X129421209Y-123270860D01*
X129364983Y-123055390D01*
X129335964Y-122965769D01*
X129318693Y-122888738D01*
X129306347Y-122784321D01*
X129301763Y-122682415D01*
X129300162Y-122586931D01*
X129294236Y-122531566D01*
X129280850Y-122505551D01*
X129256868Y-122498115D01*
X129248034Y-122497895D01*
X129196923Y-122515504D01*
X129137746Y-122559365D01*
X129083475Y-122616033D01*
X129047083Y-122672064D01*
X129040924Y-122712551D01*
X129076306Y-122746556D01*
X129102730Y-122752405D01*
X129137116Y-122768624D01*
X129168110Y-122822418D01*
X129190330Y-122886022D01*
X129211237Y-122961358D01*
X129221726Y-123014390D01*
X129221077Y-123030136D01*
X129191496Y-123026960D01*
X129130593Y-122999380D01*
X129048773Y-122952142D01*
X129045090Y-122949834D01*
X129001309Y-122922425D01*
X128983571Y-122911460D01*
X128973337Y-122884287D01*
X128968139Y-122847833D01*
X128946103Y-122804393D01*
X128896786Y-122794118D01*
X128830099Y-122815419D01*
X128755950Y-122866706D01*
X128736419Y-122885008D01*
X128676376Y-122958874D01*
X128651591Y-123021531D01*
X128503302Y-123021531D01*
X128463546Y-122936545D01*
X128429605Y-122861939D01*
X128412976Y-122822416D01*
X128412969Y-122822394D01*
X128382595Y-122783765D01*
X128331693Y-122788578D01*
X128258640Y-122837286D01*
X128213582Y-122877971D01*
X128146581Y-122954326D01*
X128125755Y-123011519D01*
X128014403Y-123011519D01*
X128009521Y-122999923D01*
X127986719Y-122981463D01*
X127926603Y-122999238D01*
X127856489Y-123043932D01*
X127791352Y-123102592D01*
X127746163Y-123162269D01*
X127734368Y-123199737D01*
X127626277Y-123199737D01*
X127625512Y-123188552D01*
X127660583Y-123095989D01*
X127720724Y-123016514D01*
X127788342Y-122960951D01*
X127875080Y-122908737D01*
X127961898Y-122869835D01*
X128029757Y-122854215D01*
X128030777Y-122854208D01*
X128083199Y-122835626D01*
X128139765Y-122790007D01*
X128147692Y-122781077D01*
X128203618Y-122730051D01*
X128271995Y-122688113D01*
X128339240Y-122660921D01*
X128391770Y-122654135D01*
X128415091Y-122669689D01*
X128446424Y-122698798D01*
X128461840Y-122701503D01*
X128492748Y-122722417D01*
X128498705Y-122746042D01*
X128514258Y-122801939D01*
X128534934Y-122837321D01*
X128560816Y-122865622D01*
X128587356Y-122866541D01*
X128632055Y-122838361D01*
X128648654Y-122826172D01*
X128699079Y-122784911D01*
X128725711Y-122755357D01*
X128726954Y-122751454D01*
X128748284Y-122732718D01*
X128802382Y-122704367D01*
X128836708Y-122689364D01*
X128924259Y-122638984D01*
X128975616Y-122578714D01*
X128976231Y-122577362D01*
X129014502Y-122526703D01*
X129079732Y-122469168D01*
X129155489Y-122416510D01*
X129225342Y-122380483D01*
X129264091Y-122371450D01*
X129310936Y-122386577D01*
X129350501Y-122410798D01*
X129378177Y-122439443D01*
X129392531Y-122481202D01*
X129396521Y-122550049D01*
X129394806Y-122619958D01*
X129397137Y-122734922D01*
X129410519Y-122846111D01*
X129424383Y-122905110D01*
X129482599Y-123113912D01*
X129521090Y-123306063D01*
X129539006Y-123474112D01*
X129535496Y-123610608D01*
X129514725Y-123697001D01*
X129453729Y-123791981D01*
X129366726Y-123862131D01*
X129268918Y-123896156D01*
X129244573Y-123897695D01*
X129174062Y-123886925D01*
X129113542Y-123847276D01*
X129077970Y-123810377D01*
X129000665Y-123723060D01*
X128941543Y-123793322D01*
X128883284Y-123846098D01*
X128800246Y-123902330D01*
X128708961Y-123952766D01*
X128625960Y-123988153D01*
X128573164Y-123999499D01*
X128522770Y-124016344D01*
X128505523Y-124034183D01*
X128455605Y-124082832D01*
X128371580Y-124130816D01*
X128269861Y-124171242D01*
X128166860Y-124197215D01*
X128103368Y-124203106D01*
X128017993Y-124208316D01*
X127967955Y-124227014D01*
X127944827Y-124252494D01*
X127902017Y-124292335D01*
X127829625Y-124336248D01*
X127746621Y-124375042D01*
X127671973Y-124399524D01*
X127633973Y-124403120D01*
X127586529Y-124406681D01*
X127513332Y-124421647D01*
X127480347Y-124430373D01*
X127368684Y-124449481D01*
X127258757Y-124447223D01*
X127168518Y-124424944D01*
X127133414Y-124404341D01*
X127084351Y-124343812D01*
X127036396Y-124252373D01*
X126998773Y-124149363D01*
X126985855Y-124094940D01*
X126969056Y-124033731D01*
X126949019Y-124001139D01*
X126944237Y-123999499D01*
X126925839Y-124020905D01*
X126920120Y-124072782D01*
X126925911Y-124136621D01*
X126942045Y-124193909D01*
X126958116Y-124219467D01*
X126988018Y-124279533D01*
X126995490Y-124361292D01*
X126981141Y-124441048D01*
X126951139Y-124490589D01*
X126906818Y-124507345D01*
X126822376Y-124520114D01*
X126708436Y-124528898D01*
X126575622Y-124533696D01*
X126434558Y-124534511D01*
X126295867Y-124531344D01*
X126170174Y-124524196D01*
X126068103Y-124513069D01*
X126000277Y-124497963D01*
X125984619Y-124490474D01*
X125941906Y-124449560D01*
X125927354Y-124416334D01*
X125909788Y-124386774D01*
X125874059Y-124384453D01*
X125845624Y-124410376D01*
X125844630Y-124413076D01*
X125821301Y-124429321D01*
X125760943Y-124438413D01*
X125657952Y-124440978D01*
X125600640Y-124440259D01*
X125474181Y-124434895D01*
X125387108Y-124421561D01*
X125328006Y-124395473D01*
X125285460Y-124351843D01*
X125252158Y-124294164D01*
X125226528Y-124261225D01*
X125183377Y-124248168D01*
X125109360Y-124249624D01*
X125009823Y-124248210D01*
X124906451Y-124233236D01*
X124815783Y-124208427D01*
X124754361Y-124177508D01*
X124743887Y-124167319D01*
X124703833Y-124143005D01*
X124636148Y-124122712D01*
X124616633Y-124119134D01*
X124509079Y-124079739D01*
X124421503Y-124005635D01*
X124364929Y-123909030D01*
X124349399Y-123823218D01*
X124345764Y-123786554D01*
X124427575Y-123786554D01*
X124434947Y-123828764D01*
X124458631Y-123878419D01*
X124462527Y-123885673D01*
X124517128Y-123956867D01*
X124596071Y-123997092D01*
X124611721Y-124001603D01*
X124688855Y-124016106D01*
X124752649Y-124017750D01*
X124763171Y-124015860D01*
X124809005Y-124020921D01*
X124825698Y-124050808D01*
X124860973Y-124096160D01*
X124928858Y-124129726D01*
X125011758Y-124148095D01*
X125092074Y-124147856D01*
X125139452Y-124130320D01*
X125324156Y-124130320D01*
X125334126Y-124208950D01*
X125354884Y-124272418D01*
X125374403Y-124296491D01*
X125459167Y-124329461D01*
X125563907Y-124343384D01*
X125671797Y-124339027D01*
X125766014Y-124317153D01*
X125829732Y-124278529D01*
X125832236Y-124275673D01*
X125889587Y-124177984D01*
X125897720Y-124078957D01*
X125856267Y-123976572D01*
X125832538Y-123948597D01*
X125982275Y-123948597D01*
X125986274Y-123984728D01*
X125995112Y-123980411D01*
X125998473Y-123928304D01*
X125995112Y-123916783D01*
X125985822Y-123913586D01*
X125982275Y-123948597D01*
X125832538Y-123948597D01*
X125764864Y-123868812D01*
X125757032Y-123861431D01*
X125686987Y-123789228D01*
X125655933Y-123737796D01*
X125656102Y-123708105D01*
X125684429Y-123675081D01*
X125723751Y-123689826D01*
X125771607Y-123751022D01*
X125787374Y-123778452D01*
X125837202Y-123849368D01*
X125880685Y-123873969D01*
X125912412Y-123852630D01*
X125926974Y-123785725D01*
X125927354Y-123768767D01*
X125921142Y-123673483D01*
X125895998Y-123613455D01*
X125842160Y-123578775D01*
X125749867Y-123559531D01*
X125717510Y-123555742D01*
X125625861Y-123549280D01*
X125549970Y-123549865D01*
X125512228Y-123555783D01*
X125457569Y-123600452D01*
X125417588Y-123675895D01*
X125400839Y-123762352D01*
X125404199Y-123805346D01*
X125426732Y-123870069D01*
X125463529Y-123935174D01*
X125503493Y-123983776D01*
X125531798Y-123999499D01*
X125563151Y-124018264D01*
X125606569Y-124062895D01*
X125647460Y-124115894D01*
X125671233Y-124159760D01*
X125672845Y-124168646D01*
X125650048Y-124194934D01*
X125597687Y-124203106D01*
X125543543Y-124194261D01*
X125505622Y-124158977D01*
X125478121Y-124107665D01*
X125434217Y-124026895D01*
X125396553Y-123991790D01*
X125359770Y-123998454D01*
X125345122Y-124010915D01*
X125327109Y-124057362D01*
X125324156Y-124130320D01*
X125139452Y-124130320D01*
X125152210Y-124125598D01*
X125162172Y-124116022D01*
X125178977Y-124074990D01*
X125159806Y-124027968D01*
X125144756Y-123991750D01*
X125144266Y-123945731D01*
X125160418Y-123879928D01*
X125195295Y-123784360D01*
X125226807Y-123706813D01*
X125269651Y-123603071D01*
X125295429Y-123536244D01*
X125306310Y-123496119D01*
X125304461Y-123472482D01*
X125292051Y-123455122D01*
X125282312Y-123445352D01*
X125230224Y-123418114D01*
X125151182Y-123400468D01*
X125067501Y-123394994D01*
X125001497Y-123404274D01*
X124987118Y-123411202D01*
X124963991Y-123440673D01*
X124974156Y-123487712D01*
X124978811Y-123498314D01*
X124989003Y-123567879D01*
X124972513Y-123653499D01*
X124936297Y-123740782D01*
X124887312Y-123815335D01*
X124832515Y-123862767D01*
X124798074Y-123872244D01*
X124750495Y-123850595D01*
X124722327Y-123793967D01*
X124714578Y-123714840D01*
X124722155Y-123665460D01*
X124839579Y-123665460D01*
X124858223Y-123653261D01*
X124861575Y-123649973D01*
X124881678Y-123616604D01*
X124878952Y-123604336D01*
X124860020Y-123611974D01*
X124847327Y-123635726D01*
X124839579Y-123665460D01*
X124722155Y-123665460D01*
X124728256Y-123625695D01*
X124764371Y-123539011D01*
X124770358Y-123529213D01*
X124798048Y-123472516D01*
X124827354Y-123393505D01*
X124835395Y-123367588D01*
X124851607Y-123292603D01*
X124841977Y-123245963D01*
X124799370Y-123221197D01*
X124716653Y-123211831D01*
X124662674Y-123210910D01*
X124567900Y-123217223D01*
X124518421Y-123239266D01*
X124510092Y-123280649D01*
X124528854Y-123327477D01*
X124548269Y-123395787D01*
X124534812Y-123445942D01*
X124512490Y-123501421D01*
X124483010Y-123584479D01*
X124461413Y-123650137D01*
X124436426Y-123733207D01*
X124427575Y-123786554D01*
X124345764Y-123786554D01*
X124341920Y-123747782D01*
X124322471Y-123707384D01*
X124295531Y-123708394D01*
X124280973Y-123725902D01*
X124243912Y-123758190D01*
X124182800Y-123792849D01*
X124122178Y-123817087D01*
X124097863Y-123821342D01*
X124069718Y-123806691D01*
X124012702Y-123767758D01*
X123937678Y-123712078D01*
X123914541Y-123694214D01*
X123830692Y-123629183D01*
X123756726Y-123572291D01*
X123706385Y-123534100D01*
X123700401Y-123529664D01*
X123623705Y-123471026D01*
X123543598Y-123406229D01*
X123471821Y-123345190D01*
X123420121Y-123297826D01*
X123401742Y-123277486D01*
X123389706Y-123235082D01*
X123383073Y-123165569D01*
X123383060Y-123164957D01*
X123466607Y-123164957D01*
X123490315Y-123217345D01*
X123517621Y-123244750D01*
X123630369Y-123337577D01*
X123709737Y-123401738D01*
X123761179Y-123441478D01*
X123790147Y-123461042D01*
X123800492Y-123465030D01*
X123828925Y-123479753D01*
X123859469Y-123503414D01*
X123964407Y-123592683D01*
X124039610Y-123651506D01*
X124093358Y-123683289D01*
X124133927Y-123691439D01*
X124169597Y-123679362D01*
X124208646Y-123650466D01*
X124211345Y-123648215D01*
X124277257Y-123581152D01*
X124317737Y-123516526D01*
X124331840Y-123462707D01*
X124318619Y-123428066D01*
X124277127Y-123420971D01*
X124235495Y-123434663D01*
X124164130Y-123457784D01*
X124110516Y-123465030D01*
X124054075Y-123448748D01*
X123981399Y-123408421D01*
X123911396Y-123356829D01*
X123862974Y-123306750D01*
X123854701Y-123292135D01*
X123860376Y-123256614D01*
X123885979Y-123195079D01*
X123923296Y-123123931D01*
X123964113Y-123059571D01*
X123983677Y-123034593D01*
X124010617Y-123036272D01*
X124058527Y-123054011D01*
X124105712Y-123087279D01*
X124120179Y-123139850D01*
X124119683Y-123166312D01*
X124117104Y-123249434D01*
X124122950Y-123293602D01*
X124140150Y-123310465D01*
X124156378Y-123312324D01*
X124195006Y-123291739D01*
X124221401Y-123264816D01*
X124349399Y-123264816D01*
X124358853Y-123308113D01*
X124378780Y-123327694D01*
X124396271Y-123311688D01*
X124389306Y-123269818D01*
X124377713Y-123254105D01*
X124354270Y-123241792D01*
X124349399Y-123264816D01*
X124221401Y-123264816D01*
X124246951Y-123238755D01*
X124302820Y-123166530D01*
X124353223Y-123088221D01*
X124388768Y-123016985D01*
X124400300Y-122970585D01*
X124383459Y-122925363D01*
X124334612Y-122918358D01*
X124287678Y-122934323D01*
X124216755Y-122951254D01*
X124158517Y-122935192D01*
X124107758Y-122898029D01*
X124100955Y-122849107D01*
X124138298Y-122782937D01*
X124164879Y-122751258D01*
X124218158Y-122703230D01*
X124269340Y-122690006D01*
X124329714Y-122712904D01*
X124410568Y-122773241D01*
X124419782Y-122781017D01*
X124487132Y-122863901D01*
X124506615Y-122933723D01*
X124524244Y-122999088D01*
X124556380Y-123017880D01*
X124597344Y-122990252D01*
X124634923Y-122930257D01*
X124660155Y-122853707D01*
X124662626Y-122785015D01*
X124643609Y-122738561D01*
X124616909Y-122726954D01*
X124581442Y-122710878D01*
X124513115Y-122665322D01*
X124417406Y-122594293D01*
X124299790Y-122501796D01*
X124216974Y-122434359D01*
X124164115Y-122397789D01*
X124095744Y-122358367D01*
X124092705Y-122356786D01*
X124024659Y-122334016D01*
X123986584Y-122352209D01*
X123977768Y-122411938D01*
X123981966Y-122445795D01*
X123973282Y-122519760D01*
X123929932Y-122610927D01*
X123928994Y-122612425D01*
X123887032Y-122683380D01*
X123856369Y-122742686D01*
X123849736Y-122758767D01*
X123826107Y-122796330D01*
X123811331Y-122803306D01*
X123784710Y-122823899D01*
X123763459Y-122860571D01*
X123704463Y-122970599D01*
X123637145Y-123053662D01*
X123569568Y-123101032D01*
X123534171Y-123108717D01*
X123481710Y-123124767D01*
X123466607Y-123164957D01*
X123383060Y-123164957D01*
X123382654Y-123145281D01*
X123386808Y-123076742D01*
X123408762Y-123038648D01*
X123461736Y-123010751D01*
X123473535Y-123006053D01*
X123546915Y-122957920D01*
X123628261Y-122874082D01*
X123709115Y-122767015D01*
X123781020Y-122649195D01*
X123835516Y-122533096D01*
X123864148Y-122431195D01*
X123864377Y-122429553D01*
X123888566Y-122317134D01*
X123926505Y-122249108D01*
X123981892Y-122219968D01*
X124006523Y-122217936D01*
X124059129Y-122228549D01*
X124128258Y-122255051D01*
X124197735Y-122289433D01*
X124251388Y-122323687D01*
X124273045Y-122349804D01*
X124273046Y-122349912D01*
X124292949Y-122369607D01*
X124301941Y-122370641D01*
X124337578Y-122387833D01*
X124385479Y-122429682D01*
X124389804Y-122434268D01*
X124435925Y-122477475D01*
X124469480Y-122497691D01*
X124471493Y-122497895D01*
X124503867Y-122514954D01*
X124540280Y-122548797D01*
X124584805Y-122586939D01*
X124615816Y-122599699D01*
X124661149Y-122620355D01*
X124712746Y-122671088D01*
X124757154Y-122735048D01*
X124780923Y-122795384D01*
X124782064Y-122807954D01*
X124772114Y-122875746D01*
X124747770Y-122955182D01*
X124743887Y-122964812D01*
X124715137Y-123040449D01*
X124713477Y-123083293D01*
X124744802Y-123106829D01*
X124813557Y-123124235D01*
X124895692Y-123151691D01*
X124944072Y-123197216D01*
X124954925Y-123216930D01*
X124995693Y-123270620D01*
X125058300Y-123286799D01*
X125064868Y-123286873D01*
X125171973Y-123296236D01*
X125272559Y-123321035D01*
X125351992Y-123356339D01*
X125395642Y-123397215D01*
X125396306Y-123398608D01*
X125412411Y-123424009D01*
X125439647Y-123440080D01*
X125488637Y-123449104D01*
X125570009Y-123453367D01*
X125657654Y-123454803D01*
X125894473Y-123457301D01*
X125896429Y-123451893D01*
X126008227Y-123451893D01*
X126041883Y-123480458D01*
X126061935Y-123499142D01*
X126075893Y-123525942D01*
X126084822Y-123569428D01*
X126089788Y-123638170D01*
X126091856Y-123740739D01*
X126092094Y-123884296D01*
X126090895Y-124033814D01*
X126087375Y-124140840D01*
X126080664Y-124213765D01*
X126069892Y-124260976D01*
X126054189Y-124290865D01*
X126049354Y-124296654D01*
X126021826Y-124347503D01*
X126032222Y-124387641D01*
X126073842Y-124416718D01*
X126147319Y-124432902D01*
X126235314Y-124436364D01*
X126320486Y-124427275D01*
X126385496Y-124405804D01*
X126409491Y-124383935D01*
X126420307Y-124334994D01*
X126397661Y-124304466D01*
X126371487Y-124253635D01*
X126360455Y-124156209D01*
X126360020Y-124125294D01*
X126362617Y-124075851D01*
X126465842Y-124075851D01*
X126469842Y-124111982D01*
X126478679Y-124107665D01*
X126482040Y-124055558D01*
X126478679Y-124044038D01*
X126469390Y-124040841D01*
X126465842Y-124075851D01*
X126362617Y-124075851D01*
X126366983Y-123992742D01*
X126389019Y-123905067D01*
X126427848Y-123858025D01*
X126472897Y-123846793D01*
X126528607Y-123869466D01*
X126565639Y-123931723D01*
X126581601Y-124024921D01*
X126574100Y-124140417D01*
X126565900Y-124182699D01*
X126541509Y-124292426D01*
X126531762Y-124361824D01*
X126541694Y-124400549D01*
X126576342Y-124418258D01*
X126640741Y-124424609D01*
X126693239Y-124426873D01*
X126792318Y-124428079D01*
X126853677Y-124419442D01*
X126889912Y-124398813D01*
X126895885Y-124392305D01*
X126916868Y-124354704D01*
X126895533Y-124324767D01*
X126887165Y-124318438D01*
X126862672Y-124288124D01*
X126849047Y-124234318D01*
X126843861Y-124145298D01*
X126843587Y-124108041D01*
X126839962Y-123963973D01*
X126827636Y-123859004D01*
X126804435Y-123781748D01*
X126801202Y-123776249D01*
X126936528Y-123776249D01*
X126956838Y-123815566D01*
X126995896Y-123833942D01*
X127041628Y-123874080D01*
X127067531Y-123954898D01*
X127072297Y-124019983D01*
X127085164Y-124089257D01*
X127117110Y-124174291D01*
X127159137Y-124256089D01*
X127202244Y-124315650D01*
X127219068Y-124329816D01*
X127287404Y-124348077D01*
X127376236Y-124343324D01*
X127462871Y-124319478D01*
X127524613Y-124280457D01*
X127528087Y-124276441D01*
X127565808Y-124239985D01*
X127601911Y-124242293D01*
X127625948Y-124255782D01*
X127668201Y-124274144D01*
X127713227Y-124268092D01*
X127773252Y-124239906D01*
X127842637Y-124195530D01*
X127895875Y-124148531D01*
X127903152Y-124139479D01*
X127924205Y-124100074D01*
X127911981Y-124068406D01*
X127878571Y-124037675D01*
X127839540Y-123982914D01*
X127800741Y-123890264D01*
X127766166Y-123772599D01*
X127759657Y-123740543D01*
X127878122Y-123740543D01*
X127880770Y-123790982D01*
X127893178Y-123851994D01*
X127912190Y-123904717D01*
X127922085Y-123920747D01*
X127947475Y-123937090D01*
X127959994Y-123915338D01*
X127958279Y-123866981D01*
X127940967Y-123803507D01*
X127937142Y-123793878D01*
X127910735Y-123742319D01*
X127889099Y-123719592D01*
X127888394Y-123719539D01*
X127878122Y-123740543D01*
X127759657Y-123740543D01*
X127739808Y-123642792D01*
X127728610Y-123554108D01*
X127713628Y-123496619D01*
X127674254Y-123472944D01*
X127657646Y-123470280D01*
X127586238Y-123483341D01*
X127537818Y-123514819D01*
X127490195Y-123552137D01*
X127457188Y-123566833D01*
X127430248Y-123588090D01*
X127412299Y-123635097D01*
X127411475Y-123682709D01*
X127416091Y-123693860D01*
X127453206Y-123717842D01*
X127466610Y-123719539D01*
X127489178Y-123742415D01*
X127507570Y-123800877D01*
X127520193Y-123879673D01*
X127525453Y-123963553D01*
X127521758Y-124037266D01*
X127507515Y-124085561D01*
X127505176Y-124088738D01*
X127454204Y-124122596D01*
X127401673Y-124113054D01*
X127354159Y-124066962D01*
X127318234Y-123991170D01*
X127300473Y-123892526D01*
X127299747Y-123874697D01*
X127299499Y-123872244D01*
X127403507Y-123872244D01*
X127412819Y-123893193D01*
X127420474Y-123889211D01*
X127423520Y-123859007D01*
X127420474Y-123855277D01*
X127405343Y-123858771D01*
X127403507Y-123872244D01*
X127299499Y-123872244D01*
X127290137Y-123779681D01*
X127268421Y-123688910D01*
X127239349Y-123616594D01*
X127207671Y-123576947D01*
X127199141Y-123573662D01*
X127159558Y-123584472D01*
X127096058Y-123618957D01*
X127041530Y-123655915D01*
X126964719Y-123723187D01*
X126936528Y-123776249D01*
X126801202Y-123776249D01*
X126770086Y-123723319D01*
X126704325Y-123673906D01*
X126611645Y-123649493D01*
X126510889Y-123652788D01*
X126439748Y-123675864D01*
X126362072Y-123714614D01*
X126354683Y-123519832D01*
X126347294Y-123325050D01*
X126222669Y-123329490D01*
X126122708Y-123342896D01*
X126055719Y-123377791D01*
X126044513Y-123388223D01*
X126008758Y-123427880D01*
X126008227Y-123451893D01*
X125896429Y-123451893D01*
X125925233Y-123372236D01*
X125944382Y-123303259D01*
X125934040Y-123262644D01*
X125886505Y-123239955D01*
X125818749Y-123228004D01*
X125729300Y-123208790D01*
X125647423Y-123180370D01*
X125633536Y-123173705D01*
X125573071Y-123146461D01*
X125529974Y-123134359D01*
X125528788Y-123134325D01*
X125494754Y-123119406D01*
X125435108Y-123080633D01*
X125369720Y-123031773D01*
X125279496Y-122945700D01*
X125238193Y-122865213D01*
X125239798Y-122846550D01*
X125342105Y-122846550D01*
X125364708Y-122889974D01*
X125425973Y-122942173D01*
X125515639Y-122997870D01*
X125623443Y-123051788D01*
X125739123Y-123098649D01*
X125852419Y-123133177D01*
X125927354Y-123147515D01*
X126012577Y-123160957D01*
X126080374Y-123176083D01*
X126105511Y-123184799D01*
X126151320Y-123192601D01*
X126226791Y-123191442D01*
X126278475Y-123186282D01*
X126384449Y-123180022D01*
X126449410Y-123195443D01*
X126456099Y-123199767D01*
X126511336Y-123217797D01*
X126607534Y-123219926D01*
X126746808Y-123206000D01*
X126931269Y-123175865D01*
X127021743Y-123158533D01*
X127168266Y-123122549D01*
X127309651Y-123075351D01*
X127437492Y-123021097D01*
X127543381Y-122963945D01*
X127618912Y-122908052D01*
X127655680Y-122857577D01*
X127657894Y-122843901D01*
X127642011Y-122809897D01*
X127601802Y-122755022D01*
X127575179Y-122723808D01*
X127484104Y-122620790D01*
X127413479Y-122538209D01*
X127368064Y-122481767D01*
X127352605Y-122457405D01*
X127339485Y-122432955D01*
X127305128Y-122378414D01*
X127258127Y-122307317D01*
X127163648Y-122167034D01*
X126500962Y-122167999D01*
X125838276Y-122168965D01*
X125742835Y-122306454D01*
X125694199Y-122378153D01*
X125659819Y-122431957D01*
X125647394Y-122455577D01*
X125630480Y-122483075D01*
X125581942Y-122543613D01*
X125505087Y-122633205D01*
X125424821Y-122723808D01*
X125376271Y-122783854D01*
X125346511Y-122831903D01*
X125342105Y-122846550D01*
X125239798Y-122846550D01*
X125245139Y-122784420D01*
X125299665Y-122697429D01*
X125328116Y-122666225D01*
X125384668Y-122603208D01*
X125457904Y-122515071D01*
X125534588Y-122417877D01*
X125557174Y-122388177D01*
X125641685Y-122266044D01*
X125687838Y-122174508D01*
X125696374Y-122111577D01*
X125672845Y-122077956D01*
X125650627Y-122041664D01*
X125647394Y-122018314D01*
X125627134Y-121976606D01*
X125577701Y-121933393D01*
X125571187Y-121929385D01*
X125514440Y-121882047D01*
X125481121Y-121828889D01*
X125480389Y-121826233D01*
X125444285Y-121772768D01*
X125372147Y-121726779D01*
X125371665Y-121726566D01*
X125279081Y-121663014D01*
X125214635Y-121573562D01*
X125189321Y-121473700D01*
X125189278Y-121469570D01*
X125182713Y-121424415D01*
X125152842Y-121406343D01*
X125103258Y-121403507D01*
X125051122Y-121397734D01*
X125035551Y-121389382D01*
X125189278Y-121389382D01*
X125230051Y-121331171D01*
X125255340Y-121284717D01*
X125257195Y-121259332D01*
X125227545Y-121255281D01*
X125200432Y-121286094D01*
X125189278Y-121334319D01*
X125189278Y-121389382D01*
X125035551Y-121389382D01*
X125007074Y-121374107D01*
X124968633Y-121334319D01*
X124957857Y-121323165D01*
X124916030Y-121269889D01*
X124808863Y-121132001D01*
X124704184Y-121006086D01*
X124584533Y-120871336D01*
X124549058Y-120832550D01*
X124476647Y-120745055D01*
X124396627Y-120635082D01*
X124325266Y-120525105D01*
X124319588Y-120515573D01*
X124266651Y-120430065D01*
X124221187Y-120364170D01*
X124190562Y-120328290D01*
X124184372Y-120324692D01*
X124168968Y-120346357D01*
X124151054Y-120406082D01*
X124134287Y-120491402D01*
X124132946Y-120500000D01*
X124106059Y-120644986D01*
X124074173Y-120747153D01*
X124032993Y-120814579D01*
X123978223Y-120855340D01*
X123935821Y-120870692D01*
X123875480Y-120890695D01*
X123848029Y-120918927D01*
X123840525Y-120973384D01*
X123840213Y-121003636D01*
X123815705Y-121130935D01*
X123747172Y-121244995D01*
X123683463Y-121304880D01*
X123645036Y-121342237D01*
X123643895Y-121382275D01*
X123657063Y-121415069D01*
X123673015Y-121475424D01*
X123684088Y-121565758D01*
X123687675Y-121654097D01*
X123687675Y-121825939D01*
X123588499Y-121888320D01*
X123530977Y-121926958D01*
X123503163Y-121960919D01*
X123496788Y-122009049D01*
X123502887Y-122083404D01*
X123503372Y-122217043D01*
X123471880Y-122314576D01*
X123406047Y-122381302D01*
X123359500Y-122404773D01*
X123265041Y-122442568D01*
X123275732Y-122610469D01*
X123276623Y-122725813D01*
X123265162Y-122820144D01*
X123254903Y-122854465D01*
X123231664Y-122899712D01*
X123199981Y-122922255D01*
X123143348Y-122929890D01*
X123093797Y-122930561D01*
X123024857Y-122928284D01*
X122974569Y-122916068D01*
X122927684Y-122885835D01*
X122868954Y-122829509D01*
X122834154Y-122793027D01*
X122714882Y-122639704D01*
X122620613Y-122455803D01*
X122546729Y-122275150D01*
X122487935Y-122119979D01*
X122440251Y-121976617D01*
X122399696Y-121831392D01*
X122362292Y-121670632D01*
X122324058Y-121480665D01*
X122301173Y-121358451D01*
X122279944Y-121200894D01*
X122266283Y-121008066D01*
X122259837Y-120790195D01*
X122259938Y-120733265D01*
X122346086Y-120733265D01*
X122352253Y-120927534D01*
X122363574Y-121071257D01*
X122398292Y-121322722D01*
X122446672Y-121572739D01*
X122506512Y-121815433D01*
X122575611Y-122044930D01*
X122651766Y-122255353D01*
X122732776Y-122440828D01*
X122816441Y-122595479D01*
X122900558Y-122713430D01*
X122982925Y-122788807D01*
X123013226Y-122805031D01*
X123094501Y-122822465D01*
X123152860Y-122800231D01*
X123178495Y-122753532D01*
X123182515Y-122678959D01*
X123171225Y-122573214D01*
X123147212Y-122452777D01*
X123113066Y-122334126D01*
X123112204Y-122331614D01*
X123089507Y-122250786D01*
X123077566Y-122179128D01*
X123077021Y-122166183D01*
X123077189Y-122103407D01*
X123121560Y-122169539D01*
X123193737Y-122263140D01*
X123255606Y-122310024D01*
X123311889Y-122312104D01*
X123367305Y-122271295D01*
X123368663Y-122269805D01*
X123392773Y-122234382D01*
X123403225Y-122187938D01*
X123401828Y-122115650D01*
X123395578Y-122049226D01*
X123382100Y-121951782D01*
X123365125Y-121867324D01*
X123350199Y-121819092D01*
X123333760Y-121762912D01*
X123352320Y-121743627D01*
X123405720Y-121761322D01*
X123431510Y-121775615D01*
X123485505Y-121804498D01*
X123519235Y-121805086D01*
X123555872Y-121775618D01*
X123566167Y-121765384D01*
X123595221Y-121734013D01*
X123608825Y-121704418D01*
X123607761Y-121662264D01*
X123592806Y-121593214D01*
X123578573Y-121537139D01*
X123555614Y-121432880D01*
X123539763Y-121332824D01*
X123534756Y-121267130D01*
X123537766Y-121204284D01*
X123552415Y-121180055D01*
X123587697Y-121182230D01*
X123595810Y-121184200D01*
X123651099Y-121184407D01*
X123693664Y-121151118D01*
X123725128Y-121080294D01*
X123747115Y-120967899D01*
X123761250Y-120809895D01*
X123763534Y-120767234D01*
X123777716Y-120474549D01*
X123813368Y-120622096D01*
X123836070Y-120705225D01*
X123857138Y-120748639D01*
X123883205Y-120762850D01*
X123901726Y-120762076D01*
X123955472Y-120730909D01*
X123998558Y-120653437D01*
X124031656Y-120528158D01*
X124045471Y-120441163D01*
X124071839Y-120248234D01*
X124093653Y-120101353D01*
X124111793Y-119995959D01*
X124127137Y-119927490D01*
X124140562Y-119891385D01*
X124152937Y-119883076D01*
X124174398Y-119910930D01*
X124198551Y-119971313D01*
X124208338Y-120004999D01*
X124233133Y-120084782D01*
X124268005Y-120177502D01*
X124307563Y-120271087D01*
X124346416Y-120353467D01*
X124379172Y-120412571D01*
X124400440Y-120436328D01*
X124401017Y-120436372D01*
X124420798Y-120457900D01*
X124436202Y-120500000D01*
X124456640Y-120547667D01*
X124477138Y-120563627D01*
X124501022Y-120583301D01*
X124502104Y-120591364D01*
X124517997Y-120627197D01*
X124556974Y-120678793D01*
X124564145Y-120686804D01*
X124667983Y-120801029D01*
X124748667Y-120892216D01*
X124818230Y-120974109D01*
X124858417Y-121023005D01*
X124916247Y-121092780D01*
X124966856Y-121151647D01*
X124987615Y-121174503D01*
X125029254Y-121230991D01*
X125046249Y-121264758D01*
X125064265Y-121296725D01*
X125083924Y-121282451D01*
X125088454Y-121275539D01*
X125106279Y-121225909D01*
X125111842Y-121166323D01*
X125105199Y-121117010D01*
X125087960Y-121098096D01*
X125059015Y-121076765D01*
X125046045Y-121025084D01*
X125050606Y-120961519D01*
X125071944Y-120907924D01*
X125103194Y-120847839D01*
X125107142Y-120793010D01*
X125080882Y-120730428D01*
X125021508Y-120647080D01*
X125010612Y-120633295D01*
X124939680Y-120536479D01*
X124900086Y-120457851D01*
X124885700Y-120381141D01*
X124887312Y-120337241D01*
X124960220Y-120337241D01*
X124975577Y-120403745D01*
X125014571Y-120489518D01*
X125066588Y-120576174D01*
X125121011Y-120645329D01*
X125154116Y-120673058D01*
X125181735Y-120715579D01*
X125187235Y-120787145D01*
X125170921Y-120871109D01*
X125149503Y-120923032D01*
X125127109Y-120987919D01*
X125141313Y-121038261D01*
X125197266Y-121083682D01*
X125250285Y-121111284D01*
X125333893Y-121162994D01*
X125370990Y-121222370D01*
X125365093Y-121299574D01*
X125338647Y-121366742D01*
X125305857Y-121461101D01*
X125311748Y-121533347D01*
X125360174Y-121591754D01*
X125454991Y-121644596D01*
X125471384Y-121651682D01*
X125545968Y-121687212D01*
X125582290Y-121718293D01*
X125590905Y-121754894D01*
X125590212Y-121763945D01*
X125598542Y-121813414D01*
X125635811Y-121830813D01*
X125684719Y-121862506D01*
X125732804Y-121940886D01*
X125737615Y-121951546D01*
X125787374Y-122064748D01*
X126501464Y-122064989D01*
X127215554Y-122065230D01*
X127261175Y-121961828D01*
X127309678Y-121882659D01*
X127366392Y-121835911D01*
X127370727Y-121834120D01*
X127417406Y-121803819D01*
X127421331Y-121758856D01*
X127425718Y-121713331D01*
X127471846Y-121675042D01*
X127480845Y-121670232D01*
X127543220Y-121643558D01*
X127590197Y-121632565D01*
X127628573Y-121613007D01*
X127670428Y-121565833D01*
X127671268Y-121564561D01*
X127696479Y-121520646D01*
X127702832Y-121481609D01*
X127690412Y-121427783D01*
X127672086Y-121374922D01*
X127646674Y-121276268D01*
X127646699Y-121269356D01*
X127744191Y-121269356D01*
X127757425Y-121313265D01*
X127764419Y-121325532D01*
X127790176Y-121360246D01*
X127803130Y-121352070D01*
X127806745Y-121338032D01*
X127799710Y-121286213D01*
X127788081Y-121268883D01*
X127756032Y-121250678D01*
X127744191Y-121269356D01*
X127646699Y-121269356D01*
X127646944Y-121200634D01*
X127671913Y-121156633D01*
X127697907Y-121148998D01*
X127730661Y-121134696D01*
X127734368Y-121123547D01*
X127754680Y-121100308D01*
X127768600Y-121098096D01*
X127810592Y-121080664D01*
X127846803Y-121049508D01*
X127874451Y-121011779D01*
X127874318Y-120975287D01*
X127850748Y-120923518D01*
X127820798Y-120840465D01*
X127812158Y-120759016D01*
X127825218Y-120695928D01*
X127844918Y-120673058D01*
X127901264Y-120621673D01*
X127959397Y-120541639D01*
X128008214Y-120451734D01*
X128036611Y-120370740D01*
X128039779Y-120343476D01*
X128036313Y-120286096D01*
X128027839Y-120258622D01*
X128026548Y-120258216D01*
X127998830Y-120270560D01*
X127944590Y-120301643D01*
X127918382Y-120317773D01*
X127834776Y-120365319D01*
X127713224Y-120427694D01*
X127562875Y-120500407D01*
X127392875Y-120578966D01*
X127317717Y-120612668D01*
X127243974Y-120643497D01*
X127199840Y-120653333D01*
X127169146Y-120643437D01*
X127147527Y-120625924D01*
X127104075Y-120597829D01*
X127074220Y-120607926D01*
X127056153Y-120659716D01*
X127048064Y-120756703D01*
X127047194Y-120820144D01*
X127047194Y-121022756D01*
X126506362Y-121015887D01*
X125965531Y-121009018D01*
X125957925Y-120818166D01*
X125949742Y-120699670D01*
X125935077Y-120627691D01*
X125911642Y-120598017D01*
X125877148Y-120606437D01*
X125853140Y-120625319D01*
X125821102Y-120650282D01*
X125789590Y-120656045D01*
X125742099Y-120641555D01*
X125680745Y-120614324D01*
X125466672Y-120514767D01*
X125362448Y-120464543D01*
X125674924Y-120464543D01*
X125691623Y-120491292D01*
X125730110Y-120510201D01*
X125804787Y-120521567D01*
X125852158Y-120490292D01*
X125860961Y-120472581D01*
X125857728Y-120448500D01*
X125817781Y-120437825D01*
X125773850Y-120436372D01*
X125703448Y-120444355D01*
X125674924Y-120464543D01*
X125362448Y-120464543D01*
X125297547Y-120433268D01*
X125171155Y-120368730D01*
X125085282Y-120320058D01*
X125081618Y-120317773D01*
X125021176Y-120281576D01*
X124980595Y-120260450D01*
X124973451Y-120258216D01*
X124964277Y-120280430D01*
X124960230Y-120334193D01*
X124960220Y-120337241D01*
X124887312Y-120337241D01*
X124888355Y-120308844D01*
X124904162Y-120236752D01*
X124937358Y-120198525D01*
X124992907Y-120194086D01*
X125075773Y-120223358D01*
X125190921Y-120286265D01*
X125219649Y-120303731D01*
X125270279Y-120329538D01*
X125299294Y-120334396D01*
X125299897Y-120333891D01*
X125297961Y-120305867D01*
X125282644Y-120241645D01*
X125256949Y-120153218D01*
X125245921Y-120118338D01*
X125192116Y-119976749D01*
X125136780Y-119882204D01*
X125108408Y-119851799D01*
X125061526Y-119804773D01*
X125037431Y-119769096D01*
X125036573Y-119764623D01*
X125021941Y-119726686D01*
X125003694Y-119700300D01*
X124979117Y-119655133D01*
X124948960Y-119579035D01*
X124925568Y-119507415D01*
X124896759Y-119410579D01*
X124869860Y-119320807D01*
X124855592Y-119273643D01*
X124839992Y-119207138D01*
X124822919Y-119110898D01*
X124808155Y-119006409D01*
X124802428Y-118960220D01*
X125023847Y-118960220D01*
X125025206Y-119120463D01*
X125030027Y-119241393D01*
X125039426Y-119334542D01*
X125054519Y-119411446D01*
X125073768Y-119475928D01*
X125110635Y-119566277D01*
X125142509Y-119606716D01*
X125168971Y-119597049D01*
X125189604Y-119537079D01*
X125190863Y-119530766D01*
X125205173Y-119456513D01*
X125221606Y-119532865D01*
X125232439Y-119597705D01*
X125244583Y-119692007D01*
X125254623Y-119787374D01*
X125274059Y-119919318D01*
X125306167Y-120054899D01*
X125346909Y-120182588D01*
X125392247Y-120290855D01*
X125438146Y-120368173D01*
X125468310Y-120397622D01*
X125506458Y-120398058D01*
X125563470Y-120377594D01*
X125563932Y-120377362D01*
X125633816Y-120351850D01*
X125723718Y-120330844D01*
X125754379Y-120326068D01*
X125836274Y-120320344D01*
X125892753Y-120333528D01*
X125945261Y-120369133D01*
X126008202Y-120408150D01*
X126098520Y-120449197D01*
X126175861Y-120476651D01*
X126274029Y-120512232D01*
X126322700Y-120543931D01*
X126328567Y-120561817D01*
X126308419Y-120591814D01*
X126296392Y-120593590D01*
X126255600Y-120586061D01*
X126190503Y-120573906D01*
X126184152Y-120572715D01*
X126115772Y-120568097D01*
X126073574Y-120590559D01*
X126063260Y-120603071D01*
X126042244Y-120658232D01*
X126031506Y-120739346D01*
X126031251Y-120826884D01*
X126041686Y-120901320D01*
X126059699Y-120940300D01*
X126093799Y-120950034D01*
X126168149Y-120958253D01*
X126272114Y-120964771D01*
X126395059Y-120969405D01*
X126526349Y-120971971D01*
X126655351Y-120972284D01*
X126771428Y-120970159D01*
X126863946Y-120965414D01*
X126922271Y-120957862D01*
X126930583Y-120955393D01*
X126954313Y-120922203D01*
X126968147Y-120855653D01*
X126971792Y-120772370D01*
X126964953Y-120688981D01*
X126947338Y-120622114D01*
X126936812Y-120603170D01*
X126883162Y-120570992D01*
X126799133Y-120572779D01*
X126707388Y-120601917D01*
X126672265Y-120608711D01*
X126668666Y-120578863D01*
X126669212Y-120575945D01*
X126701808Y-120536721D01*
X126784570Y-120494465D01*
X126836400Y-120475118D01*
X126875643Y-120459799D01*
X127131972Y-120459799D01*
X127149619Y-120484460D01*
X127158723Y-120493637D01*
X127205009Y-120531130D01*
X127244865Y-120530643D01*
X127290436Y-120502081D01*
X127324239Y-120466407D01*
X127310128Y-120445042D01*
X127249292Y-120438895D01*
X127210360Y-120441047D01*
X127149635Y-120447960D01*
X127131972Y-120459799D01*
X126875643Y-120459799D01*
X126926549Y-120439927D01*
X127002314Y-120403370D01*
X127042011Y-120377436D01*
X127106532Y-120347095D01*
X127200979Y-120335334D01*
X127307797Y-120342377D01*
X127409436Y-120368450D01*
X127419753Y-120372576D01*
X127489701Y-120396505D01*
X127535239Y-120390588D01*
X127573033Y-120348208D01*
X127598398Y-120303371D01*
X127697089Y-120303371D01*
X127699647Y-120333782D01*
X127727179Y-120330407D01*
X127777267Y-120305610D01*
X127780351Y-120303731D01*
X127902030Y-120233595D01*
X127989882Y-120196608D01*
X128049349Y-120193533D01*
X128085871Y-120225130D01*
X128104891Y-120292163D01*
X128110177Y-120349916D01*
X128110733Y-120419066D01*
X128099200Y-120474529D01*
X128069067Y-120532969D01*
X128013820Y-120611053D01*
X128002011Y-120626753D01*
X127926788Y-120736555D01*
X127890997Y-120814628D01*
X127894521Y-120861291D01*
X127911948Y-120873280D01*
X127940584Y-120906322D01*
X127953830Y-120966378D01*
X127950017Y-121031443D01*
X127927598Y-121079386D01*
X127897356Y-121132732D01*
X127887921Y-121197378D01*
X127900891Y-121250579D01*
X127914559Y-121264784D01*
X127947050Y-121258957D01*
X127983003Y-121223292D01*
X128032499Y-121160093D01*
X128070048Y-121118729D01*
X128105188Y-121077045D01*
X128116572Y-121053557D01*
X128133648Y-121024902D01*
X128174949Y-120979608D01*
X128182494Y-120972324D01*
X128236221Y-120916425D01*
X128302351Y-120841096D01*
X128341122Y-120794168D01*
X128397217Y-120727454D01*
X128444478Y-120676725D01*
X128466082Y-120657803D01*
X128495268Y-120616866D01*
X128497895Y-120600539D01*
X128511782Y-120567485D01*
X128522862Y-120563627D01*
X128546985Y-120542032D01*
X128563797Y-120500000D01*
X128582031Y-120452399D01*
X128598355Y-120436372D01*
X128619080Y-120414503D01*
X128651702Y-120357143D01*
X128690791Y-120276666D01*
X128730921Y-120185445D01*
X128766662Y-120095852D01*
X128792587Y-120020260D01*
X128803269Y-119971042D01*
X128803306Y-119969198D01*
X128814147Y-119915508D01*
X128839167Y-119881136D01*
X128867114Y-119880993D01*
X128868732Y-119882493D01*
X128876171Y-119910627D01*
X128888214Y-119979032D01*
X128903203Y-120077465D01*
X128919480Y-120195681D01*
X128919628Y-120196815D01*
X128946793Y-120388520D01*
X128972722Y-120534605D01*
X128999146Y-120640263D01*
X129027794Y-120710689D01*
X129060398Y-120751076D01*
X129098686Y-120766621D01*
X129109596Y-120767234D01*
X129145071Y-120749931D01*
X129167306Y-120692490D01*
X129171357Y-120671273D01*
X129190283Y-120580151D01*
X129207112Y-120538909D01*
X129220917Y-120546537D01*
X129230771Y-120602025D01*
X129235746Y-120704366D01*
X129236141Y-120741783D01*
X129240037Y-120879567D01*
X129251850Y-120981256D01*
X129273658Y-121061324D01*
X129286509Y-121092450D01*
X129320113Y-121158467D01*
X129349315Y-121186928D01*
X129386865Y-121188201D01*
X129400479Y-121185132D01*
X129441071Y-121178652D01*
X129459677Y-121194511D01*
X129464827Y-121244672D01*
X129465030Y-121275678D01*
X129458161Y-121358808D01*
X129440373Y-121464313D01*
X129421461Y-121545935D01*
X129398925Y-121633734D01*
X129390457Y-121687203D01*
X129396908Y-121721167D01*
X129419131Y-121750453D01*
X129434080Y-121765632D01*
X129474140Y-121801504D01*
X129506511Y-121807034D01*
X129554324Y-121783940D01*
X129568490Y-121775615D01*
X129630883Y-121745573D01*
X129660962Y-121751478D01*
X129661586Y-121796488D01*
X129644055Y-121858989D01*
X129624636Y-121943021D01*
X129611317Y-122047682D01*
X129608126Y-122105724D01*
X129608380Y-122190294D01*
X129617641Y-122239879D01*
X129641845Y-122270302D01*
X129678300Y-122292750D01*
X129732354Y-122316349D01*
X129758419Y-122309765D01*
X129763137Y-122300651D01*
X129792789Y-122271060D01*
X129804525Y-122268837D01*
X129833892Y-122247866D01*
X129867184Y-122196365D01*
X129872084Y-122186122D01*
X129897319Y-122134229D01*
X129909956Y-122125496D01*
X129917536Y-122156337D01*
X129918675Y-122163961D01*
X129915521Y-122225835D01*
X129896775Y-122305803D01*
X129888761Y-122329392D01*
X129865799Y-122409660D01*
X129846493Y-122509569D01*
X129832546Y-122614271D01*
X129825659Y-122708916D01*
X129827531Y-122778657D01*
X129834406Y-122803853D01*
X129873007Y-122822759D01*
X129937638Y-122815646D01*
X130012987Y-122786191D01*
X130074112Y-122746264D01*
X130115970Y-122710020D01*
X130148030Y-122673632D01*
X130178656Y-122624378D01*
X130216217Y-122549535D01*
X130247985Y-122481841D01*
X130289136Y-122395111D01*
X130328329Y-122315360D01*
X130343426Y-122285863D01*
X130370355Y-122223044D01*
X130381262Y-122175261D01*
X130392554Y-122125442D01*
X130416549Y-122069157D01*
X130453858Y-121978124D01*
X130493809Y-121846720D01*
X130534085Y-121685232D01*
X130572368Y-121503950D01*
X130606342Y-121313161D01*
X130633690Y-121123153D01*
X130638385Y-121084212D01*
X130649791Y-120937350D01*
X130654652Y-120759789D01*
X130653518Y-120562228D01*
X130646938Y-120355366D01*
X130635460Y-120149899D01*
X130619633Y-119956528D01*
X130600006Y-119785950D01*
X130577128Y-119648863D01*
X130561493Y-119585184D01*
X130531403Y-119476183D01*
X130501632Y-119355789D01*
X130477224Y-119245287D01*
X130464684Y-119176553D01*
X130445398Y-119096813D01*
X130417300Y-119020001D01*
X130392210Y-118950447D01*
X130381278Y-118892966D01*
X130381262Y-118891474D01*
X130370813Y-118838205D01*
X130359853Y-118818968D01*
X130342004Y-118784101D01*
X130314995Y-118714849D01*
X130284378Y-118625556D01*
X130281509Y-118616633D01*
X130244579Y-118504719D01*
X130209153Y-118407653D01*
X130167506Y-118305516D01*
X130111908Y-118178388D01*
X130108723Y-118171242D01*
X130069816Y-118082578D01*
X130031713Y-117993715D01*
X130031447Y-117993086D01*
X130000485Y-117923742D01*
X129973858Y-117870636D01*
X129971084Y-117865831D01*
X129943563Y-117813724D01*
X129935709Y-117795841D01*
X129914157Y-117741266D01*
X129910583Y-117732214D01*
X129887519Y-117683595D01*
X129872406Y-117655861D01*
X129836501Y-117593424D01*
X129821180Y-117566783D01*
X129790392Y-117509198D01*
X129778274Y-117484068D01*
X129756212Y-117441744D01*
X129716873Y-117371730D01*
X129666974Y-117285404D01*
X129613235Y-117194146D01*
X129562375Y-117109335D01*
X129521114Y-117042349D01*
X129496171Y-117004568D01*
X129492729Y-117000501D01*
X129460596Y-116960414D01*
X129423864Y-116899243D01*
X129398156Y-116843193D01*
X129366912Y-116798589D01*
X129347993Y-116786727D01*
X129315753Y-116752730D01*
X129312324Y-116735330D01*
X129293104Y-116688421D01*
X129280511Y-116677266D01*
X129247774Y-116647133D01*
X129196874Y-116590879D01*
X129156475Y-116542384D01*
X129053507Y-116421604D01*
X128939436Y-116299445D01*
X128824581Y-116186050D01*
X128719255Y-116091561D01*
X128633777Y-116026119D01*
X128626643Y-116021515D01*
X128505142Y-115959602D01*
X128374427Y-115917118D01*
X128249924Y-115897510D01*
X128147060Y-115904227D01*
X128127694Y-115909998D01*
X128044699Y-115964954D01*
X127996991Y-116050831D01*
X127988877Y-116110551D01*
X127992360Y-116153490D01*
X128003897Y-116219811D01*
X128025117Y-116317500D01*
X128057651Y-116454543D01*
X128066664Y-116491483D01*
X128089842Y-116589532D01*
X128111963Y-116688291D01*
X128116132Y-116707815D01*
X128137732Y-116805171D01*
X128161346Y-116904505D01*
X128163071Y-116911423D01*
X128199556Y-117097172D01*
X128227401Y-117321818D01*
X128246606Y-117574829D01*
X128257174Y-117845674D01*
X128259106Y-118123819D01*
X128252404Y-118398734D01*
X128237068Y-118659887D01*
X128213101Y-118896745D01*
X128180503Y-119098778D01*
X128162756Y-119176553D01*
X128141698Y-119268457D01*
X128124781Y-119358346D01*
X128123375Y-119367435D01*
X128109195Y-119434553D01*
X128092306Y-119479484D01*
X128090604Y-119481964D01*
X128071884Y-119523340D01*
X128053996Y-119587494D01*
X128053808Y-119588371D01*
X128030733Y-119654708D01*
X127999967Y-119699654D01*
X127968698Y-119739836D01*
X127963427Y-119759372D01*
X127945962Y-119794448D01*
X127902981Y-119842841D01*
X127893437Y-119851697D01*
X127860043Y-119896018D01*
X127820216Y-119969390D01*
X127778983Y-120059312D01*
X127741367Y-120153284D01*
X127712394Y-120238804D01*
X127697089Y-120303371D01*
X127598398Y-120303371D01*
X127599660Y-120301141D01*
X127665693Y-120149461D01*
X127716918Y-119967877D01*
X127755806Y-119747229D01*
X127762234Y-119698296D01*
X127777766Y-119582846D01*
X127789872Y-119514672D01*
X127799455Y-119490334D01*
X127807421Y-119506392D01*
X127809558Y-119518117D01*
X127826410Y-119572981D01*
X127851332Y-119610926D01*
X127874714Y-119622782D01*
X127886950Y-119599378D01*
X127887231Y-119592251D01*
X127899143Y-119547995D01*
X127927863Y-119486510D01*
X127930391Y-119481964D01*
X127947330Y-119443106D01*
X127959424Y-119390552D01*
X127967451Y-119315819D01*
X127972190Y-119210421D01*
X127974420Y-119065875D01*
X127974773Y-118998396D01*
X127976152Y-118591182D01*
X127890783Y-118433789D01*
X127834279Y-118342336D01*
X127768538Y-118254914D01*
X127702788Y-118181951D01*
X127646254Y-118133876D01*
X127613464Y-118120340D01*
X127583765Y-118136123D01*
X127532979Y-118175878D01*
X127509412Y-118196693D01*
X127436876Y-118253465D01*
X127381838Y-118270131D01*
X127333442Y-118248855D01*
X127318064Y-118234869D01*
X127275355Y-118203596D01*
X127253183Y-118196693D01*
X127216883Y-118186771D01*
X127150968Y-118161144D01*
X127092297Y-118135523D01*
X126851674Y-118052869D01*
X126596414Y-118014379D01*
X126337189Y-118020053D01*
X126084672Y-118069891D01*
X125907702Y-118135523D01*
X125827986Y-118169042D01*
X125763279Y-118191260D01*
X125735909Y-118196693D01*
X125702389Y-118209693D01*
X125698296Y-118220429D01*
X125677268Y-118246183D01*
X125646624Y-118260565D01*
X125594043Y-118257961D01*
X125527149Y-118216677D01*
X125505758Y-118198653D01*
X125447279Y-118151898D01*
X125402157Y-118123895D01*
X125390301Y-118120340D01*
X125347614Y-118140654D01*
X125288069Y-118194945D01*
X125220483Y-118273238D01*
X125153673Y-118365558D01*
X125109114Y-118438477D01*
X125023847Y-118591182D01*
X125023847Y-118960220D01*
X124802428Y-118960220D01*
X124793522Y-118888402D01*
X124775718Y-118747603D01*
X124758246Y-118611682D01*
X124755805Y-118592927D01*
X124745889Y-118482339D01*
X124739402Y-118336745D01*
X124736169Y-118166448D01*
X124736014Y-117981750D01*
X124738761Y-117792952D01*
X124744235Y-117610357D01*
X124752260Y-117444266D01*
X124762659Y-117304982D01*
X124775257Y-117202807D01*
X124779941Y-117178657D01*
X124803613Y-117073850D01*
X124831354Y-116951880D01*
X124849343Y-116873246D01*
X124876261Y-116755179D01*
X124904926Y-116628263D01*
X124921300Y-116555110D01*
X124945567Y-116446824D01*
X124970601Y-116336246D01*
X124983205Y-116281147D01*
X125005883Y-116139829D01*
X124998494Y-116035615D01*
X124959485Y-115963450D01*
X124887307Y-115918276D01*
X124870153Y-115912461D01*
X124742125Y-115898056D01*
X124596997Y-115924158D01*
X124443504Y-115987416D01*
X124290383Y-116084479D01*
X124182243Y-116176296D01*
X124102371Y-116255919D01*
X124014190Y-116349253D01*
X123924582Y-116448325D01*
X123840430Y-116545160D01*
X123768613Y-116631787D01*
X123716016Y-116700230D01*
X123689519Y-116742517D01*
X123687675Y-116749327D01*
X123671924Y-116778080D01*
X123632241Y-116828265D01*
X123611322Y-116851897D01*
X123564693Y-116909316D01*
X123537677Y-116954906D01*
X123534970Y-116965875D01*
X123520154Y-117000729D01*
X123513698Y-117004743D01*
X123492858Y-117029092D01*
X123453406Y-117088130D01*
X123401614Y-117172140D01*
X123360404Y-117242284D01*
X123302629Y-117342037D01*
X123252376Y-117427912D01*
X123216304Y-117488577D01*
X123203358Y-117509519D01*
X123172046Y-117565422D01*
X123162752Y-117585871D01*
X123144857Y-117626452D01*
X123111889Y-117698602D01*
X123070473Y-117787845D01*
X123063757Y-117802204D01*
X122954940Y-118038418D01*
X122869681Y-118232002D01*
X122811022Y-118374849D01*
X122775272Y-118464734D01*
X122740061Y-118550722D01*
X122730697Y-118572957D01*
X122706737Y-118636296D01*
X122695260Y-118680590D01*
X122695090Y-118683640D01*
X122685754Y-118724069D01*
X122663060Y-118785736D01*
X122660861Y-118790943D01*
X122617065Y-118910151D01*
X122570213Y-119066881D01*
X122524014Y-119248203D01*
X122502767Y-119341984D01*
X122479364Y-119446195D01*
X122456844Y-119540735D01*
X122439834Y-119606214D01*
X122438966Y-119609218D01*
X122410927Y-119735314D01*
X122387138Y-119900921D01*
X122368179Y-120094778D01*
X122354630Y-120305627D01*
X122347072Y-120522209D01*
X122346086Y-120733265D01*
X122259938Y-120733265D01*
X122260251Y-120557506D01*
X122267171Y-120320227D01*
X122280244Y-120088583D01*
X122299116Y-119872801D01*
X122323433Y-119683107D01*
X122352841Y-119529729D01*
X122366155Y-119480157D01*
X122383094Y-119408551D01*
X122389553Y-119352902D01*
X122397023Y-119299413D01*
X122415986Y-119222342D01*
X122425923Y-119189278D01*
X122454044Y-119098454D01*
X122486861Y-118988854D01*
X122506350Y-118922044D01*
X122536080Y-118825092D01*
X122566587Y-118735532D01*
X122584508Y-118689139D01*
X122607969Y-118626426D01*
X122618672Y-118582533D01*
X122618737Y-118580628D01*
X122630345Y-118536010D01*
X122643548Y-118508121D01*
X122665256Y-118462639D01*
X122698044Y-118386388D01*
X122733766Y-118298497D01*
X122770111Y-118207132D01*
X122801637Y-118128873D01*
X122820889Y-118082164D01*
X122844550Y-118026391D01*
X122876517Y-117950684D01*
X122885457Y-117929459D01*
X122963255Y-117759068D01*
X123063635Y-117560969D01*
X123179123Y-117348533D01*
X123302243Y-117135132D01*
X123425522Y-116934136D01*
X123532811Y-116771443D01*
X123615148Y-116658696D01*
X123712469Y-116536066D01*
X123818882Y-116409871D01*
X123928494Y-116286434D01*
X124035415Y-116172074D01*
X124133753Y-116073110D01*
X124217616Y-115995864D01*
X124281112Y-115946656D01*
X124315722Y-115931563D01*
X124346596Y-115916248D01*
X124349399Y-115906112D01*
X124370013Y-115883532D01*
X124387575Y-115880661D01*
X124421475Y-115869098D01*
X124425751Y-115859308D01*
X124449050Y-115846112D01*
X124511130Y-115829509D01*
X124600266Y-115812426D01*
X124635721Y-115806870D01*
X124789677Y-115792573D01*
X124905830Y-115803073D01*
G37*
D12*
G04 #@! TO.C,U1*
X114050000Y-84475000D02*
X117950000Y-84475000D01*
X114050000Y-89525000D02*
X117950000Y-89525000D01*
D10*
X115350000Y-85500000D02*
G75*
G02*
X115150000Y-85500000I-100000J0D01*
G01*
X115150000Y-85500000D02*
G75*
G02*
X115350000Y-85500000I100000J0D01*
G01*
D13*
G04 #@! TO.C,RV1*
X121750000Y-84750000D02*
X121750000Y-91250000D01*
X121750000Y-91250000D02*
X132250000Y-91250000D01*
X132250000Y-84750000D02*
X121750000Y-84750000D01*
X132250000Y-91250000D02*
X132250000Y-84750000D01*
D14*
G04 #@! TO.C,D3*
X103015000Y-96015000D02*
X103015000Y-97485000D01*
X103015000Y-97485000D02*
X105300000Y-97485000D01*
X105300000Y-96015000D02*
X103015000Y-96015000D01*
G04 #@! TO.C,TP1*
X106500000Y-108750000D02*
G75*
G02*
X103000000Y-108750000I-1750000J0D01*
G01*
X103000000Y-108750000D02*
G75*
G02*
X106500000Y-108750000I1750000J0D01*
G01*
D12*
G04 #@! TO.C,BT1*
X136256380Y-95372490D02*
X141147130Y-86449400D01*
X140685100Y-109249200D02*
X139966060Y-110338500D01*
X142149450Y-85855800D02*
X144335000Y-85855800D01*
X144335000Y-109249200D02*
X140685100Y-109249200D01*
X148135000Y-85855800D02*
X150320550Y-85855800D01*
X151322870Y-86449400D02*
X156213620Y-95372490D01*
X151784900Y-109249200D02*
X148135000Y-109249200D01*
X152503940Y-110338500D02*
X151784900Y-109249200D01*
X152585000Y-86249500D02*
X152585000Y-84979500D01*
X153220000Y-85614500D02*
X151950000Y-85614500D01*
X155760000Y-109474500D02*
X154490000Y-109474500D01*
X139966060Y-110338500D02*
G75*
G02*
X136256381Y-95372490I6268969J9496683D01*
G01*
X141147130Y-86449400D02*
G75*
G02*
X142149450Y-85855796I1002300J-549390D01*
G01*
X150320550Y-85855800D02*
G75*
G02*
X151322870Y-86449400I26J-1142987D01*
G01*
X156213620Y-95372490D02*
G75*
G02*
X152503940Y-110338501I-9978649J-5469327D01*
G01*
D14*
G04 #@! TO.C,TP2*
X106250000Y-85100000D02*
G75*
G02*
X102750000Y-85100000I-1750000J0D01*
G01*
X102750000Y-85100000D02*
G75*
G02*
X106250000Y-85100000I1750000J0D01*
G01*
G04 #@! TO.C,D1*
X117820000Y-97272500D02*
X117820000Y-95312500D01*
X119020000Y-95312500D02*
X117820000Y-95312500D01*
X119020000Y-97272500D02*
X119020000Y-95312500D01*
D13*
G04 #@! TO.C,SW1*
X124500000Y-105000000D02*
X124500000Y-106750000D01*
X124500000Y-108250000D02*
X124500000Y-110000000D01*
X124500000Y-110000000D02*
X129250000Y-110000000D01*
X125750000Y-105000000D02*
X124500000Y-105000000D01*
X129250000Y-105000000D02*
X125750000Y-105000000D01*
X130500000Y-105750000D02*
X130500000Y-109250000D01*
X128000000Y-106500000D02*
X127000000Y-106500000D01*
X127000000Y-108000000D01*
X128000000Y-108000000D01*
X128000000Y-106500000D01*
X128000000Y-108000000D02*
X127000000Y-108000000D01*
X127000000Y-108500000D01*
X128000000Y-108500000D01*
X128000000Y-108000000D01*
G36*
X128000000Y-108000000D02*
G01*
X127000000Y-108000000D01*
X127000000Y-108500000D01*
X128000000Y-108500000D01*
X128000000Y-108000000D01*
G37*
D14*
G04 #@! TO.C,Q1*
X110690000Y-108750000D02*
X110690000Y-108100000D01*
X110690000Y-108750000D02*
X110690000Y-109400000D01*
X113810000Y-108750000D02*
X113810000Y-108100000D01*
X113810000Y-108750000D02*
X113810000Y-109400000D01*
X110740000Y-109912500D02*
X110410000Y-110152500D01*
X110410000Y-109672500D01*
X110740000Y-109912500D01*
G36*
X110740000Y-109912500D02*
G01*
X110410000Y-110152500D01*
X110410000Y-109672500D01*
X110740000Y-109912500D01*
G37*
D13*
G04 #@! TO.C,RV2*
X121750000Y-95750000D02*
X121750000Y-102250000D01*
X121750000Y-102250000D02*
X132250000Y-102250000D01*
X132250000Y-95750000D02*
X121750000Y-95750000D01*
X132250000Y-102250000D02*
X132250000Y-95750000D01*
D14*
G04 #@! TO.C,D2*
X112900000Y-95800000D02*
X112900000Y-97760000D01*
X112900000Y-97760000D02*
X114100000Y-97760000D01*
X114100000Y-95800000D02*
X114100000Y-97760000D01*
G04 #@! TD*
M02*
