G04 #@! TF.GenerationSoftware,KiCad,Pcbnew,9.0.4*
G04 #@! TF.CreationDate,2025-09-25T11:49:33+08:00*
G04 #@! TF.ProjectId,boost-convertor,626f6f73-742d-4636-9f6e-766572746f72,rev?*
G04 #@! TF.SameCoordinates,Original*
G04 #@! TF.FileFunction,Copper,L2,Inr*
G04 #@! TF.FilePolarity,Positive*
%FSLAX46Y46*%
G04 Gerber Fmt 4.6, Leading zero omitted, Abs format (unit mm)*
G04 Created by KiCad (PCBNEW 9.0.4) date 2025-09-25 11:49:33*
%MOMM*%
%LPD*%
G01*
G04 APERTURE LIST*
G04 #@! TA.AperFunction,ComponentPad*
%ADD10C,1.700000*%
G04 #@! TD*
G04 #@! TA.AperFunction,ComponentPad*
%ADD11R,1.676400X1.676400*%
G04 #@! TD*
G04 #@! TA.AperFunction,ComponentPad*
%ADD12C,1.676400*%
G04 #@! TD*
G04 #@! TA.AperFunction,ComponentPad*
%ADD13C,1.200000*%
G04 #@! TD*
G04 #@! TA.AperFunction,ComponentPad*
%ADD14R,1.600000X1.600000*%
G04 #@! TD*
G04 #@! TA.AperFunction,ComponentPad*
%ADD15C,1.600000*%
G04 #@! TD*
G04 #@! TA.AperFunction,ComponentPad*
%ADD16R,1.218000X1.218000*%
G04 #@! TD*
G04 #@! TA.AperFunction,ComponentPad*
%ADD17C,1.218000*%
G04 #@! TD*
G04 #@! TA.AperFunction,ViaPad*
%ADD18C,0.600000*%
G04 #@! TD*
G04 #@! TA.AperFunction,ViaPad*
%ADD19C,0.800000*%
G04 #@! TD*
G04 APERTURE END LIST*
D10*
X135920000Y-52460000D03*
X135920000Y-55960000D03*
D11*
X119440000Y-65810000D03*
D12*
X121980000Y-65810000D03*
X124520000Y-65810000D03*
X127060000Y-65810000D03*
X127060000Y-58190000D03*
X124520000Y-58190000D03*
X121980000Y-58190000D03*
X119440000Y-58190000D03*
D13*
X97740000Y-102040000D03*
X107900000Y-102040000D03*
X102820000Y-112200000D03*
X97740000Y-112200000D03*
X95200000Y-112200000D03*
X100280000Y-102040000D03*
X105360000Y-112200000D03*
X100280000Y-112200000D03*
X95200000Y-102040000D03*
X102820000Y-102040000D03*
X105360000Y-102040000D03*
X107900000Y-112200000D03*
D14*
X99640151Y-52400000D03*
D15*
X96140151Y-52400000D03*
D10*
X120950000Y-102895000D03*
X120950000Y-105435000D03*
X120950000Y-107975000D03*
X120950000Y-110515000D03*
X120950000Y-113055000D03*
D14*
X105025000Y-74397349D03*
D15*
X105025000Y-77897349D03*
D16*
X120670000Y-53500000D03*
D17*
X123210000Y-53500000D03*
X125750000Y-53500000D03*
D18*
X137025000Y-101575000D03*
X90525000Y-76625000D03*
X103760000Y-56800000D03*
X103760000Y-58290000D03*
X97475000Y-82500000D03*
D19*
X130250000Y-59000000D03*
D18*
X133450000Y-91975000D03*
X101810000Y-58290000D03*
X119035598Y-99964402D03*
X136650000Y-102575000D03*
X116300000Y-86200000D03*
X101810000Y-56800000D03*
X99860000Y-58290000D03*
X99860000Y-56800000D03*
X136725000Y-83325000D03*
X135212500Y-83325000D03*
X136725000Y-84575000D03*
X105530000Y-71270000D03*
X104270000Y-72190000D03*
X106790000Y-72190000D03*
X105530000Y-72190000D03*
X133700000Y-83325000D03*
X106790000Y-71270000D03*
X135212500Y-84575000D03*
X133700000Y-84575000D03*
X104270000Y-71270000D03*
X90235000Y-56725000D03*
X135500000Y-92500000D03*
X102000000Y-60290000D03*
X93670000Y-58500000D03*
X93715000Y-56725000D03*
D19*
X128750000Y-50750000D03*
D18*
X123750000Y-87700000D03*
X92355596Y-100496899D03*
X96755596Y-95196899D03*
X91930000Y-58500000D03*
X121435598Y-100035598D03*
X138525000Y-92825000D03*
X137775000Y-92575000D03*
X105300000Y-92400000D03*
X91975000Y-56725000D03*
X120750000Y-87700000D03*
X90190000Y-58500000D03*
X127500000Y-94500000D03*
X105955596Y-87596899D03*
X118210000Y-99950000D03*
X104355596Y-96396899D03*
X112870000Y-98230000D03*
X97555596Y-92496899D03*
X96755596Y-114296899D03*
X96455596Y-91596899D03*
X90155596Y-92796899D03*
X99555596Y-95496899D03*
X94655596Y-90896899D03*
X98655596Y-93096899D03*
X114200000Y-53500000D03*
X126500000Y-98075000D03*
X122950000Y-95575000D03*
X131925000Y-100625000D03*
X137625000Y-100725000D03*
G04 #@! TA.AperFunction,Conductor*
G36*
X139642539Y-48020185D02*
G01*
X139688294Y-48072989D01*
X139699500Y-48124500D01*
X139699500Y-114925500D01*
X139679815Y-114992539D01*
X139627011Y-115038294D01*
X139575500Y-115049500D01*
X83574500Y-115049500D01*
X83507461Y-115029815D01*
X83461706Y-114977011D01*
X83450500Y-114925500D01*
X83450500Y-114231007D01*
X96255096Y-114231007D01*
X96255096Y-114362790D01*
X96289204Y-114490086D01*
X96322150Y-114547149D01*
X96355096Y-114604213D01*
X96448282Y-114697399D01*
X96562410Y-114763291D01*
X96689704Y-114797399D01*
X96689706Y-114797399D01*
X96821486Y-114797399D01*
X96821488Y-114797399D01*
X96948782Y-114763291D01*
X97062910Y-114697399D01*
X97156096Y-114604213D01*
X97221988Y-114490085D01*
X97256096Y-114362791D01*
X97256096Y-114231007D01*
X97221988Y-114103713D01*
X97156096Y-113989585D01*
X97062910Y-113896399D01*
X97005846Y-113863453D01*
X96948783Y-113830507D01*
X96885135Y-113813453D01*
X96821488Y-113796399D01*
X96689704Y-113796399D01*
X96562408Y-113830507D01*
X96448282Y-113896399D01*
X96448279Y-113896401D01*
X96355098Y-113989582D01*
X96355096Y-113989585D01*
X96289204Y-114103711D01*
X96255096Y-114231007D01*
X83450500Y-114231007D01*
X83450500Y-112121153D01*
X94399500Y-112121153D01*
X94399500Y-112278846D01*
X94430261Y-112433489D01*
X94430264Y-112433501D01*
X94490602Y-112579172D01*
X94490609Y-112579185D01*
X94578210Y-112710288D01*
X94578213Y-112710292D01*
X94689707Y-112821786D01*
X94689711Y-112821789D01*
X94820814Y-112909390D01*
X94820827Y-112909397D01*
X94966498Y-112969735D01*
X94966503Y-112969737D01*
X95121153Y-113000499D01*
X95121156Y-113000500D01*
X95121158Y-113000500D01*
X95278844Y-113000500D01*
X95278845Y-113000499D01*
X95433497Y-112969737D01*
X95579179Y-112909394D01*
X95710289Y-112821789D01*
X95821789Y-112710289D01*
X95909394Y-112579179D01*
X95969737Y-112433497D01*
X96000500Y-112278842D01*
X96000500Y-112121158D01*
X96000500Y-112121155D01*
X96000499Y-112121153D01*
X96939500Y-112121153D01*
X96939500Y-112278846D01*
X96970261Y-112433489D01*
X96970264Y-112433501D01*
X97030602Y-112579172D01*
X97030609Y-112579185D01*
X97118210Y-112710288D01*
X97118213Y-112710292D01*
X97229707Y-112821786D01*
X97229711Y-112821789D01*
X97360814Y-112909390D01*
X97360827Y-112909397D01*
X97506498Y-112969735D01*
X97506503Y-112969737D01*
X97661153Y-113000499D01*
X97661156Y-113000500D01*
X97661158Y-113000500D01*
X97818844Y-113000500D01*
X97818845Y-113000499D01*
X97973497Y-112969737D01*
X98119179Y-112909394D01*
X98250289Y-112821789D01*
X98361789Y-112710289D01*
X98449394Y-112579179D01*
X98509737Y-112433497D01*
X98540500Y-112278842D01*
X98540500Y-112121158D01*
X98540500Y-112121155D01*
X98540499Y-112121153D01*
X99479500Y-112121153D01*
X99479500Y-112278846D01*
X99510261Y-112433489D01*
X99510264Y-112433501D01*
X99570602Y-112579172D01*
X99570609Y-112579185D01*
X99658210Y-112710288D01*
X99658213Y-112710292D01*
X99769707Y-112821786D01*
X99769711Y-112821789D01*
X99900814Y-112909390D01*
X99900827Y-112909397D01*
X100046498Y-112969735D01*
X100046503Y-112969737D01*
X100201153Y-113000499D01*
X100201156Y-113000500D01*
X100201158Y-113000500D01*
X100358844Y-113000500D01*
X100358845Y-113000499D01*
X100513497Y-112969737D01*
X100659179Y-112909394D01*
X100790289Y-112821789D01*
X100901789Y-112710289D01*
X100989394Y-112579179D01*
X101049737Y-112433497D01*
X101080500Y-112278842D01*
X101080500Y-112121158D01*
X101080500Y-112121155D01*
X101080499Y-112121153D01*
X102019500Y-112121153D01*
X102019500Y-112278846D01*
X102050261Y-112433489D01*
X102050264Y-112433501D01*
X102110602Y-112579172D01*
X102110609Y-112579185D01*
X102198210Y-112710288D01*
X102198213Y-112710292D01*
X102309707Y-112821786D01*
X102309711Y-112821789D01*
X102440814Y-112909390D01*
X102440827Y-112909397D01*
X102586498Y-112969735D01*
X102586503Y-112969737D01*
X102741153Y-113000499D01*
X102741156Y-113000500D01*
X102741158Y-113000500D01*
X102898844Y-113000500D01*
X102898845Y-113000499D01*
X103053497Y-112969737D01*
X103199179Y-112909394D01*
X103330289Y-112821789D01*
X103441789Y-112710289D01*
X103529394Y-112579179D01*
X103589737Y-112433497D01*
X103620500Y-112278842D01*
X103620500Y-112121158D01*
X103620500Y-112121155D01*
X103620499Y-112121153D01*
X104559500Y-112121153D01*
X104559500Y-112278846D01*
X104590261Y-112433489D01*
X104590264Y-112433501D01*
X104650602Y-112579172D01*
X104650609Y-112579185D01*
X104738210Y-112710288D01*
X104738213Y-112710292D01*
X104849707Y-112821786D01*
X104849711Y-112821789D01*
X104980814Y-112909390D01*
X104980827Y-112909397D01*
X105126498Y-112969735D01*
X105126503Y-112969737D01*
X105281153Y-113000499D01*
X105281156Y-113000500D01*
X105281158Y-113000500D01*
X105438844Y-113000500D01*
X105438845Y-113000499D01*
X105593497Y-112969737D01*
X105739179Y-112909394D01*
X105870289Y-112821789D01*
X105981789Y-112710289D01*
X106069394Y-112579179D01*
X106129737Y-112433497D01*
X106160500Y-112278842D01*
X106160500Y-112121158D01*
X106160500Y-112121155D01*
X106160499Y-112121153D01*
X107099500Y-112121153D01*
X107099500Y-112278846D01*
X107130261Y-112433489D01*
X107130264Y-112433501D01*
X107190602Y-112579172D01*
X107190609Y-112579185D01*
X107278210Y-112710288D01*
X107278213Y-112710292D01*
X107389707Y-112821786D01*
X107389711Y-112821789D01*
X107520814Y-112909390D01*
X107520827Y-112909397D01*
X107666498Y-112969735D01*
X107666503Y-112969737D01*
X107821153Y-113000499D01*
X107821156Y-113000500D01*
X107821158Y-113000500D01*
X107978844Y-113000500D01*
X107978845Y-113000499D01*
X108133497Y-112969737D01*
X108279179Y-112909394D01*
X108410289Y-112821789D01*
X108521789Y-112710289D01*
X108609394Y-112579179D01*
X108669737Y-112433497D01*
X108700500Y-112278842D01*
X108700500Y-112121158D01*
X108700500Y-112121155D01*
X108700499Y-112121153D01*
X108669738Y-111966510D01*
X108669737Y-111966503D01*
X108669735Y-111966498D01*
X108609397Y-111820827D01*
X108609390Y-111820814D01*
X108521789Y-111689711D01*
X108521786Y-111689707D01*
X108410292Y-111578213D01*
X108410288Y-111578210D01*
X108279185Y-111490609D01*
X108279172Y-111490602D01*
X108133501Y-111430264D01*
X108133489Y-111430261D01*
X107978845Y-111399500D01*
X107978842Y-111399500D01*
X107821158Y-111399500D01*
X107821155Y-111399500D01*
X107666510Y-111430261D01*
X107666498Y-111430264D01*
X107520827Y-111490602D01*
X107520814Y-111490609D01*
X107389711Y-111578210D01*
X107389707Y-111578213D01*
X107278213Y-111689707D01*
X107278210Y-111689711D01*
X107190609Y-111820814D01*
X107190602Y-111820827D01*
X107130264Y-111966498D01*
X107130261Y-111966510D01*
X107099500Y-112121153D01*
X106160499Y-112121153D01*
X106129738Y-111966510D01*
X106129737Y-111966503D01*
X106129735Y-111966498D01*
X106069397Y-111820827D01*
X106069390Y-111820814D01*
X105981789Y-111689711D01*
X105981786Y-111689707D01*
X105870292Y-111578213D01*
X105870288Y-111578210D01*
X105739185Y-111490609D01*
X105739172Y-111490602D01*
X105593501Y-111430264D01*
X105593489Y-111430261D01*
X105438845Y-111399500D01*
X105438842Y-111399500D01*
X105281158Y-111399500D01*
X105281155Y-111399500D01*
X105126510Y-111430261D01*
X105126498Y-111430264D01*
X104980827Y-111490602D01*
X104980814Y-111490609D01*
X104849711Y-111578210D01*
X104849707Y-111578213D01*
X104738213Y-111689707D01*
X104738210Y-111689711D01*
X104650609Y-111820814D01*
X104650602Y-111820827D01*
X104590264Y-111966498D01*
X104590261Y-111966510D01*
X104559500Y-112121153D01*
X103620499Y-112121153D01*
X103589738Y-111966510D01*
X103589737Y-111966503D01*
X103589735Y-111966498D01*
X103529397Y-111820827D01*
X103529390Y-111820814D01*
X103441789Y-111689711D01*
X103441786Y-111689707D01*
X103330292Y-111578213D01*
X103330288Y-111578210D01*
X103199185Y-111490609D01*
X103199172Y-111490602D01*
X103053501Y-111430264D01*
X103053489Y-111430261D01*
X102898845Y-111399500D01*
X102898842Y-111399500D01*
X102741158Y-111399500D01*
X102741155Y-111399500D01*
X102586510Y-111430261D01*
X102586498Y-111430264D01*
X102440827Y-111490602D01*
X102440814Y-111490609D01*
X102309711Y-111578210D01*
X102309707Y-111578213D01*
X102198213Y-111689707D01*
X102198210Y-111689711D01*
X102110609Y-111820814D01*
X102110602Y-111820827D01*
X102050264Y-111966498D01*
X102050261Y-111966510D01*
X102019500Y-112121153D01*
X101080499Y-112121153D01*
X101049738Y-111966510D01*
X101049737Y-111966503D01*
X101049735Y-111966498D01*
X100989397Y-111820827D01*
X100989390Y-111820814D01*
X100901789Y-111689711D01*
X100901786Y-111689707D01*
X100790292Y-111578213D01*
X100790288Y-111578210D01*
X100659185Y-111490609D01*
X100659172Y-111490602D01*
X100513501Y-111430264D01*
X100513489Y-111430261D01*
X100358845Y-111399500D01*
X100358842Y-111399500D01*
X100201158Y-111399500D01*
X100201155Y-111399500D01*
X100046510Y-111430261D01*
X100046498Y-111430264D01*
X99900827Y-111490602D01*
X99900814Y-111490609D01*
X99769711Y-111578210D01*
X99769707Y-111578213D01*
X99658213Y-111689707D01*
X99658210Y-111689711D01*
X99570609Y-111820814D01*
X99570602Y-111820827D01*
X99510264Y-111966498D01*
X99510261Y-111966510D01*
X99479500Y-112121153D01*
X98540499Y-112121153D01*
X98509738Y-111966510D01*
X98509737Y-111966503D01*
X98509735Y-111966498D01*
X98449397Y-111820827D01*
X98449390Y-111820814D01*
X98361789Y-111689711D01*
X98361786Y-111689707D01*
X98250292Y-111578213D01*
X98250288Y-111578210D01*
X98119185Y-111490609D01*
X98119172Y-111490602D01*
X97973501Y-111430264D01*
X97973489Y-111430261D01*
X97818845Y-111399500D01*
X97818842Y-111399500D01*
X97661158Y-111399500D01*
X97661155Y-111399500D01*
X97506510Y-111430261D01*
X97506498Y-111430264D01*
X97360827Y-111490602D01*
X97360814Y-111490609D01*
X97229711Y-111578210D01*
X97229707Y-111578213D01*
X97118213Y-111689707D01*
X97118210Y-111689711D01*
X97030609Y-111820814D01*
X97030602Y-111820827D01*
X96970264Y-111966498D01*
X96970261Y-111966510D01*
X96939500Y-112121153D01*
X96000499Y-112121153D01*
X95969738Y-111966510D01*
X95969737Y-111966503D01*
X95969735Y-111966498D01*
X95909397Y-111820827D01*
X95909390Y-111820814D01*
X95821789Y-111689711D01*
X95821786Y-111689707D01*
X95710292Y-111578213D01*
X95710288Y-111578210D01*
X95579185Y-111490609D01*
X95579172Y-111490602D01*
X95433501Y-111430264D01*
X95433489Y-111430261D01*
X95278845Y-111399500D01*
X95278842Y-111399500D01*
X95121158Y-111399500D01*
X95121155Y-111399500D01*
X94966510Y-111430261D01*
X94966498Y-111430264D01*
X94820827Y-111490602D01*
X94820814Y-111490609D01*
X94689711Y-111578210D01*
X94689707Y-111578213D01*
X94578213Y-111689707D01*
X94578210Y-111689711D01*
X94490609Y-111820814D01*
X94490602Y-111820827D01*
X94430264Y-111966498D01*
X94430261Y-111966510D01*
X94399500Y-112121153D01*
X83450500Y-112121153D01*
X83450500Y-110411530D01*
X119899500Y-110411530D01*
X119899500Y-110618469D01*
X119939868Y-110821412D01*
X119939870Y-110821420D01*
X120019058Y-111012596D01*
X120134024Y-111184657D01*
X120280342Y-111330975D01*
X120280345Y-111330977D01*
X120452402Y-111445941D01*
X120643580Y-111525130D01*
X120846530Y-111565499D01*
X120846534Y-111565500D01*
X120846535Y-111565500D01*
X121053466Y-111565500D01*
X121053467Y-111565499D01*
X121256420Y-111525130D01*
X121447598Y-111445941D01*
X121619655Y-111330977D01*
X121765977Y-111184655D01*
X121880941Y-111012598D01*
X121960130Y-110821420D01*
X122000500Y-110618465D01*
X122000500Y-110411535D01*
X121960130Y-110208580D01*
X121880941Y-110017402D01*
X121765977Y-109845345D01*
X121765975Y-109845342D01*
X121619657Y-109699024D01*
X121533626Y-109641541D01*
X121447598Y-109584059D01*
X121256420Y-109504870D01*
X121256412Y-109504868D01*
X121053469Y-109464500D01*
X121053465Y-109464500D01*
X120846535Y-109464500D01*
X120846530Y-109464500D01*
X120643587Y-109504868D01*
X120643579Y-109504870D01*
X120452403Y-109584058D01*
X120280342Y-109699024D01*
X120134024Y-109845342D01*
X120019058Y-110017403D01*
X119939870Y-110208579D01*
X119939868Y-110208587D01*
X119899500Y-110411530D01*
X83450500Y-110411530D01*
X83450500Y-107871530D01*
X119899500Y-107871530D01*
X119899500Y-108078469D01*
X119939868Y-108281412D01*
X119939870Y-108281420D01*
X120019058Y-108472596D01*
X120134024Y-108644657D01*
X120280342Y-108790975D01*
X120280345Y-108790977D01*
X120452402Y-108905941D01*
X120643580Y-108985130D01*
X120846530Y-109025499D01*
X120846534Y-109025500D01*
X120846535Y-109025500D01*
X121053466Y-109025500D01*
X121053467Y-109025499D01*
X121256420Y-108985130D01*
X121447598Y-108905941D01*
X121619655Y-108790977D01*
X121765977Y-108644655D01*
X121880941Y-108472598D01*
X121960130Y-108281420D01*
X122000500Y-108078465D01*
X122000500Y-107871535D01*
X121960130Y-107668580D01*
X121880941Y-107477402D01*
X121765977Y-107305345D01*
X121765975Y-107305342D01*
X121619657Y-107159024D01*
X121533626Y-107101541D01*
X121447598Y-107044059D01*
X121256420Y-106964870D01*
X121256412Y-106964868D01*
X121053469Y-106924500D01*
X121053465Y-106924500D01*
X120846535Y-106924500D01*
X120846530Y-106924500D01*
X120643587Y-106964868D01*
X120643579Y-106964870D01*
X120452403Y-107044058D01*
X120280342Y-107159024D01*
X120134024Y-107305342D01*
X120019058Y-107477403D01*
X119939870Y-107668579D01*
X119939868Y-107668587D01*
X119899500Y-107871530D01*
X83450500Y-107871530D01*
X83450500Y-105331530D01*
X119899500Y-105331530D01*
X119899500Y-105538469D01*
X119939868Y-105741412D01*
X119939870Y-105741420D01*
X120019058Y-105932596D01*
X120134024Y-106104657D01*
X120280342Y-106250975D01*
X120280345Y-106250977D01*
X120452402Y-106365941D01*
X120643580Y-106445130D01*
X120846530Y-106485499D01*
X120846534Y-106485500D01*
X120846535Y-106485500D01*
X121053466Y-106485500D01*
X121053467Y-106485499D01*
X121256420Y-106445130D01*
X121447598Y-106365941D01*
X121619655Y-106250977D01*
X121765977Y-106104655D01*
X121880941Y-105932598D01*
X121960130Y-105741420D01*
X122000500Y-105538465D01*
X122000500Y-105331535D01*
X121960130Y-105128580D01*
X121880941Y-104937402D01*
X121765977Y-104765345D01*
X121765975Y-104765342D01*
X121619657Y-104619024D01*
X121533626Y-104561541D01*
X121447598Y-104504059D01*
X121256420Y-104424870D01*
X121256412Y-104424868D01*
X121053469Y-104384500D01*
X121053465Y-104384500D01*
X120846535Y-104384500D01*
X120846530Y-104384500D01*
X120643587Y-104424868D01*
X120643579Y-104424870D01*
X120452403Y-104504058D01*
X120280342Y-104619024D01*
X120134024Y-104765342D01*
X120019058Y-104937403D01*
X119939870Y-105128579D01*
X119939868Y-105128587D01*
X119899500Y-105331530D01*
X83450500Y-105331530D01*
X83450500Y-101961153D01*
X94399500Y-101961153D01*
X94399500Y-102118846D01*
X94430261Y-102273489D01*
X94430264Y-102273501D01*
X94490602Y-102419172D01*
X94490609Y-102419185D01*
X94578210Y-102550288D01*
X94578213Y-102550292D01*
X94689707Y-102661786D01*
X94689711Y-102661789D01*
X94820814Y-102749390D01*
X94820827Y-102749397D01*
X94922559Y-102791535D01*
X94966503Y-102809737D01*
X95121153Y-102840499D01*
X95121156Y-102840500D01*
X95121158Y-102840500D01*
X95278844Y-102840500D01*
X95278845Y-102840499D01*
X95433497Y-102809737D01*
X95579179Y-102749394D01*
X95710289Y-102661789D01*
X95821789Y-102550289D01*
X95909394Y-102419179D01*
X95969737Y-102273497D01*
X96000500Y-102118842D01*
X96000500Y-101961158D01*
X96000500Y-101961155D01*
X96000499Y-101961153D01*
X96939500Y-101961153D01*
X96939500Y-102118846D01*
X96970261Y-102273489D01*
X96970264Y-102273501D01*
X97030602Y-102419172D01*
X97030609Y-102419185D01*
X97118210Y-102550288D01*
X97118213Y-102550292D01*
X97229707Y-102661786D01*
X97229711Y-102661789D01*
X97360814Y-102749390D01*
X97360827Y-102749397D01*
X97462559Y-102791535D01*
X97506503Y-102809737D01*
X97661153Y-102840499D01*
X97661156Y-102840500D01*
X97661158Y-102840500D01*
X97818844Y-102840500D01*
X97818845Y-102840499D01*
X97973497Y-102809737D01*
X98119179Y-102749394D01*
X98250289Y-102661789D01*
X98361789Y-102550289D01*
X98449394Y-102419179D01*
X98509737Y-102273497D01*
X98540500Y-102118842D01*
X98540500Y-101961158D01*
X98540500Y-101961155D01*
X98540499Y-101961153D01*
X99479500Y-101961153D01*
X99479500Y-102118846D01*
X99510261Y-102273489D01*
X99510264Y-102273501D01*
X99570602Y-102419172D01*
X99570609Y-102419185D01*
X99658210Y-102550288D01*
X99658213Y-102550292D01*
X99769707Y-102661786D01*
X99769711Y-102661789D01*
X99900814Y-102749390D01*
X99900827Y-102749397D01*
X100002559Y-102791535D01*
X100046503Y-102809737D01*
X100201153Y-102840499D01*
X100201156Y-102840500D01*
X100201158Y-102840500D01*
X100358844Y-102840500D01*
X100358845Y-102840499D01*
X100513497Y-102809737D01*
X100659179Y-102749394D01*
X100790289Y-102661789D01*
X100901789Y-102550289D01*
X100989394Y-102419179D01*
X101049737Y-102273497D01*
X101080500Y-102118842D01*
X101080500Y-101961158D01*
X101080500Y-101961155D01*
X101080499Y-101961153D01*
X102019500Y-101961153D01*
X102019500Y-102118846D01*
X102050261Y-102273489D01*
X102050264Y-102273501D01*
X102110602Y-102419172D01*
X102110609Y-102419185D01*
X102198210Y-102550288D01*
X102198213Y-102550292D01*
X102309707Y-102661786D01*
X102309711Y-102661789D01*
X102440814Y-102749390D01*
X102440827Y-102749397D01*
X102542559Y-102791535D01*
X102586503Y-102809737D01*
X102741153Y-102840499D01*
X102741156Y-102840500D01*
X102741158Y-102840500D01*
X102898844Y-102840500D01*
X102898845Y-102840499D01*
X103053497Y-102809737D01*
X103199179Y-102749394D01*
X103330289Y-102661789D01*
X103441789Y-102550289D01*
X103529394Y-102419179D01*
X103589737Y-102273497D01*
X103620500Y-102118842D01*
X103620500Y-101961158D01*
X103620500Y-101961155D01*
X103620499Y-101961153D01*
X104559500Y-101961153D01*
X104559500Y-102118846D01*
X104590261Y-102273489D01*
X104590264Y-102273501D01*
X104650602Y-102419172D01*
X104650609Y-102419185D01*
X104738210Y-102550288D01*
X104738213Y-102550292D01*
X104849707Y-102661786D01*
X104849711Y-102661789D01*
X104980814Y-102749390D01*
X104980827Y-102749397D01*
X105082559Y-102791535D01*
X105126503Y-102809737D01*
X105281153Y-102840499D01*
X105281156Y-102840500D01*
X105281158Y-102840500D01*
X105438844Y-102840500D01*
X105438845Y-102840499D01*
X105593497Y-102809737D01*
X105739179Y-102749394D01*
X105870289Y-102661789D01*
X105981789Y-102550289D01*
X106069394Y-102419179D01*
X106129737Y-102273497D01*
X106160500Y-102118842D01*
X106160500Y-101961158D01*
X106160500Y-101961155D01*
X106160499Y-101961153D01*
X107099500Y-101961153D01*
X107099500Y-102118846D01*
X107130261Y-102273489D01*
X107130264Y-102273501D01*
X107190602Y-102419172D01*
X107190609Y-102419185D01*
X107278210Y-102550288D01*
X107278213Y-102550292D01*
X107389707Y-102661786D01*
X107389711Y-102661789D01*
X107520814Y-102749390D01*
X107520827Y-102749397D01*
X107622559Y-102791535D01*
X107666503Y-102809737D01*
X107821153Y-102840499D01*
X107821156Y-102840500D01*
X107821158Y-102840500D01*
X107978844Y-102840500D01*
X107978845Y-102840499D01*
X108133497Y-102809737D01*
X108177453Y-102791530D01*
X119899500Y-102791530D01*
X119899500Y-102998469D01*
X119939868Y-103201412D01*
X119939870Y-103201420D01*
X120019058Y-103392596D01*
X120134024Y-103564657D01*
X120280342Y-103710975D01*
X120280345Y-103710977D01*
X120452402Y-103825941D01*
X120643580Y-103905130D01*
X120846530Y-103945499D01*
X120846534Y-103945500D01*
X120846535Y-103945500D01*
X121053466Y-103945500D01*
X121053467Y-103945499D01*
X121256420Y-103905130D01*
X121447598Y-103825941D01*
X121619655Y-103710977D01*
X121765977Y-103564655D01*
X121880941Y-103392598D01*
X121960130Y-103201420D01*
X122000500Y-102998465D01*
X122000500Y-102791535D01*
X121960130Y-102588580D01*
X121960128Y-102588575D01*
X121943501Y-102548433D01*
X121927212Y-102509108D01*
X136149500Y-102509108D01*
X136149500Y-102640892D01*
X136155099Y-102661789D01*
X136183608Y-102768187D01*
X136207598Y-102809738D01*
X136249500Y-102882314D01*
X136342686Y-102975500D01*
X136456814Y-103041392D01*
X136584108Y-103075500D01*
X136584110Y-103075500D01*
X136715890Y-103075500D01*
X136715892Y-103075500D01*
X136843186Y-103041392D01*
X136957314Y-102975500D01*
X137050500Y-102882314D01*
X137116392Y-102768186D01*
X137150500Y-102640892D01*
X137150500Y-102509108D01*
X137116392Y-102381814D01*
X137050500Y-102267686D01*
X137050494Y-102267680D01*
X137048044Y-102264486D01*
X137046811Y-102261298D01*
X137046436Y-102260648D01*
X137046537Y-102260589D01*
X137022847Y-102199317D01*
X137036883Y-102130872D01*
X137085696Y-102080881D01*
X137114320Y-102069222D01*
X137218186Y-102041392D01*
X137332314Y-101975500D01*
X137425500Y-101882314D01*
X137491392Y-101768186D01*
X137525500Y-101640892D01*
X137525500Y-101509108D01*
X137491392Y-101381814D01*
X137491390Y-101381810D01*
X137491332Y-101381594D01*
X137492995Y-101311744D01*
X137532157Y-101253881D01*
X137596386Y-101226377D01*
X137611107Y-101225500D01*
X137690890Y-101225500D01*
X137690892Y-101225500D01*
X137818186Y-101191392D01*
X137932314Y-101125500D01*
X138025500Y-101032314D01*
X138091392Y-100918186D01*
X138125500Y-100790892D01*
X138125500Y-100659108D01*
X138091392Y-100531814D01*
X138025500Y-100417686D01*
X137932314Y-100324500D01*
X137875250Y-100291554D01*
X137818187Y-100258608D01*
X137754539Y-100241554D01*
X137690892Y-100224500D01*
X137559108Y-100224500D01*
X137431812Y-100258608D01*
X137317686Y-100324500D01*
X137317683Y-100324502D01*
X137224502Y-100417683D01*
X137224500Y-100417686D01*
X137158608Y-100531812D01*
X137151294Y-100559110D01*
X137124500Y-100659108D01*
X137124500Y-100790892D01*
X137158608Y-100918186D01*
X137158609Y-100918187D01*
X137158668Y-100918406D01*
X137157005Y-100988256D01*
X137117843Y-101046119D01*
X137053614Y-101073623D01*
X137038893Y-101074500D01*
X136959108Y-101074500D01*
X136831812Y-101108608D01*
X136717686Y-101174500D01*
X136717683Y-101174502D01*
X136624502Y-101267683D01*
X136624500Y-101267686D01*
X136558608Y-101381812D01*
X136524500Y-101509108D01*
X136524500Y-101640891D01*
X136558608Y-101768187D01*
X136580730Y-101806503D01*
X136624500Y-101882314D01*
X136624501Y-101882315D01*
X136624503Y-101882318D01*
X136626956Y-101885515D01*
X136628187Y-101888699D01*
X136628564Y-101889352D01*
X136628462Y-101889410D01*
X136652152Y-101950683D01*
X136638115Y-102019128D01*
X136589302Y-102069119D01*
X136560676Y-102080778D01*
X136456812Y-102108608D01*
X136342686Y-102174500D01*
X136342683Y-102174502D01*
X136249502Y-102267683D01*
X136249500Y-102267686D01*
X136183608Y-102381812D01*
X136149500Y-102509108D01*
X121927212Y-102509108D01*
X121880942Y-102397403D01*
X121765975Y-102225342D01*
X121619657Y-102079024D01*
X121530015Y-102019128D01*
X121447598Y-101964059D01*
X121440594Y-101961158D01*
X121256420Y-101884870D01*
X121256412Y-101884868D01*
X121053469Y-101844500D01*
X121053465Y-101844500D01*
X120846535Y-101844500D01*
X120846530Y-101844500D01*
X120643587Y-101884868D01*
X120643579Y-101884870D01*
X120452403Y-101964058D01*
X120280342Y-102079024D01*
X120134024Y-102225342D01*
X120019058Y-102397403D01*
X119939870Y-102588579D01*
X119939868Y-102588587D01*
X119899500Y-102791530D01*
X108177453Y-102791530D01*
X108279179Y-102749394D01*
X108410289Y-102661789D01*
X108521789Y-102550289D01*
X108609394Y-102419179D01*
X108669737Y-102273497D01*
X108700500Y-102118842D01*
X108700500Y-101961158D01*
X108700500Y-101961155D01*
X108700499Y-101961153D01*
X108686087Y-101888699D01*
X108669737Y-101806503D01*
X108653866Y-101768186D01*
X108609397Y-101660827D01*
X108609390Y-101660814D01*
X108521789Y-101529711D01*
X108521786Y-101529707D01*
X108410292Y-101418213D01*
X108410288Y-101418210D01*
X108279185Y-101330609D01*
X108279172Y-101330602D01*
X108133501Y-101270264D01*
X108133489Y-101270261D01*
X107978845Y-101239500D01*
X107978842Y-101239500D01*
X107821158Y-101239500D01*
X107821155Y-101239500D01*
X107666510Y-101270261D01*
X107666498Y-101270264D01*
X107520827Y-101330602D01*
X107520814Y-101330609D01*
X107389711Y-101418210D01*
X107389707Y-101418213D01*
X107278213Y-101529707D01*
X107278210Y-101529711D01*
X107190609Y-101660814D01*
X107190602Y-101660827D01*
X107130264Y-101806498D01*
X107130261Y-101806510D01*
X107099500Y-101961153D01*
X106160499Y-101961153D01*
X106146087Y-101888699D01*
X106129737Y-101806503D01*
X106113866Y-101768186D01*
X106069397Y-101660827D01*
X106069390Y-101660814D01*
X105981789Y-101529711D01*
X105981786Y-101529707D01*
X105870292Y-101418213D01*
X105870288Y-101418210D01*
X105739185Y-101330609D01*
X105739172Y-101330602D01*
X105593501Y-101270264D01*
X105593489Y-101270261D01*
X105438845Y-101239500D01*
X105438842Y-101239500D01*
X105281158Y-101239500D01*
X105281155Y-101239500D01*
X105126510Y-101270261D01*
X105126498Y-101270264D01*
X104980827Y-101330602D01*
X104980814Y-101330609D01*
X104849711Y-101418210D01*
X104849707Y-101418213D01*
X104738213Y-101529707D01*
X104738210Y-101529711D01*
X104650609Y-101660814D01*
X104650602Y-101660827D01*
X104590264Y-101806498D01*
X104590261Y-101806510D01*
X104559500Y-101961153D01*
X103620499Y-101961153D01*
X103606087Y-101888699D01*
X103589737Y-101806503D01*
X103573866Y-101768186D01*
X103529397Y-101660827D01*
X103529390Y-101660814D01*
X103441789Y-101529711D01*
X103441786Y-101529707D01*
X103330292Y-101418213D01*
X103330288Y-101418210D01*
X103199185Y-101330609D01*
X103199172Y-101330602D01*
X103053501Y-101270264D01*
X103053489Y-101270261D01*
X102898845Y-101239500D01*
X102898842Y-101239500D01*
X102741158Y-101239500D01*
X102741155Y-101239500D01*
X102586510Y-101270261D01*
X102586498Y-101270264D01*
X102440827Y-101330602D01*
X102440814Y-101330609D01*
X102309711Y-101418210D01*
X102309707Y-101418213D01*
X102198213Y-101529707D01*
X102198210Y-101529711D01*
X102110609Y-101660814D01*
X102110602Y-101660827D01*
X102050264Y-101806498D01*
X102050261Y-101806510D01*
X102019500Y-101961153D01*
X101080499Y-101961153D01*
X101066087Y-101888699D01*
X101049737Y-101806503D01*
X101033866Y-101768186D01*
X100989397Y-101660827D01*
X100989390Y-101660814D01*
X100901789Y-101529711D01*
X100901786Y-101529707D01*
X100790292Y-101418213D01*
X100790288Y-101418210D01*
X100659185Y-101330609D01*
X100659172Y-101330602D01*
X100513501Y-101270264D01*
X100513489Y-101270261D01*
X100358845Y-101239500D01*
X100358842Y-101239500D01*
X100201158Y-101239500D01*
X100201155Y-101239500D01*
X100046510Y-101270261D01*
X100046498Y-101270264D01*
X99900827Y-101330602D01*
X99900814Y-101330609D01*
X99769711Y-101418210D01*
X99769707Y-101418213D01*
X99658213Y-101529707D01*
X99658210Y-101529711D01*
X99570609Y-101660814D01*
X99570602Y-101660827D01*
X99510264Y-101806498D01*
X99510261Y-101806510D01*
X99479500Y-101961153D01*
X98540499Y-101961153D01*
X98526087Y-101888699D01*
X98509737Y-101806503D01*
X98493866Y-101768186D01*
X98449397Y-101660827D01*
X98449390Y-101660814D01*
X98361789Y-101529711D01*
X98361786Y-101529707D01*
X98250292Y-101418213D01*
X98250288Y-101418210D01*
X98119185Y-101330609D01*
X98119172Y-101330602D01*
X97973501Y-101270264D01*
X97973489Y-101270261D01*
X97818845Y-101239500D01*
X97818842Y-101239500D01*
X97661158Y-101239500D01*
X97661155Y-101239500D01*
X97506510Y-101270261D01*
X97506498Y-101270264D01*
X97360827Y-101330602D01*
X97360814Y-101330609D01*
X97229711Y-101418210D01*
X97229707Y-101418213D01*
X97118213Y-101529707D01*
X97118210Y-101529711D01*
X97030609Y-101660814D01*
X97030602Y-101660827D01*
X96970264Y-101806498D01*
X96970261Y-101806510D01*
X96939500Y-101961153D01*
X96000499Y-101961153D01*
X95986087Y-101888699D01*
X95969737Y-101806503D01*
X95953866Y-101768186D01*
X95909397Y-101660827D01*
X95909390Y-101660814D01*
X95821789Y-101529711D01*
X95821786Y-101529707D01*
X95710292Y-101418213D01*
X95710288Y-101418210D01*
X95579185Y-101330609D01*
X95579172Y-101330602D01*
X95433501Y-101270264D01*
X95433489Y-101270261D01*
X95278845Y-101239500D01*
X95278842Y-101239500D01*
X95121158Y-101239500D01*
X95121155Y-101239500D01*
X94966510Y-101270261D01*
X94966498Y-101270264D01*
X94820827Y-101330602D01*
X94820814Y-101330609D01*
X94689711Y-101418210D01*
X94689707Y-101418213D01*
X94578213Y-101529707D01*
X94578210Y-101529711D01*
X94490609Y-101660814D01*
X94490602Y-101660827D01*
X94430264Y-101806498D01*
X94430261Y-101806510D01*
X94399500Y-101961153D01*
X83450500Y-101961153D01*
X83450500Y-100559108D01*
X131424500Y-100559108D01*
X131424500Y-100690891D01*
X131458608Y-100818187D01*
X131491554Y-100875250D01*
X131524500Y-100932314D01*
X131617686Y-101025500D01*
X131731814Y-101091392D01*
X131859108Y-101125500D01*
X131859110Y-101125500D01*
X131990890Y-101125500D01*
X131990892Y-101125500D01*
X132118186Y-101091392D01*
X132232314Y-101025500D01*
X132325500Y-100932314D01*
X132391392Y-100818186D01*
X132425500Y-100690892D01*
X132425500Y-100559108D01*
X132391392Y-100431814D01*
X132325500Y-100317686D01*
X132232314Y-100224500D01*
X132175250Y-100191554D01*
X132118187Y-100158608D01*
X132054539Y-100141554D01*
X131990892Y-100124500D01*
X131859108Y-100124500D01*
X131731812Y-100158608D01*
X131617686Y-100224500D01*
X131617683Y-100224502D01*
X131524502Y-100317683D01*
X131524500Y-100317686D01*
X131458608Y-100431812D01*
X131424500Y-100559108D01*
X83450500Y-100559108D01*
X83450500Y-99884108D01*
X117709500Y-99884108D01*
X117709500Y-100015892D01*
X117713359Y-100030293D01*
X117743608Y-100143187D01*
X117776554Y-100200250D01*
X117809500Y-100257314D01*
X117902686Y-100350500D01*
X118016814Y-100416392D01*
X118144108Y-100450500D01*
X118144110Y-100450500D01*
X118275890Y-100450500D01*
X118275892Y-100450500D01*
X118403186Y-100416392D01*
X118517314Y-100350500D01*
X118527917Y-100339897D01*
X118589240Y-100306412D01*
X118658932Y-100311396D01*
X118703279Y-100339897D01*
X118728284Y-100364902D01*
X118842412Y-100430794D01*
X118969706Y-100464902D01*
X118969708Y-100464902D01*
X119101488Y-100464902D01*
X119101490Y-100464902D01*
X119228784Y-100430794D01*
X119342912Y-100364902D01*
X119436098Y-100271716D01*
X119501990Y-100157588D01*
X119536098Y-100030294D01*
X119536098Y-99898510D01*
X119501990Y-99771216D01*
X119436098Y-99657088D01*
X119342912Y-99563902D01*
X119285848Y-99530956D01*
X119228785Y-99498010D01*
X119165137Y-99480956D01*
X119101490Y-99463902D01*
X118969706Y-99463902D01*
X118842410Y-99498010D01*
X118728284Y-99563902D01*
X118728281Y-99563904D01*
X118717681Y-99574505D01*
X118656358Y-99607990D01*
X118586666Y-99603006D01*
X118542319Y-99574505D01*
X118517316Y-99549502D01*
X118517314Y-99549500D01*
X118428131Y-99498010D01*
X118403187Y-99483608D01*
X118339539Y-99466554D01*
X118275892Y-99449500D01*
X118144108Y-99449500D01*
X118016812Y-99483608D01*
X117902686Y-99549500D01*
X117902683Y-99549502D01*
X117809502Y-99642683D01*
X117809500Y-99642686D01*
X117743608Y-99756812D01*
X117739749Y-99771216D01*
X117709500Y-99884108D01*
X83450500Y-99884108D01*
X83450500Y-98164108D01*
X112369500Y-98164108D01*
X112369500Y-98295891D01*
X112403608Y-98423187D01*
X112433810Y-98475497D01*
X112469500Y-98537314D01*
X112562686Y-98630500D01*
X112676814Y-98696392D01*
X112804108Y-98730500D01*
X112804110Y-98730500D01*
X112935890Y-98730500D01*
X112935892Y-98730500D01*
X113063186Y-98696392D01*
X113177314Y-98630500D01*
X113270500Y-98537314D01*
X113336392Y-98423186D01*
X113370500Y-98295892D01*
X113370500Y-98164108D01*
X113336392Y-98036814D01*
X113320396Y-98009108D01*
X125999500Y-98009108D01*
X125999500Y-98140891D01*
X126033608Y-98268187D01*
X126049604Y-98295892D01*
X126099500Y-98382314D01*
X126192686Y-98475500D01*
X126306814Y-98541392D01*
X126434108Y-98575500D01*
X126434110Y-98575500D01*
X126565890Y-98575500D01*
X126565892Y-98575500D01*
X126693186Y-98541392D01*
X126807314Y-98475500D01*
X126900500Y-98382314D01*
X126966392Y-98268186D01*
X127000500Y-98140892D01*
X127000500Y-98009108D01*
X126966392Y-97881814D01*
X126900500Y-97767686D01*
X126807314Y-97674500D01*
X126750250Y-97641554D01*
X126693187Y-97608608D01*
X126629539Y-97591554D01*
X126565892Y-97574500D01*
X126434108Y-97574500D01*
X126306812Y-97608608D01*
X126192686Y-97674500D01*
X126192683Y-97674502D01*
X126099502Y-97767683D01*
X126099500Y-97767686D01*
X126033608Y-97881812D01*
X125999500Y-98009108D01*
X113320396Y-98009108D01*
X113270500Y-97922686D01*
X113177314Y-97829500D01*
X113120250Y-97796554D01*
X113063187Y-97763608D01*
X112999539Y-97746554D01*
X112935892Y-97729500D01*
X112804108Y-97729500D01*
X112676812Y-97763608D01*
X112562686Y-97829500D01*
X112562683Y-97829502D01*
X112469502Y-97922683D01*
X112469500Y-97922686D01*
X112403608Y-98036812D01*
X112369500Y-98164108D01*
X83450500Y-98164108D01*
X83450500Y-96331007D01*
X103855096Y-96331007D01*
X103855096Y-96462790D01*
X103889204Y-96590086D01*
X103922150Y-96647149D01*
X103955096Y-96704213D01*
X104048282Y-96797399D01*
X104162410Y-96863291D01*
X104289704Y-96897399D01*
X104289706Y-96897399D01*
X104421486Y-96897399D01*
X104421488Y-96897399D01*
X104548782Y-96863291D01*
X104662910Y-96797399D01*
X104756096Y-96704213D01*
X104821988Y-96590085D01*
X104856096Y-96462791D01*
X104856096Y-96331007D01*
X104821988Y-96203713D01*
X104756096Y-96089585D01*
X104662910Y-95996399D01*
X104605564Y-95963290D01*
X104548783Y-95930507D01*
X104485135Y-95913453D01*
X104421488Y-95896399D01*
X104289704Y-95896399D01*
X104162408Y-95930507D01*
X104048282Y-95996399D01*
X104048279Y-95996401D01*
X103955098Y-96089582D01*
X103955096Y-96089585D01*
X103889204Y-96203711D01*
X103855096Y-96331007D01*
X83450500Y-96331007D01*
X83450500Y-95431007D01*
X99055096Y-95431007D01*
X99055096Y-95562790D01*
X99089204Y-95690086D01*
X99122150Y-95747149D01*
X99155096Y-95804213D01*
X99248282Y-95897399D01*
X99362410Y-95963291D01*
X99489704Y-95997399D01*
X99489706Y-95997399D01*
X99621486Y-95997399D01*
X99621488Y-95997399D01*
X99748782Y-95963291D01*
X99862910Y-95897399D01*
X99956096Y-95804213D01*
X100021988Y-95690085D01*
X100056096Y-95562791D01*
X100056096Y-95509108D01*
X122449500Y-95509108D01*
X122449500Y-95640891D01*
X122483608Y-95768187D01*
X122504408Y-95804213D01*
X122549500Y-95882314D01*
X122642686Y-95975500D01*
X122756814Y-96041392D01*
X122884108Y-96075500D01*
X122884110Y-96075500D01*
X123015890Y-96075500D01*
X123015892Y-96075500D01*
X123143186Y-96041392D01*
X123257314Y-95975500D01*
X123350500Y-95882314D01*
X123416392Y-95768186D01*
X123450500Y-95640892D01*
X123450500Y-95509108D01*
X123416392Y-95381814D01*
X123350500Y-95267686D01*
X123257314Y-95174500D01*
X123200250Y-95141554D01*
X123143187Y-95108608D01*
X123079539Y-95091554D01*
X123015892Y-95074500D01*
X122884108Y-95074500D01*
X122756812Y-95108608D01*
X122642686Y-95174500D01*
X122642683Y-95174502D01*
X122549502Y-95267683D01*
X122549500Y-95267686D01*
X122483608Y-95381812D01*
X122449500Y-95509108D01*
X100056096Y-95509108D01*
X100056096Y-95431007D01*
X100021988Y-95303713D01*
X99956096Y-95189585D01*
X99862910Y-95096399D01*
X99805846Y-95063453D01*
X99748783Y-95030507D01*
X99636793Y-95000500D01*
X99621488Y-94996399D01*
X99489704Y-94996399D01*
X99362408Y-95030507D01*
X99248282Y-95096399D01*
X99248279Y-95096401D01*
X99155098Y-95189582D01*
X99155096Y-95189585D01*
X99089204Y-95303711D01*
X99055096Y-95431007D01*
X83450500Y-95431007D01*
X83450500Y-94434108D01*
X126999500Y-94434108D01*
X126999500Y-94565891D01*
X127033608Y-94693187D01*
X127066554Y-94750250D01*
X127099500Y-94807314D01*
X127192686Y-94900500D01*
X127306814Y-94966392D01*
X127434108Y-95000500D01*
X127434110Y-95000500D01*
X127565890Y-95000500D01*
X127565892Y-95000500D01*
X127693186Y-94966392D01*
X127807314Y-94900500D01*
X127900500Y-94807314D01*
X127966392Y-94693186D01*
X128000500Y-94565892D01*
X128000500Y-94434108D01*
X127966392Y-94306814D01*
X127900500Y-94192686D01*
X127807314Y-94099500D01*
X127750250Y-94066554D01*
X127693187Y-94033608D01*
X127629539Y-94016554D01*
X127565892Y-93999500D01*
X127434108Y-93999500D01*
X127306812Y-94033608D01*
X127192686Y-94099500D01*
X127192683Y-94099502D01*
X127099502Y-94192683D01*
X127099500Y-94192686D01*
X127033608Y-94306812D01*
X126999500Y-94434108D01*
X83450500Y-94434108D01*
X83450500Y-92731007D01*
X89655096Y-92731007D01*
X89655096Y-92862790D01*
X89689204Y-92990086D01*
X89722150Y-93047149D01*
X89755096Y-93104213D01*
X89848282Y-93197399D01*
X89962410Y-93263291D01*
X90089704Y-93297399D01*
X90089706Y-93297399D01*
X90221486Y-93297399D01*
X90221488Y-93297399D01*
X90348782Y-93263291D01*
X90462910Y-93197399D01*
X90556096Y-93104213D01*
X90598362Y-93031007D01*
X98155096Y-93031007D01*
X98155096Y-93162790D01*
X98189204Y-93290086D01*
X98222150Y-93347149D01*
X98255096Y-93404213D01*
X98348282Y-93497399D01*
X98462410Y-93563291D01*
X98589704Y-93597399D01*
X98589706Y-93597399D01*
X98721486Y-93597399D01*
X98721488Y-93597399D01*
X98848782Y-93563291D01*
X98962910Y-93497399D01*
X99056096Y-93404213D01*
X99121988Y-93290085D01*
X99156096Y-93162791D01*
X99156096Y-93031007D01*
X99121988Y-92903713D01*
X99056096Y-92789585D01*
X98962910Y-92696399D01*
X98905846Y-92663453D01*
X98848783Y-92630507D01*
X98748784Y-92603713D01*
X98721488Y-92596399D01*
X98589704Y-92596399D01*
X98462408Y-92630507D01*
X98348282Y-92696399D01*
X98348279Y-92696401D01*
X98255098Y-92789582D01*
X98255096Y-92789585D01*
X98189204Y-92903711D01*
X98155096Y-93031007D01*
X90598362Y-93031007D01*
X90621988Y-92990085D01*
X90656096Y-92862791D01*
X90656096Y-92731007D01*
X90621988Y-92603713D01*
X90617765Y-92596399D01*
X90556099Y-92489590D01*
X90556098Y-92489589D01*
X90556096Y-92489585D01*
X90497518Y-92431007D01*
X97055096Y-92431007D01*
X97055096Y-92562790D01*
X97089204Y-92690086D01*
X97122150Y-92747149D01*
X97155096Y-92804213D01*
X97248282Y-92897399D01*
X97347117Y-92954462D01*
X97362406Y-92963289D01*
X97362410Y-92963291D01*
X97489704Y-92997399D01*
X97489706Y-92997399D01*
X97621486Y-92997399D01*
X97621488Y-92997399D01*
X97748782Y-92963291D01*
X97862910Y-92897399D01*
X97956096Y-92804213D01*
X98021988Y-92690085D01*
X98056096Y-92562791D01*
X98056096Y-92431007D01*
X98021988Y-92303713D01*
X97956096Y-92189585D01*
X97862910Y-92096399D01*
X97805564Y-92063290D01*
X97748783Y-92030507D01*
X97733783Y-92026488D01*
X97621488Y-91996399D01*
X97489704Y-91996399D01*
X97362408Y-92030507D01*
X97248282Y-92096399D01*
X97248279Y-92096401D01*
X97155098Y-92189582D01*
X97155096Y-92189585D01*
X97089204Y-92303711D01*
X97055096Y-92431007D01*
X90497518Y-92431007D01*
X90462910Y-92396399D01*
X90405846Y-92363453D01*
X90348783Y-92330507D01*
X90248784Y-92303713D01*
X90221488Y-92296399D01*
X90089704Y-92296399D01*
X89962408Y-92330507D01*
X89848282Y-92396399D01*
X89848279Y-92396401D01*
X89755098Y-92489582D01*
X89755096Y-92489585D01*
X89689204Y-92603711D01*
X89655096Y-92731007D01*
X83450500Y-92731007D01*
X83450500Y-91531007D01*
X95955096Y-91531007D01*
X95955096Y-91662790D01*
X95989204Y-91790086D01*
X96022150Y-91847149D01*
X96055096Y-91904213D01*
X96148282Y-91997399D01*
X96262410Y-92063291D01*
X96389704Y-92097399D01*
X96389706Y-92097399D01*
X96521486Y-92097399D01*
X96521488Y-92097399D01*
X96648782Y-92063291D01*
X96762910Y-91997399D01*
X96851201Y-91909108D01*
X132949500Y-91909108D01*
X132949500Y-92040892D01*
X132955502Y-92063291D01*
X132983608Y-92168187D01*
X133016554Y-92225250D01*
X133049500Y-92282314D01*
X133142686Y-92375500D01*
X133256814Y-92441392D01*
X133384108Y-92475500D01*
X133384110Y-92475500D01*
X133515890Y-92475500D01*
X133515892Y-92475500D01*
X133643186Y-92441392D01*
X133757314Y-92375500D01*
X133850500Y-92282314D01*
X133916392Y-92168186D01*
X133950500Y-92040892D01*
X133950500Y-91909108D01*
X133916392Y-91781814D01*
X133850500Y-91667686D01*
X133757314Y-91574500D01*
X133681982Y-91531007D01*
X133643187Y-91508608D01*
X133579539Y-91491554D01*
X133515892Y-91474500D01*
X133384108Y-91474500D01*
X133256812Y-91508608D01*
X133142686Y-91574500D01*
X133142683Y-91574502D01*
X133049502Y-91667683D01*
X133049500Y-91667686D01*
X132983608Y-91781812D01*
X132950812Y-91904212D01*
X132949500Y-91909108D01*
X96851201Y-91909108D01*
X96856096Y-91904213D01*
X96921988Y-91790085D01*
X96956096Y-91662791D01*
X96956096Y-91531007D01*
X96921988Y-91403713D01*
X96856096Y-91289585D01*
X96762910Y-91196399D01*
X96705846Y-91163453D01*
X96648783Y-91130507D01*
X96585135Y-91113453D01*
X96521488Y-91096399D01*
X96389704Y-91096399D01*
X96262408Y-91130507D01*
X96148282Y-91196399D01*
X96148279Y-91196401D01*
X96055098Y-91289582D01*
X96055096Y-91289585D01*
X95989204Y-91403711D01*
X95955096Y-91531007D01*
X83450500Y-91531007D01*
X83450500Y-90831007D01*
X94155096Y-90831007D01*
X94155096Y-90962790D01*
X94189204Y-91090086D01*
X94192849Y-91096399D01*
X94255096Y-91204213D01*
X94348282Y-91297399D01*
X94462410Y-91363291D01*
X94589704Y-91397399D01*
X94589706Y-91397399D01*
X94721486Y-91397399D01*
X94721488Y-91397399D01*
X94848782Y-91363291D01*
X94962910Y-91297399D01*
X95056096Y-91204213D01*
X95121988Y-91090085D01*
X95156096Y-90962791D01*
X95156096Y-90831007D01*
X95121988Y-90703713D01*
X95056096Y-90589585D01*
X94962910Y-90496399D01*
X94905846Y-90463453D01*
X94848783Y-90430507D01*
X94785135Y-90413453D01*
X94721488Y-90396399D01*
X94589704Y-90396399D01*
X94462408Y-90430507D01*
X94348282Y-90496399D01*
X94348279Y-90496401D01*
X94255098Y-90589582D01*
X94255096Y-90589585D01*
X94189204Y-90703711D01*
X94155096Y-90831007D01*
X83450500Y-90831007D01*
X83450500Y-87531007D01*
X105455096Y-87531007D01*
X105455096Y-87662790D01*
X105489204Y-87790086D01*
X105522150Y-87847149D01*
X105555096Y-87904213D01*
X105648282Y-87997399D01*
X105762410Y-88063291D01*
X105889704Y-88097399D01*
X105889706Y-88097399D01*
X106021486Y-88097399D01*
X106021488Y-88097399D01*
X106148782Y-88063291D01*
X106262910Y-87997399D01*
X106356096Y-87904213D01*
X106421988Y-87790085D01*
X106456096Y-87662791D01*
X106456096Y-87531007D01*
X106421988Y-87403713D01*
X106356096Y-87289585D01*
X106262910Y-87196399D01*
X106205846Y-87163453D01*
X106148783Y-87130507D01*
X106085135Y-87113453D01*
X106021488Y-87096399D01*
X105889704Y-87096399D01*
X105762408Y-87130507D01*
X105648282Y-87196399D01*
X105648279Y-87196401D01*
X105555098Y-87289582D01*
X105555096Y-87289585D01*
X105489204Y-87403711D01*
X105455096Y-87531007D01*
X83450500Y-87531007D01*
X83450500Y-86134108D01*
X115799500Y-86134108D01*
X115799500Y-86265891D01*
X115833608Y-86393187D01*
X115866554Y-86450250D01*
X115899500Y-86507314D01*
X115992686Y-86600500D01*
X116106814Y-86666392D01*
X116234108Y-86700500D01*
X116234110Y-86700500D01*
X116365890Y-86700500D01*
X116365892Y-86700500D01*
X116493186Y-86666392D01*
X116607314Y-86600500D01*
X116700500Y-86507314D01*
X116766392Y-86393186D01*
X116800500Y-86265892D01*
X116800500Y-86134108D01*
X116766392Y-86006814D01*
X116700500Y-85892686D01*
X116607314Y-85799500D01*
X116550250Y-85766554D01*
X116493187Y-85733608D01*
X116429539Y-85716554D01*
X116365892Y-85699500D01*
X116234108Y-85699500D01*
X116106812Y-85733608D01*
X115992686Y-85799500D01*
X115992683Y-85799502D01*
X115899502Y-85892683D01*
X115899500Y-85892686D01*
X115833608Y-86006812D01*
X115799500Y-86134108D01*
X83450500Y-86134108D01*
X83450500Y-84509108D01*
X133199500Y-84509108D01*
X133199500Y-84640891D01*
X133233608Y-84768187D01*
X133266554Y-84825250D01*
X133299500Y-84882314D01*
X133392686Y-84975500D01*
X133506814Y-85041392D01*
X133634108Y-85075500D01*
X133634110Y-85075500D01*
X133765890Y-85075500D01*
X133765892Y-85075500D01*
X133893186Y-85041392D01*
X134007314Y-84975500D01*
X134100500Y-84882314D01*
X134166392Y-84768186D01*
X134200500Y-84640892D01*
X134200500Y-84509108D01*
X134712000Y-84509108D01*
X134712000Y-84640891D01*
X134746108Y-84768187D01*
X134779054Y-84825250D01*
X134812000Y-84882314D01*
X134905186Y-84975500D01*
X135019314Y-85041392D01*
X135146608Y-85075500D01*
X135146610Y-85075500D01*
X135278390Y-85075500D01*
X135278392Y-85075500D01*
X135405686Y-85041392D01*
X135519814Y-84975500D01*
X135613000Y-84882314D01*
X135678892Y-84768186D01*
X135713000Y-84640892D01*
X135713000Y-84509108D01*
X136224500Y-84509108D01*
X136224500Y-84640891D01*
X136258608Y-84768187D01*
X136291554Y-84825250D01*
X136324500Y-84882314D01*
X136417686Y-84975500D01*
X136531814Y-85041392D01*
X136659108Y-85075500D01*
X136659110Y-85075500D01*
X136790890Y-85075500D01*
X136790892Y-85075500D01*
X136918186Y-85041392D01*
X137032314Y-84975500D01*
X137125500Y-84882314D01*
X137191392Y-84768186D01*
X137225500Y-84640892D01*
X137225500Y-84509108D01*
X137191392Y-84381814D01*
X137125500Y-84267686D01*
X137032314Y-84174500D01*
X136975250Y-84141554D01*
X136918187Y-84108608D01*
X136854539Y-84091554D01*
X136790892Y-84074500D01*
X136659108Y-84074500D01*
X136531812Y-84108608D01*
X136417686Y-84174500D01*
X136417683Y-84174502D01*
X136324502Y-84267683D01*
X136324500Y-84267686D01*
X136258608Y-84381812D01*
X136224500Y-84509108D01*
X135713000Y-84509108D01*
X135678892Y-84381814D01*
X135613000Y-84267686D01*
X135519814Y-84174500D01*
X135462750Y-84141554D01*
X135405687Y-84108608D01*
X135342039Y-84091554D01*
X135278392Y-84074500D01*
X135146608Y-84074500D01*
X135019312Y-84108608D01*
X134905186Y-84174500D01*
X134905183Y-84174502D01*
X134812002Y-84267683D01*
X134812000Y-84267686D01*
X134746108Y-84381812D01*
X134712000Y-84509108D01*
X134200500Y-84509108D01*
X134166392Y-84381814D01*
X134100500Y-84267686D01*
X134007314Y-84174500D01*
X133950250Y-84141554D01*
X133893187Y-84108608D01*
X133829539Y-84091554D01*
X133765892Y-84074500D01*
X133634108Y-84074500D01*
X133506812Y-84108608D01*
X133392686Y-84174500D01*
X133392683Y-84174502D01*
X133299502Y-84267683D01*
X133299500Y-84267686D01*
X133233608Y-84381812D01*
X133199500Y-84509108D01*
X83450500Y-84509108D01*
X83450500Y-83259108D01*
X133199500Y-83259108D01*
X133199500Y-83390891D01*
X133233608Y-83518187D01*
X133266554Y-83575250D01*
X133299500Y-83632314D01*
X133392686Y-83725500D01*
X133506814Y-83791392D01*
X133634108Y-83825500D01*
X133634110Y-83825500D01*
X133765890Y-83825500D01*
X133765892Y-83825500D01*
X133893186Y-83791392D01*
X134007314Y-83725500D01*
X134100500Y-83632314D01*
X134166392Y-83518186D01*
X134200500Y-83390892D01*
X134200500Y-83259108D01*
X134712000Y-83259108D01*
X134712000Y-83390891D01*
X134746108Y-83518187D01*
X134779054Y-83575250D01*
X134812000Y-83632314D01*
X134905186Y-83725500D01*
X135019314Y-83791392D01*
X135146608Y-83825500D01*
X135146610Y-83825500D01*
X135278390Y-83825500D01*
X135278392Y-83825500D01*
X135405686Y-83791392D01*
X135519814Y-83725500D01*
X135613000Y-83632314D01*
X135678892Y-83518186D01*
X135713000Y-83390892D01*
X135713000Y-83259108D01*
X136224500Y-83259108D01*
X136224500Y-83390891D01*
X136258608Y-83518187D01*
X136291554Y-83575250D01*
X136324500Y-83632314D01*
X136417686Y-83725500D01*
X136531814Y-83791392D01*
X136659108Y-83825500D01*
X136659110Y-83825500D01*
X136790890Y-83825500D01*
X136790892Y-83825500D01*
X136918186Y-83791392D01*
X137032314Y-83725500D01*
X137125500Y-83632314D01*
X137191392Y-83518186D01*
X137225500Y-83390892D01*
X137225500Y-83259108D01*
X137191392Y-83131814D01*
X137125500Y-83017686D01*
X137032314Y-82924500D01*
X136975250Y-82891554D01*
X136918187Y-82858608D01*
X136854539Y-82841554D01*
X136790892Y-82824500D01*
X136659108Y-82824500D01*
X136531812Y-82858608D01*
X136417686Y-82924500D01*
X136417683Y-82924502D01*
X136324502Y-83017683D01*
X136324500Y-83017686D01*
X136258608Y-83131812D01*
X136224500Y-83259108D01*
X135713000Y-83259108D01*
X135678892Y-83131814D01*
X135613000Y-83017686D01*
X135519814Y-82924500D01*
X135462750Y-82891554D01*
X135405687Y-82858608D01*
X135342039Y-82841554D01*
X135278392Y-82824500D01*
X135146608Y-82824500D01*
X135019312Y-82858608D01*
X134905186Y-82924500D01*
X134905183Y-82924502D01*
X134812002Y-83017683D01*
X134812000Y-83017686D01*
X134746108Y-83131812D01*
X134712000Y-83259108D01*
X134200500Y-83259108D01*
X134166392Y-83131814D01*
X134100500Y-83017686D01*
X134007314Y-82924500D01*
X133950250Y-82891554D01*
X133893187Y-82858608D01*
X133829539Y-82841554D01*
X133765892Y-82824500D01*
X133634108Y-82824500D01*
X133506812Y-82858608D01*
X133392686Y-82924500D01*
X133392683Y-82924502D01*
X133299502Y-83017683D01*
X133299500Y-83017686D01*
X133233608Y-83131812D01*
X133199500Y-83259108D01*
X83450500Y-83259108D01*
X83450500Y-82434108D01*
X96974500Y-82434108D01*
X96974500Y-82565891D01*
X97008608Y-82693187D01*
X97041554Y-82750250D01*
X97074500Y-82807314D01*
X97167686Y-82900500D01*
X97281814Y-82966392D01*
X97409108Y-83000500D01*
X97409110Y-83000500D01*
X97540890Y-83000500D01*
X97540892Y-83000500D01*
X97668186Y-82966392D01*
X97782314Y-82900500D01*
X97875500Y-82807314D01*
X97941392Y-82693186D01*
X97975500Y-82565892D01*
X97975500Y-82434108D01*
X97941392Y-82306814D01*
X97875500Y-82192686D01*
X97782314Y-82099500D01*
X97725250Y-82066554D01*
X97668187Y-82033608D01*
X97604539Y-82016554D01*
X97540892Y-81999500D01*
X97409108Y-81999500D01*
X97281812Y-82033608D01*
X97167686Y-82099500D01*
X97167683Y-82099502D01*
X97074502Y-82192683D01*
X97074500Y-82192686D01*
X97008608Y-82306812D01*
X96974500Y-82434108D01*
X83450500Y-82434108D01*
X83450500Y-76559108D01*
X90024500Y-76559108D01*
X90024500Y-76690891D01*
X90058608Y-76818187D01*
X90091554Y-76875250D01*
X90124500Y-76932314D01*
X90217686Y-77025500D01*
X90331814Y-77091392D01*
X90459108Y-77125500D01*
X90459110Y-77125500D01*
X90590890Y-77125500D01*
X90590892Y-77125500D01*
X90718186Y-77091392D01*
X90832314Y-77025500D01*
X90925500Y-76932314D01*
X90991392Y-76818186D01*
X91025500Y-76690892D01*
X91025500Y-76559108D01*
X90991392Y-76431814D01*
X90925500Y-76317686D01*
X90832314Y-76224500D01*
X90775250Y-76191554D01*
X90718187Y-76158608D01*
X90654539Y-76141554D01*
X90590892Y-76124500D01*
X90459108Y-76124500D01*
X90331812Y-76158608D01*
X90217686Y-76224500D01*
X90217683Y-76224502D01*
X90124502Y-76317683D01*
X90124500Y-76317686D01*
X90058608Y-76431812D01*
X90024500Y-76559108D01*
X83450500Y-76559108D01*
X83450500Y-73577596D01*
X104024500Y-73577596D01*
X104024500Y-75217101D01*
X104036131Y-75275578D01*
X104036132Y-75275579D01*
X104080447Y-75341901D01*
X104146769Y-75386216D01*
X104146770Y-75386217D01*
X104205247Y-75397848D01*
X104205250Y-75397849D01*
X104205252Y-75397849D01*
X105844750Y-75397849D01*
X105844751Y-75397848D01*
X105859568Y-75394901D01*
X105903229Y-75386217D01*
X105903229Y-75386216D01*
X105903231Y-75386216D01*
X105969552Y-75341901D01*
X106013867Y-75275580D01*
X106013867Y-75275578D01*
X106013868Y-75275578D01*
X106025499Y-75217101D01*
X106025500Y-75217099D01*
X106025500Y-73577598D01*
X106025499Y-73577596D01*
X106013868Y-73519119D01*
X106013867Y-73519118D01*
X105969552Y-73452796D01*
X105903230Y-73408481D01*
X105903229Y-73408480D01*
X105844752Y-73396849D01*
X105844748Y-73396849D01*
X104205252Y-73396849D01*
X104205247Y-73396849D01*
X104146770Y-73408480D01*
X104146769Y-73408481D01*
X104080447Y-73452796D01*
X104036132Y-73519118D01*
X104036131Y-73519119D01*
X104024500Y-73577596D01*
X83450500Y-73577596D01*
X83450500Y-71204108D01*
X103769500Y-71204108D01*
X103769500Y-71335891D01*
X103803608Y-71463187D01*
X103836554Y-71520250D01*
X103869500Y-71577314D01*
X103869502Y-71577316D01*
X103934505Y-71642319D01*
X103967990Y-71703642D01*
X103963006Y-71773334D01*
X103934505Y-71817681D01*
X103869502Y-71882683D01*
X103869500Y-71882686D01*
X103803608Y-71996812D01*
X103769500Y-72124108D01*
X103769500Y-72255891D01*
X103803608Y-72383187D01*
X103836554Y-72440250D01*
X103869500Y-72497314D01*
X103962686Y-72590500D01*
X104076814Y-72656392D01*
X104204108Y-72690500D01*
X104204110Y-72690500D01*
X104335890Y-72690500D01*
X104335892Y-72690500D01*
X104463186Y-72656392D01*
X104577314Y-72590500D01*
X104670500Y-72497314D01*
X104736392Y-72383186D01*
X104770500Y-72255892D01*
X104770500Y-72124108D01*
X104736392Y-71996814D01*
X104670500Y-71882686D01*
X104605495Y-71817681D01*
X104572010Y-71756358D01*
X104576994Y-71686666D01*
X104605495Y-71642319D01*
X104670500Y-71577314D01*
X104736392Y-71463186D01*
X104770500Y-71335892D01*
X104770500Y-71204108D01*
X105029500Y-71204108D01*
X105029500Y-71335891D01*
X105063608Y-71463187D01*
X105096554Y-71520250D01*
X105129500Y-71577314D01*
X105129502Y-71577316D01*
X105194505Y-71642319D01*
X105227990Y-71703642D01*
X105223006Y-71773334D01*
X105194505Y-71817681D01*
X105129502Y-71882683D01*
X105129500Y-71882686D01*
X105063608Y-71996812D01*
X105029500Y-72124108D01*
X105029500Y-72255891D01*
X105063608Y-72383187D01*
X105096554Y-72440250D01*
X105129500Y-72497314D01*
X105222686Y-72590500D01*
X105336814Y-72656392D01*
X105464108Y-72690500D01*
X105464110Y-72690500D01*
X105595890Y-72690500D01*
X105595892Y-72690500D01*
X105723186Y-72656392D01*
X105837314Y-72590500D01*
X105930500Y-72497314D01*
X105996392Y-72383186D01*
X106030500Y-72255892D01*
X106030500Y-72124108D01*
X105996392Y-71996814D01*
X105930500Y-71882686D01*
X105865495Y-71817681D01*
X105832010Y-71756358D01*
X105836994Y-71686666D01*
X105865495Y-71642319D01*
X105930500Y-71577314D01*
X105996392Y-71463186D01*
X106030500Y-71335892D01*
X106030500Y-71204108D01*
X106289500Y-71204108D01*
X106289500Y-71335891D01*
X106323608Y-71463187D01*
X106356554Y-71520250D01*
X106389500Y-71577314D01*
X106389502Y-71577316D01*
X106454505Y-71642319D01*
X106487990Y-71703642D01*
X106483006Y-71773334D01*
X106454505Y-71817681D01*
X106389502Y-71882683D01*
X106389500Y-71882686D01*
X106323608Y-71996812D01*
X106289500Y-72124108D01*
X106289500Y-72255891D01*
X106323608Y-72383187D01*
X106356554Y-72440250D01*
X106389500Y-72497314D01*
X106482686Y-72590500D01*
X106596814Y-72656392D01*
X106724108Y-72690500D01*
X106724110Y-72690500D01*
X106855890Y-72690500D01*
X106855892Y-72690500D01*
X106983186Y-72656392D01*
X107097314Y-72590500D01*
X107190500Y-72497314D01*
X107256392Y-72383186D01*
X107290500Y-72255892D01*
X107290500Y-72124108D01*
X107256392Y-71996814D01*
X107190500Y-71882686D01*
X107125495Y-71817681D01*
X107092010Y-71756358D01*
X107096994Y-71686666D01*
X107125495Y-71642319D01*
X107190500Y-71577314D01*
X107256392Y-71463186D01*
X107290500Y-71335892D01*
X107290500Y-71204108D01*
X107256392Y-71076814D01*
X107190500Y-70962686D01*
X107097314Y-70869500D01*
X107040250Y-70836554D01*
X106983187Y-70803608D01*
X106919539Y-70786554D01*
X106855892Y-70769500D01*
X106724108Y-70769500D01*
X106596812Y-70803608D01*
X106482686Y-70869500D01*
X106482683Y-70869502D01*
X106389502Y-70962683D01*
X106389500Y-70962686D01*
X106323608Y-71076812D01*
X106289500Y-71204108D01*
X106030500Y-71204108D01*
X105996392Y-71076814D01*
X105930500Y-70962686D01*
X105837314Y-70869500D01*
X105780250Y-70836554D01*
X105723187Y-70803608D01*
X105659539Y-70786554D01*
X105595892Y-70769500D01*
X105464108Y-70769500D01*
X105336812Y-70803608D01*
X105222686Y-70869500D01*
X105222683Y-70869502D01*
X105129502Y-70962683D01*
X105129500Y-70962686D01*
X105063608Y-71076812D01*
X105029500Y-71204108D01*
X104770500Y-71204108D01*
X104736392Y-71076814D01*
X104670500Y-70962686D01*
X104577314Y-70869500D01*
X104520250Y-70836554D01*
X104463187Y-70803608D01*
X104399539Y-70786554D01*
X104335892Y-70769500D01*
X104204108Y-70769500D01*
X104076812Y-70803608D01*
X103962686Y-70869500D01*
X103962683Y-70869502D01*
X103869502Y-70962683D01*
X103869500Y-70962686D01*
X103803608Y-71076812D01*
X103769500Y-71204108D01*
X83450500Y-71204108D01*
X83450500Y-69797571D01*
X84217200Y-69797571D01*
X84217200Y-69892492D01*
X84241767Y-69984181D01*
X84265497Y-70025282D01*
X84289228Y-70066384D01*
X84356348Y-70133504D01*
X84438552Y-70180965D01*
X84530239Y-70205532D01*
X84530241Y-70205532D01*
X85325159Y-70205532D01*
X85325161Y-70205532D01*
X85416848Y-70180965D01*
X85499052Y-70133504D01*
X85566172Y-70066384D01*
X85613633Y-69984180D01*
X85638200Y-69892493D01*
X85638200Y-69797571D01*
X85638192Y-69797541D01*
X88017200Y-69797541D01*
X88017200Y-69892462D01*
X88041767Y-69984151D01*
X88065497Y-70025252D01*
X88089228Y-70066354D01*
X88156348Y-70133474D01*
X88238552Y-70180935D01*
X88330239Y-70205502D01*
X88330241Y-70205502D01*
X89125159Y-70205502D01*
X89125161Y-70205502D01*
X89216848Y-70180935D01*
X89299052Y-70133474D01*
X89366172Y-70066354D01*
X89413633Y-69984150D01*
X89438200Y-69892463D01*
X89438200Y-69797541D01*
X89413633Y-69705854D01*
X89366172Y-69623650D01*
X89299052Y-69556530D01*
X89257950Y-69532799D01*
X89216849Y-69509069D01*
X89171004Y-69496785D01*
X89125161Y-69484502D01*
X88330239Y-69484502D01*
X88238550Y-69509069D01*
X88156348Y-69556530D01*
X88156345Y-69556532D01*
X88089230Y-69623647D01*
X88089228Y-69623650D01*
X88041767Y-69705852D01*
X88017200Y-69797541D01*
X85638192Y-69797541D01*
X85613633Y-69705884D01*
X85566172Y-69623680D01*
X85499052Y-69556560D01*
X85457950Y-69532829D01*
X85416849Y-69509099D01*
X85371004Y-69496815D01*
X85325161Y-69484532D01*
X84530239Y-69484532D01*
X84438550Y-69509099D01*
X84356348Y-69556560D01*
X84356345Y-69556562D01*
X84289230Y-69623677D01*
X84289228Y-69623680D01*
X84241767Y-69705882D01*
X84217200Y-69797571D01*
X83450500Y-69797571D01*
X83450500Y-64952047D01*
X118401300Y-64952047D01*
X118401300Y-66667952D01*
X118412931Y-66726429D01*
X118412932Y-66726430D01*
X118457247Y-66792752D01*
X118523569Y-66837067D01*
X118523570Y-66837068D01*
X118582047Y-66848699D01*
X118582050Y-66848700D01*
X118582052Y-66848700D01*
X120297950Y-66848700D01*
X120297951Y-66848699D01*
X120312768Y-66845752D01*
X120356429Y-66837068D01*
X120356429Y-66837067D01*
X120356431Y-66837067D01*
X120422752Y-66792752D01*
X120467067Y-66726431D01*
X120467067Y-66726429D01*
X120467068Y-66726429D01*
X120478699Y-66667952D01*
X120478700Y-66667950D01*
X120478700Y-65707692D01*
X120941300Y-65707692D01*
X120941300Y-65912307D01*
X120981214Y-66112970D01*
X120981216Y-66112978D01*
X121059514Y-66302005D01*
X121059519Y-66302015D01*
X121173188Y-66472132D01*
X121173191Y-66472136D01*
X121317863Y-66616808D01*
X121317867Y-66616811D01*
X121487984Y-66730480D01*
X121487988Y-66730482D01*
X121487991Y-66730484D01*
X121677022Y-66808784D01*
X121819213Y-66837067D01*
X121877692Y-66848699D01*
X121877696Y-66848700D01*
X121877697Y-66848700D01*
X122082304Y-66848700D01*
X122082305Y-66848699D01*
X122282978Y-66808784D01*
X122472009Y-66730484D01*
X122642133Y-66616811D01*
X122786811Y-66472133D01*
X122900484Y-66302009D01*
X122978784Y-66112978D01*
X123018700Y-65912303D01*
X123018700Y-65707697D01*
X123018699Y-65707692D01*
X123481300Y-65707692D01*
X123481300Y-65912307D01*
X123521214Y-66112970D01*
X123521216Y-66112978D01*
X123599514Y-66302005D01*
X123599519Y-66302015D01*
X123713188Y-66472132D01*
X123713191Y-66472136D01*
X123857863Y-66616808D01*
X123857867Y-66616811D01*
X124027984Y-66730480D01*
X124027988Y-66730482D01*
X124027991Y-66730484D01*
X124217022Y-66808784D01*
X124359213Y-66837067D01*
X124417692Y-66848699D01*
X124417696Y-66848700D01*
X124417697Y-66848700D01*
X124622304Y-66848700D01*
X124622305Y-66848699D01*
X124822978Y-66808784D01*
X125012009Y-66730484D01*
X125182133Y-66616811D01*
X125326811Y-66472133D01*
X125440484Y-66302009D01*
X125518784Y-66112978D01*
X125558700Y-65912303D01*
X125558700Y-65707697D01*
X125518784Y-65507022D01*
X125440484Y-65317991D01*
X125440482Y-65317988D01*
X125440480Y-65317984D01*
X125326811Y-65147867D01*
X125326808Y-65147863D01*
X125182136Y-65003191D01*
X125182132Y-65003188D01*
X125012015Y-64889519D01*
X125012005Y-64889514D01*
X124822978Y-64811216D01*
X124822970Y-64811214D01*
X124622307Y-64771300D01*
X124622303Y-64771300D01*
X124417697Y-64771300D01*
X124417692Y-64771300D01*
X124217029Y-64811214D01*
X124217021Y-64811216D01*
X124027994Y-64889514D01*
X124027984Y-64889519D01*
X123857867Y-65003188D01*
X123857863Y-65003191D01*
X123713191Y-65147863D01*
X123713188Y-65147867D01*
X123599519Y-65317984D01*
X123599514Y-65317994D01*
X123521216Y-65507021D01*
X123521214Y-65507029D01*
X123481300Y-65707692D01*
X123018699Y-65707692D01*
X122978784Y-65507022D01*
X122900484Y-65317991D01*
X122900482Y-65317988D01*
X122900480Y-65317984D01*
X122786811Y-65147867D01*
X122786808Y-65147863D01*
X122642136Y-65003191D01*
X122642132Y-65003188D01*
X122472015Y-64889519D01*
X122472005Y-64889514D01*
X122282978Y-64811216D01*
X122282970Y-64811214D01*
X122082307Y-64771300D01*
X122082303Y-64771300D01*
X121877697Y-64771300D01*
X121877692Y-64771300D01*
X121677029Y-64811214D01*
X121677021Y-64811216D01*
X121487994Y-64889514D01*
X121487984Y-64889519D01*
X121317867Y-65003188D01*
X121317863Y-65003191D01*
X121173191Y-65147863D01*
X121173188Y-65147867D01*
X121059519Y-65317984D01*
X121059514Y-65317994D01*
X120981216Y-65507021D01*
X120981214Y-65507029D01*
X120941300Y-65707692D01*
X120478700Y-65707692D01*
X120478700Y-64952049D01*
X120478699Y-64952047D01*
X120467068Y-64893570D01*
X120467067Y-64893569D01*
X120422752Y-64827247D01*
X120356430Y-64782932D01*
X120356429Y-64782931D01*
X120297952Y-64771300D01*
X120297948Y-64771300D01*
X118582052Y-64771300D01*
X118582047Y-64771300D01*
X118523570Y-64782931D01*
X118523569Y-64782932D01*
X118457247Y-64827247D01*
X118412932Y-64893569D01*
X118412931Y-64893570D01*
X118401300Y-64952047D01*
X83450500Y-64952047D01*
X83450500Y-61157507D01*
X84217200Y-61157507D01*
X84217200Y-61252428D01*
X84241767Y-61344117D01*
X84265497Y-61385218D01*
X84289228Y-61426320D01*
X84356348Y-61493440D01*
X84438552Y-61540901D01*
X84530239Y-61565468D01*
X84530241Y-61565468D01*
X85325159Y-61565468D01*
X85325161Y-61565468D01*
X85416848Y-61540901D01*
X85499052Y-61493440D01*
X85566172Y-61426320D01*
X85613633Y-61344116D01*
X85638200Y-61252429D01*
X85638200Y-61157537D01*
X88017200Y-61157537D01*
X88017200Y-61252458D01*
X88041767Y-61344147D01*
X88065497Y-61385248D01*
X88089228Y-61426350D01*
X88156348Y-61493470D01*
X88238552Y-61540931D01*
X88330239Y-61565498D01*
X88330241Y-61565498D01*
X89125159Y-61565498D01*
X89125161Y-61565498D01*
X89216848Y-61540931D01*
X89299052Y-61493470D01*
X89366172Y-61426350D01*
X89413633Y-61344146D01*
X89438200Y-61252459D01*
X89438200Y-61157537D01*
X89413633Y-61065850D01*
X89366172Y-60983646D01*
X89299052Y-60916526D01*
X89257950Y-60892795D01*
X89216849Y-60869065D01*
X89171004Y-60856781D01*
X89125161Y-60844498D01*
X88330239Y-60844498D01*
X88238550Y-60869065D01*
X88156348Y-60916526D01*
X88156345Y-60916528D01*
X88089230Y-60983643D01*
X88089228Y-60983646D01*
X88041767Y-61065848D01*
X88017200Y-61157537D01*
X85638200Y-61157537D01*
X85638200Y-61157507D01*
X85613633Y-61065820D01*
X85566172Y-60983616D01*
X85499052Y-60916496D01*
X85457950Y-60892765D01*
X85416849Y-60869035D01*
X85371004Y-60856751D01*
X85325161Y-60844468D01*
X84530239Y-60844468D01*
X84438550Y-60869035D01*
X84356348Y-60916496D01*
X84356345Y-60916498D01*
X84289230Y-60983613D01*
X84289228Y-60983616D01*
X84241767Y-61065818D01*
X84217200Y-61157507D01*
X83450500Y-61157507D01*
X83450500Y-58224108D01*
X99359500Y-58224108D01*
X99359500Y-58355891D01*
X99393608Y-58483187D01*
X99414562Y-58519480D01*
X99459500Y-58597314D01*
X99552686Y-58690500D01*
X99666814Y-58756392D01*
X99794108Y-58790500D01*
X99794110Y-58790500D01*
X99925890Y-58790500D01*
X99925892Y-58790500D01*
X100053186Y-58756392D01*
X100167314Y-58690500D01*
X100260500Y-58597314D01*
X100326392Y-58483186D01*
X100360500Y-58355892D01*
X100360500Y-58224108D01*
X101309500Y-58224108D01*
X101309500Y-58355891D01*
X101343608Y-58483187D01*
X101364562Y-58519480D01*
X101409500Y-58597314D01*
X101502686Y-58690500D01*
X101616814Y-58756392D01*
X101744108Y-58790500D01*
X101744110Y-58790500D01*
X101875890Y-58790500D01*
X101875892Y-58790500D01*
X102003186Y-58756392D01*
X102117314Y-58690500D01*
X102210500Y-58597314D01*
X102276392Y-58483186D01*
X102310500Y-58355892D01*
X102310500Y-58224108D01*
X103259500Y-58224108D01*
X103259500Y-58355891D01*
X103293608Y-58483187D01*
X103314562Y-58519480D01*
X103359500Y-58597314D01*
X103452686Y-58690500D01*
X103566814Y-58756392D01*
X103694108Y-58790500D01*
X103694110Y-58790500D01*
X103825890Y-58790500D01*
X103825892Y-58790500D01*
X103953186Y-58756392D01*
X104067314Y-58690500D01*
X104160500Y-58597314D01*
X104226392Y-58483186D01*
X104260500Y-58355892D01*
X104260500Y-58224108D01*
X104230916Y-58113697D01*
X104230916Y-58113696D01*
X104226392Y-58096815D01*
X104226392Y-58096814D01*
X104221125Y-58087692D01*
X118401300Y-58087692D01*
X118401300Y-58292307D01*
X118441214Y-58492970D01*
X118441216Y-58492978D01*
X118519514Y-58682005D01*
X118519519Y-58682015D01*
X118633188Y-58852132D01*
X118633191Y-58852136D01*
X118777863Y-58996808D01*
X118777867Y-58996811D01*
X118947984Y-59110480D01*
X118947988Y-59110482D01*
X118947991Y-59110484D01*
X119137022Y-59188784D01*
X119337692Y-59228699D01*
X119337696Y-59228700D01*
X119337697Y-59228700D01*
X119542304Y-59228700D01*
X119542305Y-59228699D01*
X119742978Y-59188784D01*
X119932009Y-59110484D01*
X120102133Y-58996811D01*
X120246811Y-58852133D01*
X120360484Y-58682009D01*
X120438784Y-58492978D01*
X120478700Y-58292303D01*
X120478700Y-58087697D01*
X120478699Y-58087692D01*
X120941300Y-58087692D01*
X120941300Y-58292307D01*
X120981214Y-58492970D01*
X120981216Y-58492978D01*
X121059514Y-58682005D01*
X121059519Y-58682015D01*
X121173188Y-58852132D01*
X121173191Y-58852136D01*
X121317863Y-58996808D01*
X121317867Y-58996811D01*
X121487984Y-59110480D01*
X121487988Y-59110482D01*
X121487991Y-59110484D01*
X121677022Y-59188784D01*
X121877692Y-59228699D01*
X121877696Y-59228700D01*
X121877697Y-59228700D01*
X122082304Y-59228700D01*
X122082305Y-59228699D01*
X122282978Y-59188784D01*
X122472009Y-59110484D01*
X122642133Y-58996811D01*
X122786811Y-58852133D01*
X122900484Y-58682009D01*
X122978784Y-58492978D01*
X123018700Y-58292303D01*
X123018700Y-58087697D01*
X123018699Y-58087692D01*
X123481300Y-58087692D01*
X123481300Y-58292307D01*
X123521214Y-58492970D01*
X123521216Y-58492978D01*
X123599514Y-58682005D01*
X123599519Y-58682015D01*
X123713188Y-58852132D01*
X123713191Y-58852136D01*
X123857863Y-58996808D01*
X123857867Y-58996811D01*
X124027984Y-59110480D01*
X124027988Y-59110482D01*
X124027991Y-59110484D01*
X124217022Y-59188784D01*
X124417692Y-59228699D01*
X124417696Y-59228700D01*
X124417697Y-59228700D01*
X124622304Y-59228700D01*
X124622305Y-59228699D01*
X124822978Y-59188784D01*
X125012009Y-59110484D01*
X125182133Y-58996811D01*
X125326811Y-58852133D01*
X125440484Y-58682009D01*
X125518784Y-58492978D01*
X125558700Y-58292303D01*
X125558700Y-58087697D01*
X125558699Y-58087692D01*
X126021300Y-58087692D01*
X126021300Y-58292307D01*
X126061214Y-58492970D01*
X126061216Y-58492978D01*
X126139514Y-58682005D01*
X126139519Y-58682015D01*
X126253188Y-58852132D01*
X126253191Y-58852136D01*
X126397863Y-58996808D01*
X126397867Y-58996811D01*
X126567984Y-59110480D01*
X126567988Y-59110482D01*
X126567991Y-59110484D01*
X126757022Y-59188784D01*
X126957692Y-59228699D01*
X126957696Y-59228700D01*
X126957697Y-59228700D01*
X127162304Y-59228700D01*
X127162305Y-59228699D01*
X127362978Y-59188784D01*
X127552009Y-59110484D01*
X127722133Y-58996811D01*
X127798001Y-58920943D01*
X129649500Y-58920943D01*
X129649500Y-59079057D01*
X129689597Y-59228699D01*
X129690423Y-59231783D01*
X129690426Y-59231790D01*
X129769475Y-59368709D01*
X129769479Y-59368714D01*
X129769480Y-59368716D01*
X129881284Y-59480520D01*
X129881286Y-59480521D01*
X129881290Y-59480524D01*
X130018209Y-59559573D01*
X130018216Y-59559577D01*
X130170943Y-59600500D01*
X130170945Y-59600500D01*
X130329055Y-59600500D01*
X130329057Y-59600500D01*
X130481784Y-59559577D01*
X130618716Y-59480520D01*
X130730520Y-59368716D01*
X130809577Y-59231784D01*
X130850500Y-59079057D01*
X130850500Y-58920943D01*
X130809577Y-58768216D01*
X130809573Y-58768209D01*
X130730524Y-58631290D01*
X130730518Y-58631282D01*
X130618717Y-58519481D01*
X130618709Y-58519475D01*
X130481790Y-58440426D01*
X130481786Y-58440424D01*
X130481784Y-58440423D01*
X130329057Y-58399500D01*
X130170943Y-58399500D01*
X130018216Y-58440423D01*
X130018209Y-58440426D01*
X129881290Y-58519475D01*
X129881282Y-58519481D01*
X129769481Y-58631282D01*
X129769475Y-58631290D01*
X129690426Y-58768209D01*
X129690423Y-58768216D01*
X129649500Y-58920943D01*
X127798001Y-58920943D01*
X127866811Y-58852133D01*
X127866839Y-58852090D01*
X127872297Y-58843924D01*
X127980480Y-58682015D01*
X127980480Y-58682014D01*
X127980484Y-58682009D01*
X128058784Y-58492978D01*
X128098700Y-58292303D01*
X128098700Y-58087697D01*
X128058784Y-57887022D01*
X127980484Y-57697991D01*
X127980482Y-57697988D01*
X127980480Y-57697984D01*
X127866811Y-57527867D01*
X127866808Y-57527863D01*
X127722136Y-57383191D01*
X127722132Y-57383188D01*
X127552015Y-57269519D01*
X127552005Y-57269514D01*
X127362978Y-57191216D01*
X127362970Y-57191214D01*
X127162307Y-57151300D01*
X127162303Y-57151300D01*
X126957697Y-57151300D01*
X126957692Y-57151300D01*
X126757029Y-57191214D01*
X126757021Y-57191216D01*
X126567994Y-57269514D01*
X126567984Y-57269519D01*
X126397867Y-57383188D01*
X126397863Y-57383191D01*
X126253191Y-57527863D01*
X126253188Y-57527867D01*
X126139519Y-57697984D01*
X126139514Y-57697994D01*
X126061216Y-57887021D01*
X126061214Y-57887029D01*
X126021300Y-58087692D01*
X125558699Y-58087692D01*
X125518784Y-57887022D01*
X125440484Y-57697991D01*
X125440482Y-57697988D01*
X125440480Y-57697984D01*
X125326811Y-57527867D01*
X125326808Y-57527863D01*
X125182136Y-57383191D01*
X125182132Y-57383188D01*
X125012015Y-57269519D01*
X125012005Y-57269514D01*
X124822978Y-57191216D01*
X124822970Y-57191214D01*
X124622307Y-57151300D01*
X124622303Y-57151300D01*
X124417697Y-57151300D01*
X124417692Y-57151300D01*
X124217029Y-57191214D01*
X124217021Y-57191216D01*
X124027994Y-57269514D01*
X124027984Y-57269519D01*
X123857867Y-57383188D01*
X123857863Y-57383191D01*
X123713191Y-57527863D01*
X123713188Y-57527867D01*
X123599519Y-57697984D01*
X123599514Y-57697994D01*
X123521216Y-57887021D01*
X123521214Y-57887029D01*
X123481300Y-58087692D01*
X123018699Y-58087692D01*
X122978784Y-57887022D01*
X122900484Y-57697991D01*
X122900482Y-57697988D01*
X122900480Y-57697984D01*
X122786811Y-57527867D01*
X122786808Y-57527863D01*
X122642136Y-57383191D01*
X122642132Y-57383188D01*
X122472015Y-57269519D01*
X122472005Y-57269514D01*
X122282978Y-57191216D01*
X122282970Y-57191214D01*
X122082307Y-57151300D01*
X122082303Y-57151300D01*
X121877697Y-57151300D01*
X121877692Y-57151300D01*
X121677029Y-57191214D01*
X121677021Y-57191216D01*
X121487994Y-57269514D01*
X121487984Y-57269519D01*
X121317867Y-57383188D01*
X121317863Y-57383191D01*
X121173191Y-57527863D01*
X121173188Y-57527867D01*
X121059519Y-57697984D01*
X121059514Y-57697994D01*
X120981216Y-57887021D01*
X120981214Y-57887029D01*
X120941300Y-58087692D01*
X120478699Y-58087692D01*
X120438784Y-57887022D01*
X120360484Y-57697991D01*
X120360482Y-57697988D01*
X120360480Y-57697984D01*
X120246811Y-57527867D01*
X120246808Y-57527863D01*
X120102136Y-57383191D01*
X120102132Y-57383188D01*
X119932015Y-57269519D01*
X119932005Y-57269514D01*
X119742978Y-57191216D01*
X119742970Y-57191214D01*
X119542307Y-57151300D01*
X119542303Y-57151300D01*
X119337697Y-57151300D01*
X119337692Y-57151300D01*
X119137029Y-57191214D01*
X119137021Y-57191216D01*
X118947994Y-57269514D01*
X118947984Y-57269519D01*
X118777867Y-57383188D01*
X118777863Y-57383191D01*
X118633191Y-57527863D01*
X118633188Y-57527867D01*
X118519519Y-57697984D01*
X118519514Y-57697994D01*
X118441216Y-57887021D01*
X118441214Y-57887029D01*
X118401300Y-58087692D01*
X104221125Y-58087692D01*
X104160500Y-57982686D01*
X104067314Y-57889500D01*
X104010250Y-57856554D01*
X103953187Y-57823608D01*
X103889539Y-57806554D01*
X103825892Y-57789500D01*
X103694108Y-57789500D01*
X103566812Y-57823608D01*
X103452686Y-57889500D01*
X103452683Y-57889502D01*
X103359502Y-57982683D01*
X103359500Y-57982686D01*
X103293608Y-58096812D01*
X103259500Y-58224108D01*
X102310500Y-58224108D01*
X102276392Y-58096814D01*
X102210500Y-57982686D01*
X102117314Y-57889500D01*
X102060250Y-57856554D01*
X102003187Y-57823608D01*
X101939539Y-57806554D01*
X101875892Y-57789500D01*
X101744108Y-57789500D01*
X101616812Y-57823608D01*
X101502686Y-57889500D01*
X101502683Y-57889502D01*
X101409502Y-57982683D01*
X101409500Y-57982686D01*
X101343608Y-58096812D01*
X101309500Y-58224108D01*
X100360500Y-58224108D01*
X100326392Y-58096814D01*
X100260500Y-57982686D01*
X100167314Y-57889500D01*
X100110250Y-57856554D01*
X100053187Y-57823608D01*
X99989539Y-57806554D01*
X99925892Y-57789500D01*
X99794108Y-57789500D01*
X99666812Y-57823608D01*
X99552686Y-57889500D01*
X99552683Y-57889502D01*
X99459502Y-57982683D01*
X99459500Y-57982686D01*
X99393608Y-58096812D01*
X99359500Y-58224108D01*
X83450500Y-58224108D01*
X83450500Y-56734108D01*
X99359500Y-56734108D01*
X99359500Y-56865891D01*
X99393608Y-56993187D01*
X99426554Y-57050250D01*
X99459500Y-57107314D01*
X99552686Y-57200500D01*
X99666814Y-57266392D01*
X99794108Y-57300500D01*
X99794110Y-57300500D01*
X99925890Y-57300500D01*
X99925892Y-57300500D01*
X100053186Y-57266392D01*
X100167314Y-57200500D01*
X100260500Y-57107314D01*
X100326392Y-56993186D01*
X100360500Y-56865892D01*
X100360500Y-56734108D01*
X101309500Y-56734108D01*
X101309500Y-56865891D01*
X101343608Y-56993187D01*
X101376554Y-57050250D01*
X101409500Y-57107314D01*
X101502686Y-57200500D01*
X101616814Y-57266392D01*
X101744108Y-57300500D01*
X101744110Y-57300500D01*
X101875890Y-57300500D01*
X101875892Y-57300500D01*
X102003186Y-57266392D01*
X102117314Y-57200500D01*
X102210500Y-57107314D01*
X102276392Y-56993186D01*
X102310500Y-56865892D01*
X102310500Y-56734108D01*
X103259500Y-56734108D01*
X103259500Y-56865891D01*
X103293608Y-56993187D01*
X103326554Y-57050250D01*
X103359500Y-57107314D01*
X103452686Y-57200500D01*
X103566814Y-57266392D01*
X103694108Y-57300500D01*
X103694110Y-57300500D01*
X103825890Y-57300500D01*
X103825892Y-57300500D01*
X103953186Y-57266392D01*
X104067314Y-57200500D01*
X104160500Y-57107314D01*
X104226392Y-56993186D01*
X104260500Y-56865892D01*
X104260500Y-56734108D01*
X104226392Y-56606814D01*
X104160500Y-56492686D01*
X104067314Y-56399500D01*
X104010250Y-56366554D01*
X103953187Y-56333608D01*
X103889539Y-56316554D01*
X103825892Y-56299500D01*
X103694108Y-56299500D01*
X103566812Y-56333608D01*
X103452686Y-56399500D01*
X103452683Y-56399502D01*
X103359502Y-56492683D01*
X103359500Y-56492686D01*
X103293608Y-56606812D01*
X103259500Y-56734108D01*
X102310500Y-56734108D01*
X102276392Y-56606814D01*
X102210500Y-56492686D01*
X102117314Y-56399500D01*
X102060250Y-56366554D01*
X102003187Y-56333608D01*
X101939539Y-56316554D01*
X101875892Y-56299500D01*
X101744108Y-56299500D01*
X101616812Y-56333608D01*
X101502686Y-56399500D01*
X101502683Y-56399502D01*
X101409502Y-56492683D01*
X101409500Y-56492686D01*
X101343608Y-56606812D01*
X101309500Y-56734108D01*
X100360500Y-56734108D01*
X100326392Y-56606814D01*
X100260500Y-56492686D01*
X100167314Y-56399500D01*
X100110250Y-56366554D01*
X100053187Y-56333608D01*
X99989539Y-56316554D01*
X99925892Y-56299500D01*
X99794108Y-56299500D01*
X99666812Y-56333608D01*
X99552686Y-56399500D01*
X99552683Y-56399502D01*
X99459502Y-56492683D01*
X99459500Y-56492686D01*
X99393608Y-56606812D01*
X99359500Y-56734108D01*
X83450500Y-56734108D01*
X83450500Y-53434108D01*
X113699500Y-53434108D01*
X113699500Y-53565891D01*
X113733608Y-53693187D01*
X113758397Y-53736122D01*
X113799500Y-53807314D01*
X113892686Y-53900500D01*
X114006814Y-53966392D01*
X114134108Y-54000500D01*
X114134110Y-54000500D01*
X114265890Y-54000500D01*
X114265892Y-54000500D01*
X114393186Y-53966392D01*
X114507314Y-53900500D01*
X114600500Y-53807314D01*
X114666392Y-53693186D01*
X114700500Y-53565892D01*
X114700500Y-53434108D01*
X114666392Y-53306814D01*
X114600500Y-53192686D01*
X114507314Y-53099500D01*
X114450250Y-53066554D01*
X114393187Y-53033608D01*
X114329539Y-53016554D01*
X114265892Y-52999500D01*
X114134108Y-52999500D01*
X114006812Y-53033608D01*
X113892686Y-53099500D01*
X113892683Y-53099502D01*
X113799502Y-53192683D01*
X113799500Y-53192686D01*
X113733608Y-53306812D01*
X113699500Y-53434108D01*
X83450500Y-53434108D01*
X83450500Y-51580247D01*
X98639651Y-51580247D01*
X98639651Y-53219752D01*
X98651282Y-53278229D01*
X98651283Y-53278230D01*
X98695598Y-53344552D01*
X98761920Y-53388867D01*
X98761921Y-53388868D01*
X98820398Y-53400499D01*
X98820401Y-53400500D01*
X98820403Y-53400500D01*
X100459901Y-53400500D01*
X100459902Y-53400499D01*
X100474719Y-53397552D01*
X100518380Y-53388868D01*
X100518380Y-53388867D01*
X100518382Y-53388867D01*
X100584703Y-53344552D01*
X100629018Y-53278231D01*
X100629018Y-53278229D01*
X100629019Y-53278229D01*
X100640650Y-53219752D01*
X100640651Y-53219750D01*
X100640651Y-52871247D01*
X119860500Y-52871247D01*
X119860500Y-54128752D01*
X119872131Y-54187229D01*
X119872132Y-54187230D01*
X119916447Y-54253552D01*
X119982769Y-54297867D01*
X119982770Y-54297868D01*
X120041247Y-54309499D01*
X120041250Y-54309500D01*
X120041252Y-54309500D01*
X121298750Y-54309500D01*
X121298751Y-54309499D01*
X121313568Y-54306552D01*
X121357229Y-54297868D01*
X121357229Y-54297867D01*
X121357231Y-54297867D01*
X121423552Y-54253552D01*
X121467867Y-54187231D01*
X121467867Y-54187229D01*
X121467868Y-54187229D01*
X121476552Y-54143568D01*
X121479500Y-54128748D01*
X121479500Y-53420266D01*
X122400500Y-53420266D01*
X122400500Y-53579733D01*
X122431606Y-53736114D01*
X122431608Y-53736122D01*
X122492628Y-53883439D01*
X122492633Y-53883448D01*
X122581219Y-54016025D01*
X122581222Y-54016029D01*
X122693970Y-54128777D01*
X122693974Y-54128780D01*
X122826551Y-54217366D01*
X122826557Y-54217369D01*
X122826558Y-54217370D01*
X122973878Y-54278392D01*
X123130266Y-54309499D01*
X123130270Y-54309500D01*
X123130271Y-54309500D01*
X123289730Y-54309500D01*
X123289731Y-54309499D01*
X123446122Y-54278392D01*
X123593442Y-54217370D01*
X123726026Y-54128780D01*
X123838780Y-54016026D01*
X123927370Y-53883442D01*
X123988392Y-53736122D01*
X124019500Y-53579729D01*
X124019500Y-53420271D01*
X124019499Y-53420266D01*
X124940500Y-53420266D01*
X124940500Y-53579733D01*
X124971606Y-53736114D01*
X124971608Y-53736122D01*
X125032628Y-53883439D01*
X125032633Y-53883448D01*
X125121219Y-54016025D01*
X125121222Y-54016029D01*
X125233970Y-54128777D01*
X125233974Y-54128780D01*
X125366551Y-54217366D01*
X125366557Y-54217369D01*
X125366558Y-54217370D01*
X125513878Y-54278392D01*
X125670266Y-54309499D01*
X125670270Y-54309500D01*
X125670271Y-54309500D01*
X125829730Y-54309500D01*
X125829731Y-54309499D01*
X125986122Y-54278392D01*
X126133442Y-54217370D01*
X126266026Y-54128780D01*
X126378780Y-54016026D01*
X126467370Y-53883442D01*
X126528392Y-53736122D01*
X126559500Y-53579729D01*
X126559500Y-53420271D01*
X126528392Y-53263878D01*
X126467370Y-53116558D01*
X126467369Y-53116557D01*
X126467366Y-53116551D01*
X126378780Y-52983974D01*
X126378777Y-52983970D01*
X126266029Y-52871222D01*
X126266025Y-52871219D01*
X126133448Y-52782633D01*
X126133439Y-52782628D01*
X125986122Y-52721608D01*
X125986114Y-52721606D01*
X125829733Y-52690500D01*
X125829729Y-52690500D01*
X125670271Y-52690500D01*
X125670266Y-52690500D01*
X125513885Y-52721606D01*
X125513877Y-52721608D01*
X125366560Y-52782628D01*
X125366551Y-52782633D01*
X125233974Y-52871219D01*
X125233970Y-52871222D01*
X125121222Y-52983970D01*
X125121219Y-52983974D01*
X125032633Y-53116551D01*
X125032628Y-53116560D01*
X124971608Y-53263877D01*
X124971606Y-53263885D01*
X124940500Y-53420266D01*
X124019499Y-53420266D01*
X123988392Y-53263878D01*
X123927370Y-53116558D01*
X123927369Y-53116557D01*
X123927366Y-53116551D01*
X123838780Y-52983974D01*
X123838777Y-52983970D01*
X123726029Y-52871222D01*
X123726025Y-52871219D01*
X123593448Y-52782633D01*
X123593439Y-52782628D01*
X123446122Y-52721608D01*
X123446114Y-52721606D01*
X123289733Y-52690500D01*
X123289729Y-52690500D01*
X123130271Y-52690500D01*
X123130266Y-52690500D01*
X122973885Y-52721606D01*
X122973877Y-52721608D01*
X122826560Y-52782628D01*
X122826551Y-52782633D01*
X122693974Y-52871219D01*
X122693970Y-52871222D01*
X122581222Y-52983970D01*
X122581219Y-52983974D01*
X122492633Y-53116551D01*
X122492628Y-53116560D01*
X122431608Y-53263877D01*
X122431606Y-53263885D01*
X122400500Y-53420266D01*
X121479500Y-53420266D01*
X121479500Y-52871252D01*
X121479500Y-52871249D01*
X121479499Y-52871247D01*
X121467868Y-52812770D01*
X121467867Y-52812769D01*
X121423552Y-52746447D01*
X121357230Y-52702132D01*
X121357229Y-52702131D01*
X121298752Y-52690500D01*
X121298748Y-52690500D01*
X120041252Y-52690500D01*
X120041247Y-52690500D01*
X119982770Y-52702131D01*
X119982769Y-52702132D01*
X119916447Y-52746447D01*
X119872132Y-52812769D01*
X119872131Y-52812770D01*
X119860500Y-52871247D01*
X100640651Y-52871247D01*
X100640651Y-52356530D01*
X134869500Y-52356530D01*
X134869500Y-52563469D01*
X134909868Y-52766412D01*
X134909870Y-52766420D01*
X134989058Y-52957596D01*
X135104024Y-53129657D01*
X135250342Y-53275975D01*
X135250345Y-53275977D01*
X135422402Y-53390941D01*
X135613580Y-53470130D01*
X135816530Y-53510499D01*
X135816534Y-53510500D01*
X135816535Y-53510500D01*
X136023466Y-53510500D01*
X136023467Y-53510499D01*
X136226420Y-53470130D01*
X136417598Y-53390941D01*
X136589655Y-53275977D01*
X136735977Y-53129655D01*
X136850941Y-52957598D01*
X136930130Y-52766420D01*
X136970500Y-52563465D01*
X136970500Y-52356535D01*
X136930130Y-52153580D01*
X136850941Y-51962402D01*
X136735977Y-51790345D01*
X136735975Y-51790342D01*
X136589657Y-51644024D01*
X136494207Y-51580247D01*
X136417598Y-51529059D01*
X136399998Y-51521769D01*
X136226420Y-51449870D01*
X136226412Y-51449868D01*
X136023469Y-51409500D01*
X136023465Y-51409500D01*
X135816535Y-51409500D01*
X135816530Y-51409500D01*
X135613587Y-51449868D01*
X135613579Y-51449870D01*
X135422403Y-51529058D01*
X135250342Y-51644024D01*
X135104024Y-51790342D01*
X134989058Y-51962403D01*
X134909870Y-52153579D01*
X134909868Y-52153587D01*
X134869500Y-52356530D01*
X100640651Y-52356530D01*
X100640651Y-51580249D01*
X100640650Y-51580247D01*
X100629019Y-51521770D01*
X100629018Y-51521769D01*
X100584703Y-51455447D01*
X100518381Y-51411132D01*
X100518380Y-51411131D01*
X100459903Y-51399500D01*
X100459899Y-51399500D01*
X98820403Y-51399500D01*
X98820398Y-51399500D01*
X98761921Y-51411131D01*
X98761920Y-51411132D01*
X98695598Y-51455447D01*
X98651283Y-51521769D01*
X98651282Y-51521770D01*
X98639651Y-51580247D01*
X83450500Y-51580247D01*
X83450500Y-48124500D01*
X83470185Y-48057461D01*
X83522989Y-48011706D01*
X83574500Y-48000500D01*
X139575500Y-48000500D01*
X139642539Y-48020185D01*
G37*
G04 #@! TD.AperFunction*
M02*
