G04 #@! TF.GenerationSoftware,KiCad,Pcbnew,9.0.4*
G04 #@! TF.CreationDate,2025-09-25T11:49:33+08:00*
G04 #@! TF.ProjectId,boost-convertor,626f6f73-742d-4636-9f6e-766572746f72,rev?*
G04 #@! TF.SameCoordinates,Original*
G04 #@! TF.FileFunction,Legend,Bot*
G04 #@! TF.FilePolarity,Positive*
%FSLAX46Y46*%
G04 Gerber Fmt 4.6, Leading zero omitted, Abs format (unit mm)*
G04 Created by KiCad (PCBNEW 9.0.4) date 2025-09-25 11:49:33*
%MOMM*%
%LPD*%
G01*
G04 APERTURE LIST*
%ADD10C,0.200000*%
%ADD11C,0.000000*%
G04 APERTURE END LIST*
D10*
G36*
X115552590Y-84277868D02*
G01*
X115398900Y-84277868D01*
X115398900Y-84207526D01*
X114700732Y-84207526D01*
X114700732Y-84277868D01*
X114547042Y-84277868D01*
X114547042Y-84090045D01*
X114700732Y-84090045D01*
X115398900Y-84090045D01*
X115398900Y-83933974D01*
X114700732Y-83933974D01*
X114700732Y-84090045D01*
X114547042Y-84090045D01*
X114547042Y-83817836D01*
X115552590Y-83817836D01*
X115552590Y-84277868D01*
G37*
G36*
X115484263Y-83719040D02*
G01*
X114616713Y-83719040D01*
X114616713Y-83611085D01*
X115484263Y-83611085D01*
X115484263Y-83719040D01*
G37*
G36*
X115484263Y-83523646D02*
G01*
X114616713Y-83523646D01*
X114616713Y-83411599D01*
X115484263Y-83411599D01*
X115484263Y-83523646D01*
G37*
G36*
X115715134Y-83320436D02*
G01*
X114385842Y-83320436D01*
X114385842Y-83200207D01*
X115715134Y-83200207D01*
X115715134Y-83320436D01*
G37*
G36*
X115484263Y-83109410D02*
G01*
X114616713Y-83109410D01*
X114616713Y-82994616D01*
X115484263Y-82994616D01*
X115484263Y-83109410D01*
G37*
G36*
X113349886Y-83315429D02*
G01*
X113597915Y-83315429D01*
X113597915Y-83214373D01*
X113741346Y-83214373D01*
X113741346Y-83315429D01*
X113955853Y-83315429D01*
X113955853Y-83228722D01*
X114106795Y-83228722D01*
X114106795Y-83315429D01*
X114315134Y-83315429D01*
X114315134Y-83422041D01*
X114106795Y-83422041D01*
X114106795Y-83754211D01*
X113729073Y-83754211D01*
X113729073Y-83837559D01*
X114300113Y-83837559D01*
X114300113Y-83949605D01*
X113871161Y-83949605D01*
X113961879Y-84008726D01*
X114066185Y-84061655D01*
X114185633Y-84108028D01*
X114321973Y-84147259D01*
X114232519Y-84262114D01*
X114104702Y-84217562D01*
X113991806Y-84165691D01*
X113892372Y-84106905D01*
X113805142Y-84041386D01*
X113729073Y-83969084D01*
X113729073Y-84277868D01*
X113576727Y-84277868D01*
X113576727Y-83961939D01*
X113502670Y-84022034D01*
X113415431Y-84080381D01*
X113313518Y-84136842D01*
X113195283Y-84191167D01*
X113058932Y-84243002D01*
X112969417Y-84116484D01*
X113113757Y-84075375D01*
X113233522Y-84033595D01*
X113331782Y-83991563D01*
X113411374Y-83949605D01*
X112998787Y-83949605D01*
X112998787Y-83837559D01*
X113576727Y-83837559D01*
X113576727Y-83754211D01*
X113103995Y-83754211D01*
X113103995Y-83646256D01*
X113955853Y-83646256D01*
X113955853Y-83422041D01*
X113741346Y-83422041D01*
X113741346Y-83582264D01*
X113200287Y-83582264D01*
X113200287Y-83488658D01*
X113349886Y-83488658D01*
X113597915Y-83488658D01*
X113597915Y-83422041D01*
X113349886Y-83422041D01*
X113349886Y-83488658D01*
X113200287Y-83488658D01*
X113200287Y-83422041D01*
X112986514Y-83422041D01*
X112986514Y-83315429D01*
X113200287Y-83315429D01*
X113200287Y-83214373D01*
X113349886Y-83214373D01*
X113349886Y-83315429D01*
G37*
G36*
X113517254Y-83040594D02*
G01*
X113793248Y-83040594D01*
X113793248Y-82949187D01*
X113941503Y-82949187D01*
X113941503Y-83040594D01*
X114288511Y-83040594D01*
X114288511Y-83148489D01*
X113941503Y-83148489D01*
X113941503Y-83223654D01*
X113793248Y-83223654D01*
X113793248Y-83148489D01*
X113517254Y-83148489D01*
X113517254Y-83223654D01*
X113366311Y-83223654D01*
X113366311Y-83148489D01*
X113013808Y-83148489D01*
X113013808Y-83040594D01*
X113366311Y-83040594D01*
X113366311Y-82949187D01*
X113517254Y-82949187D01*
X113517254Y-83040594D01*
G37*
G36*
X112053079Y-83246980D02*
G01*
X112492288Y-83246980D01*
X112492288Y-83382962D01*
X112053079Y-83382962D01*
X112053079Y-83752440D01*
X112125054Y-83740485D01*
X112188328Y-83736748D01*
X112256571Y-83740918D01*
X112315565Y-83752744D01*
X112366666Y-83771476D01*
X112411017Y-83796770D01*
X112453354Y-83833191D01*
X112482463Y-83874037D01*
X112499939Y-83920203D01*
X112505966Y-83973297D01*
X112500661Y-84028046D01*
X112485589Y-84074168D01*
X112461209Y-84113412D01*
X112426889Y-84146920D01*
X112380975Y-84175102D01*
X112324515Y-84196895D01*
X112260077Y-84210551D01*
X112186252Y-84215341D01*
X112117798Y-84211291D01*
X112064604Y-84200357D01*
X112023709Y-84183956D01*
X111986589Y-84158444D01*
X111956237Y-84124874D01*
X111932175Y-84082024D01*
X111914693Y-84027958D01*
X111904823Y-83960169D01*
X111792763Y-84037331D01*
X111659603Y-84145732D01*
X111583094Y-84010666D01*
X111691937Y-83925722D01*
X111754937Y-83884881D01*
X112053079Y-83884881D01*
X112053079Y-83925669D01*
X112059530Y-83984952D01*
X112076588Y-84026296D01*
X112102733Y-84054562D01*
X112139202Y-84072197D01*
X112189672Y-84078688D01*
X112241022Y-84075086D01*
X112281780Y-84065226D01*
X112313991Y-84050111D01*
X112341117Y-84027506D01*
X112356595Y-84001012D01*
X112361863Y-83969206D01*
X112357781Y-83939846D01*
X112346020Y-83915576D01*
X112326146Y-83895125D01*
X112296284Y-83878103D01*
X112251869Y-83864637D01*
X112195167Y-83859724D01*
X112131344Y-83865530D01*
X112053079Y-83884881D01*
X111754937Y-83884881D01*
X111798597Y-83856578D01*
X111903480Y-83801899D01*
X111903480Y-83382962D01*
X111624738Y-83382962D01*
X111624738Y-83246980D01*
X111903480Y-83246980D01*
X111903480Y-82999989D01*
X112053079Y-82999989D01*
X112053079Y-83246980D01*
G37*
G36*
X112795440Y-83234789D02*
G01*
X112812902Y-83480907D01*
X112818841Y-83739007D01*
X112812713Y-83984434D01*
X112794905Y-84212594D01*
X112641887Y-84189391D01*
X112661375Y-83934771D01*
X112667899Y-83676908D01*
X112661927Y-83442351D01*
X112644574Y-83224379D01*
X112616608Y-83021849D01*
X112766939Y-82999989D01*
X112795440Y-83234789D01*
G37*
G36*
X110478323Y-83502580D02*
G01*
X110482523Y-83726470D01*
X110492672Y-83862411D01*
X110507668Y-83952246D01*
X110529902Y-84032738D01*
X110558913Y-84104897D01*
X110594460Y-84169607D01*
X110481071Y-84281775D01*
X110436149Y-84203405D01*
X110399995Y-84119649D01*
X110372556Y-84029910D01*
X110354003Y-83933485D01*
X110340095Y-83772403D01*
X110334159Y-83487376D01*
X110334159Y-83117226D01*
X109560886Y-83117226D01*
X109560886Y-83528408D01*
X109555804Y-83746303D01*
X109542307Y-83911898D01*
X109522788Y-84034608D01*
X109499294Y-84122886D01*
X109473447Y-84184200D01*
X109445449Y-84227893D01*
X109418749Y-84254871D01*
X109392909Y-84269368D01*
X109366896Y-84273960D01*
X109336779Y-84267003D01*
X109308283Y-84244625D01*
X109280129Y-84200870D01*
X109262191Y-84153682D01*
X109242670Y-84078119D01*
X109222060Y-83964504D01*
X109325924Y-83864059D01*
X109352108Y-84027833D01*
X109364564Y-84078176D01*
X109369644Y-84085404D01*
X109374562Y-84078388D01*
X109386680Y-84029228D01*
X109401979Y-83916316D01*
X109413504Y-83731348D01*
X109418126Y-83448663D01*
X109418126Y-82996997D01*
X110478323Y-82996997D01*
X110478323Y-83502580D01*
G37*
G36*
X109870454Y-83196229D02*
G01*
X110062899Y-83223272D01*
X110286348Y-83242705D01*
X110235790Y-83356095D01*
X110013773Y-83337655D01*
X110013773Y-83446953D01*
X110254230Y-83446953D01*
X110254230Y-83832369D01*
X110013773Y-83832369D01*
X110013773Y-84040036D01*
X110322557Y-84067330D01*
X110280914Y-84204656D01*
X110073358Y-84177817D01*
X109883143Y-84146017D01*
X109709141Y-84109706D01*
X109704317Y-84120636D01*
X109657911Y-84234026D01*
X109533592Y-84171195D01*
X109617927Y-84002437D01*
X109697540Y-83868578D01*
X109809525Y-83913640D01*
X109756280Y-84009262D01*
X109795176Y-84014757D01*
X109888110Y-84025015D01*
X109888110Y-83832369D01*
X109641486Y-83832369D01*
X109641486Y-83724413D01*
X109764462Y-83724413D01*
X109888110Y-83724413D01*
X110013773Y-83724413D01*
X110132658Y-83724413D01*
X110132658Y-83554909D01*
X110013773Y-83554909D01*
X110013773Y-83724413D01*
X109888110Y-83724413D01*
X109888110Y-83554909D01*
X109764462Y-83554909D01*
X109764462Y-83724413D01*
X109641486Y-83724413D01*
X109641486Y-83446953D01*
X109888110Y-83446953D01*
X109888110Y-83322634D01*
X109875104Y-83321229D01*
X109743941Y-83300302D01*
X109627808Y-83276167D01*
X109705722Y-83162777D01*
X109870454Y-83196229D01*
G37*
G36*
X109060554Y-84219249D02*
G01*
X109080045Y-83987467D01*
X109086505Y-83758058D01*
X109079848Y-83496512D01*
X109060302Y-83247995D01*
X109028436Y-83011713D01*
X108878166Y-83027405D01*
X108907980Y-83231684D01*
X108926868Y-83460791D01*
X108933487Y-83717147D01*
X108930150Y-83889119D01*
X108920442Y-84049668D01*
X108904788Y-84199466D01*
X109060554Y-84219249D01*
G37*
G36*
X108650715Y-83139757D02*
G01*
X107994190Y-83139757D01*
X107994190Y-83285265D01*
X108650715Y-83285265D01*
X108650715Y-83139757D01*
G37*
G36*
X107947784Y-84135535D02*
G01*
X108090695Y-84150992D01*
X108272260Y-84156723D01*
X108405057Y-84150293D01*
X108508064Y-84132979D01*
X108586746Y-84107259D01*
X108645828Y-84074849D01*
X108689133Y-84036555D01*
X108719354Y-83992166D01*
X108737803Y-83940465D01*
X108744260Y-83879385D01*
X108737497Y-83807975D01*
X108717868Y-83744526D01*
X108685519Y-83687411D01*
X108556437Y-83744808D01*
X108576931Y-83780864D01*
X108589165Y-83819521D01*
X108593318Y-83861617D01*
X108588214Y-83898827D01*
X108573715Y-83928548D01*
X108549517Y-83952616D01*
X108513389Y-83971587D01*
X108453043Y-83989291D01*
X108373639Y-84001299D01*
X108270856Y-84005781D01*
X108108058Y-84000103D01*
X107963476Y-83983921D01*
X107947784Y-84135535D01*
G37*
G36*
X107201940Y-83045424D02*
G01*
X107294019Y-83064009D01*
X107379797Y-83094450D01*
X107462147Y-83137871D01*
X107536179Y-83192404D01*
X107602650Y-83258676D01*
X107661959Y-83337777D01*
X107709116Y-83422238D01*
X107742413Y-83509621D01*
X107762425Y-83600754D01*
X107769181Y-83696631D01*
X107764663Y-83776076D01*
X107751381Y-83850819D01*
X107729553Y-83921517D01*
X107694136Y-83997132D01*
X107651029Y-84057500D01*
X107609899Y-84097293D01*
X107567876Y-84124133D01*
X107524302Y-84139779D01*
X107478166Y-84145000D01*
X107430950Y-84138900D01*
X107385048Y-84120272D01*
X107339226Y-84087462D01*
X107292712Y-84037427D01*
X107245219Y-83965969D01*
X107180246Y-83836907D01*
X107126395Y-83698890D01*
X107086007Y-83562476D01*
X107048903Y-83391358D01*
X107016364Y-83179752D01*
X106943052Y-83198970D01*
X106880164Y-83225124D01*
X106826327Y-83257801D01*
X106780450Y-83296967D01*
X106741774Y-83342967D01*
X106707021Y-83401020D01*
X106681944Y-83464563D01*
X106666505Y-83534544D01*
X106661174Y-83612123D01*
X106667653Y-83699147D01*
X106686193Y-83775238D01*
X106716027Y-83842205D01*
X106757185Y-83901467D01*
X106810496Y-83953960D01*
X106877527Y-84000077D01*
X106960493Y-84039637D01*
X107062159Y-84071910D01*
X106981559Y-84207526D01*
X106874257Y-84172421D01*
X106783901Y-84129506D01*
X106708287Y-84079368D01*
X106645623Y-84022146D01*
X106594593Y-83957524D01*
X106554420Y-83884743D01*
X106524904Y-83802641D01*
X106506434Y-83709717D01*
X106499973Y-83604185D01*
X106506090Y-83509315D01*
X106523677Y-83424868D01*
X106551990Y-83349338D01*
X106590836Y-83281476D01*
X106640585Y-83220338D01*
X106692166Y-83174256D01*
X107164619Y-83174256D01*
X107192156Y-83353663D01*
X107227107Y-83511080D01*
X107268566Y-83648688D01*
X107315786Y-83768516D01*
X107368196Y-83872424D01*
X107404323Y-83928277D01*
X107433807Y-83960555D01*
X107458070Y-83976445D01*
X107478838Y-83981051D01*
X107500714Y-83976275D01*
X107524619Y-83960259D01*
X107551927Y-83928417D01*
X107576740Y-83884963D01*
X107595550Y-83832309D01*
X107607701Y-83768695D01*
X107612072Y-83692051D01*
X107606319Y-83610769D01*
X107589376Y-83534561D01*
X107561345Y-83462499D01*
X107521836Y-83393817D01*
X107469984Y-83327946D01*
X107417256Y-83276949D01*
X107366852Y-83239164D01*
X107310621Y-83210169D01*
X107243824Y-83188286D01*
X107164619Y-83174256D01*
X106692166Y-83174256D01*
X106702145Y-83165341D01*
X106769613Y-83120576D01*
X106842557Y-83085576D01*
X106921716Y-83060150D01*
X107007998Y-83044470D01*
X107102459Y-83039068D01*
X107201940Y-83045424D01*
G37*
G36*
X105867751Y-83577318D02*
G01*
X105917077Y-83660554D01*
X105963706Y-83723352D01*
X106007824Y-83769232D01*
X106051167Y-83802138D01*
X106088148Y-83819348D01*
X106120542Y-83824553D01*
X106149915Y-83819662D01*
X106176772Y-83804782D01*
X106202203Y-83778016D01*
X106226421Y-83735648D01*
X106247355Y-83671631D01*
X106262270Y-83577552D01*
X106268065Y-83444206D01*
X106263211Y-83311478D01*
X106248066Y-83167470D01*
X106221659Y-83011163D01*
X106072060Y-83033756D01*
X106098428Y-83189389D01*
X106112764Y-83318719D01*
X106117123Y-83425216D01*
X106113175Y-83552001D01*
X106104587Y-83612604D01*
X106095162Y-83635625D01*
X106086348Y-83640821D01*
X106073988Y-83635239D01*
X106046781Y-83608032D01*
X106004812Y-83551846D01*
X105954518Y-83463196D01*
X105867751Y-83577318D01*
G37*
G36*
X105971615Y-84110439D02*
G01*
X105867038Y-84074965D01*
X105781144Y-84033526D01*
X105711299Y-83986777D01*
X105655321Y-83934951D01*
X105611408Y-83876995D01*
X105575699Y-83807120D01*
X105548588Y-83723293D01*
X105531102Y-83623022D01*
X105524834Y-83503435D01*
X105529167Y-83357724D01*
X105542901Y-83194183D01*
X105567210Y-83011102D01*
X105410772Y-82996081D01*
X105385178Y-83180749D01*
X105370444Y-83351799D01*
X105365710Y-83510212D01*
X105372443Y-83645162D01*
X105391329Y-83759842D01*
X105420759Y-83857073D01*
X105459653Y-83939333D01*
X105507516Y-84008690D01*
X105564462Y-84066720D01*
X105626160Y-84113702D01*
X105699963Y-84158218D01*
X105787439Y-84200040D01*
X105890343Y-84238789D01*
X105971615Y-84110439D01*
G37*
G36*
X105091425Y-83114173D02*
G01*
X104471725Y-83101119D01*
X103903489Y-83082055D01*
X103895307Y-83217976D01*
X104022675Y-83228552D01*
X104126973Y-83245394D01*
X104211483Y-83267243D01*
X104279195Y-83293080D01*
X104362075Y-83339137D01*
X104431736Y-83394589D01*
X104489610Y-83459776D01*
X104529388Y-83522515D01*
X104557346Y-83587755D01*
X104574125Y-83656233D01*
X104579797Y-83728871D01*
X104572793Y-83800950D01*
X104553085Y-83860256D01*
X104521493Y-83909423D01*
X104477276Y-83950155D01*
X104418131Y-83985256D01*
X104340914Y-84016885D01*
X104241835Y-84044099D01*
X104116591Y-84065560D01*
X104148709Y-84219249D01*
X104282797Y-84195959D01*
X104390663Y-84166828D01*
X104476319Y-84133123D01*
X104543344Y-84095773D01*
X104594818Y-84055301D01*
X104645209Y-84000282D01*
X104683647Y-83941295D01*
X104711052Y-83877723D01*
X104727757Y-83808660D01*
X104733487Y-83732962D01*
X104725865Y-83648253D01*
X104703000Y-83566372D01*
X104664178Y-83486100D01*
X104607763Y-83406470D01*
X104559423Y-83355083D01*
X104502180Y-83308140D01*
X104435104Y-83265585D01*
X104357048Y-83227562D01*
X105084586Y-83259619D01*
X105091425Y-83114173D01*
G37*
G36*
X104098150Y-83703469D02*
G01*
X104128646Y-83633893D01*
X104173105Y-83553412D01*
X104234132Y-83460448D01*
X104127520Y-83420881D01*
X104073621Y-83500904D01*
X104028014Y-83580934D01*
X103990256Y-83661154D01*
X104098150Y-83703469D01*
G37*
G36*
X103913747Y-83631723D02*
G01*
X103949760Y-83549882D01*
X103994663Y-83468509D01*
X104048996Y-83387358D01*
X103947208Y-83351210D01*
X103897907Y-83418335D01*
X103852531Y-83496195D01*
X103811287Y-83585989D01*
X103913747Y-83631723D01*
G37*
G36*
X102824668Y-84001140D02*
G01*
X102775704Y-83899422D01*
X102730553Y-83776044D01*
X102690060Y-83627764D01*
X102655286Y-83451045D01*
X102501596Y-83481697D01*
X102537276Y-83679336D01*
X102579112Y-83843624D01*
X102625848Y-83978882D01*
X102676474Y-84089068D01*
X102824668Y-84001140D01*
G37*
G36*
X102409333Y-83286425D02*
G01*
X102252896Y-83286425D01*
X102252896Y-84013902D01*
X102249170Y-84043623D01*
X102240000Y-84060322D01*
X102226273Y-84068551D01*
X102190387Y-84073583D01*
X102101953Y-84076062D01*
X102020403Y-84071615D01*
X101986488Y-84062445D01*
X101970706Y-84050021D01*
X101958877Y-84028888D01*
X101951683Y-83995462D01*
X101942096Y-83776193D01*
X101780225Y-83828094D01*
X101794090Y-84020678D01*
X101804771Y-84095174D01*
X101821397Y-84140078D01*
X101844805Y-84173375D01*
X101875047Y-84197286D01*
X101913398Y-84212716D01*
X101985096Y-84222513D01*
X102139506Y-84227065D01*
X102252707Y-84224493D01*
X102306873Y-84218883D01*
X102351399Y-84205126D01*
X102380931Y-84183319D01*
X102399075Y-84153304D01*
X102406407Y-84122440D01*
X102409333Y-84075390D01*
X102409333Y-83286425D01*
G37*
G36*
X101989235Y-83311032D02*
G01*
X102103376Y-83228552D01*
X102239095Y-83149190D01*
X102399075Y-83073323D01*
X102301439Y-82953094D01*
X102159405Y-83015749D01*
X102021999Y-83091625D01*
X101888790Y-83181217D01*
X101989235Y-83311032D01*
G37*
G36*
X101617620Y-84022145D02*
G01*
X101706884Y-83791263D01*
X101789697Y-83610535D01*
X101866259Y-83472110D01*
X101726247Y-83405310D01*
X101627623Y-83572268D01*
X101541356Y-83747467D01*
X101467349Y-83931470D01*
X101617620Y-84022145D01*
G37*
G36*
X101284656Y-83138963D02*
G01*
X100916460Y-83138963D01*
X100824197Y-82984357D01*
X100671912Y-83005973D01*
X100744269Y-83124797D01*
X100753183Y-83138963D01*
X100271598Y-83138963D01*
X100271598Y-83273541D01*
X100844042Y-83273541D01*
X100934098Y-83393487D01*
X101014829Y-83489330D01*
X100926175Y-83444336D01*
X100848360Y-83419776D01*
X100779134Y-83412149D01*
X100716198Y-83419104D01*
X100665105Y-83438689D01*
X100623206Y-83470426D01*
X100589051Y-83515763D01*
X100562613Y-83577868D01*
X100206018Y-83463318D01*
X100147278Y-83595575D01*
X100171153Y-83602414D01*
X100238808Y-83620122D01*
X100544844Y-83708782D01*
X100533243Y-83937943D01*
X100682841Y-83946125D01*
X100685528Y-83770148D01*
X100685528Y-83756531D01*
X100806665Y-83802851D01*
X100890128Y-83844378D01*
X100944598Y-83881357D01*
X100977458Y-83914277D01*
X100994565Y-83944026D01*
X100999808Y-83972015D01*
X100995327Y-83996408D01*
X100981979Y-84016764D01*
X100957933Y-84034196D01*
X100919146Y-84048401D01*
X100825989Y-84062051D01*
X100640465Y-84068185D01*
X100453261Y-84063026D01*
X100251753Y-84046997D01*
X100235389Y-84192505D01*
X100434602Y-84203705D01*
X100644556Y-84207526D01*
X100820947Y-84201823D01*
X100939726Y-84187450D01*
X101015500Y-84167958D01*
X101067053Y-84143597D01*
X101104422Y-84114193D01*
X101130255Y-84079763D01*
X101145938Y-84039383D01*
X101151421Y-83991310D01*
X101145641Y-83940019D01*
X101128370Y-83891901D01*
X101098827Y-83845819D01*
X101055129Y-83801045D01*
X101005027Y-83764013D01*
X100933439Y-83722594D01*
X100835063Y-83676392D01*
X100703968Y-83625068D01*
X100721234Y-83577677D01*
X100740177Y-83551428D01*
X100768777Y-83533807D01*
X100807161Y-83527554D01*
X100851309Y-83532254D01*
X100907026Y-83548197D01*
X100977215Y-83578784D01*
X101058789Y-83624773D01*
X101148854Y-83686997D01*
X101248447Y-83768011D01*
X101339305Y-83664207D01*
X101234152Y-83560643D01*
X101144543Y-83461207D01*
X101069105Y-83365611D01*
X101006585Y-83273541D01*
X101284656Y-83273541D01*
X101284656Y-83138963D01*
G37*
G36*
X99360022Y-84277868D02*
G01*
X99221353Y-84277868D01*
X99221353Y-84199710D01*
X98894129Y-84199710D01*
X98894129Y-84277868D01*
X98752712Y-84277868D01*
X98752712Y-84074047D01*
X98894129Y-84074047D01*
X99221353Y-84074047D01*
X99221353Y-83828461D01*
X98894129Y-83828461D01*
X98894129Y-84074047D01*
X98752712Y-84074047D01*
X98752712Y-83705484D01*
X99360022Y-83705484D01*
X99360022Y-84277868D01*
G37*
G36*
X99816362Y-83064318D02*
G01*
X99883251Y-83169371D01*
X99920865Y-83131147D01*
X100003480Y-83230127D01*
X99909286Y-83332097D01*
X99810162Y-83460814D01*
X99898333Y-83562541D01*
X99944068Y-83564556D01*
X100007632Y-83567304D01*
X99979605Y-83692906D01*
X99764427Y-83673794D01*
X99764427Y-84277868D01*
X99628445Y-84277868D01*
X99628445Y-83657918D01*
X99525985Y-83642226D01*
X99502782Y-83736992D01*
X99387988Y-83686556D01*
X99423363Y-83562556D01*
X99457860Y-83465288D01*
X99491181Y-83390533D01*
X99600479Y-83432116D01*
X99557431Y-83540560D01*
X99747330Y-83555580D01*
X99639317Y-83439059D01*
X99542757Y-83324491D01*
X99456987Y-83211748D01*
X99441294Y-83189216D01*
X99441294Y-83265725D01*
X99135929Y-83265725D01*
X99135929Y-83450129D01*
X99407161Y-83450129D01*
X99407161Y-83574448D01*
X98702154Y-83574448D01*
X98702154Y-83450129D01*
X98991826Y-83450129D01*
X98991826Y-83265725D01*
X98676875Y-83265725D01*
X98676875Y-83138658D01*
X98991826Y-83138658D01*
X98991826Y-82949614D01*
X99135929Y-82949614D01*
X99135929Y-83138658D01*
X99441294Y-83138658D01*
X99441294Y-83171448D01*
X99540334Y-83099640D01*
X99637906Y-83241118D01*
X99729562Y-83361407D01*
X99806742Y-83258215D01*
X99703188Y-83122424D01*
X99628445Y-83007133D01*
X99751421Y-82941371D01*
X99816362Y-83064318D01*
G37*
G36*
X99955720Y-83915085D02*
G01*
X99976403Y-84030832D01*
X100000793Y-84114591D01*
X99871650Y-84174431D01*
X99844936Y-84064216D01*
X99824895Y-83931999D01*
X99812909Y-83774544D01*
X99940648Y-83759584D01*
X99955720Y-83915085D01*
G37*
G36*
X99599075Y-83774483D02*
G01*
X99561364Y-83928024D01*
X99533496Y-84089068D01*
X99407161Y-84040158D01*
X99437942Y-83895837D01*
X99482998Y-83743892D01*
X99599075Y-83774483D01*
G37*
G36*
X97735929Y-83300713D02*
G01*
X97846958Y-83248329D01*
X97971576Y-83200103D01*
X98111048Y-83156426D01*
X98266730Y-83117775D01*
X98205242Y-82991502D01*
X98050250Y-83025824D01*
X97909768Y-83067279D01*
X97782606Y-83115359D01*
X97667663Y-83169677D01*
X97735929Y-83300713D01*
G37*
G36*
X98196388Y-83948323D02*
G01*
X98149895Y-84008390D01*
X98104863Y-84046677D01*
X98060502Y-84067878D01*
X98015343Y-84074719D01*
X97972761Y-84069208D01*
X97941947Y-84054216D01*
X97919816Y-84030146D01*
X97905353Y-83994875D01*
X97899877Y-83944232D01*
X97905434Y-83880459D01*
X97924082Y-83801003D01*
X97959351Y-83702431D01*
X98004823Y-83605812D01*
X98057420Y-83518377D01*
X98117131Y-83439382D01*
X97993483Y-83375207D01*
X97912758Y-83481509D01*
X97846251Y-83593119D01*
X97793326Y-83710614D01*
X97763730Y-83801204D01*
X97747257Y-83881303D01*
X97742096Y-83952414D01*
X97746245Y-84012217D01*
X97757947Y-84062984D01*
X97776446Y-84106197D01*
X97801509Y-84143046D01*
X97839816Y-84178871D01*
X97885910Y-84204868D01*
X97941390Y-84221234D01*
X98008504Y-84227065D01*
X98069155Y-84220795D01*
X98124178Y-84202381D01*
X98174947Y-84171532D01*
X98222353Y-84126822D01*
X98266730Y-84065804D01*
X98196388Y-83948323D01*
G37*
G36*
X98596702Y-84020069D02*
G01*
X98535936Y-83906796D01*
X98483564Y-83779790D01*
X98440045Y-83637594D01*
X98406071Y-83478583D01*
X98263982Y-83524989D01*
X98296153Y-83676529D01*
X98333164Y-83807500D01*
X98374313Y-83920076D01*
X98419028Y-84016271D01*
X98466887Y-84097922D01*
X98596702Y-84020069D01*
G37*
G36*
X97446990Y-84074719D02*
G01*
X97490120Y-83917609D01*
X97540715Y-83770025D01*
X97598559Y-83631376D01*
X97663511Y-83501114D01*
X97536505Y-83445122D01*
X97464311Y-83576202D01*
X97401740Y-83714457D01*
X97348788Y-83860406D01*
X97305573Y-84014635D01*
X97446990Y-84074719D01*
G37*
G36*
X97515317Y-83260413D02*
G01*
X97547839Y-83187601D01*
X97592540Y-83106712D01*
X97651238Y-83016781D01*
X97547435Y-82979228D01*
X97472904Y-83094344D01*
X97410109Y-83218098D01*
X97515317Y-83260413D01*
G37*
G36*
X97343126Y-83200573D02*
G01*
X97378582Y-83119938D01*
X97423218Y-83038287D01*
X97477704Y-82955354D01*
X97377991Y-82921831D01*
X97329531Y-82988096D01*
X97284825Y-83065116D01*
X97244085Y-83154106D01*
X97343126Y-83200573D01*
G37*
G36*
X115657798Y-84930765D02*
G01*
X115355853Y-84930765D01*
X115310057Y-84668571D01*
X115306638Y-84648726D01*
X115157039Y-84671318D01*
X115204849Y-84930765D01*
X115096955Y-84930765D01*
X115013850Y-84936384D01*
X114949476Y-84951589D01*
X114900060Y-84974570D01*
X114862604Y-85004527D01*
X114836611Y-85039119D01*
X114816817Y-85083421D01*
X114803848Y-85139687D01*
X114799101Y-85210729D01*
X114804843Y-85366702D01*
X114821645Y-85513222D01*
X114848988Y-85651099D01*
X114871666Y-85728005D01*
X114895083Y-85783644D01*
X114918658Y-85822496D01*
X114947147Y-85852672D01*
X114979999Y-85873893D01*
X115018078Y-85886890D01*
X115062761Y-85891434D01*
X115134573Y-85884305D01*
X115214334Y-85861552D01*
X115303951Y-85820359D01*
X115286854Y-85676256D01*
X115197660Y-85714171D01*
X115132593Y-85733099D01*
X115086025Y-85738415D01*
X115062929Y-85734092D01*
X115043931Y-85721248D01*
X115027957Y-85698115D01*
X115008040Y-85648688D01*
X114986252Y-85571842D01*
X114964857Y-85460159D01*
X114951794Y-85343129D01*
X114947356Y-85220254D01*
X114952937Y-85156630D01*
X114966765Y-85117384D01*
X114986252Y-85094652D01*
X115010170Y-85082773D01*
X115048013Y-85074189D01*
X115105137Y-85070778D01*
X115235624Y-85070778D01*
X115285276Y-85267051D01*
X115341672Y-85446478D01*
X115404345Y-85610263D01*
X115472915Y-85759535D01*
X115547095Y-85895341D01*
X115684420Y-85820237D01*
X115605140Y-85677392D01*
X115535742Y-85531293D01*
X115476028Y-85381686D01*
X115425872Y-85228285D01*
X115385223Y-85070778D01*
X115657798Y-85070778D01*
X115657798Y-84930765D01*
G37*
G36*
X114537456Y-85478846D02*
G01*
X114595139Y-85300085D01*
X114660690Y-85135964D01*
X114733762Y-84985435D01*
X114814122Y-84847540D01*
X114682964Y-84780556D01*
X114589963Y-84940475D01*
X114510870Y-85099482D01*
X114445043Y-85257884D01*
X114391948Y-85416015D01*
X114537456Y-85478846D01*
G37*
G36*
X113500889Y-85447217D02*
G01*
X113569825Y-85435822D01*
X113632719Y-85432196D01*
X113720106Y-85438896D01*
X113792021Y-85457582D01*
X113851317Y-85486906D01*
X113901011Y-85526632D01*
X113934616Y-85570400D01*
X113954496Y-85619057D01*
X113961287Y-85674302D01*
X113955577Y-85728070D01*
X113939203Y-85773924D01*
X113912332Y-85813568D01*
X113873848Y-85848019D01*
X113828030Y-85874651D01*
X113775626Y-85894286D01*
X113715525Y-85906632D01*
X113646397Y-85910973D01*
X113574878Y-85905882D01*
X113515346Y-85891641D01*
X113465728Y-85869293D01*
X113424380Y-85839166D01*
X113393798Y-85804568D01*
X113370394Y-85762957D01*
X113354170Y-85713046D01*
X113345795Y-85653114D01*
X113217565Y-85730382D01*
X113097156Y-85813154D01*
X113018632Y-85685293D01*
X113132255Y-85611446D01*
X113174788Y-85587351D01*
X113500889Y-85587351D01*
X113500889Y-85615439D01*
X113506414Y-85667124D01*
X113522077Y-85709961D01*
X113544909Y-85743214D01*
X113573045Y-85766227D01*
X113607396Y-85780320D01*
X113649816Y-85785310D01*
X113702841Y-85781276D01*
X113744766Y-85770228D01*
X113781636Y-85751038D01*
X113805541Y-85728639D01*
X113819323Y-85702816D01*
X113824023Y-85672287D01*
X113818102Y-85638808D01*
X113800384Y-85610050D01*
X113768640Y-85584603D01*
X113738895Y-85571195D01*
X113701469Y-85562452D01*
X113654579Y-85559263D01*
X113581606Y-85565985D01*
X113500889Y-85587351D01*
X113174788Y-85587351D01*
X113241186Y-85549737D01*
X113345795Y-85499241D01*
X113345795Y-85124084D01*
X113500889Y-85124084D01*
X113500889Y-85447217D01*
G37*
G36*
X113972889Y-84863110D02*
G01*
X114233862Y-84863110D01*
X114233862Y-85000436D01*
X114018684Y-85000436D01*
X114076530Y-85144358D01*
X114139727Y-85278736D01*
X114208137Y-85404111D01*
X114281673Y-85520978D01*
X114154605Y-85593396D01*
X114078410Y-85471427D01*
X114005003Y-85332987D01*
X113934660Y-85176541D01*
X113867742Y-85000436D01*
X113573979Y-85000436D01*
X113573979Y-84863110D01*
X113823290Y-84863110D01*
X113767297Y-84671257D01*
X113916896Y-84652634D01*
X113972889Y-84863110D01*
G37*
G36*
X113441477Y-84886618D02*
G01*
X113314134Y-84983728D01*
X113198197Y-85086543D01*
X113093065Y-85195158D01*
X112994696Y-85083417D01*
X113106048Y-84975520D01*
X113224802Y-84877105D01*
X113351290Y-84787883D01*
X113441477Y-84886618D01*
G37*
G36*
X112321270Y-84725424D02*
G01*
X112413349Y-84744009D01*
X112499127Y-84774450D01*
X112581477Y-84817871D01*
X112655509Y-84872404D01*
X112721980Y-84938676D01*
X112781289Y-85017777D01*
X112828446Y-85102238D01*
X112861743Y-85189621D01*
X112881755Y-85280754D01*
X112888511Y-85376631D01*
X112883993Y-85456076D01*
X112870711Y-85530819D01*
X112848883Y-85601517D01*
X112813466Y-85677132D01*
X112770359Y-85737500D01*
X112729229Y-85777293D01*
X112687206Y-85804133D01*
X112643632Y-85819779D01*
X112597496Y-85825000D01*
X112550280Y-85818900D01*
X112504378Y-85800272D01*
X112458556Y-85767462D01*
X112412042Y-85717427D01*
X112364549Y-85645969D01*
X112299576Y-85516907D01*
X112245725Y-85378890D01*
X112205337Y-85242476D01*
X112168233Y-85071358D01*
X112135694Y-84859752D01*
X112062382Y-84878970D01*
X111999494Y-84905124D01*
X111945657Y-84937801D01*
X111899780Y-84976967D01*
X111861104Y-85022967D01*
X111826351Y-85081020D01*
X111801274Y-85144563D01*
X111785835Y-85214544D01*
X111780504Y-85292123D01*
X111786983Y-85379147D01*
X111805523Y-85455238D01*
X111835357Y-85522205D01*
X111876515Y-85581467D01*
X111929826Y-85633960D01*
X111996857Y-85680077D01*
X112079823Y-85719637D01*
X112181489Y-85751910D01*
X112100889Y-85887526D01*
X111993587Y-85852421D01*
X111903231Y-85809506D01*
X111827617Y-85759368D01*
X111764953Y-85702146D01*
X111713923Y-85637524D01*
X111673750Y-85564743D01*
X111644234Y-85482641D01*
X111625764Y-85389717D01*
X111619303Y-85284185D01*
X111625420Y-85189315D01*
X111643007Y-85104868D01*
X111671320Y-85029338D01*
X111710166Y-84961476D01*
X111759915Y-84900338D01*
X111811496Y-84854256D01*
X112283949Y-84854256D01*
X112311486Y-85033663D01*
X112346437Y-85191080D01*
X112387896Y-85328688D01*
X112435116Y-85448516D01*
X112487526Y-85552424D01*
X112523653Y-85608277D01*
X112553137Y-85640555D01*
X112577400Y-85656445D01*
X112598168Y-85661051D01*
X112620044Y-85656275D01*
X112643949Y-85640259D01*
X112671257Y-85608417D01*
X112696071Y-85564963D01*
X112714880Y-85512309D01*
X112727031Y-85448695D01*
X112731402Y-85372051D01*
X112725649Y-85290769D01*
X112708706Y-85214561D01*
X112680675Y-85142499D01*
X112641166Y-85073817D01*
X112589314Y-85007946D01*
X112536586Y-84956949D01*
X112486182Y-84919164D01*
X112429952Y-84890169D01*
X112363154Y-84868286D01*
X112283949Y-84854256D01*
X111811496Y-84854256D01*
X111821475Y-84845341D01*
X111888943Y-84800576D01*
X111961887Y-84765576D01*
X112041046Y-84740150D01*
X112127328Y-84724470D01*
X112221789Y-84719068D01*
X112321270Y-84725424D01*
G37*
G36*
X110913319Y-84831603D02*
G01*
X111427023Y-84831603D01*
X111427023Y-84961357D01*
X110913319Y-84961357D01*
X110913319Y-85126038D01*
X111397653Y-85126038D01*
X111397653Y-85254448D01*
X110913319Y-85254448D01*
X110913319Y-85429754D01*
X110983773Y-85422447D01*
X111045150Y-85420167D01*
X111146853Y-85425563D01*
X111228613Y-85440325D01*
X111293850Y-85462726D01*
X111348048Y-85493296D01*
X111387451Y-85528008D01*
X111414618Y-85566972D01*
X111430965Y-85611055D01*
X111436610Y-85661784D01*
X111430045Y-85714934D01*
X111410877Y-85761404D01*
X111378534Y-85802886D01*
X111330730Y-85840204D01*
X111282712Y-85864693D01*
X111225864Y-85883172D01*
X111158662Y-85895022D01*
X111079344Y-85899249D01*
X110995354Y-85893680D01*
X110929245Y-85878503D01*
X110877587Y-85855418D01*
X110837619Y-85825214D01*
X110807440Y-85787691D01*
X110786244Y-85742969D01*
X110770718Y-85683710D01*
X110762377Y-85606280D01*
X110618366Y-85679288D01*
X110485604Y-85758271D01*
X110363407Y-85843135D01*
X110282807Y-85713075D01*
X110404126Y-85634122D01*
X110524319Y-85567037D01*
X110545877Y-85556943D01*
X110913319Y-85556943D01*
X110913319Y-85583871D01*
X110917461Y-85641741D01*
X110928451Y-85684513D01*
X110944766Y-85715640D01*
X110966726Y-85738866D01*
X110996659Y-85756366D01*
X111036655Y-85767898D01*
X111089602Y-85772182D01*
X111148171Y-85768180D01*
X111194774Y-85757220D01*
X111231690Y-85740430D01*
X111261951Y-85716456D01*
X111278705Y-85689749D01*
X111284263Y-85659036D01*
X111277181Y-85623118D01*
X111255810Y-85592847D01*
X111216608Y-85566652D01*
X111177862Y-85552454D01*
X111129374Y-85543128D01*
X111069085Y-85539724D01*
X110994003Y-85543910D01*
X110913319Y-85556943D01*
X110545877Y-85556943D01*
X110643642Y-85511168D01*
X110762377Y-85465963D01*
X110762377Y-85254448D01*
X110356568Y-85254448D01*
X110356568Y-85126038D01*
X110762377Y-85126038D01*
X110762377Y-84961357D01*
X110332693Y-84961357D01*
X110332693Y-84831603D01*
X110762377Y-84831603D01*
X110762377Y-84660450D01*
X110913319Y-84660450D01*
X110913319Y-84831603D01*
G37*
G36*
X109501657Y-85519818D02*
G01*
X109555789Y-85658826D01*
X109606929Y-85756429D01*
X109654854Y-85821748D01*
X109699815Y-85862457D01*
X109742711Y-85884465D01*
X109785162Y-85891434D01*
X109825535Y-85886050D01*
X109864051Y-85869700D01*
X109901829Y-85840969D01*
X109939490Y-85797107D01*
X109977137Y-85734263D01*
X110013468Y-85651530D01*
X110041762Y-85562489D01*
X110061828Y-85466451D01*
X110076454Y-85347184D01*
X110086257Y-85196760D01*
X110089855Y-85009961D01*
X110087706Y-84886966D01*
X110080940Y-84750331D01*
X109920411Y-84762604D01*
X109927159Y-84899759D01*
X109929326Y-85026386D01*
X109924782Y-85218180D01*
X109912536Y-85368946D01*
X109894494Y-85485268D01*
X109872307Y-85573131D01*
X109847322Y-85637909D01*
X109821261Y-85683325D01*
X109800981Y-85703591D01*
X109784490Y-85708984D01*
X109766276Y-85700896D01*
X109736680Y-85665265D01*
X109700899Y-85604251D01*
X109663078Y-85523977D01*
X109623290Y-85420717D01*
X109501657Y-85519818D01*
G37*
G36*
X109069286Y-85682362D02*
G01*
X109096308Y-85489589D01*
X109125020Y-85336204D01*
X109154649Y-85216346D01*
X109198868Y-85073812D01*
X109246532Y-84942629D01*
X109297409Y-84822077D01*
X109151901Y-84786540D01*
X109081563Y-84937599D01*
X109026187Y-85080868D01*
X108984595Y-85217018D01*
X108958111Y-85330143D01*
X108933047Y-85471273D01*
X108910101Y-85644809D01*
X109069286Y-85682362D01*
G37*
G36*
X107127538Y-84724307D02*
G01*
X107172740Y-84813278D01*
X107224703Y-84889855D01*
X107127006Y-84952869D01*
X107255416Y-84952869D01*
X107255416Y-85021379D01*
X107681010Y-85021379D01*
X107681010Y-85117672D01*
X107255416Y-85117672D01*
X107255416Y-85184106D01*
X107836104Y-85184106D01*
X107836104Y-85281803D01*
X107255416Y-85281803D01*
X107255416Y-85348421D01*
X107682353Y-85348421D01*
X107682353Y-85442027D01*
X107255416Y-85442027D01*
X107255416Y-85511025D01*
X107743841Y-85511025D01*
X107743841Y-85610066D01*
X107255416Y-85610066D01*
X107255416Y-85679309D01*
X107825174Y-85679309D01*
X107825174Y-85785921D01*
X107255416Y-85785921D01*
X107255416Y-85957868D01*
X107104474Y-85957868D01*
X107104474Y-85785921D01*
X106525191Y-85785921D01*
X106525191Y-85679309D01*
X107104474Y-85679309D01*
X107104474Y-85610066D01*
X106606463Y-85610066D01*
X106606463Y-85511025D01*
X107104474Y-85511025D01*
X107104474Y-85442027D01*
X106670699Y-85442027D01*
X106670699Y-85348421D01*
X106818893Y-85348421D01*
X107104474Y-85348421D01*
X107104474Y-85281803D01*
X106818893Y-85281803D01*
X106818893Y-85348421D01*
X106670699Y-85348421D01*
X106670699Y-85281803D01*
X106512857Y-85281803D01*
X106512857Y-85184106D01*
X106670699Y-85184106D01*
X106818893Y-85184106D01*
X107104474Y-85184106D01*
X107104474Y-85117672D01*
X106818893Y-85117672D01*
X106818893Y-85184106D01*
X106670699Y-85184106D01*
X106670699Y-85021379D01*
X107104474Y-85021379D01*
X107104474Y-84952747D01*
X107107222Y-84952747D01*
X107070860Y-84904964D01*
X107030713Y-84840212D01*
X106960982Y-84840212D01*
X106924047Y-84903800D01*
X106887892Y-84978881D01*
X106743789Y-84939253D01*
X106770597Y-84894708D01*
X106808696Y-84840212D01*
X106539541Y-84840212D01*
X106539541Y-84729570D01*
X106976064Y-84729570D01*
X106941870Y-84641215D01*
X107089453Y-84621371D01*
X107127538Y-84724307D01*
G37*
G36*
X107663755Y-84700338D02*
G01*
X107705674Y-84771041D01*
X107756349Y-84834323D01*
X107816259Y-84890771D01*
X107710380Y-84981629D01*
X107642196Y-84915336D01*
X107581969Y-84840212D01*
X107534159Y-84840212D01*
X107502794Y-84895930D01*
X107463756Y-84981629D01*
X107325819Y-84935162D01*
X107380469Y-84840212D01*
X107213773Y-84840212D01*
X107213773Y-84729570D01*
X107515718Y-84729570D01*
X107476762Y-84641215D01*
X107630451Y-84621371D01*
X107663755Y-84700338D01*
G37*
G36*
X106084944Y-84835511D02*
G01*
X105839724Y-84835511D01*
X105839724Y-84629187D01*
X105684630Y-84629187D01*
X105684630Y-84835511D01*
X105233086Y-84835511D01*
X105233086Y-84965265D01*
X105684630Y-84965265D01*
X105684630Y-85208103D01*
X105119696Y-85208103D01*
X105119696Y-85336514D01*
X105540526Y-85336514D01*
X105540526Y-85738110D01*
X105537512Y-85761142D01*
X105529829Y-85775143D01*
X105517995Y-85782990D01*
X105488490Y-85788530D01*
X105420969Y-85791172D01*
X105352068Y-85787484D01*
X105320525Y-85779570D01*
X105306062Y-85769402D01*
X105294606Y-85752433D01*
X105286392Y-85726264D01*
X105276133Y-85601945D01*
X105274790Y-85572575D01*
X105129282Y-85621789D01*
X105138816Y-85761748D01*
X105152486Y-85832144D01*
X105167292Y-85865078D01*
X105186806Y-85888883D01*
X105211226Y-85905233D01*
X105249895Y-85917266D01*
X105318958Y-85926637D01*
X105431899Y-85930512D01*
X105540907Y-85927225D01*
X105606211Y-85919346D01*
X105641643Y-85909385D01*
X105664851Y-85894927D01*
X105681772Y-85873619D01*
X105692824Y-85843765D01*
X105696964Y-85802468D01*
X105696964Y-85336514D01*
X105899136Y-85336514D01*
X105907585Y-85472796D01*
X105921667Y-85563660D01*
X105941814Y-85633568D01*
X105969009Y-85694859D01*
X106003025Y-85748587D01*
X106043972Y-85795568D01*
X106108769Y-85850209D01*
X106182531Y-85895463D01*
X106266348Y-85931455D01*
X106361610Y-85957868D01*
X106438790Y-85828297D01*
X106347852Y-85801139D01*
X106274046Y-85769935D01*
X106214858Y-85735340D01*
X106168122Y-85697712D01*
X106132083Y-85657083D01*
X106103072Y-85607059D01*
X106079679Y-85539934D01*
X106063347Y-85451419D01*
X106056245Y-85336514D01*
X106427861Y-85336514D01*
X106427861Y-85208103D01*
X105839724Y-85208103D01*
X105839724Y-84965265D01*
X106138921Y-84965265D01*
X106200957Y-85077102D01*
X106270751Y-85174337D01*
X106386889Y-85080059D01*
X106327421Y-84997838D01*
X106272839Y-84901172D01*
X106223476Y-84788282D01*
X106179893Y-84657152D01*
X106039881Y-84683531D01*
X106084944Y-84835511D01*
G37*
G36*
X104917219Y-85899249D02*
G01*
X104936710Y-85667467D01*
X104943169Y-85438058D01*
X104936513Y-85176512D01*
X104916967Y-84927995D01*
X104885101Y-84691713D01*
X104734830Y-84707405D01*
X104764645Y-84911684D01*
X104783532Y-85140791D01*
X104790151Y-85397147D01*
X104786814Y-85569119D01*
X104777106Y-85729668D01*
X104761453Y-85879466D01*
X104917219Y-85899249D01*
G37*
G36*
X104507379Y-84819757D02*
G01*
X103850854Y-84819757D01*
X103850854Y-84965265D01*
X104507379Y-84965265D01*
X104507379Y-84819757D01*
G37*
G36*
X103804448Y-85815535D02*
G01*
X103947360Y-85830992D01*
X104128925Y-85836723D01*
X104261722Y-85830293D01*
X104364728Y-85812979D01*
X104443410Y-85787259D01*
X104502492Y-85754849D01*
X104545797Y-85716555D01*
X104576018Y-85672166D01*
X104594468Y-85620465D01*
X104600924Y-85559385D01*
X104594161Y-85487975D01*
X104574533Y-85424526D01*
X104542184Y-85367411D01*
X104413101Y-85424808D01*
X104433595Y-85460864D01*
X104445829Y-85499521D01*
X104449982Y-85541617D01*
X104444878Y-85578827D01*
X104430380Y-85608548D01*
X104406182Y-85632616D01*
X104370054Y-85651587D01*
X104309708Y-85669291D01*
X104230303Y-85681299D01*
X104127520Y-85685781D01*
X103964723Y-85680103D01*
X103820141Y-85663921D01*
X103804448Y-85815535D01*
G37*
G36*
X102634009Y-84762950D02*
G01*
X102707065Y-84922827D01*
X102963886Y-84922827D01*
X102828637Y-84859996D01*
X102870482Y-84769253D01*
X102912444Y-84693857D01*
X102954361Y-84631934D01*
X103082772Y-84689270D01*
X103034806Y-84770114D01*
X102996580Y-84847851D01*
X102967306Y-84922827D01*
X103140169Y-84922827D01*
X103140169Y-85051238D01*
X102838224Y-85051238D01*
X102838224Y-85264157D01*
X103177049Y-85264157D01*
X103177049Y-85391224D01*
X102853244Y-85391224D01*
X102884002Y-85490727D01*
X102923544Y-85577087D01*
X102971475Y-85651879D01*
X103027816Y-85716358D01*
X103093000Y-85771410D01*
X103167854Y-85817518D01*
X103253558Y-85854736D01*
X103157205Y-85969591D01*
X103058507Y-85915569D01*
X102973494Y-85853101D01*
X102900817Y-85782092D01*
X102839523Y-85702062D01*
X102789087Y-85612162D01*
X102749441Y-85511209D01*
X102699249Y-85614617D01*
X102638533Y-85709889D01*
X102566982Y-85797691D01*
X102484005Y-85878492D01*
X102388756Y-85952555D01*
X102299241Y-85821275D01*
X102393653Y-85757129D01*
X102476478Y-85682771D01*
X102548565Y-85597665D01*
X102610384Y-85500901D01*
X102662002Y-85391224D01*
X102320429Y-85391224D01*
X102320429Y-85264157D01*
X102694059Y-85264157D01*
X102694059Y-85051238D01*
X102375078Y-85051238D01*
X102375078Y-84922827D01*
X102554047Y-84922827D01*
X102495817Y-84814568D01*
X102431071Y-84676997D01*
X102583417Y-84629187D01*
X102634009Y-84762950D01*
G37*
G36*
X103624502Y-85779876D02*
G01*
X103491268Y-85779876D01*
X103491268Y-85672592D01*
X103210511Y-85672592D01*
X103210511Y-85538014D01*
X103337578Y-85538014D01*
X103491268Y-85538014D01*
X103491268Y-84875383D01*
X103337578Y-84875383D01*
X103337578Y-85538014D01*
X103210511Y-85538014D01*
X103210511Y-84740806D01*
X103624502Y-84740806D01*
X103624502Y-85779876D01*
G37*
G36*
X101281114Y-85922697D02*
G01*
X101491741Y-85767746D01*
X101758434Y-85589737D01*
X102089924Y-85386034D01*
X102134994Y-85354852D01*
X102162720Y-85326063D01*
X102177499Y-85299050D01*
X102182126Y-85272705D01*
X102177998Y-85246106D01*
X102165147Y-85219779D01*
X102141826Y-85192838D01*
X102117752Y-85174829D01*
X102055730Y-85138189D01*
X101800607Y-84988940D01*
X101511985Y-84804309D01*
X101404957Y-84731741D01*
X101311828Y-84664357D01*
X101222374Y-84781777D01*
X101459651Y-84943543D01*
X101700292Y-85095056D01*
X101944417Y-85236496D01*
X101974174Y-85257905D01*
X101980626Y-85270629D01*
X101976697Y-85280900D01*
X101960781Y-85295237D01*
X101897278Y-85333461D01*
X101584845Y-85522702D01*
X101354774Y-85671362D01*
X101191599Y-85786165D01*
X101281114Y-85922697D01*
G37*
G36*
X99889724Y-85957868D02*
G01*
X99738782Y-85957868D01*
X99738782Y-85887526D01*
X99138311Y-85887526D01*
X99138311Y-85957868D01*
X98985964Y-85957868D01*
X98985964Y-85770045D01*
X99138311Y-85770045D01*
X99738782Y-85770045D01*
X99738782Y-85637421D01*
X99138311Y-85637421D01*
X99138311Y-85770045D01*
X98985964Y-85770045D01*
X98985964Y-85528122D01*
X99138311Y-85528122D01*
X99738782Y-85528122D01*
X99738782Y-85410764D01*
X99138311Y-85410764D01*
X99138311Y-85528122D01*
X98985964Y-85528122D01*
X98985964Y-85294626D01*
X99889724Y-85294626D01*
X99889724Y-85957868D01*
G37*
G36*
X99517437Y-84757719D02*
G01*
X100003114Y-84757719D01*
X100003114Y-84879291D01*
X99819382Y-84879291D01*
X99775863Y-84980914D01*
X99743545Y-85075418D01*
X100102154Y-85075418D01*
X100102154Y-85199738D01*
X98772862Y-85199738D01*
X98772862Y-85075418D01*
X99141058Y-85075418D01*
X99102378Y-84983233D01*
X99065893Y-84879291D01*
X99225078Y-84879291D01*
X99256908Y-84980546D01*
X99294077Y-85075418D01*
X99587107Y-85075418D01*
X99620615Y-84973065D01*
X99658182Y-84879291D01*
X99225078Y-84879291D01*
X99065893Y-84879291D01*
X98872575Y-84879291D01*
X98872575Y-84757719D01*
X99367838Y-84757719D01*
X99367838Y-84629187D01*
X99517437Y-84629187D01*
X99517437Y-84757719D01*
G37*
G36*
X98108291Y-84725424D02*
G01*
X98200369Y-84744009D01*
X98286147Y-84774450D01*
X98368498Y-84817871D01*
X98442529Y-84872404D01*
X98509000Y-84938676D01*
X98568309Y-85017777D01*
X98615467Y-85102238D01*
X98648764Y-85189621D01*
X98668775Y-85280754D01*
X98675532Y-85376631D01*
X98671013Y-85456076D01*
X98657732Y-85530819D01*
X98635903Y-85601517D01*
X98600486Y-85677132D01*
X98557379Y-85737500D01*
X98516249Y-85777293D01*
X98474226Y-85804133D01*
X98430652Y-85819779D01*
X98384516Y-85825000D01*
X98337300Y-85818900D01*
X98291398Y-85800272D01*
X98245576Y-85767462D01*
X98199062Y-85717427D01*
X98151570Y-85645969D01*
X98086597Y-85516907D01*
X98032745Y-85378890D01*
X97992357Y-85242476D01*
X97955253Y-85071358D01*
X97922714Y-84859752D01*
X97849402Y-84878970D01*
X97786515Y-84905124D01*
X97732677Y-84937801D01*
X97686800Y-84976967D01*
X97648124Y-85022967D01*
X97613371Y-85081020D01*
X97588294Y-85144563D01*
X97572856Y-85214544D01*
X97567524Y-85292123D01*
X97574003Y-85379147D01*
X97592544Y-85455238D01*
X97622377Y-85522205D01*
X97663535Y-85581467D01*
X97716847Y-85633960D01*
X97783877Y-85680077D01*
X97866844Y-85719637D01*
X97968510Y-85751910D01*
X97887909Y-85887526D01*
X97780607Y-85852421D01*
X97690252Y-85809506D01*
X97614638Y-85759368D01*
X97551973Y-85702146D01*
X97500943Y-85637524D01*
X97460770Y-85564743D01*
X97431254Y-85482641D01*
X97412784Y-85389717D01*
X97406324Y-85284185D01*
X97412440Y-85189315D01*
X97430028Y-85104868D01*
X97458340Y-85029338D01*
X97497186Y-84961476D01*
X97546935Y-84900338D01*
X97598517Y-84854256D01*
X98070969Y-84854256D01*
X98098506Y-85033663D01*
X98133457Y-85191080D01*
X98174916Y-85328688D01*
X98222137Y-85448516D01*
X98274546Y-85552424D01*
X98310673Y-85608277D01*
X98340157Y-85640555D01*
X98364421Y-85656445D01*
X98385188Y-85661051D01*
X98407064Y-85656275D01*
X98430969Y-85640259D01*
X98458278Y-85608417D01*
X98483091Y-85564963D01*
X98501900Y-85512309D01*
X98514052Y-85448695D01*
X98518422Y-85372051D01*
X98512670Y-85290769D01*
X98495726Y-85214561D01*
X98467695Y-85142499D01*
X98428186Y-85073817D01*
X98376334Y-85007946D01*
X98323607Y-84956949D01*
X98273203Y-84919164D01*
X98216972Y-84890169D01*
X98150175Y-84868286D01*
X98070969Y-84854256D01*
X97598517Y-84854256D01*
X97608496Y-84845341D01*
X97675963Y-84800576D01*
X97748908Y-84765576D01*
X97828066Y-84740150D01*
X97914348Y-84724470D01*
X98008810Y-84719068D01*
X98108291Y-84725424D01*
G37*
G36*
X96956550Y-84772923D02*
G01*
X96956550Y-84629187D01*
X96804204Y-84629187D01*
X96804204Y-84772923D01*
X96480399Y-84772923D01*
X96480399Y-84629187D01*
X96328053Y-84629187D01*
X96328053Y-84772923D01*
X95993989Y-84772923D01*
X95993989Y-84902739D01*
X96328053Y-84902739D01*
X96328053Y-85034569D01*
X96480399Y-85034569D01*
X96480399Y-84902739D01*
X96804204Y-84902739D01*
X96804204Y-85034569D01*
X96956550Y-85034569D01*
X96956550Y-84902739D01*
X97281027Y-84902739D01*
X97281027Y-84772923D01*
X96956550Y-84772923D01*
G37*
G36*
X96888224Y-85280216D02*
G01*
X96888224Y-85957868D01*
X97041913Y-85957868D01*
X97041913Y-85460528D01*
X97121962Y-85536938D01*
X97212700Y-85612203D01*
X97307650Y-85484464D01*
X97210787Y-85411853D01*
X97124776Y-85333162D01*
X97048921Y-85248223D01*
X96982699Y-85156721D01*
X96925776Y-85058199D01*
X96776177Y-85111444D01*
X96834356Y-85203657D01*
X96888224Y-85280216D01*
G37*
G36*
X96506350Y-85353977D02*
G01*
X96376316Y-85291856D01*
X96260580Y-85223485D01*
X96157937Y-85149057D01*
X96041800Y-85263790D01*
X96177583Y-85344473D01*
X96331847Y-85421791D01*
X96506350Y-85495394D01*
X96506350Y-85713319D01*
X96502382Y-85745216D01*
X96492502Y-85763733D01*
X96477651Y-85773403D01*
X96439475Y-85780852D01*
X96356079Y-85784333D01*
X96260232Y-85781424D01*
X96208496Y-85774747D01*
X96184447Y-85764314D01*
X96166613Y-85744190D01*
X96154518Y-85711243D01*
X96148394Y-85666209D01*
X96142245Y-85576666D01*
X96139497Y-85534289D01*
X95984464Y-85582833D01*
X95991687Y-85706509D01*
X96004277Y-85787702D01*
X96019750Y-85837795D01*
X96036366Y-85866277D01*
X96060750Y-85887064D01*
X96099520Y-85904992D01*
X96157937Y-85918911D01*
X96238517Y-85927309D01*
X96347836Y-85930512D01*
X96483904Y-85926013D01*
X96561454Y-85915459D01*
X96600628Y-85902486D01*
X96625749Y-85884373D01*
X96643982Y-85859607D01*
X96655719Y-85826652D01*
X96660040Y-85782990D01*
X96660040Y-85076639D01*
X96506350Y-85076639D01*
X96506350Y-85353977D01*
G37*
G36*
X115454893Y-86400778D02*
G01*
X115697426Y-86400778D01*
X115697426Y-86504581D01*
X115454893Y-86504581D01*
X115454893Y-86569672D01*
X115666652Y-86569672D01*
X115666652Y-86668712D01*
X115454893Y-86668712D01*
X115454893Y-86731177D01*
X115715134Y-86731177D01*
X115715134Y-86844567D01*
X115071676Y-86844567D01*
X115071676Y-86731177D01*
X115319644Y-86731177D01*
X115319644Y-86668712D01*
X115123578Y-86668712D01*
X115123578Y-86618154D01*
X115056655Y-86711332D01*
X115012936Y-86675490D01*
X115012936Y-86774225D01*
X114831219Y-86774225D01*
X114831219Y-86897812D01*
X115090116Y-86897812D01*
X115090116Y-87012606D01*
X114831219Y-87012606D01*
X114831219Y-87145230D01*
X115046397Y-87145230D01*
X115046397Y-87262711D01*
X114831219Y-87262711D01*
X114831219Y-87471172D01*
X114832711Y-87491195D01*
X114835982Y-87500603D01*
X114844646Y-87506288D01*
X114864009Y-87508785D01*
X114912366Y-87505939D01*
X114993763Y-87495108D01*
X114968483Y-87624862D01*
X114869782Y-87635218D01*
X114814794Y-87637868D01*
X114772025Y-87633955D01*
X114742220Y-87623728D01*
X114721920Y-87608497D01*
X114709471Y-87589201D01*
X114701138Y-87562035D01*
X114697984Y-87524417D01*
X114697984Y-87262711D01*
X114452093Y-87262711D01*
X114452093Y-87145230D01*
X114573665Y-87145230D01*
X114702076Y-87145230D01*
X114702076Y-87012606D01*
X114573665Y-87012606D01*
X114573665Y-87145230D01*
X114452093Y-87145230D01*
X114452093Y-87012606D01*
X114376256Y-87012606D01*
X114376256Y-86897812D01*
X114452093Y-86897812D01*
X114573665Y-86897812D01*
X114702076Y-86897812D01*
X114702076Y-86774225D01*
X114573665Y-86774225D01*
X114573665Y-86897812D01*
X114452093Y-86897812D01*
X114452093Y-86659492D01*
X114673377Y-86659492D01*
X114597473Y-86549181D01*
X114562055Y-86488949D01*
X114703480Y-86488949D01*
X114736970Y-86551216D01*
X114809359Y-86659492D01*
X114997182Y-86659492D01*
X114915897Y-86572745D01*
X114853079Y-86488949D01*
X114703480Y-86488949D01*
X114562055Y-86488949D01*
X114529274Y-86433201D01*
X114600287Y-86370125D01*
X114801177Y-86370125D01*
X114892707Y-86311873D01*
X114941430Y-86400851D01*
X114996125Y-86478902D01*
X115056777Y-86546992D01*
X115123578Y-86605881D01*
X115123578Y-86569672D01*
X115319644Y-86569672D01*
X115319644Y-86504581D01*
X115088712Y-86504581D01*
X115088712Y-86400778D01*
X115319644Y-86400778D01*
X115319644Y-86309187D01*
X115454893Y-86309187D01*
X115454893Y-86400778D01*
G37*
G36*
X115660484Y-87637868D02*
G01*
X115532074Y-87637868D01*
X115532074Y-87364316D01*
X115254736Y-87364316D01*
X115254736Y-87468119D01*
X115257484Y-87495474D01*
X115264436Y-87503642D01*
X115282763Y-87507076D01*
X115414593Y-87497550D01*
X115390657Y-87620771D01*
X115326064Y-87627566D01*
X115246554Y-87630052D01*
X115192625Y-87625055D01*
X115163206Y-87613260D01*
X115143808Y-87593868D01*
X115131146Y-87564690D01*
X115126325Y-87521913D01*
X115126325Y-87268023D01*
X115254736Y-87268023D01*
X115532074Y-87268023D01*
X115532074Y-87188461D01*
X115254736Y-87188461D01*
X115254736Y-87268023D01*
X115126325Y-87268023D01*
X115126325Y-87092168D01*
X115254736Y-87092168D01*
X115532074Y-87092168D01*
X115532074Y-87016514D01*
X115254736Y-87016514D01*
X115254736Y-87092168D01*
X115126325Y-87092168D01*
X115126325Y-86916069D01*
X115660484Y-86916069D01*
X115660484Y-87637868D01*
G37*
G36*
X113643649Y-86875830D02*
G01*
X113586985Y-86875830D01*
X113559669Y-87000301D01*
X113530259Y-87096320D01*
X113500671Y-87168927D01*
X113464531Y-87238946D01*
X113421632Y-87306613D01*
X113491252Y-87378004D01*
X113565235Y-87438334D01*
X113643887Y-87488326D01*
X113727669Y-87528447D01*
X113640901Y-87641775D01*
X113551617Y-87594267D01*
X113470798Y-87540672D01*
X113397819Y-87480969D01*
X113332178Y-87414996D01*
X113247651Y-87494915D01*
X113153177Y-87567272D01*
X113048002Y-87632189D01*
X112976256Y-87499077D01*
X113075923Y-87437865D01*
X113165403Y-87371876D01*
X113245411Y-87301118D01*
X113191844Y-87210719D01*
X113140729Y-87101888D01*
X113092561Y-86972061D01*
X113064650Y-86875830D01*
X113208531Y-86875830D01*
X113243356Y-86988700D01*
X113286420Y-87093694D01*
X113337613Y-87191453D01*
X113387021Y-87102294D01*
X113427137Y-86997849D01*
X113457170Y-86875830D01*
X113208531Y-86875830D01*
X113064650Y-86875830D01*
X113048002Y-86818433D01*
X113121763Y-86754258D01*
X113643649Y-86754258D01*
X113643649Y-86875830D01*
G37*
G36*
X114025523Y-86970718D02*
G01*
X114320629Y-86970718D01*
X114320629Y-87086856D01*
X114011845Y-87086856D01*
X114011845Y-87476728D01*
X114013921Y-87497855D01*
X114021210Y-87505509D01*
X114039200Y-87508724D01*
X114155338Y-87497794D01*
X114136165Y-87626755D01*
X114075683Y-87634829D01*
X113996153Y-87637868D01*
X113948288Y-87633645D01*
X113916590Y-87622861D01*
X113896379Y-87607215D01*
X113883583Y-87587523D01*
X113875051Y-87559997D01*
X113871833Y-87522096D01*
X113871833Y-87086856D01*
X113625881Y-87086856D01*
X113625881Y-86970718D01*
X113886854Y-86970718D01*
X113886854Y-86836751D01*
X113686025Y-86836751D01*
X113686025Y-86723361D01*
X113886854Y-86723361D01*
X113886854Y-86611376D01*
X114025523Y-86611376D01*
X114025523Y-86970718D01*
G37*
G36*
X114242736Y-87245727D02*
G01*
X114285580Y-87346293D01*
X114339070Y-87438077D01*
X114227023Y-87525821D01*
X114186527Y-87458726D01*
X114148502Y-87378608D01*
X114113325Y-87283710D01*
X114081516Y-87172096D01*
X114210659Y-87135338D01*
X114242736Y-87245727D01*
G37*
G36*
X113831533Y-87186934D02*
G01*
X113794974Y-87252896D01*
X113756251Y-87337647D01*
X113715396Y-87444488D01*
X113597915Y-87370422D01*
X113641007Y-87273413D01*
X113682461Y-87194989D01*
X113722234Y-87132590D01*
X113831533Y-87186934D01*
G37*
G36*
X113730416Y-86449565D02*
G01*
X114272147Y-86449565D01*
X114272147Y-86728979D01*
X114122548Y-86728979D01*
X114122548Y-86567107D01*
X113180504Y-86567107D01*
X113180504Y-86727636D01*
X113030905Y-86727636D01*
X113030905Y-86449565D01*
X113580818Y-86449565D01*
X113580818Y-86309187D01*
X113730416Y-86309187D01*
X113730416Y-86449565D01*
G37*
G36*
X112793562Y-87579249D02*
G01*
X112813053Y-87347467D01*
X112819513Y-87118058D01*
X112812856Y-86856512D01*
X112793310Y-86607995D01*
X112761444Y-86371713D01*
X112611174Y-86387405D01*
X112640988Y-86591684D01*
X112659875Y-86820791D01*
X112666495Y-87077147D01*
X112663158Y-87249119D01*
X112653449Y-87409668D01*
X112637796Y-87559466D01*
X112793562Y-87579249D01*
G37*
G36*
X112383722Y-86499757D02*
G01*
X111727198Y-86499757D01*
X111727198Y-86645265D01*
X112383722Y-86645265D01*
X112383722Y-86499757D01*
G37*
G36*
X111680792Y-87495535D02*
G01*
X111823703Y-87510992D01*
X112005268Y-87516723D01*
X112138065Y-87510293D01*
X112241072Y-87492979D01*
X112319754Y-87467259D01*
X112378836Y-87434849D01*
X112422141Y-87396555D01*
X112452362Y-87352166D01*
X112470811Y-87300465D01*
X112477267Y-87239385D01*
X112470504Y-87167975D01*
X112450876Y-87104526D01*
X112418527Y-87047411D01*
X112289445Y-87104808D01*
X112309939Y-87140864D01*
X112322173Y-87179521D01*
X112326325Y-87221617D01*
X112321221Y-87258827D01*
X112306723Y-87288548D01*
X112282525Y-87312616D01*
X112246397Y-87331587D01*
X112186051Y-87349291D01*
X112106646Y-87361299D01*
X112003864Y-87365781D01*
X111841066Y-87360103D01*
X111696484Y-87343921D01*
X111680792Y-87495535D01*
G37*
G36*
X111085511Y-86336542D02*
G01*
X110933164Y-86350097D01*
X110965282Y-86541950D01*
X110558129Y-86541950D01*
X110558129Y-86676528D01*
X110989157Y-86676528D01*
X111025366Y-86893660D01*
X110639401Y-86893660D01*
X110639401Y-87028237D01*
X111047897Y-87028237D01*
X111063029Y-87143970D01*
X111067070Y-87215266D01*
X111062974Y-87267159D01*
X111051659Y-87308812D01*
X111034060Y-87342226D01*
X111010345Y-87368895D01*
X110971822Y-87395500D01*
X110923397Y-87415738D01*
X110862894Y-87428937D01*
X110787657Y-87433742D01*
X110707302Y-87429218D01*
X110642917Y-87416844D01*
X110591703Y-87398040D01*
X110551290Y-87373658D01*
X110519758Y-87343345D01*
X110497216Y-87307152D01*
X110483176Y-87263897D01*
X110478201Y-87211786D01*
X110482441Y-87149576D01*
X110495734Y-87082010D01*
X110519173Y-87008210D01*
X110376413Y-86998623D01*
X110343702Y-87082751D01*
X110325896Y-87154711D01*
X110320420Y-87216549D01*
X110325862Y-87286860D01*
X110341356Y-87347469D01*
X110366190Y-87400033D01*
X110400395Y-87445824D01*
X110444740Y-87485643D01*
X110509748Y-87524545D01*
X110587571Y-87553782D01*
X110680615Y-87572537D01*
X110791748Y-87579249D01*
X110884791Y-87574193D01*
X110963694Y-87560010D01*
X111030512Y-87537863D01*
X111087024Y-87508462D01*
X111134665Y-87472027D01*
X111174114Y-87426546D01*
X111202922Y-87371992D01*
X111221115Y-87306513D01*
X111227599Y-87227601D01*
X111223134Y-87147164D01*
X111207083Y-87028237D01*
X111463232Y-87028237D01*
X111463232Y-86893660D01*
X111183208Y-86893660D01*
X111145594Y-86676528D01*
X111446196Y-86676528D01*
X111446196Y-86541950D01*
X111121720Y-86541950D01*
X111085511Y-86336542D01*
G37*
G36*
X109100549Y-87610512D02*
G01*
X108939288Y-87610512D01*
X108939288Y-87505000D01*
X108206987Y-87505000D01*
X108206987Y-87610512D01*
X108044443Y-87610512D01*
X108044443Y-87362240D01*
X108206987Y-87362240D01*
X108939288Y-87362240D01*
X108939288Y-86993066D01*
X108206987Y-86993066D01*
X108206987Y-87362240D01*
X108044443Y-87362240D01*
X108044443Y-86858489D01*
X108206987Y-86858489D01*
X108939288Y-86858489D01*
X108939288Y-86520212D01*
X108206987Y-86520212D01*
X108206987Y-86858489D01*
X108044443Y-86858489D01*
X108044443Y-86381543D01*
X109100549Y-86381543D01*
X109100549Y-87610512D01*
G37*
G36*
X107048848Y-86696067D02*
G01*
X106954035Y-86822580D01*
X106851808Y-86937448D01*
X106741991Y-87041300D01*
X106624283Y-87134626D01*
X106498264Y-87217770D01*
X106595228Y-87349600D01*
X106728163Y-87245503D01*
X106844215Y-87140738D01*
X106944700Y-87035255D01*
X107030789Y-86928927D01*
X107103497Y-86821547D01*
X107103497Y-87237554D01*
X106823412Y-87237554D01*
X106823412Y-87372131D01*
X107100750Y-87372131D01*
X107100750Y-87637868D01*
X107254439Y-87637868D01*
X107254439Y-87372131D01*
X107516085Y-87372131D01*
X107516085Y-87237554D01*
X107251753Y-87237554D01*
X107251753Y-86828386D01*
X107323303Y-86946999D01*
X107407531Y-87061531D01*
X107505148Y-87172277D01*
X107617043Y-87279426D01*
X107744269Y-87383061D01*
X107843309Y-87260146D01*
X107716221Y-87167627D01*
X107599715Y-87065371D01*
X107493251Y-86953047D01*
X107396448Y-86830162D01*
X107309089Y-86696067D01*
X107804352Y-86696067D01*
X107804352Y-86555994D01*
X107255844Y-86555994D01*
X107255844Y-86309187D01*
X107099406Y-86309187D01*
X107099406Y-86555994D01*
X106541983Y-86555994D01*
X106541983Y-86696067D01*
X107048848Y-86696067D01*
G37*
G36*
X105812796Y-87637868D02*
G01*
X105674127Y-87637868D01*
X105674127Y-87563618D01*
X105345560Y-87563618D01*
X105345560Y-87637868D01*
X105201395Y-87637868D01*
X105201395Y-87447480D01*
X105345560Y-87447480D01*
X105674127Y-87447480D01*
X105674127Y-87243171D01*
X105345560Y-87243171D01*
X105345560Y-87447480D01*
X105201395Y-87447480D01*
X105201395Y-87129720D01*
X105812796Y-87129720D01*
X105812796Y-87637868D01*
G37*
G36*
X106392751Y-87637868D02*
G01*
X106258173Y-87637868D01*
X106258173Y-87567526D01*
X105922766Y-87567526D01*
X105922766Y-87451388D01*
X106057344Y-87451388D01*
X106258173Y-87451388D01*
X106258173Y-87286158D01*
X106057344Y-87286158D01*
X106057344Y-87451388D01*
X105922766Y-87451388D01*
X105922766Y-87168616D01*
X106392751Y-87168616D01*
X106392751Y-87637868D01*
G37*
G36*
X106366800Y-87079040D02*
G01*
X105950793Y-87079040D01*
X105950793Y-86968398D01*
X106366800Y-86968398D01*
X106366800Y-87079040D01*
G37*
G36*
X105876971Y-86477226D02*
G01*
X105639933Y-86477226D01*
X105659106Y-86619009D01*
X105825069Y-86619009D01*
X105825069Y-86735146D01*
X105678890Y-86735146D01*
X105712351Y-86897629D01*
X105909089Y-86897629D01*
X105909089Y-87016514D01*
X105107117Y-87016514D01*
X105107117Y-86897629D01*
X105241695Y-86897629D01*
X105376273Y-86897629D01*
X105577102Y-86897629D01*
X105544984Y-86735146D01*
X105376273Y-86735146D01*
X105376273Y-86897629D01*
X105241695Y-86897629D01*
X105241695Y-86619009D01*
X105525200Y-86619009D01*
X105504684Y-86477226D01*
X105152241Y-86477226D01*
X105152241Y-86359745D01*
X105876971Y-86359745D01*
X105876971Y-86477226D01*
G37*
G36*
X106366800Y-86883646D02*
G01*
X105950793Y-86883646D01*
X105950793Y-86770256D01*
X106366800Y-86770256D01*
X106366800Y-86883646D01*
G37*
G36*
X106437814Y-86684344D02*
G01*
X105876971Y-86684344D01*
X105876971Y-86561367D01*
X106437814Y-86561367D01*
X106437814Y-86684344D01*
G37*
G36*
X106366800Y-86473318D02*
G01*
X105950793Y-86473318D01*
X105950793Y-86358585D01*
X106366800Y-86358585D01*
X106366800Y-86473318D01*
G37*
G36*
X104443950Y-86405424D02*
G01*
X104536028Y-86424009D01*
X104621807Y-86454450D01*
X104704157Y-86497871D01*
X104778189Y-86552404D01*
X104844660Y-86618676D01*
X104903968Y-86697777D01*
X104951126Y-86782238D01*
X104984423Y-86869621D01*
X105004435Y-86960754D01*
X105011191Y-87056631D01*
X105006673Y-87136076D01*
X104993391Y-87210819D01*
X104971563Y-87281517D01*
X104936146Y-87357132D01*
X104893039Y-87417500D01*
X104851909Y-87457293D01*
X104809885Y-87484133D01*
X104766311Y-87499779D01*
X104720176Y-87505000D01*
X104672960Y-87498900D01*
X104627057Y-87480272D01*
X104581236Y-87447462D01*
X104534722Y-87397427D01*
X104487229Y-87325969D01*
X104422256Y-87196907D01*
X104368405Y-87058890D01*
X104328017Y-86922476D01*
X104290913Y-86751358D01*
X104258374Y-86539752D01*
X104185062Y-86558970D01*
X104122174Y-86585124D01*
X104068337Y-86617801D01*
X104022459Y-86656967D01*
X103983784Y-86702967D01*
X103949031Y-86761020D01*
X103923953Y-86824563D01*
X103908515Y-86894544D01*
X103903183Y-86972123D01*
X103909663Y-87059147D01*
X103928203Y-87135238D01*
X103958036Y-87202205D01*
X103999195Y-87261467D01*
X104052506Y-87313960D01*
X104119537Y-87360077D01*
X104202503Y-87399637D01*
X104304169Y-87431910D01*
X104223569Y-87567526D01*
X104116267Y-87532421D01*
X104025911Y-87489506D01*
X103950297Y-87439368D01*
X103887633Y-87382146D01*
X103836603Y-87317524D01*
X103796429Y-87244743D01*
X103766913Y-87162641D01*
X103748444Y-87069717D01*
X103741983Y-86964185D01*
X103748100Y-86869315D01*
X103765687Y-86784868D01*
X103794000Y-86709338D01*
X103832846Y-86641476D01*
X103882594Y-86580338D01*
X103934176Y-86534256D01*
X104406629Y-86534256D01*
X104434166Y-86713663D01*
X104469116Y-86871080D01*
X104510576Y-87008688D01*
X104557796Y-87128516D01*
X104610205Y-87232424D01*
X104646333Y-87288277D01*
X104675817Y-87320555D01*
X104700080Y-87336445D01*
X104720847Y-87341051D01*
X104742724Y-87336275D01*
X104766629Y-87320259D01*
X104793937Y-87288417D01*
X104818750Y-87244963D01*
X104837559Y-87192309D01*
X104849711Y-87128695D01*
X104854082Y-87052051D01*
X104848329Y-86970769D01*
X104831386Y-86894561D01*
X104803354Y-86822499D01*
X104763846Y-86753817D01*
X104711994Y-86687946D01*
X104659266Y-86636949D01*
X104608862Y-86599164D01*
X104552631Y-86570169D01*
X104485834Y-86548286D01*
X104406629Y-86534256D01*
X103934176Y-86534256D01*
X103944155Y-86525341D01*
X104011622Y-86480576D01*
X104084567Y-86445576D01*
X104163725Y-86420150D01*
X104250008Y-86404470D01*
X104344469Y-86399068D01*
X104443950Y-86405424D01*
G37*
G36*
X103632379Y-86567840D02*
G01*
X103440821Y-86516790D01*
X103258629Y-86455269D01*
X103085214Y-86383436D01*
X102990265Y-86497498D01*
X103091853Y-86584726D01*
X103175173Y-86668807D01*
X103242257Y-86750027D01*
X103294897Y-86828752D01*
X103334673Y-86906301D01*
X103361695Y-86979692D01*
X103377276Y-87049673D01*
X103382336Y-87117020D01*
X103376409Y-87203164D01*
X103360098Y-87272385D01*
X103334980Y-87327809D01*
X103301701Y-87371930D01*
X103259924Y-87406441D01*
X103208357Y-87432071D01*
X103144892Y-87448512D01*
X103066774Y-87454441D01*
X102991097Y-87447896D01*
X102926209Y-87429242D01*
X102870105Y-87399165D01*
X102821346Y-87357277D01*
X102779178Y-87302156D01*
X102749950Y-87244574D01*
X102727687Y-87175076D01*
X102713282Y-87091484D01*
X102708103Y-86991296D01*
X102711986Y-86898784D01*
X102724045Y-86799498D01*
X102744984Y-86692770D01*
X102805800Y-86476920D01*
X102672566Y-86420928D01*
X102595175Y-86566984D01*
X102509311Y-86703207D01*
X102414931Y-86830157D01*
X102311880Y-86948309D01*
X102394556Y-87084230D01*
X102485118Y-86964540D01*
X102570356Y-86827783D01*
X102650034Y-86672315D01*
X102608973Y-86819392D01*
X102586148Y-86948400D01*
X102579021Y-87061699D01*
X102585784Y-87181212D01*
X102604509Y-87279521D01*
X102633352Y-87360074D01*
X102671222Y-87425804D01*
X102716458Y-87478574D01*
X102768772Y-87521716D01*
X102828912Y-87555873D01*
X102898027Y-87581147D01*
X102977617Y-87597083D01*
X103069460Y-87602697D01*
X103163368Y-87596421D01*
X103243459Y-87578701D01*
X103311923Y-87550684D01*
X103370548Y-87512794D01*
X103420621Y-87464699D01*
X103457870Y-87414072D01*
X103487426Y-87356649D01*
X103509283Y-87291464D01*
X103523023Y-87217308D01*
X103527843Y-87132773D01*
X103521672Y-87056933D01*
X103502398Y-86975814D01*
X103468431Y-86888225D01*
X103421312Y-86799291D01*
X103363688Y-86714300D01*
X103294954Y-86632909D01*
X103214296Y-86554895D01*
X103330477Y-86612578D01*
X103454181Y-86663627D01*
X103585912Y-86707913D01*
X103632379Y-86567840D01*
G37*
G36*
X100928428Y-86442055D02*
G01*
X100571161Y-86442055D01*
X100584167Y-86488583D01*
X100849904Y-86488583D01*
X100849904Y-86853970D01*
X100996755Y-86853970D01*
X100996755Y-87060966D01*
X100871763Y-87060966D01*
X100906651Y-87119878D01*
X100942105Y-87166845D01*
X100832807Y-87226929D01*
X100795808Y-87172939D01*
X100759885Y-87101911D01*
X100725523Y-87010408D01*
X100837569Y-86979633D01*
X100862177Y-87041793D01*
X100862177Y-86946172D01*
X100500819Y-86946172D01*
X100556812Y-86979633D01*
X100511601Y-87034029D01*
X100474136Y-87090336D01*
X100373080Y-87031535D01*
X100401975Y-86988049D01*
X100437927Y-86946172D01*
X100114183Y-86946172D01*
X100114183Y-87001371D01*
X100136714Y-86972062D01*
X100151064Y-86953011D01*
X100248761Y-87008881D01*
X100238503Y-87023230D01*
X100232336Y-87032084D01*
X100336871Y-87004790D01*
X100342306Y-87057974D01*
X100348366Y-87072125D01*
X100360608Y-87082517D01*
X100381263Y-87089359D01*
X100418847Y-87093112D01*
X100493309Y-87094794D01*
X100564323Y-87090031D01*
X100579618Y-87080447D01*
X100584839Y-87062065D01*
X100584839Y-86972733D01*
X100713250Y-86972733D01*
X100713250Y-87113906D01*
X100710541Y-87137770D01*
X100703663Y-87152740D01*
X100687938Y-87166057D01*
X100656524Y-87177287D01*
X100756469Y-87242185D01*
X100865009Y-87295345D01*
X100983077Y-87336838D01*
X100887456Y-87426170D01*
X100806748Y-87392802D01*
X100732362Y-87355218D01*
X100677256Y-87403745D01*
X100599860Y-87458899D01*
X100706101Y-87487396D01*
X100837106Y-87512279D01*
X100996755Y-87532477D01*
X100925680Y-87645683D01*
X100749549Y-87614630D01*
X100597698Y-87574873D01*
X100467358Y-87527531D01*
X100374769Y-87564008D01*
X100301334Y-87587676D01*
X100183702Y-87615769D01*
X100038346Y-87640921D01*
X99957013Y-87523012D01*
X100194261Y-87488665D01*
X100334124Y-87457250D01*
X100250375Y-87400360D01*
X100175429Y-87340499D01*
X100142611Y-87309605D01*
X100315683Y-87309605D01*
X100377952Y-87353792D01*
X100472121Y-87404555D01*
X100551864Y-87361246D01*
X100625139Y-87309605D01*
X100315683Y-87309605D01*
X100142611Y-87309605D01*
X100108688Y-87277670D01*
X100168832Y-87217342D01*
X100534952Y-87217342D01*
X100497400Y-87184125D01*
X100368607Y-87178907D01*
X100300754Y-87171181D01*
X100270621Y-87163121D01*
X100245251Y-87144133D01*
X100226592Y-87110204D01*
X100215971Y-87054616D01*
X100168091Y-87131497D01*
X100114183Y-87229677D01*
X100008975Y-87168555D01*
X100073883Y-87059378D01*
X99978201Y-87059378D01*
X99978201Y-86853970D01*
X100131219Y-86853970D01*
X100269888Y-86853970D01*
X100711906Y-86853970D01*
X100711906Y-86801580D01*
X100269888Y-86801580D01*
X100269888Y-86853970D01*
X100131219Y-86853970D01*
X100131219Y-86731910D01*
X100269888Y-86731910D01*
X100711906Y-86731910D01*
X100711906Y-86684344D01*
X100269888Y-86684344D01*
X100269888Y-86731910D01*
X100131219Y-86731910D01*
X100131219Y-86614673D01*
X100269888Y-86614673D01*
X100711906Y-86614673D01*
X100711906Y-86567107D01*
X100269888Y-86567107D01*
X100269888Y-86614673D01*
X100131219Y-86614673D01*
X100131219Y-86488583D01*
X100442751Y-86488583D01*
X100423639Y-86442055D01*
X100014410Y-86442055D01*
X100014410Y-86342953D01*
X100928428Y-86342953D01*
X100928428Y-86442055D01*
G37*
G36*
X101127514Y-86460714D02*
G01*
X101166137Y-86586402D01*
X101216185Y-86717517D01*
X101273190Y-86836721D01*
X101336924Y-86944951D01*
X101276840Y-87102060D01*
X101217358Y-87015238D01*
X101179143Y-86953133D01*
X101179143Y-87638906D01*
X101040474Y-87638906D01*
X101040474Y-86658759D01*
X101035711Y-86645814D01*
X100992152Y-86515188D01*
X100941434Y-86330924D01*
X101085537Y-86297463D01*
X101127514Y-86460714D01*
G37*
G36*
X99770228Y-86367805D02*
G01*
X99609028Y-86367805D01*
X99609028Y-87182416D01*
X99602818Y-87254566D01*
X99585760Y-87311366D01*
X99559240Y-87356044D01*
X99523241Y-87390869D01*
X99476356Y-87416897D01*
X99415971Y-87433827D01*
X99338529Y-87440031D01*
X99270144Y-87433516D01*
X99207876Y-87414413D01*
X99150348Y-87382602D01*
X99096602Y-87336940D01*
X99046170Y-87275350D01*
X99003244Y-87201391D01*
X98958823Y-87094964D01*
X98913607Y-86947454D01*
X98774938Y-87031474D01*
X98815406Y-87157796D01*
X98857126Y-87258966D01*
X98899546Y-87338718D01*
X98942306Y-87400403D01*
X98997097Y-87459568D01*
X99055845Y-87506844D01*
X99118940Y-87543272D01*
X99187035Y-87569444D01*
X99261013Y-87585469D01*
X99341948Y-87590973D01*
X99430300Y-87585736D01*
X99505039Y-87571037D01*
X99568232Y-87548025D01*
X99621627Y-87517319D01*
X99666580Y-87478971D01*
X99703977Y-87432459D01*
X99731795Y-87381958D01*
X99752486Y-87323462D01*
X99765594Y-87255624D01*
X99770228Y-87176859D01*
X99770228Y-86367805D01*
G37*
G36*
X97716146Y-87602697D02*
G01*
X97926773Y-87447746D01*
X98193466Y-87269737D01*
X98524956Y-87066034D01*
X98570025Y-87034852D01*
X98597751Y-87006063D01*
X98612530Y-86979050D01*
X98617158Y-86952705D01*
X98613029Y-86926106D01*
X98600178Y-86899779D01*
X98576857Y-86872838D01*
X98552783Y-86854829D01*
X98490762Y-86818189D01*
X98235638Y-86668940D01*
X97947016Y-86484309D01*
X97839989Y-86411741D01*
X97746859Y-86344357D01*
X97657405Y-86461777D01*
X97894682Y-86623543D01*
X98135323Y-86775056D01*
X98379448Y-86916496D01*
X98409206Y-86937905D01*
X98415657Y-86950629D01*
X98411728Y-86960900D01*
X98395812Y-86975237D01*
X98332309Y-87013461D01*
X98019876Y-87202702D01*
X97789805Y-87351362D01*
X97626631Y-87466165D01*
X97716146Y-87602697D01*
G37*
G36*
X97355915Y-87391750D02*
G01*
X97408538Y-87479953D01*
X97468850Y-87557573D01*
X97316503Y-87645683D01*
X97263716Y-87567665D01*
X97212727Y-87467281D01*
X97164157Y-87340380D01*
X97311069Y-87291837D01*
X97355915Y-87391750D01*
G37*
G36*
X97049424Y-87345814D02*
G01*
X97021010Y-87468899D01*
X96994774Y-87634082D01*
X96829483Y-87589569D01*
X96856568Y-87458499D01*
X96901168Y-87314307D01*
X97049424Y-87345814D01*
G37*
G36*
X96442114Y-87327435D02*
G01*
X96381442Y-87418706D01*
X96328186Y-87515343D01*
X96282257Y-87617718D01*
X96124476Y-87550612D01*
X96182545Y-87442771D01*
X96240872Y-87350158D01*
X96299354Y-87271259D01*
X96442114Y-87327435D01*
G37*
G36*
X96755661Y-87339708D02*
G01*
X96712210Y-87424342D01*
X96674385Y-87514595D01*
X96642271Y-87610879D01*
X96485162Y-87556107D01*
X96525752Y-87456905D01*
X96570245Y-87369375D01*
X96618396Y-87292447D01*
X96755661Y-87339708D01*
G37*
G36*
X96845176Y-87227540D02*
G01*
X96212587Y-87227540D01*
X96212587Y-87116837D01*
X96352660Y-87116837D01*
X96706507Y-87116837D01*
X96706507Y-86957896D01*
X96352660Y-86957896D01*
X96352660Y-87116837D01*
X96212587Y-87116837D01*
X96212587Y-86848597D01*
X96845176Y-86848597D01*
X96845176Y-87227540D01*
G37*
G36*
X97400523Y-87215816D02*
G01*
X96959237Y-87215816D01*
X96959237Y-87099740D01*
X97095158Y-87099740D01*
X97261854Y-87099740D01*
X97261854Y-86840659D01*
X97095158Y-86840659D01*
X97095158Y-87099740D01*
X96959237Y-87099740D01*
X96959237Y-86727269D01*
X97095158Y-86727269D01*
X97261854Y-86727269D01*
X97261854Y-86485041D01*
X97095158Y-86485041D01*
X97095158Y-86727269D01*
X96959237Y-86727269D01*
X96959237Y-86366156D01*
X97400523Y-86366156D01*
X97400523Y-87215816D01*
G37*
G36*
X96896406Y-86473318D02*
G01*
X96688066Y-86473318D01*
X96700764Y-86524526D01*
X96718183Y-86567881D01*
X96739968Y-86604476D01*
X96769503Y-86638208D01*
X96809653Y-86670151D01*
X96862488Y-86700248D01*
X96930539Y-86728124D01*
X96839009Y-86825760D01*
X96761084Y-86789621D01*
X96700037Y-86751050D01*
X96653201Y-86710355D01*
X96613602Y-86662224D01*
X96582436Y-86607372D01*
X96559555Y-86544828D01*
X96545307Y-86473318D01*
X96335563Y-86473318D01*
X96346508Y-86583184D01*
X96357234Y-86634382D01*
X96366277Y-86652897D01*
X96381059Y-86660940D01*
X96414148Y-86664560D01*
X96480714Y-86661303D01*
X96567838Y-86650211D01*
X96542559Y-86770439D01*
X96458168Y-86779084D01*
X96368353Y-86782041D01*
X96311830Y-86778126D01*
X96275418Y-86768363D01*
X96249238Y-86752292D01*
X96228856Y-86727677D01*
X96213991Y-86692404D01*
X96202459Y-86635717D01*
X96191575Y-86531498D01*
X96183217Y-86358524D01*
X96896406Y-86358524D01*
X96896406Y-86473318D01*
G37*
G36*
X95174677Y-86626580D02*
G01*
X95304314Y-86573960D01*
X95444270Y-86526842D01*
X95595261Y-86485507D01*
X95758051Y-86450298D01*
X95700654Y-86328726D01*
X95479345Y-86376226D01*
X95283846Y-86430475D01*
X95111784Y-86490659D01*
X95174677Y-86626580D01*
G37*
G36*
X95954117Y-87127889D02*
G01*
X95931108Y-86909967D01*
X95902792Y-86721263D01*
X95870036Y-86558864D01*
X95723185Y-86586219D01*
X95754437Y-86730973D01*
X95776525Y-86865536D01*
X95790169Y-86990624D01*
X95721780Y-86944060D01*
X95645958Y-86903713D01*
X95561985Y-86869663D01*
X95478605Y-86844696D01*
X95401947Y-86830486D01*
X95331114Y-86825943D01*
X95249963Y-86830328D01*
X95180222Y-86842700D01*
X95120295Y-86862142D01*
X95068797Y-86888103D01*
X95020280Y-86925339D01*
X94982992Y-86969649D01*
X94955876Y-87021927D01*
X94938849Y-87083751D01*
X94932815Y-87157259D01*
X94938210Y-87229571D01*
X94953617Y-87292491D01*
X94978357Y-87347567D01*
X95012418Y-87396012D01*
X95056463Y-87438627D01*
X95111517Y-87475790D01*
X95180828Y-87509345D01*
X95266981Y-87538700D01*
X95372928Y-87562935D01*
X95501945Y-87580843D01*
X95657606Y-87590973D01*
X95712255Y-87449617D01*
X95562913Y-87445181D01*
X95443479Y-87433805D01*
X95349385Y-87417067D01*
X95276465Y-87396311D01*
X95218289Y-87370630D01*
X95173412Y-87339656D01*
X95139632Y-87303563D01*
X95115541Y-87261854D01*
X95100647Y-87213408D01*
X95095420Y-87156587D01*
X95100871Y-87101980D01*
X95116199Y-87057250D01*
X95140800Y-87020322D01*
X95175348Y-86989891D01*
X95219721Y-86966518D01*
X95274458Y-86951564D01*
X95342044Y-86946172D01*
X95413082Y-86951614D01*
X95488694Y-86968559D01*
X95569872Y-86998289D01*
X95657606Y-87042526D01*
X95724136Y-87084633D01*
X95785524Y-87132165D01*
X95842070Y-87185286D01*
X95954117Y-87127889D01*
G37*
G36*
X94046153Y-86525158D02*
G01*
X94720385Y-86525158D01*
X94720385Y-86656988D01*
X94046153Y-86656988D01*
X94046153Y-86790894D01*
X94086057Y-86772049D01*
X94129056Y-86760652D01*
X94175907Y-86756762D01*
X94231285Y-86761221D01*
X94281366Y-86774194D01*
X94327102Y-86795474D01*
X94369225Y-86825394D01*
X94400980Y-86858845D01*
X94428026Y-86900804D01*
X94448286Y-86948978D01*
X94460251Y-86997740D01*
X94464235Y-87047655D01*
X94458421Y-87119613D01*
X94442162Y-87178943D01*
X94416523Y-87228010D01*
X94381559Y-87268572D01*
X94344689Y-87296186D01*
X94302486Y-87316205D01*
X94253949Y-87328677D01*
X94197766Y-87333053D01*
X94149107Y-87328083D01*
X94104490Y-87313430D01*
X94062890Y-87288819D01*
X94023621Y-87253124D01*
X94049089Y-87317753D01*
X94085978Y-87371572D01*
X94134935Y-87416156D01*
X94196816Y-87451851D01*
X94284652Y-87485017D01*
X94405434Y-87514220D01*
X94327581Y-87630052D01*
X94231774Y-87605825D01*
X94150362Y-87575918D01*
X94081549Y-87540955D01*
X94023775Y-87501307D01*
X93975750Y-87457067D01*
X93939955Y-87410705D01*
X93910673Y-87353857D01*
X93888294Y-87284632D01*
X93873765Y-87200713D01*
X93868527Y-87099434D01*
X93874067Y-87031992D01*
X93876557Y-87020849D01*
X94040657Y-87020849D01*
X94040657Y-87046311D01*
X94043935Y-87084966D01*
X94053363Y-87118872D01*
X94068684Y-87148893D01*
X94098973Y-87183549D01*
X94134112Y-87203389D01*
X94175907Y-87210137D01*
X94222357Y-87203302D01*
X94259128Y-87183828D01*
X94288625Y-87150969D01*
X94303445Y-87121378D01*
X94312712Y-87086850D01*
X94315980Y-87046311D01*
X94310928Y-86998696D01*
X94296665Y-86959605D01*
X94273586Y-86927191D01*
X94240814Y-86900376D01*
X94207358Y-86884853D01*
X94171816Y-86879738D01*
X94127075Y-86886864D01*
X94090922Y-86907485D01*
X94061174Y-86943058D01*
X94045929Y-86978822D01*
X94040657Y-87020849D01*
X93876557Y-87020849D01*
X93892463Y-86949652D01*
X93892463Y-86656988D01*
X93489401Y-86656988D01*
X93489401Y-86525158D01*
X93892463Y-86525158D01*
X93892463Y-86336542D01*
X94046153Y-86336542D01*
X94046153Y-86525158D01*
G37*
D11*
G36*
X97924242Y-75976623D02*
G01*
X98302041Y-76067846D01*
X98694193Y-76187526D01*
X99237870Y-76434558D01*
X99632859Y-76735385D01*
X99873888Y-77085503D01*
X99955684Y-77480408D01*
X99936452Y-77632919D01*
X99787358Y-77920381D01*
X99517822Y-78146185D01*
X99160384Y-78277710D01*
X98985611Y-78329117D01*
X98864421Y-78444700D01*
X98775377Y-78673746D01*
X98758439Y-78725501D01*
X98629032Y-79001427D01*
X98471684Y-79218576D01*
X98220391Y-79380087D01*
X97930741Y-79403317D01*
X97629427Y-79293730D01*
X97332830Y-79067325D01*
X97057330Y-78740103D01*
X96819307Y-78328061D01*
X96635142Y-77847200D01*
X96521217Y-77313518D01*
X96465054Y-76888729D01*
X96847288Y-76719083D01*
X97021231Y-76632160D01*
X97219816Y-76469566D01*
X97339770Y-76243531D01*
X97412783Y-76078224D01*
X97514136Y-75975509D01*
X97673115Y-75943743D01*
X97924242Y-75976623D01*
G37*
G36*
X95272813Y-72485933D02*
G01*
X95585295Y-72725984D01*
X95880162Y-73094572D01*
X96140094Y-73587680D01*
X96190087Y-73717395D01*
X96300431Y-74093731D01*
X96369238Y-74456578D01*
X96385020Y-74603623D01*
X96391411Y-74809501D01*
X96353982Y-74915356D01*
X96263287Y-74966662D01*
X95954686Y-75092226D01*
X95715463Y-75275082D01*
X95559697Y-75533330D01*
X95426334Y-75851109D01*
X95003001Y-75797836D01*
X94898419Y-75783168D01*
X94358080Y-75656702D01*
X93882683Y-75463586D01*
X93486355Y-75219484D01*
X93183223Y-74940057D01*
X92987411Y-74640967D01*
X92913046Y-74337876D01*
X92974254Y-74046445D01*
X93185160Y-73782336D01*
X93209644Y-73762430D01*
X93465671Y-73605710D01*
X93724285Y-73512591D01*
X93899057Y-73461183D01*
X94020247Y-73345600D01*
X94109291Y-73116554D01*
X94193143Y-72891457D01*
X94402882Y-72577180D01*
X94664287Y-72407513D01*
X94960037Y-72378436D01*
X95272813Y-72485933D01*
G37*
G36*
X95577692Y-76264871D02*
G01*
X95604205Y-76320968D01*
X95787498Y-76573821D01*
X96064525Y-76736018D01*
X96077592Y-76741323D01*
X96267568Y-76844337D01*
X96373707Y-76981991D01*
X96400379Y-77184704D01*
X96351957Y-77482894D01*
X96232813Y-77906978D01*
X96017728Y-78441309D01*
X95709439Y-78914828D01*
X95340933Y-79251952D01*
X95156565Y-79350642D01*
X94826851Y-79408818D01*
X94530685Y-79309894D01*
X94285640Y-79062120D01*
X94109291Y-78673746D01*
X94031938Y-78465806D01*
X93917638Y-78339151D01*
X93724285Y-78277710D01*
X93697532Y-78271980D01*
X93433024Y-78168255D01*
X93185160Y-78007964D01*
X93077437Y-77907709D01*
X92958898Y-77713933D01*
X92928667Y-77447993D01*
X92930770Y-77360730D01*
X92968461Y-77159984D01*
X93077374Y-76975249D01*
X93288501Y-76746072D01*
X93356388Y-76681808D01*
X93821101Y-76358475D01*
X94390166Y-76117443D01*
X95017013Y-75979368D01*
X95426334Y-75928404D01*
X95577692Y-76264871D01*
G37*
G36*
X98132678Y-72379074D02*
G01*
X98391522Y-72508395D01*
X98616172Y-72764854D01*
X98775377Y-73116554D01*
X98852730Y-73324495D01*
X98967030Y-73451149D01*
X99160384Y-73512591D01*
X99187137Y-73518321D01*
X99451645Y-73622045D01*
X99699509Y-73782336D01*
X99874932Y-73984846D01*
X99964854Y-74273285D01*
X99917079Y-74579104D01*
X99745478Y-74885109D01*
X99463924Y-75174106D01*
X99086287Y-75428900D01*
X98626440Y-75632299D01*
X98098254Y-75767108D01*
X97986691Y-75785792D01*
X97752025Y-75823212D01*
X97612844Y-75842684D01*
X97568682Y-75825542D01*
X97449442Y-75700222D01*
X97315071Y-75491639D01*
X97283768Y-75436659D01*
X97077073Y-75176015D01*
X96821894Y-75035001D01*
X96697257Y-74986291D01*
X96559266Y-74877833D01*
X96503229Y-74707609D01*
X96522157Y-74443376D01*
X96609064Y-74052891D01*
X96623184Y-73999410D01*
X96814258Y-73475124D01*
X97071788Y-73026614D01*
X97375830Y-72677279D01*
X97706441Y-72450519D01*
X98043676Y-72369732D01*
X98132678Y-72379074D01*
G37*
G36*
X130925404Y-81608953D02*
G01*
X130934202Y-81950046D01*
X130856891Y-82365938D01*
X130710954Y-82768002D01*
X130516829Y-83082522D01*
X130376334Y-83203861D01*
X130114381Y-83382674D01*
X129774886Y-83588008D01*
X129396495Y-83795276D01*
X129379373Y-83804172D01*
X129026089Y-83987088D01*
X128732367Y-84138008D01*
X128528399Y-84241495D01*
X128444378Y-84282110D01*
X128417954Y-84284026D01*
X128447044Y-84229990D01*
X128568128Y-84117868D01*
X128748958Y-83974018D01*
X128957284Y-83824794D01*
X129160854Y-83696556D01*
X129467357Y-83499816D01*
X129990829Y-83026897D01*
X130404854Y-82436268D01*
X130719924Y-81714588D01*
X130865098Y-81287494D01*
X130925404Y-81608953D01*
G37*
G36*
X130079274Y-73969260D02*
G01*
X130200918Y-74079730D01*
X130365579Y-74274515D01*
X130547079Y-74519822D01*
X130719243Y-74781856D01*
X130855892Y-75026825D01*
X131129230Y-75733576D01*
X131285237Y-76515464D01*
X131302038Y-77297874D01*
X131179124Y-78049244D01*
X130915983Y-78738014D01*
X130789364Y-78983695D01*
X130540289Y-78464738D01*
X130346103Y-78135396D01*
X130064864Y-77756206D01*
X129740955Y-77381166D01*
X129415907Y-77058292D01*
X129131248Y-76835602D01*
X128937163Y-76714333D01*
X129266243Y-75952333D01*
X129320053Y-75826232D01*
X129498137Y-75391878D01*
X129667720Y-74956445D01*
X129798273Y-74597667D01*
X129812388Y-74556557D01*
X129912873Y-74270408D01*
X129991246Y-74057982D01*
X130031569Y-73962667D01*
X130079274Y-73969260D01*
G37*
G36*
X126148646Y-78259631D02*
G01*
X126264063Y-78325719D01*
X126578506Y-78620776D01*
X126770151Y-79000130D01*
X126825461Y-79426512D01*
X126730900Y-79862655D01*
X126634134Y-80101000D01*
X126571551Y-79822366D01*
X126540915Y-79716404D01*
X126353245Y-79392280D01*
X126069068Y-79145293D01*
X125731364Y-79005131D01*
X125383111Y-79001480D01*
X125350365Y-79010078D01*
X125105487Y-79144452D01*
X124871105Y-79368973D01*
X124694671Y-79629306D01*
X124623641Y-79871113D01*
X124618243Y-80010593D01*
X124584655Y-80042089D01*
X124489975Y-79931667D01*
X124417853Y-79782990D01*
X124375233Y-79481997D01*
X124401026Y-79137557D01*
X124488683Y-78812615D01*
X124631652Y-78570115D01*
X124882746Y-78347835D01*
X125284849Y-78153248D01*
X125710867Y-78123017D01*
X126148646Y-78259631D01*
G37*
G36*
X121187732Y-74047333D02*
G01*
X121193629Y-74063393D01*
X121252425Y-74226422D01*
X121346919Y-74490597D01*
X121459654Y-74807143D01*
X121608765Y-75203014D01*
X121795824Y-75664352D01*
X121975160Y-76077143D01*
X122265748Y-76714333D01*
X122070207Y-76836265D01*
X121857002Y-76993733D01*
X121522885Y-77306970D01*
X121186319Y-77683214D01*
X120891641Y-78071776D01*
X120683187Y-78421971D01*
X120637419Y-78515812D01*
X120503885Y-78752006D01*
X120396324Y-78845990D01*
X120297846Y-78792279D01*
X120191560Y-78585389D01*
X120060573Y-78219837D01*
X119956890Y-77822762D01*
X119883264Y-77099763D01*
X119930619Y-76347770D01*
X120094151Y-75617557D01*
X120369055Y-74959896D01*
X120400992Y-74902237D01*
X120598484Y-74582948D01*
X120797532Y-74313705D01*
X120976508Y-74118615D01*
X121113784Y-74021789D01*
X121187732Y-74047333D01*
G37*
G36*
X122978903Y-78139938D02*
G01*
X122883615Y-78323499D01*
X122773760Y-78701079D01*
X122789896Y-79085026D01*
X122937505Y-79494357D01*
X123222066Y-79948087D01*
X123649061Y-80465234D01*
X123889000Y-80735092D01*
X124107216Y-80996248D01*
X124256257Y-81204882D01*
X124363128Y-81399674D01*
X124454833Y-81619300D01*
X124507389Y-81776199D01*
X124497313Y-81820435D01*
X124410562Y-81726945D01*
X124241389Y-81492308D01*
X124134426Y-81360824D01*
X123894994Y-81115682D01*
X123588683Y-80835580D01*
X123256072Y-80558954D01*
X123046590Y-80389084D01*
X122579285Y-79957894D01*
X122260098Y-79563693D01*
X122080861Y-79191470D01*
X122033403Y-78826219D01*
X122109552Y-78452932D01*
X122203974Y-78273112D01*
X122433070Y-78025309D01*
X122715142Y-77843383D01*
X122991423Y-77772667D01*
X123194138Y-77772667D01*
X122978903Y-78139938D01*
G37*
G36*
X120395010Y-81514170D02*
G01*
X120395270Y-81521801D01*
X120445089Y-81733260D01*
X120563078Y-82031218D01*
X120724396Y-82364186D01*
X120904205Y-82680678D01*
X121077665Y-82929206D01*
X121102254Y-82958063D01*
X121334500Y-83183883D01*
X121645160Y-83435779D01*
X121974091Y-83664426D01*
X122067433Y-83723919D01*
X122346815Y-83909670D01*
X122562761Y-84064537D01*
X122674724Y-84159847D01*
X122664850Y-84176030D01*
X122543381Y-84136023D01*
X122328303Y-84042220D01*
X122050423Y-83910101D01*
X121740549Y-83755143D01*
X121429489Y-83592828D01*
X121148051Y-83438634D01*
X120927043Y-83308040D01*
X120797273Y-83216526D01*
X120684907Y-83090765D01*
X120520299Y-82819855D01*
X120380369Y-82494841D01*
X120276630Y-82156149D01*
X120220595Y-81844203D01*
X120223775Y-81599427D01*
X120297683Y-81462249D01*
X120341035Y-81447665D01*
X120395010Y-81514170D01*
G37*
G36*
X128242434Y-77780913D02*
G01*
X128458493Y-77841361D01*
X128671277Y-77942355D01*
X128923162Y-78160121D01*
X129068619Y-78464356D01*
X129113667Y-78882218D01*
X129083056Y-79182885D01*
X128970205Y-79489498D01*
X128757855Y-79799869D01*
X128428945Y-80138499D01*
X127966416Y-80529890D01*
X127665658Y-80779708D01*
X127349560Y-81064882D01*
X127095243Y-81318531D01*
X126939565Y-81505635D01*
X126863674Y-81614618D01*
X126743337Y-81760580D01*
X126678585Y-81800473D01*
X126666086Y-81763830D01*
X126712089Y-81604132D01*
X126844317Y-81358336D01*
X127044955Y-81054429D01*
X127296184Y-80720397D01*
X127580189Y-80384229D01*
X127637187Y-80320023D01*
X128052943Y-79785943D01*
X128313429Y-79304642D01*
X128420786Y-78868018D01*
X128377155Y-78467970D01*
X128184676Y-78096394D01*
X128169380Y-78075523D01*
X128058442Y-77910825D01*
X128013000Y-77818428D01*
X128076257Y-77771020D01*
X128242434Y-77780913D01*
G37*
G36*
X124313574Y-83135238D02*
G01*
X124372017Y-83734023D01*
X124371701Y-84334333D01*
X124212233Y-84072823D01*
X124211754Y-84072037D01*
X124012557Y-83806686D01*
X123760018Y-83601986D01*
X123415605Y-83433856D01*
X122940787Y-83278217D01*
X122570513Y-83153879D01*
X122031106Y-82872553D01*
X121601231Y-82489594D01*
X121260572Y-81984808D01*
X121072835Y-81537982D01*
X121526762Y-81537982D01*
X121602224Y-81760840D01*
X121746466Y-82028426D01*
X121935758Y-82297531D01*
X122146369Y-82524948D01*
X122273745Y-82630255D01*
X122541606Y-82810104D01*
X122773767Y-82919511D01*
X122958783Y-82974069D01*
X123280189Y-83052569D01*
X123475750Y-83068557D01*
X123566271Y-83024797D01*
X123574905Y-82914893D01*
X123489837Y-82707193D01*
X123320020Y-82457500D01*
X123088391Y-82205155D01*
X122954723Y-82094398D01*
X122700971Y-81921773D01*
X122405062Y-81747779D01*
X122103801Y-81591183D01*
X121833988Y-81470754D01*
X121632426Y-81405259D01*
X121535919Y-81413465D01*
X121526762Y-81537982D01*
X121072835Y-81537982D01*
X120988812Y-81338001D01*
X120948061Y-81204038D01*
X120852899Y-80744486D01*
X120816333Y-80303162D01*
X120816333Y-79780316D01*
X121114294Y-80170544D01*
X121170650Y-80242004D01*
X121530923Y-80611152D01*
X121994695Y-80950816D01*
X122594333Y-81285376D01*
X122728778Y-81354552D01*
X123348678Y-81736547D01*
X123812428Y-82150996D01*
X124130552Y-82612394D01*
X124236442Y-82914893D01*
X124313574Y-83135238D01*
G37*
G36*
X129893266Y-82028126D02*
G01*
X129543028Y-82534367D01*
X129122279Y-82912817D01*
X129081745Y-82938108D01*
X128836084Y-83059136D01*
X128502040Y-83193328D01*
X128139731Y-83316013D01*
X127900777Y-83392684D01*
X127582421Y-83519415D01*
X127356369Y-83656529D01*
X127175049Y-83829343D01*
X127096706Y-83922963D01*
X126962478Y-84110445D01*
X126906967Y-84231446D01*
X126878543Y-84242166D01*
X126817085Y-84122667D01*
X126787728Y-84010029D01*
X126783054Y-83689283D01*
X126847195Y-83296283D01*
X126961179Y-82911646D01*
X127605106Y-82911646D01*
X127619752Y-82967305D01*
X127692197Y-83052585D01*
X127846551Y-83065524D01*
X128121585Y-83013789D01*
X128346856Y-82951397D01*
X128784538Y-82744917D01*
X129172876Y-82415390D01*
X129294996Y-82272999D01*
X129470657Y-82011153D01*
X129600852Y-81749331D01*
X129665228Y-81531401D01*
X129643430Y-81401229D01*
X129638106Y-81397239D01*
X129514999Y-81403382D01*
X129284067Y-81479182D01*
X128981471Y-81613067D01*
X128689331Y-81778240D01*
X128357903Y-82012841D01*
X128054435Y-82271157D01*
X127808259Y-82525512D01*
X127648705Y-82748233D01*
X127605106Y-82911646D01*
X126961179Y-82911646D01*
X126970031Y-82881774D01*
X127141440Y-82496500D01*
X127207666Y-82381198D01*
X127370478Y-82152142D01*
X127578029Y-81940677D01*
X127857530Y-81724571D01*
X128236189Y-81481597D01*
X128741217Y-81189523D01*
X129036947Y-81017328D01*
X129515152Y-80696952D01*
X129889918Y-80373891D01*
X130200825Y-80016333D01*
X130393377Y-79762333D01*
X130356824Y-80397333D01*
X130318377Y-80762335D01*
X130157035Y-81426611D01*
X130111084Y-81531401D01*
X129893266Y-82028126D01*
G37*
G36*
X133426876Y-82125534D02*
G01*
X133356822Y-82418758D01*
X133212974Y-82818241D01*
X132873988Y-83454741D01*
X132422619Y-83991683D01*
X132278109Y-84137098D01*
X132133136Y-84299072D01*
X132077000Y-84385804D01*
X132099092Y-84419182D01*
X132229399Y-84523565D01*
X132437743Y-84656652D01*
X132621016Y-84779382D01*
X132947871Y-85128151D01*
X133127732Y-85560938D01*
X133153629Y-85967061D01*
X133160699Y-86077940D01*
X133138053Y-86290683D01*
X133048814Y-86627102D01*
X132875124Y-86933645D01*
X132609224Y-87229383D01*
X132171173Y-87521552D01*
X131668420Y-87696028D01*
X131143180Y-87739511D01*
X130637667Y-87638697D01*
X130301590Y-87527126D01*
X130086581Y-87491632D01*
X129998046Y-87543526D01*
X130033851Y-87691341D01*
X130191860Y-87943607D01*
X130469937Y-88308856D01*
X130609378Y-88488472D01*
X130797959Y-88747863D01*
X130922224Y-88941080D01*
X130936836Y-88977338D01*
X130960439Y-89035908D01*
X130911794Y-89114077D01*
X130777884Y-89301750D01*
X130581303Y-89566140D01*
X130344048Y-89877223D01*
X130126082Y-90155100D01*
X129920061Y-90407688D01*
X129771026Y-90578944D01*
X129701548Y-90642000D01*
X129684743Y-90630594D01*
X129580852Y-90519743D01*
X129404702Y-90312640D01*
X129178094Y-90036097D01*
X128922830Y-89716927D01*
X128660709Y-89381939D01*
X128413534Y-89057948D01*
X128405482Y-89040715D01*
X128414341Y-89000743D01*
X129029000Y-89000743D01*
X129063458Y-89071581D01*
X129177150Y-89242919D01*
X129342731Y-89468608D01*
X129492481Y-89656249D01*
X129637473Y-89817842D01*
X129716520Y-89880000D01*
X129775119Y-89837484D01*
X129903789Y-89692403D01*
X130062881Y-89487977D01*
X130218493Y-89270076D01*
X130336723Y-89084573D01*
X130383667Y-88977338D01*
X130340104Y-88892136D01*
X130210085Y-88716500D01*
X130023833Y-88494995D01*
X129664000Y-88088294D01*
X129346500Y-88516281D01*
X129197717Y-88723467D01*
X129075796Y-88908244D01*
X129029000Y-89000743D01*
X128414341Y-89000743D01*
X128437788Y-88894946D01*
X128582915Y-88633796D01*
X128842812Y-88253615D01*
X129088499Y-87903868D01*
X129372207Y-87465270D01*
X129557843Y-87126873D01*
X129640720Y-86897570D01*
X129616150Y-86786257D01*
X129529049Y-86776888D01*
X129327666Y-86863154D01*
X129056832Y-87051343D01*
X128736988Y-87322539D01*
X128388573Y-87657827D01*
X128032027Y-88038291D01*
X127687790Y-88445016D01*
X127406225Y-88819307D01*
X127376301Y-88859086D01*
X127345224Y-88903192D01*
X127019428Y-89325064D01*
X126719128Y-89614882D01*
X126407205Y-89794650D01*
X126046536Y-89886374D01*
X125600000Y-89912059D01*
X125516362Y-89911281D01*
X125015478Y-89858801D01*
X124613880Y-89707721D01*
X124269170Y-89435235D01*
X123938952Y-89018537D01*
X123858146Y-88902840D01*
X123772288Y-88791173D01*
X124340461Y-88791173D01*
X124385815Y-88909585D01*
X124521528Y-89062377D01*
X124716870Y-89216918D01*
X124941114Y-89340578D01*
X125126704Y-89399173D01*
X125522721Y-89447672D01*
X125934714Y-89426923D01*
X126277333Y-89337147D01*
X126423337Y-89259582D01*
X126627414Y-89109887D01*
X126781920Y-88951935D01*
X126856096Y-88819307D01*
X126819183Y-88745584D01*
X126665069Y-88713506D01*
X126401724Y-88674828D01*
X126094332Y-88637806D01*
X125806041Y-88610028D01*
X125600000Y-88599083D01*
X125400209Y-88609531D01*
X125113170Y-88636989D01*
X124805493Y-88673876D01*
X124540326Y-88712604D01*
X124380817Y-88745584D01*
X124340461Y-88791173D01*
X123772288Y-88791173D01*
X123567397Y-88524692D01*
X123236648Y-88139304D01*
X122886827Y-87766519D01*
X122538863Y-87426178D01*
X122213685Y-87138122D01*
X121932220Y-86922191D01*
X121715398Y-86798228D01*
X121584147Y-86786073D01*
X121567006Y-86807269D01*
X121579634Y-86952224D01*
X121680214Y-87200964D01*
X121856980Y-87530816D01*
X122098169Y-87919103D01*
X122392015Y-88343152D01*
X122844988Y-88965304D01*
X122817160Y-89000743D01*
X122369508Y-89570818D01*
X122286029Y-89677296D01*
X122052808Y-89976402D01*
X121852168Y-90235918D01*
X121720258Y-90409167D01*
X121703381Y-90431429D01*
X121573370Y-90580859D01*
X121489031Y-90642000D01*
X121480052Y-90637802D01*
X121389419Y-90545724D01*
X121229893Y-90357351D01*
X121026431Y-90104895D01*
X120803994Y-89820572D01*
X120587539Y-89536592D01*
X120402027Y-89285172D01*
X120272417Y-89098523D01*
X120223667Y-89008859D01*
X120233695Y-88988881D01*
X120816333Y-88988881D01*
X120848791Y-89061850D01*
X120958854Y-89237304D01*
X121119878Y-89466490D01*
X121263636Y-89653433D01*
X121405494Y-89817027D01*
X121483480Y-89880000D01*
X121544331Y-89834537D01*
X121676273Y-89689833D01*
X121840033Y-89489184D01*
X122000489Y-89277508D01*
X122122519Y-89099722D01*
X122171000Y-89000743D01*
X122130131Y-88915147D01*
X122015401Y-88742236D01*
X121860424Y-88529533D01*
X121699099Y-88321970D01*
X121565322Y-88164481D01*
X121492992Y-88102000D01*
X121432128Y-88150006D01*
X121302294Y-88297336D01*
X121141353Y-88500034D01*
X120983749Y-88712955D01*
X120863928Y-88890952D01*
X120816333Y-88988881D01*
X120233695Y-88988881D01*
X120246722Y-88962929D01*
X120353504Y-88803807D01*
X120527401Y-88563256D01*
X120746423Y-88272260D01*
X120892046Y-88078143D01*
X121092192Y-87784894D01*
X121185761Y-87596165D01*
X121179485Y-87499951D01*
X121168638Y-87490286D01*
X121033568Y-87469449D01*
X120804895Y-87563394D01*
X120645087Y-87630426D01*
X120246009Y-87709696D01*
X119792288Y-87718665D01*
X119349450Y-87658519D01*
X118983023Y-87530443D01*
X118686287Y-87337636D01*
X118343265Y-86982800D01*
X118116488Y-86570118D01*
X118007818Y-86127820D01*
X118011982Y-85964346D01*
X118530333Y-85964346D01*
X118530940Y-85997402D01*
X118622293Y-86386963D01*
X118846864Y-86744352D01*
X119172975Y-87017649D01*
X119312317Y-87089453D01*
X119720016Y-87209680D01*
X120118269Y-87211983D01*
X120454228Y-87093242D01*
X120621010Y-86965332D01*
X120777362Y-86731848D01*
X120775929Y-86492272D01*
X120612766Y-86267157D01*
X120568301Y-86229823D01*
X120354817Y-86095605D01*
X120184104Y-86099457D01*
X120012000Y-86239333D01*
X119970539Y-86282432D01*
X119797795Y-86395987D01*
X119676671Y-86367318D01*
X119631000Y-86198952D01*
X119637143Y-86129768D01*
X119750883Y-85924054D01*
X119986261Y-85786732D01*
X120314590Y-85724431D01*
X120707184Y-85743779D01*
X121135356Y-85851402D01*
X121200242Y-85875677D01*
X121631836Y-86090689D01*
X122064619Y-86381329D01*
X122416141Y-86693396D01*
X122535862Y-86806806D01*
X122664810Y-86865416D01*
X122709207Y-86779520D01*
X122658810Y-86554962D01*
X122651010Y-86534033D01*
X122500100Y-86280598D01*
X122248344Y-85983903D01*
X121936416Y-85683473D01*
X121604991Y-85418832D01*
X121294745Y-85229503D01*
X120903835Y-85076333D01*
X120389721Y-84956497D01*
X119890160Y-84917424D01*
X119466781Y-84967933D01*
X119163788Y-85085088D01*
X118830879Y-85323482D01*
X118610222Y-85626682D01*
X118530333Y-85964346D01*
X118011982Y-85964346D01*
X118019119Y-85684133D01*
X118152251Y-85267287D01*
X118409079Y-84905509D01*
X118791464Y-84627029D01*
X118882839Y-84578504D01*
X119054775Y-84473344D01*
X119123000Y-84408788D01*
X119074319Y-84335600D01*
X118935241Y-84176236D01*
X118737450Y-83968610D01*
X118728011Y-83958946D01*
X118493555Y-83676152D01*
X118248176Y-83315841D01*
X118043496Y-82953525D01*
X118013985Y-82893417D01*
X117866540Y-82565997D01*
X117776714Y-82283745D01*
X117726707Y-81975178D01*
X117716145Y-81821805D01*
X118222984Y-81821805D01*
X118281379Y-82109404D01*
X118445550Y-82581866D01*
X118714123Y-83051186D01*
X119106310Y-83512865D01*
X119139873Y-83546754D01*
X119401233Y-83781359D01*
X119678083Y-83989697D01*
X119935410Y-84149657D01*
X120138200Y-84239129D01*
X120251441Y-84236003D01*
X120254253Y-84204920D01*
X120190109Y-84070536D01*
X120054934Y-83879797D01*
X119997982Y-83805129D01*
X119829896Y-83549223D01*
X119717829Y-83327377D01*
X119625973Y-83082421D01*
X119947702Y-83373083D01*
X120183164Y-83548282D01*
X120514197Y-83743718D01*
X120860382Y-83909921D01*
X121465581Y-84196293D01*
X122005543Y-84544962D01*
X122378491Y-84913999D01*
X122471069Y-85048339D01*
X122672433Y-85403601D01*
X122877388Y-85830962D01*
X123058096Y-86270239D01*
X123186717Y-86661249D01*
X123228419Y-86779520D01*
X123382660Y-87216965D01*
X123645363Y-87681783D01*
X123955741Y-88025854D01*
X124299451Y-88237100D01*
X124662149Y-88303444D01*
X125029492Y-88212810D01*
X125207680Y-88116800D01*
X125336643Y-87990363D01*
X125336278Y-87843273D01*
X125203675Y-87649734D01*
X124935920Y-87383950D01*
X124660143Y-87101240D01*
X124489400Y-86843987D01*
X124470904Y-86656093D01*
X124605167Y-86538871D01*
X124978208Y-86434989D01*
X125511082Y-86378213D01*
X126033325Y-86410293D01*
X126193908Y-86440463D01*
X126529682Y-86549527D01*
X126700862Y-86696741D01*
X126707819Y-86883936D01*
X126550923Y-87112946D01*
X126230545Y-87385603D01*
X125989425Y-87586591D01*
X125837436Y-87797486D01*
X125842622Y-87976736D01*
X126002167Y-88133565D01*
X126028004Y-88149404D01*
X126396720Y-88283658D01*
X126765987Y-88261097D01*
X127119908Y-88092556D01*
X127442587Y-87788866D01*
X127718128Y-87360861D01*
X127930634Y-86819374D01*
X127955191Y-86744187D01*
X128484214Y-86744187D01*
X128493066Y-86860510D01*
X128499400Y-86863300D01*
X128599405Y-86817891D01*
X128782731Y-86685288D01*
X129015074Y-86489850D01*
X129205788Y-86332552D01*
X129724175Y-86006266D01*
X130264648Y-85792059D01*
X130780355Y-85710615D01*
X130971124Y-85721308D01*
X131281323Y-85812092D01*
X131491592Y-85978103D01*
X131569000Y-86198952D01*
X131565108Y-86274768D01*
X131510671Y-86389013D01*
X131378538Y-86373750D01*
X131151513Y-86230268D01*
X130993289Y-86126594D01*
X130849520Y-86100676D01*
X130668108Y-86167909D01*
X130575850Y-86218151D01*
X130456083Y-86352690D01*
X130426000Y-86575768D01*
X130436436Y-86720996D01*
X130517048Y-86897756D01*
X130713688Y-87061461D01*
X131055681Y-87215787D01*
X131453039Y-87229939D01*
X131858736Y-87082802D01*
X132259490Y-86776819D01*
X132345694Y-86687403D01*
X132583129Y-86330027D01*
X132652533Y-85967061D01*
X132554950Y-85594335D01*
X132516789Y-85521738D01*
X132252889Y-85219375D01*
X131888043Y-85021993D01*
X131447084Y-84927356D01*
X130954848Y-84933228D01*
X130436166Y-85037374D01*
X129915874Y-85237559D01*
X129418804Y-85531545D01*
X128969791Y-85917099D01*
X128855039Y-86050148D01*
X128688162Y-86293567D01*
X128556900Y-86540060D01*
X128484214Y-86744187D01*
X127955191Y-86744187D01*
X128038809Y-86488177D01*
X128282607Y-85893181D01*
X128567550Y-85344789D01*
X128871597Y-84883293D01*
X129172704Y-84548984D01*
X129406820Y-84374323D01*
X129769348Y-84161646D01*
X130142303Y-83990838D01*
X130472720Y-83846983D01*
X130831123Y-83658472D01*
X131109765Y-83478366D01*
X131268664Y-83361574D01*
X131424179Y-83260058D01*
X131484333Y-83239792D01*
X131480914Y-83268674D01*
X131402717Y-83446914D01*
X131245938Y-83681884D01*
X131043483Y-83922622D01*
X130941468Y-84041788D01*
X130866109Y-84191434D01*
X130920419Y-84251429D01*
X131091915Y-84215779D01*
X131368115Y-84078491D01*
X131432026Y-84039953D01*
X131944639Y-83647781D01*
X132382980Y-83166570D01*
X132716232Y-82635869D01*
X132913578Y-82095224D01*
X132962419Y-81822159D01*
X132946949Y-81667680D01*
X132850005Y-81637791D01*
X132659770Y-81714784D01*
X132650774Y-81719325D01*
X132381909Y-81801219D01*
X132093075Y-81820307D01*
X131893391Y-81789972D01*
X131793125Y-81711147D01*
X131757763Y-81540333D01*
X131745618Y-81446415D01*
X131700235Y-81182416D01*
X131632081Y-80832449D01*
X131550642Y-80446599D01*
X131366424Y-79606864D01*
X131562715Y-78880265D01*
X131738265Y-78018888D01*
X131805456Y-77066289D01*
X131743609Y-76136296D01*
X131557516Y-75250947D01*
X131251971Y-74432280D01*
X130831769Y-73702331D01*
X130301703Y-73083137D01*
X130286126Y-73068297D01*
X130028474Y-72832147D01*
X129856979Y-72702380D01*
X129743913Y-72662173D01*
X129661549Y-72694701D01*
X129597081Y-72766419D01*
X129537000Y-72923378D01*
X129517855Y-73059839D01*
X129438654Y-73351958D01*
X129309771Y-73738226D01*
X129143925Y-74184766D01*
X128953838Y-74657699D01*
X128752228Y-75123149D01*
X128551817Y-75547237D01*
X128078206Y-76496808D01*
X127770437Y-76365156D01*
X127168710Y-76149244D01*
X126266230Y-75962570D01*
X125349731Y-75923135D01*
X124450718Y-76031519D01*
X123600691Y-76288303D01*
X123110284Y-76487573D01*
X122690892Y-75669620D01*
X122655325Y-75599252D01*
X122469901Y-75205575D01*
X122277408Y-74759677D01*
X122090819Y-74295898D01*
X121923110Y-73848583D01*
X121787254Y-73452073D01*
X121696226Y-73140711D01*
X121663000Y-72948839D01*
X121648522Y-72864534D01*
X121545521Y-72700568D01*
X121528476Y-72690478D01*
X121387976Y-72713096D01*
X121179045Y-72843133D01*
X120928220Y-73056155D01*
X120662038Y-73327731D01*
X120407034Y-73633428D01*
X120189747Y-73948816D01*
X119969640Y-74352006D01*
X119635476Y-75216606D01*
X119438612Y-76148663D01*
X119381360Y-77124054D01*
X119466034Y-78118650D01*
X119694949Y-79108328D01*
X119697455Y-79116468D01*
X119758680Y-79333197D01*
X119786134Y-79513347D01*
X119777808Y-79707084D01*
X119731693Y-79964578D01*
X119645781Y-80335995D01*
X119606538Y-80505937D01*
X119531174Y-80871233D01*
X119479273Y-81178680D01*
X119460304Y-81375233D01*
X119432990Y-81581731D01*
X119360067Y-81735067D01*
X119299549Y-81777785D01*
X119071820Y-81830572D01*
X118786613Y-81809086D01*
X118510601Y-81714910D01*
X118360696Y-81653090D01*
X118247087Y-81673721D01*
X118222984Y-81821805D01*
X117716145Y-81821805D01*
X117698723Y-81568813D01*
X117692770Y-81408228D01*
X117692185Y-81085716D01*
X117707506Y-80846619D01*
X117736784Y-80733683D01*
X117788806Y-80722457D01*
X117956505Y-80778341D01*
X118188771Y-80912823D01*
X118439966Y-81066534D01*
X118667047Y-81143633D01*
X118828766Y-81086704D01*
X118951164Y-80884141D01*
X119060282Y-80524333D01*
X119145106Y-80164282D01*
X119201631Y-79811839D01*
X119203776Y-79501726D01*
X119150879Y-79168404D01*
X119042276Y-78746333D01*
X119012901Y-78633928D01*
X118908879Y-78057645D01*
X118851835Y-77409130D01*
X118843021Y-76746731D01*
X118883688Y-76128794D01*
X118975088Y-75613667D01*
X119173877Y-74950399D01*
X119460072Y-74244086D01*
X119800194Y-73646391D01*
X119929368Y-73461109D01*
X120271347Y-73028594D01*
X120627677Y-72647902D01*
X120979434Y-72333269D01*
X121307694Y-72098931D01*
X121593531Y-71959122D01*
X121818022Y-71928079D01*
X121962241Y-72020038D01*
X121997546Y-72111846D01*
X122067804Y-72339000D01*
X122159555Y-72661120D01*
X122261971Y-73041313D01*
X122302277Y-73188267D01*
X122469524Y-73716188D01*
X122674002Y-74272080D01*
X122896138Y-74807879D01*
X123116356Y-75275525D01*
X123315080Y-75626954D01*
X123434579Y-75809575D01*
X123966956Y-75632812D01*
X124416975Y-75527902D01*
X124979147Y-75464157D01*
X125595924Y-75442572D01*
X126212663Y-75463177D01*
X126774720Y-75526000D01*
X127227450Y-75631071D01*
X127538226Y-75723048D01*
X127734168Y-75749375D01*
X127831487Y-75709880D01*
X127937975Y-75553228D01*
X128125333Y-75198570D01*
X128332442Y-74731576D01*
X128547176Y-74183773D01*
X128757405Y-73586691D01*
X128951004Y-72971859D01*
X129115845Y-72370806D01*
X129144087Y-72273850D01*
X129236224Y-72064632D01*
X129331292Y-71958998D01*
X129473364Y-71946037D01*
X129751022Y-72043764D01*
X130104660Y-72274826D01*
X130524900Y-72633919D01*
X130610457Y-72715993D01*
X131188275Y-73388403D01*
X131677121Y-74171066D01*
X132049541Y-75021000D01*
X132086187Y-75126483D01*
X132166307Y-75376419D01*
X132221690Y-75603595D01*
X132256784Y-75846426D01*
X132276036Y-76143327D01*
X132283894Y-76532714D01*
X132284806Y-77053000D01*
X132282972Y-77419598D01*
X132274109Y-77870552D01*
X132254719Y-78212977D01*
X132221163Y-78483764D01*
X132169805Y-78719808D01*
X132097009Y-78958000D01*
X132024121Y-79180695D01*
X131968065Y-79403000D01*
X131954897Y-79602786D01*
X131982061Y-79842770D01*
X132047004Y-80185667D01*
X132047935Y-80190326D01*
X132149611Y-80649870D01*
X132250376Y-80955188D01*
X132368683Y-81120137D01*
X132522990Y-81158575D01*
X132731750Y-81084361D01*
X133013419Y-80911353D01*
X133158101Y-80820626D01*
X133347501Y-80724692D01*
X133449493Y-80704683D01*
X133457063Y-80710783D01*
X133501461Y-80843392D01*
X133518315Y-81094219D01*
X133509950Y-81420217D01*
X133478695Y-81778338D01*
X133472155Y-81822159D01*
X133426876Y-82125534D01*
G37*
M02*
