M48
; DRILL file {KiCad 9.0.4} date 2025-09-25T11:49:19+0800
; FORMAT={-:-/ absolute / metric / decimal}
; #@! TF.CreationDate,2025-09-25T11:49:19+08:00
; #@! TF.GenerationSoftware,Kicad,Pcbnew,9.0.4
; #@! TF.FileFunction,Plated,1,4,PTH
FMAT,2
METRIC
; #@! TA.AperFunction,Plated,PTH,ViaDrill
T1C0.300
; #@! TA.AperFunction,Plated,PTH,ViaDrill
T2C0.500
; #@! TA.AperFunction,Plated,PTH,ComponentDrill
T3C0.700
; #@! TA.AperFunction,Plated,PTH,ComponentDrill
T4C0.710
; #@! TA.AperFunction,Plated,PTH,ComponentDrill
T5C0.800
; #@! TA.AperFunction,Plated,PTH,ComponentDrill
T6C0.850
; #@! TA.AperFunction,Plated,PTH,ComponentDrill
T7C1.100
; #@! TA.AperFunction,Plated,PTH,ComponentDrill
T8C1.118
%
G90
G05
T1
X90.156Y-92.797
X90.19Y-58.5
X90.235Y-56.725
X90.525Y-76.625
X91.93Y-58.5
X91.975Y-56.725
X92.356Y-100.497
X93.67Y-58.5
X93.715Y-56.725
X94.656Y-90.897
X96.456Y-91.597
X96.756Y-95.197
X96.756Y-114.297
X97.475Y-82.5
X97.556Y-92.497
X98.656Y-93.097
X99.556Y-95.497
X99.86Y-56.8
X99.86Y-58.29
X101.81Y-56.8
X101.81Y-58.29
X102.0Y-60.29
X103.76Y-56.8
X103.76Y-58.29
X104.27Y-71.27
X104.27Y-72.19
X104.356Y-96.397
X105.3Y-92.4
X105.53Y-71.27
X105.53Y-72.19
X105.956Y-87.597
X106.79Y-71.27
X106.79Y-72.19
X112.87Y-98.23
X114.2Y-53.5
X116.3Y-86.2
X118.21Y-99.95
X119.036Y-99.964
X120.75Y-87.7
X121.436Y-100.036
X122.95Y-95.575
X123.75Y-87.7
X126.5Y-98.075
X127.5Y-94.5
X131.925Y-100.625
X133.45Y-91.975
X133.7Y-83.325
X133.7Y-84.575
X135.213Y-83.325
X135.213Y-84.575
X135.5Y-92.5
X136.65Y-102.575
X136.725Y-83.325
X136.725Y-84.575
X137.025Y-101.575
X137.625Y-100.725
X137.775Y-92.575
X138.525Y-92.825
T2
X128.75Y-50.75
X130.25Y-59.0
T3
X95.2Y-102.04
X95.2Y-112.2
X97.74Y-102.04
X97.74Y-112.2
X100.28Y-102.04
X100.28Y-112.2
X102.82Y-102.04
X102.82Y-112.2
X105.36Y-102.04
X105.36Y-112.2
X107.9Y-102.04
X107.9Y-112.2
T4
X120.67Y-53.5
X123.21Y-53.5
X125.75Y-53.5
T5
X96.14Y-52.4
X99.64Y-52.4
X105.025Y-74.397
X105.025Y-77.897
T6
X135.92Y-52.46
X135.92Y-55.96
T7
X120.95Y-102.895
X120.95Y-105.435
X120.95Y-107.975
X120.95Y-110.515
X120.95Y-113.055
T8
X119.44Y-58.19
X119.44Y-65.81
X121.98Y-58.19
X121.98Y-65.81
X124.52Y-58.19
X124.52Y-65.81
X127.06Y-58.19
X127.06Y-65.81
M30
