G04 #@! TF.GenerationSoftware,KiCad,Pcbnew,9.0.4*
G04 #@! TF.CreationDate,2025-09-25T11:49:33+08:00*
G04 #@! TF.ProjectId,boost-convertor,626f6f73-742d-4636-9f6e-766572746f72,rev?*
G04 #@! TF.SameCoordinates,Original*
G04 #@! TF.FileFunction,Copper,L4,Bot*
G04 #@! TF.FilePolarity,Positive*
%FSLAX46Y46*%
G04 Gerber Fmt 4.6, Leading zero omitted, Abs format (unit mm)*
G04 Created by KiCad (PCBNEW 9.0.4) date 2025-09-25 11:49:33*
%MOMM*%
%LPD*%
G01*
G04 APERTURE LIST*
G04 #@! TA.AperFunction,ComponentPad*
%ADD10C,1.700000*%
G04 #@! TD*
G04 #@! TA.AperFunction,ComponentPad*
%ADD11R,1.676400X1.676400*%
G04 #@! TD*
G04 #@! TA.AperFunction,ComponentPad*
%ADD12C,1.676400*%
G04 #@! TD*
G04 #@! TA.AperFunction,ComponentPad*
%ADD13C,1.200000*%
G04 #@! TD*
G04 #@! TA.AperFunction,ComponentPad*
%ADD14R,1.600000X1.600000*%
G04 #@! TD*
G04 #@! TA.AperFunction,ComponentPad*
%ADD15C,1.600000*%
G04 #@! TD*
G04 #@! TA.AperFunction,WasherPad*
%ADD16O,1.700000X1.000000*%
G04 #@! TD*
G04 #@! TA.AperFunction,ComponentPad*
%ADD17R,1.218000X1.218000*%
G04 #@! TD*
G04 #@! TA.AperFunction,ComponentPad*
%ADD18C,1.218000*%
G04 #@! TD*
G04 #@! TA.AperFunction,ViaPad*
%ADD19C,0.600000*%
G04 #@! TD*
G04 #@! TA.AperFunction,ViaPad*
%ADD20C,0.800000*%
G04 #@! TD*
G04 #@! TA.AperFunction,Conductor*
%ADD21C,0.200000*%
G04 #@! TD*
G04 #@! TA.AperFunction,Conductor*
%ADD22C,0.500000*%
G04 #@! TD*
G04 APERTURE END LIST*
D10*
X135920000Y-52460000D03*
X135920000Y-55960000D03*
D11*
X119440000Y-65810000D03*
D12*
X121980000Y-65810000D03*
X124520000Y-65810000D03*
X127060000Y-65810000D03*
X127060000Y-58190000D03*
X124520000Y-58190000D03*
X121980000Y-58190000D03*
X119440000Y-58190000D03*
D13*
X97740000Y-102040000D03*
X107900000Y-102040000D03*
X102820000Y-112200000D03*
X97740000Y-112200000D03*
X95200000Y-112200000D03*
X100280000Y-102040000D03*
X105360000Y-112200000D03*
X100280000Y-112200000D03*
X95200000Y-102040000D03*
X102820000Y-102040000D03*
X105360000Y-102040000D03*
X107900000Y-112200000D03*
D14*
X99640151Y-52400000D03*
D15*
X96140151Y-52400000D03*
D16*
X84927700Y-61204968D03*
X88727700Y-61204998D03*
X88727700Y-69845002D03*
X84927700Y-69845032D03*
D10*
X120950000Y-102895000D03*
X120950000Y-105435000D03*
X120950000Y-107975000D03*
X120950000Y-110515000D03*
X120950000Y-113055000D03*
D14*
X105025000Y-74397349D03*
D15*
X105025000Y-77897349D03*
D17*
X120670000Y-53500000D03*
D18*
X123210000Y-53500000D03*
X125750000Y-53500000D03*
D19*
X137025000Y-101575000D03*
X90525000Y-76625000D03*
X103760000Y-56800000D03*
X103760000Y-58290000D03*
X97475000Y-82500000D03*
D20*
X130250000Y-59000000D03*
D19*
X133450000Y-91975000D03*
X101810000Y-58290000D03*
X119035598Y-99964402D03*
X136650000Y-102575000D03*
X116300000Y-86200000D03*
X101810000Y-56800000D03*
X99860000Y-58290000D03*
X99860000Y-56800000D03*
X136725000Y-83325000D03*
X135212500Y-83325000D03*
X136725000Y-84575000D03*
X105530000Y-71270000D03*
X104270000Y-72190000D03*
X106790000Y-72190000D03*
X105530000Y-72190000D03*
X133700000Y-83325000D03*
X106790000Y-71270000D03*
X135212500Y-84575000D03*
X133700000Y-84575000D03*
X104270000Y-71270000D03*
X90235000Y-56725000D03*
X135500000Y-92500000D03*
X102000000Y-60290000D03*
X93670000Y-58500000D03*
X93715000Y-56725000D03*
D20*
X128750000Y-50750000D03*
D19*
X123750000Y-87700000D03*
X92355596Y-100496899D03*
X96755596Y-95196899D03*
X91930000Y-58500000D03*
X121435598Y-100035598D03*
X138525000Y-92825000D03*
X137775000Y-92575000D03*
X105300000Y-92400000D03*
X91975000Y-56725000D03*
X120750000Y-87700000D03*
X90190000Y-58500000D03*
X127500000Y-94500000D03*
X105955596Y-87596899D03*
X118210000Y-99950000D03*
X104355596Y-96396899D03*
X112870000Y-98230000D03*
X97555596Y-92496899D03*
X96755596Y-114296899D03*
X96455596Y-91596899D03*
X90155596Y-92796899D03*
X99555596Y-95496899D03*
X94655596Y-90896899D03*
X98655596Y-93096899D03*
X114200000Y-53500000D03*
X126500000Y-98075000D03*
X122950000Y-95575000D03*
X131925000Y-100625000D03*
X137625000Y-100725000D03*
D21*
X126050000Y-105415000D02*
X120950000Y-110515000D01*
X127500000Y-94500000D02*
X128500000Y-95500000D01*
X126050000Y-102950000D02*
X126050000Y-105415000D01*
X128500000Y-95500000D02*
X128500000Y-100500000D01*
X128500000Y-100500000D02*
X126050000Y-102950000D01*
X105955596Y-87596899D02*
X105972495Y-87580000D01*
X115700000Y-99950000D02*
X118210000Y-99950000D01*
X105972495Y-87580000D02*
X108138697Y-87580000D01*
X118210000Y-99950000D02*
X118210000Y-105235000D01*
X114375000Y-98625000D02*
X115700000Y-99950000D01*
X114375000Y-93816303D02*
X114375000Y-98625000D01*
X108138697Y-87580000D02*
X114375000Y-93816303D01*
X118210000Y-105235000D02*
X120950000Y-107975000D01*
X106188697Y-98230000D02*
X112870000Y-98230000D01*
X104355596Y-96396899D02*
X106188697Y-98230000D01*
X98723101Y-103596899D02*
X100280000Y-102040000D01*
X94355596Y-103596899D02*
X98723101Y-103596899D01*
X93055596Y-96896899D02*
X93055596Y-102296899D01*
X97555596Y-92496899D02*
X97455596Y-92496899D01*
X97455596Y-92496899D02*
X93055596Y-96896899D01*
X93055596Y-102296899D02*
X94355596Y-103596899D01*
X97740000Y-112200000D02*
X97740000Y-113312495D01*
X97740000Y-113312495D02*
X96755596Y-114296899D01*
X93155596Y-104796899D02*
X105143101Y-104796899D01*
X91555596Y-96496899D02*
X91555596Y-103196899D01*
X91555596Y-103196899D02*
X93155596Y-104796899D01*
X96455596Y-91596899D02*
X91555596Y-96496899D01*
X105143101Y-104796899D02*
X107900000Y-102040000D01*
X88755596Y-110596899D02*
X101216899Y-110596899D01*
X87155596Y-95696899D02*
X87155596Y-108996899D01*
X87255596Y-95696899D02*
X87155596Y-95696899D01*
X90155596Y-92796899D02*
X87255596Y-95696899D01*
X101216899Y-110596899D02*
X102820000Y-112200000D01*
X87155596Y-108996899D02*
X88755596Y-110596899D01*
X98855596Y-99096899D02*
X99755596Y-99996899D01*
X100776899Y-99996899D02*
X102820000Y-102040000D01*
X99555596Y-95496899D02*
X98855596Y-96196899D01*
X99755596Y-99996899D02*
X100776899Y-99996899D01*
X98855596Y-96196899D02*
X98855596Y-99096899D01*
X88955596Y-96596899D02*
X94655596Y-90896899D01*
X90055596Y-109196899D02*
X88955596Y-108096899D01*
X105360000Y-112200000D02*
X102356899Y-109196899D01*
X88955596Y-108096899D02*
X88955596Y-96596899D01*
X102356899Y-109196899D02*
X90055596Y-109196899D01*
X97740000Y-94012495D02*
X97740000Y-102040000D01*
X98655596Y-93096899D02*
X97740000Y-94012495D01*
D22*
X117500000Y-53500000D02*
X119500000Y-55500000D01*
X114200000Y-53500000D02*
X117500000Y-53500000D01*
X119500000Y-55500000D02*
X124370000Y-55500000D01*
X124370000Y-55500000D02*
X127060000Y-58190000D01*
D21*
X126500000Y-98075000D02*
X124000000Y-95575000D01*
X124000000Y-95575000D02*
X122950000Y-95575000D01*
X131925000Y-100625000D02*
X137575057Y-100625000D01*
X137575057Y-100625000D02*
X137625000Y-100674943D01*
X137625000Y-100674943D02*
X137625000Y-100725000D01*
G04 #@! TA.AperFunction,Conductor*
G36*
X138104540Y-50429528D02*
G01*
X138215768Y-50486202D01*
X138304040Y-50574474D01*
X138360714Y-50685702D01*
X138380241Y-50808755D01*
X138391313Y-69085287D01*
X138401862Y-86499409D01*
X138382408Y-86622719D01*
X138325802Y-86733982D01*
X138237584Y-86822307D01*
X138126390Y-86879048D01*
X138003104Y-86898651D01*
X138002761Y-86898651D01*
X132648860Y-86897296D01*
X132525567Y-86877736D01*
X132414353Y-86821034D01*
X132326104Y-86732741D01*
X132269458Y-86621498D01*
X132249961Y-86498294D01*
X132250033Y-72898025D01*
X107823231Y-72890162D01*
X107320000Y-72890000D01*
X107319936Y-72890000D01*
X104127996Y-72890000D01*
X104004698Y-72870472D01*
X103893470Y-72813798D01*
X103805198Y-72725526D01*
X103748524Y-72614298D01*
X103728997Y-72492005D01*
X103721008Y-69320005D01*
X103740226Y-69196658D01*
X103796620Y-69085287D01*
X103884668Y-68996794D01*
X103995754Y-68939840D01*
X104119002Y-68920001D01*
X104120007Y-68920000D01*
X132129999Y-68920000D01*
X132130000Y-68920000D01*
X132122943Y-55856534D01*
X134869500Y-55856534D01*
X134869500Y-56063465D01*
X134909869Y-56266418D01*
X134909870Y-56266420D01*
X134989059Y-56457598D01*
X135104023Y-56629655D01*
X135250345Y-56775977D01*
X135422402Y-56890941D01*
X135613580Y-56970130D01*
X135816534Y-57010500D01*
X135816535Y-57010500D01*
X136023466Y-57010500D01*
X136110509Y-56993186D01*
X136226420Y-56970130D01*
X136417598Y-56890941D01*
X136589655Y-56775977D01*
X136735977Y-56629655D01*
X136850941Y-56457598D01*
X136930130Y-56266420D01*
X136970500Y-56063465D01*
X136970500Y-55856535D01*
X136930130Y-55653580D01*
X136850941Y-55462402D01*
X136735977Y-55290345D01*
X136589655Y-55144023D01*
X136417598Y-55029059D01*
X136226420Y-54949870D01*
X136226418Y-54949869D01*
X136226419Y-54949869D01*
X136023466Y-54909500D01*
X136023465Y-54909500D01*
X135816535Y-54909500D01*
X135816534Y-54909500D01*
X135613581Y-54949869D01*
X135422401Y-55029059D01*
X135250348Y-55144021D01*
X135250347Y-55144021D01*
X135104021Y-55290347D01*
X135104021Y-55290348D01*
X134989059Y-55462401D01*
X134909869Y-55653581D01*
X134869500Y-55856534D01*
X132122943Y-55856534D01*
X132120216Y-50809216D01*
X132139678Y-50685907D01*
X132196292Y-50574648D01*
X132284515Y-50486329D01*
X132395713Y-50429595D01*
X132519000Y-50410000D01*
X137981242Y-50410000D01*
X138104540Y-50429528D01*
G37*
G04 #@! TD.AperFunction*
G04 #@! TA.AperFunction,Conductor*
G36*
X139642539Y-48020185D02*
G01*
X139688294Y-48072989D01*
X139699500Y-48124500D01*
X139699500Y-114925500D01*
X139679815Y-114992539D01*
X139627011Y-115038294D01*
X139575500Y-115049500D01*
X83574500Y-115049500D01*
X83507461Y-115029815D01*
X83461706Y-114977011D01*
X83450500Y-114925500D01*
X83450500Y-114231007D01*
X96255096Y-114231007D01*
X96255096Y-114362791D01*
X96260305Y-114382230D01*
X96289204Y-114490086D01*
X96322150Y-114547149D01*
X96355096Y-114604213D01*
X96448282Y-114697399D01*
X96562410Y-114763291D01*
X96689704Y-114797399D01*
X96689706Y-114797399D01*
X96821486Y-114797399D01*
X96821488Y-114797399D01*
X96948782Y-114763291D01*
X97062910Y-114697399D01*
X97156096Y-114604213D01*
X97221988Y-114490085D01*
X97256096Y-114362791D01*
X97256096Y-114272731D01*
X97275781Y-114205692D01*
X97292415Y-114185050D01*
X97581066Y-113896399D01*
X97980460Y-113497006D01*
X98020021Y-113428484D01*
X98040500Y-113352057D01*
X98040500Y-113024837D01*
X98060185Y-112957798D01*
X98112989Y-112912043D01*
X98116986Y-112910302D01*
X98119179Y-112909394D01*
X98250289Y-112821789D01*
X98361789Y-112710289D01*
X98449394Y-112579179D01*
X98509737Y-112433497D01*
X98540500Y-112278842D01*
X98540500Y-112121158D01*
X98540500Y-112121155D01*
X98540499Y-112121153D01*
X99479500Y-112121153D01*
X99479500Y-112278846D01*
X99510261Y-112433489D01*
X99510264Y-112433501D01*
X99570602Y-112579172D01*
X99570609Y-112579185D01*
X99658210Y-112710288D01*
X99658213Y-112710292D01*
X99769707Y-112821786D01*
X99769711Y-112821789D01*
X99900814Y-112909390D01*
X99900827Y-112909397D01*
X100017679Y-112957798D01*
X100046503Y-112969737D01*
X100147879Y-112989902D01*
X100201153Y-113000499D01*
X100201156Y-113000500D01*
X100201158Y-113000500D01*
X100358844Y-113000500D01*
X100358845Y-113000499D01*
X100513497Y-112969737D01*
X100659179Y-112909394D01*
X100790289Y-112821789D01*
X100901789Y-112710289D01*
X100989394Y-112579179D01*
X101049737Y-112433497D01*
X101080500Y-112278842D01*
X101080500Y-112121158D01*
X101080500Y-112121155D01*
X101080499Y-112121153D01*
X101049738Y-111966510D01*
X101049737Y-111966503D01*
X101022348Y-111900379D01*
X100989397Y-111820827D01*
X100989390Y-111820814D01*
X100901789Y-111689711D01*
X100901786Y-111689707D01*
X100790292Y-111578213D01*
X100790288Y-111578210D01*
X100659185Y-111490609D01*
X100659172Y-111490602D01*
X100513501Y-111430264D01*
X100513489Y-111430261D01*
X100358845Y-111399500D01*
X100358842Y-111399500D01*
X100201158Y-111399500D01*
X100201155Y-111399500D01*
X100046510Y-111430261D01*
X100046498Y-111430264D01*
X99900827Y-111490602D01*
X99900814Y-111490609D01*
X99769711Y-111578210D01*
X99769707Y-111578213D01*
X99658213Y-111689707D01*
X99658210Y-111689711D01*
X99570609Y-111820814D01*
X99570602Y-111820827D01*
X99510264Y-111966498D01*
X99510261Y-111966510D01*
X99479500Y-112121153D01*
X98540499Y-112121153D01*
X98509738Y-111966510D01*
X98509737Y-111966503D01*
X98482348Y-111900379D01*
X98449397Y-111820827D01*
X98449390Y-111820814D01*
X98361789Y-111689711D01*
X98361786Y-111689707D01*
X98250292Y-111578213D01*
X98250288Y-111578210D01*
X98119185Y-111490609D01*
X98119172Y-111490602D01*
X97973501Y-111430264D01*
X97973489Y-111430261D01*
X97818845Y-111399500D01*
X97818842Y-111399500D01*
X97661158Y-111399500D01*
X97661155Y-111399500D01*
X97506510Y-111430261D01*
X97506498Y-111430264D01*
X97360827Y-111490602D01*
X97360814Y-111490609D01*
X97229711Y-111578210D01*
X97229707Y-111578213D01*
X97118213Y-111689707D01*
X97118210Y-111689711D01*
X97030609Y-111820814D01*
X97030602Y-111820827D01*
X96970264Y-111966498D01*
X96970261Y-111966510D01*
X96939500Y-112121153D01*
X96939500Y-112278846D01*
X96970261Y-112433489D01*
X96970264Y-112433501D01*
X97030602Y-112579172D01*
X97030609Y-112579185D01*
X97118210Y-112710288D01*
X97118213Y-112710292D01*
X97229710Y-112821789D01*
X97261018Y-112842708D01*
X97360821Y-112909394D01*
X97362945Y-112910274D01*
X97363885Y-112911031D01*
X97366192Y-112912264D01*
X97365958Y-112912701D01*
X97378513Y-112922817D01*
X97396703Y-112931124D01*
X97405163Y-112944289D01*
X97417349Y-112954107D01*
X97423665Y-112973079D01*
X97434477Y-112989902D01*
X97438436Y-113017443D01*
X97439421Y-113020399D01*
X97439500Y-113024837D01*
X97439500Y-113136661D01*
X97419815Y-113203700D01*
X97403181Y-113224342D01*
X96867443Y-113760080D01*
X96806120Y-113793565D01*
X96779762Y-113796399D01*
X96689704Y-113796399D01*
X96562408Y-113830507D01*
X96448282Y-113896399D01*
X96448279Y-113896401D01*
X96355098Y-113989582D01*
X96355096Y-113989585D01*
X96289204Y-114103711D01*
X96257133Y-114223406D01*
X96255096Y-114231007D01*
X83450500Y-114231007D01*
X83450500Y-112121153D01*
X94399500Y-112121153D01*
X94399500Y-112278846D01*
X94430261Y-112433489D01*
X94430264Y-112433501D01*
X94490602Y-112579172D01*
X94490609Y-112579185D01*
X94578210Y-112710288D01*
X94578213Y-112710292D01*
X94689707Y-112821786D01*
X94689711Y-112821789D01*
X94820814Y-112909390D01*
X94820827Y-112909397D01*
X94937679Y-112957798D01*
X94966503Y-112969737D01*
X95067879Y-112989902D01*
X95121153Y-113000499D01*
X95121156Y-113000500D01*
X95121158Y-113000500D01*
X95278844Y-113000500D01*
X95278845Y-113000499D01*
X95433497Y-112969737D01*
X95579179Y-112909394D01*
X95710289Y-112821789D01*
X95821789Y-112710289D01*
X95909394Y-112579179D01*
X95969737Y-112433497D01*
X96000500Y-112278842D01*
X96000500Y-112121158D01*
X96000500Y-112121155D01*
X96000499Y-112121153D01*
X95969738Y-111966510D01*
X95969737Y-111966503D01*
X95942348Y-111900379D01*
X95909397Y-111820827D01*
X95909390Y-111820814D01*
X95821789Y-111689711D01*
X95821786Y-111689707D01*
X95710292Y-111578213D01*
X95710288Y-111578210D01*
X95579185Y-111490609D01*
X95579172Y-111490602D01*
X95433501Y-111430264D01*
X95433489Y-111430261D01*
X95278845Y-111399500D01*
X95278842Y-111399500D01*
X95121158Y-111399500D01*
X95121155Y-111399500D01*
X94966510Y-111430261D01*
X94966498Y-111430264D01*
X94820827Y-111490602D01*
X94820814Y-111490609D01*
X94689711Y-111578210D01*
X94689707Y-111578213D01*
X94578213Y-111689707D01*
X94578210Y-111689711D01*
X94490609Y-111820814D01*
X94490602Y-111820827D01*
X94430264Y-111966498D01*
X94430261Y-111966510D01*
X94399500Y-112121153D01*
X83450500Y-112121153D01*
X83450500Y-95657337D01*
X86855096Y-95657337D01*
X86855096Y-109036461D01*
X86875575Y-109112888D01*
X86901237Y-109157336D01*
X86901239Y-109157338D01*
X86915138Y-109181413D01*
X86915139Y-109181414D01*
X87746109Y-110012383D01*
X88571085Y-110837359D01*
X88639608Y-110876921D01*
X88716034Y-110897399D01*
X88795158Y-110897399D01*
X101041066Y-110897399D01*
X101108105Y-110917084D01*
X101128747Y-110933718D01*
X102024265Y-111829236D01*
X102057750Y-111890559D01*
X102052766Y-111960251D01*
X102051153Y-111964350D01*
X102050266Y-111966491D01*
X102050261Y-111966506D01*
X102019500Y-112121153D01*
X102019500Y-112278846D01*
X102050261Y-112433489D01*
X102050264Y-112433501D01*
X102110602Y-112579172D01*
X102110609Y-112579185D01*
X102198210Y-112710288D01*
X102198213Y-112710292D01*
X102309707Y-112821786D01*
X102309711Y-112821789D01*
X102440814Y-112909390D01*
X102440827Y-112909397D01*
X102557679Y-112957798D01*
X102586503Y-112969737D01*
X102687879Y-112989902D01*
X102741153Y-113000499D01*
X102741156Y-113000500D01*
X102741158Y-113000500D01*
X102898844Y-113000500D01*
X102898845Y-113000499D01*
X103053497Y-112969737D01*
X103199179Y-112909394D01*
X103330289Y-112821789D01*
X103441789Y-112710289D01*
X103529394Y-112579179D01*
X103589737Y-112433497D01*
X103620500Y-112278842D01*
X103620500Y-112121158D01*
X103620500Y-112121155D01*
X103620499Y-112121153D01*
X103589738Y-111966510D01*
X103589737Y-111966503D01*
X103562348Y-111900379D01*
X103529397Y-111820827D01*
X103529390Y-111820814D01*
X103441789Y-111689711D01*
X103441786Y-111689707D01*
X103330292Y-111578213D01*
X103330288Y-111578210D01*
X103199185Y-111490609D01*
X103199172Y-111490602D01*
X103053501Y-111430264D01*
X103053489Y-111430261D01*
X102898845Y-111399500D01*
X102898842Y-111399500D01*
X102741158Y-111399500D01*
X102741155Y-111399500D01*
X102586506Y-111430261D01*
X102586491Y-111430266D01*
X102584350Y-111431153D01*
X102583140Y-111431282D01*
X102580674Y-111432031D01*
X102580531Y-111431562D01*
X102514880Y-111438610D01*
X102452406Y-111407325D01*
X102449236Y-111404265D01*
X101401411Y-110356440D01*
X101401403Y-110356434D01*
X101332894Y-110316881D01*
X101332889Y-110316878D01*
X101307412Y-110310051D01*
X101256461Y-110296399D01*
X101256459Y-110296399D01*
X88931429Y-110296399D01*
X88864390Y-110276714D01*
X88843748Y-110260080D01*
X87492415Y-108908747D01*
X87458930Y-108847424D01*
X87456096Y-108821066D01*
X87456096Y-96557337D01*
X88655096Y-96557337D01*
X88655096Y-108136461D01*
X88668748Y-108187412D01*
X88675575Y-108212889D01*
X88693649Y-108244194D01*
X88711724Y-108275500D01*
X88715136Y-108281410D01*
X88715139Y-108281414D01*
X89281150Y-108847424D01*
X89815136Y-109381410D01*
X89871085Y-109437359D01*
X89871087Y-109437360D01*
X89871091Y-109437363D01*
X89939600Y-109476916D01*
X89939607Y-109476920D01*
X90016034Y-109497399D01*
X102181066Y-109497399D01*
X102248105Y-109517084D01*
X102268747Y-109533718D01*
X104564265Y-111829236D01*
X104597750Y-111890559D01*
X104592766Y-111960251D01*
X104591153Y-111964350D01*
X104590266Y-111966491D01*
X104590261Y-111966506D01*
X104559500Y-112121153D01*
X104559500Y-112278846D01*
X104590261Y-112433489D01*
X104590264Y-112433501D01*
X104650602Y-112579172D01*
X104650609Y-112579185D01*
X104738210Y-112710288D01*
X104738213Y-112710292D01*
X104849707Y-112821786D01*
X104849711Y-112821789D01*
X104980814Y-112909390D01*
X104980827Y-112909397D01*
X105097679Y-112957798D01*
X105126503Y-112969737D01*
X105227879Y-112989902D01*
X105281153Y-113000499D01*
X105281156Y-113000500D01*
X105281158Y-113000500D01*
X105438844Y-113000500D01*
X105438845Y-113000499D01*
X105593497Y-112969737D01*
X105739179Y-112909394D01*
X105870289Y-112821789D01*
X105981789Y-112710289D01*
X106069394Y-112579179D01*
X106129737Y-112433497D01*
X106160500Y-112278842D01*
X106160500Y-112121158D01*
X106160500Y-112121155D01*
X106160499Y-112121153D01*
X107099500Y-112121153D01*
X107099500Y-112278846D01*
X107130261Y-112433489D01*
X107130264Y-112433501D01*
X107190602Y-112579172D01*
X107190609Y-112579185D01*
X107278210Y-112710288D01*
X107278213Y-112710292D01*
X107389707Y-112821786D01*
X107389711Y-112821789D01*
X107520814Y-112909390D01*
X107520827Y-112909397D01*
X107637679Y-112957798D01*
X107666503Y-112969737D01*
X107767879Y-112989902D01*
X107821153Y-113000499D01*
X107821156Y-113000500D01*
X107821158Y-113000500D01*
X107978844Y-113000500D01*
X107978845Y-113000499D01*
X108133497Y-112969737D01*
X108279179Y-112909394D01*
X108410289Y-112821789D01*
X108427078Y-112805000D01*
X119622769Y-112805000D01*
X120459252Y-112805000D01*
X120437482Y-112842708D01*
X120400000Y-112982591D01*
X120400000Y-113127409D01*
X120437482Y-113267292D01*
X120459252Y-113305000D01*
X119622769Y-113305000D01*
X119633242Y-113371126D01*
X119633242Y-113371129D01*
X119698904Y-113573217D01*
X119795379Y-113762557D01*
X119920272Y-113934459D01*
X119920276Y-113934464D01*
X120070535Y-114084723D01*
X120070540Y-114084727D01*
X120242442Y-114209620D01*
X120431782Y-114306095D01*
X120633871Y-114371757D01*
X120700000Y-114382231D01*
X120700000Y-113545747D01*
X120737708Y-113567518D01*
X120877591Y-113605000D01*
X121022409Y-113605000D01*
X121162292Y-113567518D01*
X121200000Y-113545747D01*
X121200000Y-114382230D01*
X121266126Y-114371757D01*
X121266129Y-114371757D01*
X121468217Y-114306095D01*
X121657557Y-114209620D01*
X121829459Y-114084727D01*
X121829464Y-114084723D01*
X121979723Y-113934464D01*
X121979727Y-113934459D01*
X122104620Y-113762557D01*
X122201095Y-113573217D01*
X122266757Y-113371129D01*
X122266757Y-113371126D01*
X122277231Y-113305000D01*
X121440748Y-113305000D01*
X121462518Y-113267292D01*
X121500000Y-113127409D01*
X121500000Y-112982591D01*
X121462518Y-112842708D01*
X121440748Y-112805000D01*
X122277231Y-112805000D01*
X122266757Y-112738873D01*
X122266757Y-112738870D01*
X122201095Y-112536782D01*
X122104620Y-112347442D01*
X121979727Y-112175540D01*
X121979723Y-112175535D01*
X121829464Y-112025276D01*
X121829459Y-112025272D01*
X121657557Y-111900379D01*
X121468216Y-111803904D01*
X121292026Y-111746656D01*
X121234350Y-111707218D01*
X121207152Y-111642860D01*
X121219067Y-111574013D01*
X121266311Y-111522538D01*
X121282882Y-111514168D01*
X121447598Y-111445941D01*
X121619655Y-111330977D01*
X121765977Y-111184655D01*
X121880941Y-111012598D01*
X121960130Y-110821420D01*
X122000500Y-110618465D01*
X122000500Y-110411535D01*
X121960130Y-110208580D01*
X121910194Y-110088026D01*
X121902726Y-110018559D01*
X121934001Y-109956080D01*
X121937047Y-109952922D01*
X126290460Y-105599511D01*
X126330021Y-105530989D01*
X126350500Y-105454562D01*
X126350500Y-103125833D01*
X126370185Y-103058794D01*
X126386819Y-103038152D01*
X128740458Y-100684513D01*
X128740460Y-100684511D01*
X128748177Y-100671144D01*
X128780021Y-100615989D01*
X128795263Y-100559108D01*
X131424500Y-100559108D01*
X131424500Y-100690891D01*
X131458608Y-100818187D01*
X131491554Y-100875250D01*
X131524500Y-100932314D01*
X131617686Y-101025500D01*
X131731814Y-101091392D01*
X131859108Y-101125500D01*
X131859110Y-101125500D01*
X131990890Y-101125500D01*
X131990892Y-101125500D01*
X132118186Y-101091392D01*
X132232314Y-101025500D01*
X132295995Y-100961819D01*
X132357318Y-100928334D01*
X132383676Y-100925500D01*
X136686192Y-100925500D01*
X136753231Y-100945185D01*
X136798986Y-100997989D01*
X136808930Y-101067147D01*
X136779905Y-101130703D01*
X136748193Y-101156887D01*
X136717686Y-101174500D01*
X136717683Y-101174502D01*
X136624502Y-101267683D01*
X136624500Y-101267686D01*
X136558608Y-101381812D01*
X136524500Y-101509108D01*
X136524500Y-101640891D01*
X136558608Y-101768187D01*
X136580730Y-101806503D01*
X136624500Y-101882314D01*
X136624501Y-101882315D01*
X136624503Y-101882318D01*
X136626956Y-101885515D01*
X136628187Y-101888699D01*
X136628564Y-101889352D01*
X136628462Y-101889410D01*
X136652152Y-101950683D01*
X136638115Y-102019128D01*
X136589302Y-102069119D01*
X136560676Y-102080778D01*
X136456812Y-102108608D01*
X136342686Y-102174500D01*
X136342683Y-102174502D01*
X136249502Y-102267683D01*
X136249500Y-102267686D01*
X136183608Y-102381812D01*
X136156921Y-102481411D01*
X136149500Y-102509108D01*
X136149500Y-102640892D01*
X136155099Y-102661789D01*
X136183608Y-102768187D01*
X136207598Y-102809738D01*
X136249500Y-102882314D01*
X136342686Y-102975500D01*
X136456814Y-103041392D01*
X136584108Y-103075500D01*
X136584110Y-103075500D01*
X136715890Y-103075500D01*
X136715892Y-103075500D01*
X136843186Y-103041392D01*
X136957314Y-102975500D01*
X137050500Y-102882314D01*
X137116392Y-102768186D01*
X137150500Y-102640892D01*
X137150500Y-102509108D01*
X137116392Y-102381814D01*
X137050500Y-102267686D01*
X137050494Y-102267680D01*
X137048044Y-102264486D01*
X137046811Y-102261298D01*
X137046436Y-102260648D01*
X137046537Y-102260589D01*
X137022847Y-102199317D01*
X137036883Y-102130872D01*
X137085696Y-102080881D01*
X137114320Y-102069222D01*
X137218186Y-102041392D01*
X137332314Y-101975500D01*
X137425500Y-101882314D01*
X137491392Y-101768186D01*
X137525500Y-101640892D01*
X137525500Y-101509108D01*
X137491392Y-101381814D01*
X137491390Y-101381810D01*
X137491332Y-101381594D01*
X137492995Y-101311744D01*
X137532157Y-101253881D01*
X137596386Y-101226377D01*
X137611107Y-101225500D01*
X137690890Y-101225500D01*
X137690892Y-101225500D01*
X137818186Y-101191392D01*
X137932314Y-101125500D01*
X138025500Y-101032314D01*
X138091392Y-100918186D01*
X138125500Y-100790892D01*
X138125500Y-100659108D01*
X138091392Y-100531814D01*
X138025500Y-100417686D01*
X137932314Y-100324500D01*
X137867049Y-100286819D01*
X137818187Y-100258608D01*
X137738875Y-100237357D01*
X137690892Y-100224500D01*
X137559108Y-100224500D01*
X137431814Y-100258608D01*
X137431813Y-100258608D01*
X137431811Y-100258609D01*
X137431810Y-100258609D01*
X137346460Y-100307887D01*
X137284460Y-100324500D01*
X132383676Y-100324500D01*
X132316637Y-100304815D01*
X132295995Y-100288181D01*
X132232316Y-100224502D01*
X132232314Y-100224500D01*
X132157680Y-100181410D01*
X132118187Y-100158608D01*
X132028254Y-100134511D01*
X131990892Y-100124500D01*
X131859108Y-100124500D01*
X131731812Y-100158608D01*
X131617686Y-100224500D01*
X131617683Y-100224502D01*
X131524502Y-100317683D01*
X131524500Y-100317686D01*
X131458608Y-100431812D01*
X131424500Y-100559108D01*
X128795263Y-100559108D01*
X128800500Y-100539562D01*
X128800500Y-95460438D01*
X128800500Y-95460436D01*
X128797906Y-95450759D01*
X128797903Y-95450747D01*
X128780023Y-95384015D01*
X128780022Y-95384013D01*
X128780022Y-95384012D01*
X128740460Y-95315489D01*
X128036819Y-94611848D01*
X128003334Y-94550525D01*
X128000500Y-94524167D01*
X128000500Y-94434110D01*
X128000500Y-94434108D01*
X127966392Y-94306814D01*
X127900500Y-94192686D01*
X127807314Y-94099500D01*
X127750250Y-94066554D01*
X127693187Y-94033608D01*
X127629539Y-94016554D01*
X127565892Y-93999500D01*
X127434108Y-93999500D01*
X127306812Y-94033608D01*
X127192686Y-94099500D01*
X127192683Y-94099502D01*
X127099502Y-94192683D01*
X127099500Y-94192686D01*
X127033608Y-94306812D01*
X126999500Y-94434108D01*
X126999500Y-94565892D01*
X127011814Y-94611848D01*
X127033608Y-94693187D01*
X127066554Y-94750250D01*
X127099500Y-94807314D01*
X127192686Y-94900500D01*
X127306814Y-94966392D01*
X127434108Y-95000500D01*
X127434110Y-95000500D01*
X127524167Y-95000500D01*
X127591206Y-95020185D01*
X127611848Y-95036819D01*
X128163181Y-95588152D01*
X128196666Y-95649475D01*
X128199500Y-95675833D01*
X128199500Y-100324167D01*
X128179815Y-100391206D01*
X128163181Y-100411848D01*
X125809541Y-102765487D01*
X125809535Y-102765495D01*
X125769982Y-102834004D01*
X125769979Y-102834009D01*
X125749500Y-102910439D01*
X125749500Y-105239166D01*
X125729815Y-105306205D01*
X125713181Y-105326847D01*
X121512104Y-109527923D01*
X121450781Y-109561408D01*
X121381089Y-109556424D01*
X121376971Y-109554803D01*
X121256424Y-109504871D01*
X121256412Y-109504868D01*
X121053469Y-109464500D01*
X121053465Y-109464500D01*
X120846535Y-109464500D01*
X120846530Y-109464500D01*
X120643587Y-109504868D01*
X120643579Y-109504870D01*
X120452403Y-109584058D01*
X120280342Y-109699024D01*
X120134024Y-109845342D01*
X120019058Y-110017403D01*
X119939870Y-110208579D01*
X119939868Y-110208587D01*
X119899500Y-110411530D01*
X119899500Y-110618469D01*
X119939868Y-110821412D01*
X119939870Y-110821420D01*
X120019058Y-111012596D01*
X120134024Y-111184657D01*
X120280342Y-111330975D01*
X120452405Y-111445943D01*
X120555043Y-111488456D01*
X120617108Y-111514164D01*
X120671511Y-111558005D01*
X120693576Y-111624299D01*
X120676297Y-111691998D01*
X120625160Y-111739609D01*
X120607974Y-111746656D01*
X120431781Y-111803905D01*
X120242442Y-111900379D01*
X120070540Y-112025272D01*
X120070535Y-112025276D01*
X119920276Y-112175535D01*
X119920272Y-112175540D01*
X119795379Y-112347442D01*
X119698904Y-112536782D01*
X119633242Y-112738870D01*
X119633242Y-112738873D01*
X119622769Y-112805000D01*
X108427078Y-112805000D01*
X108477696Y-112754383D01*
X108521786Y-112710292D01*
X108521789Y-112710289D01*
X108609394Y-112579179D01*
X108669737Y-112433497D01*
X108700500Y-112278842D01*
X108700500Y-112121158D01*
X108700500Y-112121155D01*
X108700499Y-112121153D01*
X108669738Y-111966510D01*
X108669737Y-111966503D01*
X108642348Y-111900379D01*
X108609397Y-111820827D01*
X108609390Y-111820814D01*
X108521789Y-111689711D01*
X108521786Y-111689707D01*
X108410292Y-111578213D01*
X108410288Y-111578210D01*
X108279185Y-111490609D01*
X108279172Y-111490602D01*
X108133501Y-111430264D01*
X108133489Y-111430261D01*
X107978845Y-111399500D01*
X107978842Y-111399500D01*
X107821158Y-111399500D01*
X107821155Y-111399500D01*
X107666510Y-111430261D01*
X107666498Y-111430264D01*
X107520827Y-111490602D01*
X107520814Y-111490609D01*
X107389711Y-111578210D01*
X107389707Y-111578213D01*
X107278213Y-111689707D01*
X107278210Y-111689711D01*
X107190609Y-111820814D01*
X107190602Y-111820827D01*
X107130264Y-111966498D01*
X107130261Y-111966510D01*
X107099500Y-112121153D01*
X106160499Y-112121153D01*
X106129738Y-111966510D01*
X106129737Y-111966503D01*
X106102348Y-111900379D01*
X106069397Y-111820827D01*
X106069390Y-111820814D01*
X105981789Y-111689711D01*
X105981786Y-111689707D01*
X105870292Y-111578213D01*
X105870288Y-111578210D01*
X105739185Y-111490609D01*
X105739172Y-111490602D01*
X105593501Y-111430264D01*
X105593489Y-111430261D01*
X105438845Y-111399500D01*
X105438842Y-111399500D01*
X105281158Y-111399500D01*
X105281155Y-111399500D01*
X105126506Y-111430261D01*
X105126491Y-111430266D01*
X105124350Y-111431153D01*
X105123140Y-111431282D01*
X105120674Y-111432031D01*
X105120531Y-111431562D01*
X105054880Y-111438610D01*
X104992406Y-111407325D01*
X104989236Y-111404265D01*
X102541411Y-108956440D01*
X102541403Y-108956434D01*
X102472894Y-108916881D01*
X102472889Y-108916878D01*
X102432071Y-108905941D01*
X102396461Y-108896399D01*
X102396459Y-108896399D01*
X90231429Y-108896399D01*
X90164390Y-108876714D01*
X90143748Y-108860080D01*
X89292415Y-108008747D01*
X89258930Y-107947424D01*
X89256096Y-107921066D01*
X89256096Y-96772731D01*
X89275781Y-96705692D01*
X89292410Y-96685055D01*
X89520127Y-96457338D01*
X91255096Y-96457338D01*
X91255096Y-103236461D01*
X91275574Y-103312886D01*
X91277880Y-103316880D01*
X91277883Y-103316886D01*
X91315133Y-103381406D01*
X91315135Y-103381409D01*
X91315136Y-103381410D01*
X92971085Y-105037359D01*
X93030425Y-105071619D01*
X93039604Y-105076919D01*
X93039608Y-105076921D01*
X93116034Y-105097399D01*
X93116036Y-105097399D01*
X105182661Y-105097399D01*
X105182663Y-105097399D01*
X105259090Y-105076920D01*
X105327612Y-105037359D01*
X105383561Y-104981410D01*
X107529238Y-102835731D01*
X107590559Y-102802248D01*
X107660251Y-102807232D01*
X107664336Y-102808839D01*
X107666503Y-102809737D01*
X107666508Y-102809738D01*
X107666511Y-102809739D01*
X107821153Y-102840499D01*
X107821156Y-102840500D01*
X107821158Y-102840500D01*
X107978844Y-102840500D01*
X107978845Y-102840499D01*
X108133497Y-102809737D01*
X108279179Y-102749394D01*
X108410289Y-102661789D01*
X108521789Y-102550289D01*
X108609394Y-102419179D01*
X108669737Y-102273497D01*
X108700500Y-102118842D01*
X108700500Y-101961158D01*
X108700500Y-101961155D01*
X108700499Y-101961153D01*
X108686087Y-101888699D01*
X108669737Y-101806503D01*
X108653866Y-101768186D01*
X108609397Y-101660827D01*
X108609390Y-101660814D01*
X108521789Y-101529711D01*
X108521786Y-101529707D01*
X108410292Y-101418213D01*
X108410288Y-101418210D01*
X108279185Y-101330609D01*
X108279172Y-101330602D01*
X108133501Y-101270264D01*
X108133489Y-101270261D01*
X107978845Y-101239500D01*
X107978842Y-101239500D01*
X107821158Y-101239500D01*
X107821155Y-101239500D01*
X107666510Y-101270261D01*
X107666498Y-101270264D01*
X107520827Y-101330602D01*
X107520814Y-101330609D01*
X107389711Y-101418210D01*
X107389707Y-101418213D01*
X107278213Y-101529707D01*
X107278210Y-101529711D01*
X107190609Y-101660814D01*
X107190602Y-101660827D01*
X107130264Y-101806498D01*
X107130261Y-101806510D01*
X107099500Y-101961153D01*
X107099500Y-102118846D01*
X107130261Y-102273494D01*
X107130262Y-102273497D01*
X107131147Y-102275632D01*
X107131276Y-102276840D01*
X107132032Y-102279330D01*
X107131559Y-102279473D01*
X107138613Y-102345102D01*
X107107336Y-102407580D01*
X107104265Y-102410762D01*
X105054949Y-104460080D01*
X104993626Y-104493565D01*
X104967268Y-104496399D01*
X93331429Y-104496399D01*
X93264390Y-104476714D01*
X93243748Y-104460080D01*
X91892415Y-103108747D01*
X91858930Y-103047424D01*
X91856096Y-103021066D01*
X91856096Y-96857337D01*
X92755096Y-96857337D01*
X92755096Y-102336461D01*
X92759307Y-102352176D01*
X92775575Y-102412889D01*
X92791060Y-102439708D01*
X92791061Y-102439712D01*
X92815131Y-102481403D01*
X92815135Y-102481408D01*
X92815136Y-102481410D01*
X94171085Y-103837359D01*
X94230425Y-103871619D01*
X94239604Y-103876919D01*
X94239608Y-103876921D01*
X94316034Y-103897399D01*
X94316036Y-103897399D01*
X98762661Y-103897399D01*
X98762663Y-103897399D01*
X98839090Y-103876920D01*
X98907612Y-103837359D01*
X98963561Y-103781410D01*
X99909238Y-102835731D01*
X99970559Y-102802248D01*
X100040250Y-102807232D01*
X100044336Y-102808839D01*
X100046503Y-102809737D01*
X100046508Y-102809738D01*
X100046511Y-102809739D01*
X100201153Y-102840499D01*
X100201156Y-102840500D01*
X100201158Y-102840500D01*
X100358844Y-102840500D01*
X100358845Y-102840499D01*
X100513497Y-102809737D01*
X100659179Y-102749394D01*
X100790289Y-102661789D01*
X100901789Y-102550289D01*
X100989394Y-102419179D01*
X101049737Y-102273497D01*
X101080500Y-102118842D01*
X101080500Y-101961158D01*
X101080500Y-101961155D01*
X101080499Y-101961153D01*
X101066087Y-101888699D01*
X101049737Y-101806503D01*
X101033866Y-101768186D01*
X100989397Y-101660827D01*
X100989390Y-101660814D01*
X100901789Y-101529711D01*
X100901786Y-101529707D01*
X100790292Y-101418213D01*
X100790288Y-101418210D01*
X100659185Y-101330609D01*
X100659172Y-101330602D01*
X100513501Y-101270264D01*
X100513489Y-101270261D01*
X100358845Y-101239500D01*
X100358842Y-101239500D01*
X100201158Y-101239500D01*
X100201155Y-101239500D01*
X100046510Y-101270261D01*
X100046498Y-101270264D01*
X99900827Y-101330602D01*
X99900814Y-101330609D01*
X99769711Y-101418210D01*
X99769707Y-101418213D01*
X99658213Y-101529707D01*
X99658210Y-101529711D01*
X99570609Y-101660814D01*
X99570602Y-101660827D01*
X99510264Y-101806498D01*
X99510261Y-101806510D01*
X99479500Y-101961153D01*
X99479500Y-102118846D01*
X99510261Y-102273494D01*
X99510262Y-102273497D01*
X99511147Y-102275632D01*
X99511276Y-102276840D01*
X99512032Y-102279330D01*
X99511559Y-102279473D01*
X99518613Y-102345102D01*
X99487336Y-102407580D01*
X99484265Y-102410762D01*
X98634949Y-103260080D01*
X98573626Y-103293565D01*
X98547268Y-103296399D01*
X94531429Y-103296399D01*
X94464390Y-103276714D01*
X94443748Y-103260080D01*
X93392415Y-102208747D01*
X93377711Y-102181819D01*
X93361119Y-102156001D01*
X93360227Y-102149800D01*
X93358930Y-102147424D01*
X93356096Y-102121066D01*
X93356096Y-101961153D01*
X94399500Y-101961153D01*
X94399500Y-102118846D01*
X94430261Y-102273489D01*
X94430264Y-102273501D01*
X94490602Y-102419172D01*
X94490609Y-102419185D01*
X94578210Y-102550288D01*
X94578213Y-102550292D01*
X94689707Y-102661786D01*
X94689711Y-102661789D01*
X94820814Y-102749390D01*
X94820827Y-102749397D01*
X94922559Y-102791535D01*
X94966503Y-102809737D01*
X95088501Y-102834004D01*
X95121153Y-102840499D01*
X95121156Y-102840500D01*
X95121158Y-102840500D01*
X95278844Y-102840500D01*
X95278845Y-102840499D01*
X95433497Y-102809737D01*
X95579179Y-102749394D01*
X95710289Y-102661789D01*
X95821789Y-102550289D01*
X95909394Y-102419179D01*
X95969737Y-102273497D01*
X96000500Y-102118842D01*
X96000500Y-101961158D01*
X96000500Y-101961155D01*
X96000499Y-101961153D01*
X96939500Y-101961153D01*
X96939500Y-102118846D01*
X96970261Y-102273489D01*
X96970264Y-102273501D01*
X97030602Y-102419172D01*
X97030609Y-102419185D01*
X97118210Y-102550288D01*
X97118213Y-102550292D01*
X97229707Y-102661786D01*
X97229711Y-102661789D01*
X97360814Y-102749390D01*
X97360827Y-102749397D01*
X97462559Y-102791535D01*
X97506503Y-102809737D01*
X97628501Y-102834004D01*
X97661153Y-102840499D01*
X97661156Y-102840500D01*
X97661158Y-102840500D01*
X97818844Y-102840500D01*
X97818845Y-102840499D01*
X97973497Y-102809737D01*
X98119179Y-102749394D01*
X98250289Y-102661789D01*
X98361789Y-102550289D01*
X98449394Y-102419179D01*
X98509737Y-102273497D01*
X98540500Y-102118842D01*
X98540500Y-101961158D01*
X98540500Y-101961155D01*
X98540499Y-101961153D01*
X98526087Y-101888699D01*
X98509737Y-101806503D01*
X98493866Y-101768186D01*
X98449397Y-101660827D01*
X98449390Y-101660814D01*
X98361789Y-101529711D01*
X98361786Y-101529707D01*
X98250292Y-101418213D01*
X98250288Y-101418210D01*
X98119185Y-101330609D01*
X98119169Y-101330601D01*
X98117038Y-101329718D01*
X98116094Y-101328957D01*
X98113809Y-101327736D01*
X98114040Y-101327302D01*
X98062638Y-101285873D01*
X98040579Y-101219577D01*
X98040500Y-101215161D01*
X98040500Y-96157337D01*
X98555096Y-96157337D01*
X98555096Y-99136461D01*
X98568748Y-99187412D01*
X98575575Y-99212889D01*
X98575578Y-99212894D01*
X98615131Y-99281403D01*
X98615135Y-99281408D01*
X98615136Y-99281410D01*
X99515136Y-100181410D01*
X99571085Y-100237359D01*
X99571087Y-100237360D01*
X99571091Y-100237363D01*
X99630593Y-100271716D01*
X99639607Y-100276920D01*
X99716034Y-100297399D01*
X100601066Y-100297399D01*
X100668105Y-100317084D01*
X100688747Y-100333718D01*
X102024265Y-101669236D01*
X102057750Y-101730559D01*
X102052766Y-101800251D01*
X102051153Y-101804350D01*
X102050266Y-101806491D01*
X102050261Y-101806506D01*
X102019500Y-101961153D01*
X102019500Y-102118846D01*
X102050261Y-102273489D01*
X102050264Y-102273501D01*
X102110602Y-102419172D01*
X102110609Y-102419185D01*
X102198210Y-102550288D01*
X102198213Y-102550292D01*
X102309707Y-102661786D01*
X102309711Y-102661789D01*
X102440814Y-102749390D01*
X102440827Y-102749397D01*
X102542559Y-102791535D01*
X102586503Y-102809737D01*
X102708501Y-102834004D01*
X102741153Y-102840499D01*
X102741156Y-102840500D01*
X102741158Y-102840500D01*
X102898844Y-102840500D01*
X102898845Y-102840499D01*
X103053497Y-102809737D01*
X103199179Y-102749394D01*
X103330289Y-102661789D01*
X103441789Y-102550289D01*
X103529394Y-102419179D01*
X103589737Y-102273497D01*
X103620500Y-102118842D01*
X103620500Y-101961158D01*
X103620500Y-101961155D01*
X103620499Y-101961153D01*
X104559500Y-101961153D01*
X104559500Y-102118846D01*
X104590261Y-102273489D01*
X104590264Y-102273501D01*
X104650602Y-102419172D01*
X104650609Y-102419185D01*
X104738210Y-102550288D01*
X104738213Y-102550292D01*
X104849707Y-102661786D01*
X104849711Y-102661789D01*
X104980814Y-102749390D01*
X104980827Y-102749397D01*
X105082559Y-102791535D01*
X105126503Y-102809737D01*
X105248501Y-102834004D01*
X105281153Y-102840499D01*
X105281156Y-102840500D01*
X105281158Y-102840500D01*
X105438844Y-102840500D01*
X105438845Y-102840499D01*
X105593497Y-102809737D01*
X105739179Y-102749394D01*
X105870289Y-102661789D01*
X105981789Y-102550289D01*
X106069394Y-102419179D01*
X106129737Y-102273497D01*
X106160500Y-102118842D01*
X106160500Y-101961158D01*
X106160500Y-101961155D01*
X106160499Y-101961153D01*
X106146087Y-101888699D01*
X106129737Y-101806503D01*
X106113866Y-101768186D01*
X106069397Y-101660827D01*
X106069390Y-101660814D01*
X105981789Y-101529711D01*
X105981786Y-101529707D01*
X105870292Y-101418213D01*
X105870288Y-101418210D01*
X105739185Y-101330609D01*
X105739172Y-101330602D01*
X105593501Y-101270264D01*
X105593489Y-101270261D01*
X105438845Y-101239500D01*
X105438842Y-101239500D01*
X105281158Y-101239500D01*
X105281155Y-101239500D01*
X105126510Y-101270261D01*
X105126498Y-101270264D01*
X104980827Y-101330602D01*
X104980814Y-101330609D01*
X104849711Y-101418210D01*
X104849707Y-101418213D01*
X104738213Y-101529707D01*
X104738210Y-101529711D01*
X104650609Y-101660814D01*
X104650602Y-101660827D01*
X104590264Y-101806498D01*
X104590261Y-101806510D01*
X104559500Y-101961153D01*
X103620499Y-101961153D01*
X103606087Y-101888699D01*
X103589737Y-101806503D01*
X103573866Y-101768186D01*
X103529397Y-101660827D01*
X103529390Y-101660814D01*
X103441789Y-101529711D01*
X103441786Y-101529707D01*
X103330292Y-101418213D01*
X103330288Y-101418210D01*
X103199185Y-101330609D01*
X103199172Y-101330602D01*
X103053501Y-101270264D01*
X103053489Y-101270261D01*
X102898845Y-101239500D01*
X102898842Y-101239500D01*
X102741158Y-101239500D01*
X102741155Y-101239500D01*
X102586506Y-101270261D01*
X102586491Y-101270266D01*
X102584350Y-101271153D01*
X102583140Y-101271282D01*
X102580674Y-101272031D01*
X102580531Y-101271562D01*
X102514880Y-101278610D01*
X102452406Y-101247325D01*
X102449236Y-101244265D01*
X100961409Y-99756438D01*
X100942659Y-99745613D01*
X100923909Y-99734788D01*
X100923908Y-99734787D01*
X100892893Y-99716880D01*
X100892890Y-99716878D01*
X100854674Y-99706638D01*
X100816461Y-99696399D01*
X100816459Y-99696399D01*
X99931429Y-99696399D01*
X99864390Y-99676714D01*
X99843748Y-99660080D01*
X99192415Y-99008747D01*
X99158930Y-98947424D01*
X99156096Y-98921066D01*
X99156096Y-96372731D01*
X99164740Y-96343290D01*
X99167412Y-96331007D01*
X103855096Y-96331007D01*
X103855096Y-96462791D01*
X103859951Y-96480910D01*
X103889204Y-96590086D01*
X103907266Y-96621370D01*
X103955096Y-96704213D01*
X104048282Y-96797399D01*
X104162410Y-96863291D01*
X104289704Y-96897399D01*
X104289706Y-96897399D01*
X104379763Y-96897399D01*
X104446802Y-96917084D01*
X104467444Y-96933718D01*
X105948237Y-98414511D01*
X106004186Y-98470460D01*
X106004188Y-98470461D01*
X106004192Y-98470464D01*
X106056267Y-98500529D01*
X106072708Y-98510021D01*
X106149135Y-98530500D01*
X106228259Y-98530500D01*
X112411324Y-98530500D01*
X112478363Y-98550185D01*
X112499005Y-98566819D01*
X112562686Y-98630500D01*
X112676814Y-98696392D01*
X112804108Y-98730500D01*
X112804110Y-98730500D01*
X112935890Y-98730500D01*
X112935892Y-98730500D01*
X113063186Y-98696392D01*
X113177314Y-98630500D01*
X113270500Y-98537314D01*
X113336392Y-98423186D01*
X113370500Y-98295892D01*
X113370500Y-98164108D01*
X113336392Y-98036814D01*
X113270500Y-97922686D01*
X113177314Y-97829500D01*
X113120250Y-97796554D01*
X113063187Y-97763608D01*
X112999539Y-97746554D01*
X112935892Y-97729500D01*
X112804108Y-97729500D01*
X112676812Y-97763608D01*
X112562686Y-97829500D01*
X112562683Y-97829502D01*
X112499005Y-97893181D01*
X112437682Y-97926666D01*
X112411324Y-97929500D01*
X106364530Y-97929500D01*
X106297491Y-97909815D01*
X106276849Y-97893181D01*
X104892415Y-96508747D01*
X104858930Y-96447424D01*
X104856096Y-96421066D01*
X104856096Y-96331009D01*
X104856096Y-96331007D01*
X104821988Y-96203713D01*
X104756096Y-96089585D01*
X104662910Y-95996399D01*
X104605564Y-95963290D01*
X104548783Y-95930507D01*
X104456174Y-95905693D01*
X104421488Y-95896399D01*
X104289704Y-95896399D01*
X104162408Y-95930507D01*
X104048282Y-95996399D01*
X104048279Y-95996401D01*
X103955098Y-96089582D01*
X103955096Y-96089585D01*
X103889204Y-96203711D01*
X103875076Y-96256439D01*
X103855096Y-96331007D01*
X99167412Y-96331007D01*
X99171264Y-96313304D01*
X99175018Y-96308288D01*
X99175781Y-96305692D01*
X99192411Y-96285054D01*
X99443747Y-96033717D01*
X99505070Y-96000233D01*
X99531428Y-95997399D01*
X99621486Y-95997399D01*
X99621488Y-95997399D01*
X99748782Y-95963291D01*
X99862910Y-95897399D01*
X99956096Y-95804213D01*
X100021988Y-95690085D01*
X100056096Y-95562791D01*
X100056096Y-95431007D01*
X100021988Y-95303713D01*
X99956096Y-95189585D01*
X99862910Y-95096399D01*
X99759715Y-95036819D01*
X99748783Y-95030507D01*
X99636793Y-95000500D01*
X99621488Y-94996399D01*
X99489704Y-94996399D01*
X99362408Y-95030507D01*
X99248282Y-95096399D01*
X99248279Y-95096401D01*
X99155098Y-95189582D01*
X99155096Y-95189585D01*
X99089204Y-95303711D01*
X99055096Y-95431007D01*
X99055096Y-95521065D01*
X99035411Y-95588104D01*
X99018777Y-95608746D01*
X98671085Y-95956439D01*
X98615137Y-96012386D01*
X98615131Y-96012394D01*
X98575578Y-96080903D01*
X98575575Y-96080908D01*
X98573251Y-96089582D01*
X98555096Y-96157337D01*
X98040500Y-96157337D01*
X98040500Y-94188327D01*
X98060185Y-94121288D01*
X98076815Y-94100650D01*
X98543747Y-93633717D01*
X98605070Y-93600233D01*
X98631428Y-93597399D01*
X98721486Y-93597399D01*
X98721488Y-93597399D01*
X98848782Y-93563291D01*
X98962910Y-93497399D01*
X99056096Y-93404213D01*
X99121988Y-93290085D01*
X99156096Y-93162791D01*
X99156096Y-93031007D01*
X99121988Y-92903713D01*
X99056096Y-92789585D01*
X98962910Y-92696399D01*
X98905846Y-92663453D01*
X98848783Y-92630507D01*
X98748784Y-92603713D01*
X98721488Y-92596399D01*
X98589704Y-92596399D01*
X98462408Y-92630507D01*
X98348282Y-92696399D01*
X98348279Y-92696401D01*
X98255098Y-92789582D01*
X98255096Y-92789585D01*
X98189204Y-92903711D01*
X98155096Y-93031007D01*
X98155096Y-93121065D01*
X98135411Y-93188104D01*
X98118777Y-93208746D01*
X97555489Y-93772035D01*
X97499541Y-93827982D01*
X97499535Y-93827990D01*
X97459982Y-93896499D01*
X97459979Y-93896504D01*
X97439500Y-93972934D01*
X97439500Y-101215161D01*
X97419815Y-101282200D01*
X97367011Y-101327955D01*
X97362962Y-101329718D01*
X97360830Y-101330601D01*
X97360814Y-101330609D01*
X97229711Y-101418210D01*
X97229707Y-101418213D01*
X97118213Y-101529707D01*
X97118210Y-101529711D01*
X97030609Y-101660814D01*
X97030602Y-101660827D01*
X96970264Y-101806498D01*
X96970261Y-101806510D01*
X96939500Y-101961153D01*
X96000499Y-101961153D01*
X95986087Y-101888699D01*
X95969737Y-101806503D01*
X95953866Y-101768186D01*
X95909397Y-101660827D01*
X95909390Y-101660814D01*
X95821789Y-101529711D01*
X95821786Y-101529707D01*
X95710292Y-101418213D01*
X95710288Y-101418210D01*
X95579185Y-101330609D01*
X95579172Y-101330602D01*
X95433501Y-101270264D01*
X95433489Y-101270261D01*
X95278845Y-101239500D01*
X95278842Y-101239500D01*
X95121158Y-101239500D01*
X95121155Y-101239500D01*
X94966510Y-101270261D01*
X94966498Y-101270264D01*
X94820827Y-101330602D01*
X94820814Y-101330609D01*
X94689711Y-101418210D01*
X94689707Y-101418213D01*
X94578213Y-101529707D01*
X94578210Y-101529711D01*
X94490609Y-101660814D01*
X94490602Y-101660827D01*
X94430264Y-101806498D01*
X94430261Y-101806510D01*
X94399500Y-101961153D01*
X93356096Y-101961153D01*
X93356096Y-97072731D01*
X93375781Y-97005692D01*
X93392410Y-96985055D01*
X97352614Y-93024850D01*
X97413935Y-92991367D01*
X97472386Y-92992758D01*
X97489704Y-92997399D01*
X97489706Y-92997399D01*
X97621486Y-92997399D01*
X97621488Y-92997399D01*
X97748782Y-92963291D01*
X97862910Y-92897399D01*
X97956096Y-92804213D01*
X98021988Y-92690085D01*
X98056096Y-92562791D01*
X98056096Y-92431007D01*
X98021988Y-92303713D01*
X97956096Y-92189585D01*
X97862910Y-92096399D01*
X97805564Y-92063290D01*
X97748783Y-92030507D01*
X97685135Y-92013453D01*
X97621488Y-91996399D01*
X97489704Y-91996399D01*
X97362408Y-92030507D01*
X97248282Y-92096399D01*
X97248279Y-92096401D01*
X97155098Y-92189582D01*
X97155096Y-92189585D01*
X97089204Y-92303711D01*
X97055096Y-92431006D01*
X97054310Y-92436979D01*
X97026041Y-92500875D01*
X97019052Y-92508471D01*
X92871085Y-96656439D01*
X92815137Y-96712386D01*
X92815131Y-96712394D01*
X92775578Y-96780903D01*
X92775575Y-96780908D01*
X92761922Y-96831861D01*
X92755096Y-96857337D01*
X91856096Y-96857337D01*
X91856096Y-96672731D01*
X91875781Y-96605692D01*
X91892410Y-96585055D01*
X96343747Y-92133717D01*
X96405070Y-92100233D01*
X96431428Y-92097399D01*
X96521486Y-92097399D01*
X96521488Y-92097399D01*
X96648782Y-92063291D01*
X96762910Y-91997399D01*
X96856096Y-91904213D01*
X96921988Y-91790085D01*
X96956096Y-91662791D01*
X96956096Y-91531007D01*
X96921988Y-91403713D01*
X96856096Y-91289585D01*
X96762910Y-91196399D01*
X96705846Y-91163453D01*
X96648783Y-91130507D01*
X96585135Y-91113453D01*
X96521488Y-91096399D01*
X96389704Y-91096399D01*
X96262408Y-91130507D01*
X96148282Y-91196399D01*
X96148279Y-91196401D01*
X96055098Y-91289582D01*
X96055096Y-91289585D01*
X95989204Y-91403711D01*
X95955096Y-91531007D01*
X95955096Y-91621065D01*
X95935411Y-91688104D01*
X95918777Y-91708746D01*
X91371085Y-96256439D01*
X91315137Y-96312386D01*
X91315131Y-96312394D01*
X91275578Y-96380903D01*
X91275575Y-96380908D01*
X91255096Y-96457338D01*
X89520127Y-96457338D01*
X94543747Y-91433717D01*
X94605070Y-91400233D01*
X94631428Y-91397399D01*
X94721486Y-91397399D01*
X94721488Y-91397399D01*
X94848782Y-91363291D01*
X94962910Y-91297399D01*
X95056096Y-91204213D01*
X95121988Y-91090085D01*
X95156096Y-90962791D01*
X95156096Y-90831007D01*
X95121988Y-90703713D01*
X95056096Y-90589585D01*
X94962910Y-90496399D01*
X94905846Y-90463453D01*
X94848783Y-90430507D01*
X94785135Y-90413453D01*
X94721488Y-90396399D01*
X94589704Y-90396399D01*
X94462408Y-90430507D01*
X94348282Y-90496399D01*
X94348279Y-90496401D01*
X94255098Y-90589582D01*
X94255096Y-90589585D01*
X94189204Y-90703711D01*
X94155096Y-90831007D01*
X94155096Y-90921065D01*
X94135411Y-90988104D01*
X94118777Y-91008746D01*
X88771085Y-96356439D01*
X88715137Y-96412386D01*
X88715131Y-96412394D01*
X88675578Y-96480903D01*
X88675575Y-96480908D01*
X88668116Y-96508747D01*
X88655096Y-96557337D01*
X87456096Y-96557337D01*
X87456096Y-95972732D01*
X87475781Y-95905693D01*
X87492415Y-95885051D01*
X87496056Y-95881410D01*
X90043747Y-93333718D01*
X90105070Y-93300233D01*
X90131428Y-93297399D01*
X90221486Y-93297399D01*
X90221488Y-93297399D01*
X90348782Y-93263291D01*
X90462910Y-93197399D01*
X90556096Y-93104213D01*
X90621988Y-92990085D01*
X90656096Y-92862791D01*
X90656096Y-92731007D01*
X90621988Y-92603713D01*
X90556096Y-92489585D01*
X90462910Y-92396399D01*
X90405846Y-92363453D01*
X90348783Y-92330507D01*
X90248784Y-92303713D01*
X90221488Y-92296399D01*
X90089704Y-92296399D01*
X89962408Y-92330507D01*
X89848282Y-92396399D01*
X89848279Y-92396401D01*
X89755098Y-92489582D01*
X89755096Y-92489585D01*
X89689204Y-92603711D01*
X89655096Y-92731007D01*
X89655096Y-92821065D01*
X89635411Y-92888104D01*
X89618777Y-92908746D01*
X87160142Y-95367381D01*
X87104556Y-95399474D01*
X87039611Y-95416876D01*
X87039600Y-95416881D01*
X86971091Y-95456434D01*
X86971083Y-95456440D01*
X86915137Y-95512386D01*
X86915131Y-95512394D01*
X86875578Y-95580903D01*
X86875575Y-95580908D01*
X86873647Y-95588104D01*
X86855096Y-95657337D01*
X83450500Y-95657337D01*
X83450500Y-87531007D01*
X105455096Y-87531007D01*
X105455096Y-87662790D01*
X105489204Y-87790086D01*
X105522150Y-87847149D01*
X105555096Y-87904213D01*
X105648282Y-87997399D01*
X105762410Y-88063291D01*
X105889704Y-88097399D01*
X105889706Y-88097399D01*
X106021486Y-88097399D01*
X106021488Y-88097399D01*
X106148782Y-88063291D01*
X106262910Y-87997399D01*
X106343491Y-87916818D01*
X106404815Y-87883334D01*
X106431172Y-87880500D01*
X107962864Y-87880500D01*
X108029903Y-87900185D01*
X108050545Y-87916819D01*
X114038181Y-93904455D01*
X114071666Y-93965778D01*
X114074500Y-93992136D01*
X114074500Y-98664562D01*
X114094979Y-98740989D01*
X114126970Y-98796399D01*
X114134540Y-98809511D01*
X115459540Y-100134511D01*
X115515489Y-100190460D01*
X115515491Y-100190461D01*
X115515495Y-100190464D01*
X115574448Y-100224500D01*
X115584011Y-100230021D01*
X115660438Y-100250500D01*
X115739562Y-100250500D01*
X117751324Y-100250500D01*
X117780764Y-100259144D01*
X117810751Y-100265668D01*
X117815766Y-100269422D01*
X117818363Y-100270185D01*
X117839005Y-100286819D01*
X117873181Y-100320995D01*
X117906666Y-100382318D01*
X117909500Y-100408676D01*
X117909500Y-105274562D01*
X117917979Y-105306205D01*
X117929979Y-105350989D01*
X117944093Y-105375434D01*
X117944094Y-105375438D01*
X117944095Y-105375438D01*
X117969539Y-105419509D01*
X117969541Y-105419512D01*
X119962924Y-107412895D01*
X119996409Y-107474218D01*
X119991425Y-107543910D01*
X119989804Y-107548029D01*
X119939870Y-107668579D01*
X119939868Y-107668587D01*
X119899500Y-107871530D01*
X119899500Y-108078469D01*
X119939868Y-108281412D01*
X119939870Y-108281420D01*
X120019058Y-108472596D01*
X120134024Y-108644657D01*
X120280342Y-108790975D01*
X120280345Y-108790977D01*
X120452402Y-108905941D01*
X120643580Y-108985130D01*
X120846530Y-109025499D01*
X120846534Y-109025500D01*
X120846535Y-109025500D01*
X121053466Y-109025500D01*
X121053467Y-109025499D01*
X121256420Y-108985130D01*
X121447598Y-108905941D01*
X121619655Y-108790977D01*
X121765977Y-108644655D01*
X121880941Y-108472598D01*
X121960130Y-108281420D01*
X122000500Y-108078465D01*
X122000500Y-107871535D01*
X121960130Y-107668580D01*
X121880941Y-107477402D01*
X121765977Y-107305345D01*
X121765975Y-107305342D01*
X121619657Y-107159024D01*
X121452616Y-107047412D01*
X121447598Y-107044059D01*
X121395002Y-107022273D01*
X121256420Y-106964870D01*
X121256412Y-106964868D01*
X121053469Y-106924500D01*
X121053465Y-106924500D01*
X120846535Y-106924500D01*
X120846530Y-106924500D01*
X120643587Y-106964868D01*
X120643579Y-106964870D01*
X120523029Y-107014804D01*
X120453559Y-107022273D01*
X120391080Y-106990998D01*
X120387895Y-106987924D01*
X118731501Y-105331530D01*
X119899500Y-105331530D01*
X119899500Y-105538469D01*
X119939868Y-105741412D01*
X119939870Y-105741420D01*
X120019058Y-105932596D01*
X120134024Y-106104657D01*
X120280342Y-106250975D01*
X120280345Y-106250977D01*
X120452402Y-106365941D01*
X120643580Y-106445130D01*
X120846530Y-106485499D01*
X120846534Y-106485500D01*
X120846535Y-106485500D01*
X121053466Y-106485500D01*
X121053467Y-106485499D01*
X121256420Y-106445130D01*
X121447598Y-106365941D01*
X121619655Y-106250977D01*
X121765977Y-106104655D01*
X121880941Y-105932598D01*
X121960130Y-105741420D01*
X122000500Y-105538465D01*
X122000500Y-105331535D01*
X121960130Y-105128580D01*
X121880941Y-104937402D01*
X121765977Y-104765345D01*
X121765975Y-104765342D01*
X121619657Y-104619024D01*
X121533626Y-104561541D01*
X121447598Y-104504059D01*
X121429105Y-104496399D01*
X121256420Y-104424870D01*
X121256412Y-104424868D01*
X121053469Y-104384500D01*
X121053465Y-104384500D01*
X120846535Y-104384500D01*
X120846530Y-104384500D01*
X120643587Y-104424868D01*
X120643579Y-104424870D01*
X120452403Y-104504058D01*
X120280342Y-104619024D01*
X120134024Y-104765342D01*
X120019058Y-104937403D01*
X119939870Y-105128579D01*
X119939868Y-105128587D01*
X119899500Y-105331530D01*
X118731501Y-105331530D01*
X118546819Y-105146848D01*
X118513334Y-105085525D01*
X118510500Y-105059167D01*
X118510500Y-102791530D01*
X119899500Y-102791530D01*
X119899500Y-102998469D01*
X119939868Y-103201412D01*
X119939870Y-103201420D01*
X120019058Y-103392596D01*
X120134024Y-103564657D01*
X120280342Y-103710975D01*
X120280345Y-103710977D01*
X120452402Y-103825941D01*
X120643580Y-103905130D01*
X120846530Y-103945499D01*
X120846534Y-103945500D01*
X120846535Y-103945500D01*
X121053466Y-103945500D01*
X121053467Y-103945499D01*
X121256420Y-103905130D01*
X121447598Y-103825941D01*
X121619655Y-103710977D01*
X121765977Y-103564655D01*
X121880941Y-103392598D01*
X121960130Y-103201420D01*
X122000500Y-102998465D01*
X122000500Y-102791535D01*
X121960130Y-102588580D01*
X121880941Y-102397402D01*
X121765977Y-102225345D01*
X121765975Y-102225342D01*
X121619657Y-102079024D01*
X121530015Y-102019128D01*
X121447598Y-101964059D01*
X121440594Y-101961158D01*
X121256420Y-101884870D01*
X121256412Y-101884868D01*
X121053469Y-101844500D01*
X121053465Y-101844500D01*
X120846535Y-101844500D01*
X120846530Y-101844500D01*
X120643587Y-101884868D01*
X120643579Y-101884870D01*
X120452403Y-101964058D01*
X120280342Y-102079024D01*
X120134024Y-102225342D01*
X120019058Y-102397403D01*
X119939870Y-102588579D01*
X119939868Y-102588587D01*
X119899500Y-102791530D01*
X118510500Y-102791530D01*
X118510500Y-100446480D01*
X118530185Y-100379441D01*
X118582989Y-100333686D01*
X118652147Y-100323742D01*
X118715703Y-100352767D01*
X118722181Y-100358799D01*
X118728284Y-100364902D01*
X118842412Y-100430794D01*
X118969706Y-100464902D01*
X118969708Y-100464902D01*
X119101488Y-100464902D01*
X119101490Y-100464902D01*
X119228784Y-100430794D01*
X119342912Y-100364902D01*
X119436098Y-100271716D01*
X119501990Y-100157588D01*
X119536098Y-100030294D01*
X119536098Y-99898510D01*
X119501990Y-99771216D01*
X119436098Y-99657088D01*
X119342912Y-99563902D01*
X119285848Y-99530956D01*
X119228785Y-99498010D01*
X119165137Y-99480956D01*
X119101490Y-99463902D01*
X118969706Y-99463902D01*
X118842410Y-99498010D01*
X118728284Y-99563902D01*
X118728281Y-99563904D01*
X118717681Y-99574505D01*
X118656358Y-99607990D01*
X118586666Y-99603006D01*
X118542319Y-99574505D01*
X118517316Y-99549502D01*
X118517314Y-99549500D01*
X118428131Y-99498010D01*
X118403187Y-99483608D01*
X118339539Y-99466554D01*
X118275892Y-99449500D01*
X118144108Y-99449500D01*
X118016812Y-99483608D01*
X117902686Y-99549500D01*
X117902683Y-99549502D01*
X117839005Y-99613181D01*
X117777682Y-99646666D01*
X117751324Y-99649500D01*
X115875833Y-99649500D01*
X115808794Y-99629815D01*
X115788152Y-99613181D01*
X114711819Y-98536848D01*
X114678334Y-98475525D01*
X114675500Y-98449167D01*
X114675500Y-95509108D01*
X122449500Y-95509108D01*
X122449500Y-95640892D01*
X122453907Y-95657338D01*
X122483608Y-95768187D01*
X122504408Y-95804213D01*
X122549500Y-95882314D01*
X122642686Y-95975500D01*
X122756814Y-96041392D01*
X122884108Y-96075500D01*
X122884110Y-96075500D01*
X123015890Y-96075500D01*
X123015892Y-96075500D01*
X123143186Y-96041392D01*
X123257314Y-95975500D01*
X123320995Y-95911819D01*
X123382318Y-95878334D01*
X123408676Y-95875500D01*
X123824167Y-95875500D01*
X123891206Y-95895185D01*
X123911848Y-95911819D01*
X125963181Y-97963152D01*
X125996666Y-98024475D01*
X125999500Y-98050833D01*
X125999500Y-98140891D01*
X126033608Y-98268187D01*
X126049604Y-98295892D01*
X126099500Y-98382314D01*
X126192686Y-98475500D01*
X126287949Y-98530500D01*
X126298943Y-98536848D01*
X126306814Y-98541392D01*
X126434108Y-98575500D01*
X126434110Y-98575500D01*
X126565890Y-98575500D01*
X126565892Y-98575500D01*
X126693186Y-98541392D01*
X126807314Y-98475500D01*
X126900500Y-98382314D01*
X126966392Y-98268186D01*
X127000500Y-98140892D01*
X127000500Y-98009108D01*
X126966392Y-97881814D01*
X126900500Y-97767686D01*
X126807314Y-97674500D01*
X126750250Y-97641554D01*
X126693187Y-97608608D01*
X126629539Y-97591554D01*
X126565892Y-97574500D01*
X126475833Y-97574500D01*
X126408794Y-97554815D01*
X126388152Y-97538181D01*
X124184512Y-95334541D01*
X124184504Y-95334535D01*
X124115995Y-95294982D01*
X124115990Y-95294979D01*
X124090513Y-95288152D01*
X124039562Y-95274500D01*
X124039560Y-95274500D01*
X123408676Y-95274500D01*
X123341637Y-95254815D01*
X123320995Y-95238181D01*
X123257316Y-95174502D01*
X123257314Y-95174500D01*
X123200250Y-95141554D01*
X123143187Y-95108608D01*
X123079539Y-95091554D01*
X123015892Y-95074500D01*
X122884108Y-95074500D01*
X122756812Y-95108608D01*
X122642686Y-95174500D01*
X122642683Y-95174502D01*
X122549502Y-95267683D01*
X122549500Y-95267686D01*
X122483608Y-95381812D01*
X122465135Y-95450755D01*
X122449500Y-95509108D01*
X114675500Y-95509108D01*
X114675500Y-93776742D01*
X114655020Y-93700312D01*
X114655017Y-93700307D01*
X114615464Y-93631798D01*
X114615458Y-93631790D01*
X112892776Y-91909108D01*
X132949500Y-91909108D01*
X132949500Y-92040892D01*
X132955502Y-92063291D01*
X132983608Y-92168187D01*
X133016554Y-92225250D01*
X133049500Y-92282314D01*
X133142686Y-92375500D01*
X133256814Y-92441392D01*
X133384108Y-92475500D01*
X133384110Y-92475500D01*
X133515890Y-92475500D01*
X133515892Y-92475500D01*
X133643186Y-92441392D01*
X133757314Y-92375500D01*
X133850500Y-92282314D01*
X133916392Y-92168186D01*
X133950500Y-92040892D01*
X133950500Y-91909108D01*
X133916392Y-91781814D01*
X133850500Y-91667686D01*
X133757314Y-91574500D01*
X133681982Y-91531007D01*
X133643187Y-91508608D01*
X133579539Y-91491554D01*
X133515892Y-91474500D01*
X133384108Y-91474500D01*
X133256812Y-91508608D01*
X133142686Y-91574500D01*
X133142683Y-91574502D01*
X133049502Y-91667683D01*
X133049500Y-91667686D01*
X132983608Y-91781812D01*
X132950812Y-91904212D01*
X132949500Y-91909108D01*
X112892776Y-91909108D01*
X108323207Y-87339539D01*
X108303194Y-87327985D01*
X108283180Y-87316430D01*
X108283179Y-87316429D01*
X108254691Y-87299981D01*
X108254690Y-87299980D01*
X108245657Y-87297559D01*
X108178259Y-87279500D01*
X108178257Y-87279500D01*
X106397373Y-87279500D01*
X106330334Y-87259815D01*
X106309692Y-87243181D01*
X106262912Y-87196401D01*
X106262910Y-87196399D01*
X106205846Y-87163453D01*
X106148783Y-87130507D01*
X106045358Y-87102795D01*
X106021488Y-87096399D01*
X105889704Y-87096399D01*
X105762408Y-87130507D01*
X105648282Y-87196399D01*
X105648279Y-87196401D01*
X105555098Y-87289582D01*
X105555096Y-87289585D01*
X105489204Y-87403711D01*
X105455096Y-87531007D01*
X83450500Y-87531007D01*
X83450500Y-86134108D01*
X115799500Y-86134108D01*
X115799500Y-86265891D01*
X115833608Y-86393187D01*
X115866554Y-86450250D01*
X115899500Y-86507314D01*
X115992686Y-86600500D01*
X116106814Y-86666392D01*
X116234108Y-86700500D01*
X116234110Y-86700500D01*
X116365890Y-86700500D01*
X116365892Y-86700500D01*
X116493186Y-86666392D01*
X116607314Y-86600500D01*
X116700500Y-86507314D01*
X116766392Y-86393186D01*
X116800500Y-86265892D01*
X116800500Y-86134108D01*
X116766392Y-86006814D01*
X116700500Y-85892686D01*
X116607314Y-85799500D01*
X116550250Y-85766554D01*
X116493187Y-85733608D01*
X116429539Y-85716554D01*
X116365892Y-85699500D01*
X116234108Y-85699500D01*
X116106812Y-85733608D01*
X115992686Y-85799500D01*
X115992683Y-85799502D01*
X115899502Y-85892683D01*
X115899500Y-85892686D01*
X115833608Y-86006812D01*
X115799500Y-86134108D01*
X83450500Y-86134108D01*
X83450500Y-82434108D01*
X96974500Y-82434108D01*
X96974500Y-82565891D01*
X97008608Y-82693187D01*
X97041554Y-82750250D01*
X97074500Y-82807314D01*
X97167686Y-82900500D01*
X97281814Y-82966392D01*
X97409108Y-83000500D01*
X97409110Y-83000500D01*
X97540890Y-83000500D01*
X97540892Y-83000500D01*
X97668186Y-82966392D01*
X97782314Y-82900500D01*
X97875500Y-82807314D01*
X97941392Y-82693186D01*
X97975500Y-82565892D01*
X97975500Y-82434108D01*
X97941392Y-82306814D01*
X97875500Y-82192686D01*
X97782314Y-82099500D01*
X97725250Y-82066554D01*
X97668187Y-82033608D01*
X97604539Y-82016554D01*
X97540892Y-81999500D01*
X97409108Y-81999500D01*
X97281812Y-82033608D01*
X97167686Y-82099500D01*
X97167683Y-82099502D01*
X97074502Y-82192683D01*
X97074500Y-82192686D01*
X97008608Y-82306812D01*
X96974500Y-82434108D01*
X83450500Y-82434108D01*
X83450500Y-77795031D01*
X103725000Y-77795031D01*
X103725000Y-77999666D01*
X103757009Y-78201766D01*
X103820244Y-78396380D01*
X103913141Y-78578699D01*
X103913147Y-78578708D01*
X103945523Y-78623270D01*
X103945524Y-78623271D01*
X104625000Y-77943795D01*
X104625000Y-77950010D01*
X104652259Y-78051743D01*
X104704920Y-78142955D01*
X104779394Y-78217429D01*
X104870606Y-78270090D01*
X104972339Y-78297349D01*
X104978553Y-78297349D01*
X104299076Y-78976823D01*
X104343650Y-79009208D01*
X104525968Y-79102104D01*
X104720582Y-79165339D01*
X104922683Y-79197349D01*
X105127317Y-79197349D01*
X105329417Y-79165339D01*
X105524031Y-79102104D01*
X105706349Y-79009208D01*
X105750921Y-78976823D01*
X105071447Y-78297349D01*
X105077661Y-78297349D01*
X105179394Y-78270090D01*
X105270606Y-78217429D01*
X105345080Y-78142955D01*
X105397741Y-78051743D01*
X105425000Y-77950010D01*
X105425000Y-77943796D01*
X106104474Y-78623270D01*
X106136859Y-78578698D01*
X106229755Y-78396380D01*
X106292990Y-78201766D01*
X106325000Y-77999666D01*
X106325000Y-77795031D01*
X106292990Y-77592931D01*
X106229755Y-77398317D01*
X106136859Y-77215999D01*
X106104474Y-77171426D01*
X106104474Y-77171425D01*
X105425000Y-77850900D01*
X105425000Y-77844688D01*
X105397741Y-77742955D01*
X105345080Y-77651743D01*
X105270606Y-77577269D01*
X105179394Y-77524608D01*
X105077661Y-77497349D01*
X105071446Y-77497349D01*
X105750922Y-76817873D01*
X105750921Y-76817872D01*
X105706359Y-76785496D01*
X105706350Y-76785490D01*
X105524031Y-76692593D01*
X105329417Y-76629358D01*
X105127317Y-76597349D01*
X104922683Y-76597349D01*
X104720582Y-76629358D01*
X104525968Y-76692593D01*
X104343644Y-76785492D01*
X104299077Y-76817872D01*
X104299077Y-76817873D01*
X104978554Y-77497349D01*
X104972339Y-77497349D01*
X104870606Y-77524608D01*
X104779394Y-77577269D01*
X104704920Y-77651743D01*
X104652259Y-77742955D01*
X104625000Y-77844688D01*
X104625000Y-77850902D01*
X103945524Y-77171426D01*
X103945523Y-77171426D01*
X103913143Y-77215993D01*
X103820244Y-77398317D01*
X103757009Y-77592931D01*
X103725000Y-77795031D01*
X83450500Y-77795031D01*
X83450500Y-76559108D01*
X90024500Y-76559108D01*
X90024500Y-76690891D01*
X90058608Y-76818187D01*
X90091554Y-76875250D01*
X90124500Y-76932314D01*
X90217686Y-77025500D01*
X90331814Y-77091392D01*
X90459108Y-77125500D01*
X90459110Y-77125500D01*
X90590890Y-77125500D01*
X90590892Y-77125500D01*
X90718186Y-77091392D01*
X90832314Y-77025500D01*
X90925500Y-76932314D01*
X90991392Y-76818186D01*
X91025500Y-76690892D01*
X91025500Y-76559108D01*
X90991392Y-76431814D01*
X90925500Y-76317686D01*
X90832314Y-76224500D01*
X90775250Y-76191554D01*
X90718187Y-76158608D01*
X90654539Y-76141554D01*
X90590892Y-76124500D01*
X90459108Y-76124500D01*
X90331812Y-76158608D01*
X90217686Y-76224500D01*
X90217683Y-76224502D01*
X90124502Y-76317683D01*
X90124500Y-76317686D01*
X90058608Y-76431812D01*
X90024500Y-76559108D01*
X83450500Y-76559108D01*
X83450500Y-73577596D01*
X104024500Y-73577596D01*
X104024500Y-75217101D01*
X104036131Y-75275578D01*
X104036132Y-75275579D01*
X104080447Y-75341901D01*
X104146769Y-75386216D01*
X104146770Y-75386217D01*
X104205247Y-75397848D01*
X104205250Y-75397849D01*
X104205252Y-75397849D01*
X105844750Y-75397849D01*
X105844751Y-75397848D01*
X105859568Y-75394901D01*
X105903229Y-75386217D01*
X105903229Y-75386216D01*
X105903231Y-75386216D01*
X105969552Y-75341901D01*
X106013867Y-75275580D01*
X106013867Y-75275578D01*
X106013868Y-75275578D01*
X106025499Y-75217101D01*
X106025500Y-75217099D01*
X106025500Y-73577598D01*
X106025499Y-73577596D01*
X106013868Y-73519119D01*
X106013867Y-73519118D01*
X105969552Y-73452796D01*
X105903230Y-73408481D01*
X105903229Y-73408480D01*
X105844752Y-73396849D01*
X105844748Y-73396849D01*
X104205252Y-73396849D01*
X104205247Y-73396849D01*
X104146770Y-73408480D01*
X104146769Y-73408481D01*
X104080447Y-73452796D01*
X104036132Y-73519118D01*
X104036131Y-73519119D01*
X104024500Y-73577596D01*
X83450500Y-73577596D01*
X83450500Y-69914027D01*
X83877199Y-69914027D01*
X83904118Y-70049354D01*
X83904121Y-70049364D01*
X83956921Y-70176836D01*
X83956928Y-70176849D01*
X84033585Y-70291573D01*
X84033588Y-70291577D01*
X84131154Y-70389143D01*
X84131158Y-70389146D01*
X84245882Y-70465803D01*
X84245895Y-70465810D01*
X84373302Y-70518583D01*
X84373372Y-70518612D01*
X84373376Y-70518612D01*
X84373377Y-70518613D01*
X84508704Y-70545532D01*
X84508707Y-70545532D01*
X85346695Y-70545532D01*
X85437741Y-70527421D01*
X85482028Y-70518612D01*
X85609511Y-70465807D01*
X85724242Y-70389146D01*
X85821814Y-70291574D01*
X85898475Y-70176843D01*
X85898488Y-70176813D01*
X85951278Y-70049364D01*
X85951280Y-70049360D01*
X85978200Y-69914025D01*
X85978200Y-69913997D01*
X87677199Y-69913997D01*
X87704118Y-70049324D01*
X87704121Y-70049334D01*
X87756921Y-70176806D01*
X87756928Y-70176819D01*
X87833585Y-70291543D01*
X87833588Y-70291547D01*
X87931154Y-70389113D01*
X87931158Y-70389116D01*
X88045882Y-70465773D01*
X88045895Y-70465780D01*
X88173367Y-70518580D01*
X88173372Y-70518582D01*
X88173376Y-70518582D01*
X88173377Y-70518583D01*
X88308704Y-70545502D01*
X88308707Y-70545502D01*
X89146695Y-70545502D01*
X89237741Y-70527391D01*
X89282028Y-70518582D01*
X89380624Y-70477742D01*
X89409504Y-70465780D01*
X89409504Y-70465779D01*
X89409511Y-70465777D01*
X89524242Y-70389116D01*
X89621814Y-70291544D01*
X89698475Y-70176813D01*
X89751280Y-70049330D01*
X89778200Y-69913995D01*
X89778200Y-69776009D01*
X89778200Y-69776006D01*
X89751281Y-69640679D01*
X89751280Y-69640678D01*
X89751280Y-69640674D01*
X89698490Y-69513227D01*
X89698478Y-69513197D01*
X89698471Y-69513184D01*
X89621815Y-69398462D01*
X89621814Y-69398460D01*
X89621812Y-69398458D01*
X89621809Y-69398454D01*
X89543876Y-69320521D01*
X103515509Y-69320521D01*
X103523497Y-72492514D01*
X103523498Y-72492528D01*
X103526067Y-72524399D01*
X103526069Y-72524418D01*
X103545595Y-72646704D01*
X103565419Y-72707587D01*
X103565420Y-72707591D01*
X103622094Y-72818820D01*
X103639502Y-72842778D01*
X103659888Y-72870836D01*
X103659890Y-72870838D01*
X103659893Y-72870842D01*
X103748153Y-72959102D01*
X103748156Y-72959104D01*
X103748160Y-72959108D01*
X103788195Y-72988196D01*
X103800175Y-72996901D01*
X103911401Y-73053574D01*
X103911407Y-73053576D01*
X103972543Y-73073440D01*
X103972548Y-73073441D01*
X103972551Y-73073442D01*
X104095849Y-73092970D01*
X104127996Y-73095500D01*
X104128004Y-73095500D01*
X107319870Y-73095500D01*
X131920570Y-73103418D01*
X131987603Y-73123124D01*
X132033341Y-73175943D01*
X132044530Y-73227419D01*
X132044481Y-82693186D01*
X132044461Y-86498293D01*
X132045171Y-86507316D01*
X132046987Y-86530414D01*
X132066482Y-86653612D01*
X132066484Y-86653620D01*
X132086331Y-86714743D01*
X132086332Y-86714746D01*
X132086333Y-86714747D01*
X132142979Y-86825990D01*
X132180757Y-86878015D01*
X132224835Y-86922115D01*
X132269001Y-86966304D01*
X132269004Y-86966306D01*
X132269006Y-86966308D01*
X132321011Y-87004112D01*
X132432225Y-87060814D01*
X132493368Y-87080698D01*
X132616661Y-87100258D01*
X132616674Y-87100259D01*
X132648780Y-87102794D01*
X132648784Y-87102794D01*
X132648808Y-87102796D01*
X137977443Y-87104144D01*
X138003033Y-87104151D01*
X138003033Y-87104150D01*
X138003052Y-87104151D01*
X138035374Y-87101601D01*
X138158660Y-87081998D01*
X138197198Y-87069450D01*
X138219788Y-87062096D01*
X138219790Y-87062094D01*
X138219796Y-87062093D01*
X138330990Y-87005352D01*
X138382982Y-86967529D01*
X138471200Y-86879204D01*
X138508961Y-86827166D01*
X138565567Y-86715903D01*
X138585397Y-86654744D01*
X138585575Y-86653620D01*
X138593955Y-86600497D01*
X138604851Y-86531434D01*
X138607362Y-86499285D01*
X138585741Y-50808631D01*
X138583201Y-50776548D01*
X138563674Y-50653495D01*
X138543816Y-50592406D01*
X138515479Y-50536792D01*
X138487143Y-50481179D01*
X138478438Y-50469199D01*
X138449350Y-50429164D01*
X138449346Y-50429160D01*
X138449344Y-50429157D01*
X138361084Y-50340897D01*
X138361080Y-50340894D01*
X138361078Y-50340892D01*
X138333020Y-50320506D01*
X138309062Y-50303098D01*
X138197836Y-50246425D01*
X138197830Y-50246423D01*
X138136694Y-50226559D01*
X138136685Y-50226557D01*
X138013401Y-50207031D01*
X138013379Y-50207029D01*
X137981247Y-50204500D01*
X137981242Y-50204500D01*
X132519000Y-50204500D01*
X132518993Y-50204500D01*
X132486761Y-50207045D01*
X132486748Y-50207046D01*
X132363455Y-50226642D01*
X132302322Y-50246542D01*
X132302320Y-50246543D01*
X132191122Y-50303277D01*
X132191116Y-50303281D01*
X132139128Y-50341096D01*
X132050903Y-50429416D01*
X132013140Y-50481451D01*
X131956526Y-50592709D01*
X131956526Y-50592710D01*
X131936691Y-50653869D01*
X131917329Y-50776548D01*
X131917230Y-50777174D01*
X131917228Y-50777187D01*
X131914716Y-50809316D01*
X131914716Y-50809327D01*
X131917443Y-55856645D01*
X131917454Y-55876775D01*
X131922936Y-66025689D01*
X131924322Y-68590433D01*
X131904674Y-68657483D01*
X131851894Y-68703267D01*
X131800322Y-68714500D01*
X104119803Y-68714500D01*
X104118910Y-68714500D01*
X104118788Y-68714501D01*
X104086348Y-68717112D01*
X104086332Y-68717114D01*
X103963096Y-68736951D01*
X103902004Y-68756971D01*
X103790911Y-68813928D01*
X103738990Y-68851851D01*
X103650939Y-68940348D01*
X103613287Y-68992447D01*
X103613286Y-68992448D01*
X103556891Y-69103821D01*
X103556889Y-69103825D01*
X103537177Y-69165017D01*
X103537175Y-69165026D01*
X103517959Y-69288361D01*
X103517957Y-69288373D01*
X103515509Y-69320521D01*
X89543876Y-69320521D01*
X89524245Y-69300890D01*
X89524241Y-69300887D01*
X89409517Y-69224230D01*
X89409504Y-69224223D01*
X89282032Y-69171423D01*
X89282022Y-69171420D01*
X89146695Y-69144502D01*
X89146693Y-69144502D01*
X88308707Y-69144502D01*
X88308705Y-69144502D01*
X88173377Y-69171420D01*
X88173367Y-69171423D01*
X88045895Y-69224223D01*
X88045882Y-69224230D01*
X87931158Y-69300887D01*
X87931154Y-69300890D01*
X87833588Y-69398456D01*
X87833585Y-69398460D01*
X87756928Y-69513184D01*
X87756921Y-69513197D01*
X87704121Y-69640669D01*
X87704118Y-69640679D01*
X87677200Y-69776006D01*
X87677200Y-69776009D01*
X87677200Y-69913995D01*
X87677200Y-69913997D01*
X87677199Y-69913997D01*
X85978200Y-69913997D01*
X85978200Y-69776039D01*
X85978200Y-69776036D01*
X85951281Y-69640709D01*
X85951280Y-69640708D01*
X85951280Y-69640704D01*
X85951266Y-69640669D01*
X85898478Y-69513227D01*
X85898471Y-69513214D01*
X85821814Y-69398490D01*
X85821811Y-69398486D01*
X85724245Y-69300920D01*
X85724241Y-69300917D01*
X85609517Y-69224260D01*
X85609504Y-69224253D01*
X85482032Y-69171453D01*
X85482022Y-69171450D01*
X85346695Y-69144532D01*
X85346693Y-69144532D01*
X84508707Y-69144532D01*
X84508705Y-69144532D01*
X84373377Y-69171450D01*
X84373367Y-69171453D01*
X84245895Y-69224253D01*
X84245882Y-69224260D01*
X84131158Y-69300917D01*
X84131154Y-69300920D01*
X84033588Y-69398486D01*
X84033585Y-69398490D01*
X83956928Y-69513214D01*
X83956921Y-69513227D01*
X83904121Y-69640699D01*
X83904118Y-69640709D01*
X83877200Y-69776036D01*
X83877200Y-69776039D01*
X83877200Y-69914025D01*
X83877200Y-69914027D01*
X83877199Y-69914027D01*
X83450500Y-69914027D01*
X83450500Y-64952047D01*
X118401300Y-64952047D01*
X118401300Y-66667952D01*
X118412931Y-66726429D01*
X118412932Y-66726430D01*
X118457247Y-66792752D01*
X118523569Y-66837067D01*
X118523570Y-66837068D01*
X118582047Y-66848699D01*
X118582050Y-66848700D01*
X118582052Y-66848700D01*
X120297950Y-66848700D01*
X120297951Y-66848699D01*
X120312768Y-66845752D01*
X120356429Y-66837068D01*
X120356429Y-66837067D01*
X120356431Y-66837067D01*
X120422752Y-66792752D01*
X120467067Y-66726431D01*
X120467067Y-66726429D01*
X120467068Y-66726429D01*
X120478699Y-66667952D01*
X120478700Y-66667950D01*
X120478700Y-65707692D01*
X120941300Y-65707692D01*
X120941300Y-65912307D01*
X120981214Y-66112970D01*
X120981216Y-66112978D01*
X121059514Y-66302005D01*
X121059519Y-66302015D01*
X121173188Y-66472132D01*
X121173191Y-66472136D01*
X121317863Y-66616808D01*
X121317867Y-66616811D01*
X121487984Y-66730480D01*
X121487988Y-66730482D01*
X121487991Y-66730484D01*
X121677022Y-66808784D01*
X121819213Y-66837067D01*
X121877692Y-66848699D01*
X121877696Y-66848700D01*
X121877697Y-66848700D01*
X122082304Y-66848700D01*
X122082305Y-66848699D01*
X122282978Y-66808784D01*
X122472009Y-66730484D01*
X122642133Y-66616811D01*
X122786811Y-66472133D01*
X122900484Y-66302009D01*
X122978784Y-66112978D01*
X123018700Y-65912303D01*
X123018700Y-65707697D01*
X123018699Y-65707692D01*
X123481300Y-65707692D01*
X123481300Y-65912307D01*
X123521214Y-66112970D01*
X123521216Y-66112978D01*
X123599514Y-66302005D01*
X123599519Y-66302015D01*
X123713188Y-66472132D01*
X123713191Y-66472136D01*
X123857863Y-66616808D01*
X123857867Y-66616811D01*
X124027984Y-66730480D01*
X124027988Y-66730482D01*
X124027991Y-66730484D01*
X124217022Y-66808784D01*
X124359213Y-66837067D01*
X124417692Y-66848699D01*
X124417696Y-66848700D01*
X124417697Y-66848700D01*
X124622304Y-66848700D01*
X124622305Y-66848699D01*
X124822978Y-66808784D01*
X125012009Y-66730484D01*
X125182133Y-66616811D01*
X125326811Y-66472133D01*
X125440484Y-66302009D01*
X125518784Y-66112978D01*
X125518786Y-66112970D01*
X125520544Y-66108727D01*
X125564385Y-66054323D01*
X125630679Y-66032258D01*
X125698378Y-66049537D01*
X125745989Y-66100674D01*
X125752653Y-66118921D01*
X125753245Y-66118729D01*
X125819839Y-66323688D01*
X125915469Y-66511370D01*
X125953176Y-66563268D01*
X125953177Y-66563269D01*
X126529026Y-65987419D01*
X126539281Y-66025689D01*
X126612849Y-66153111D01*
X126716889Y-66257151D01*
X126844311Y-66330719D01*
X126882580Y-66340973D01*
X126306729Y-66916822D01*
X126306730Y-66916823D01*
X126358624Y-66954526D01*
X126358637Y-66954534D01*
X126546311Y-67050160D01*
X126746635Y-67115248D01*
X126954682Y-67148200D01*
X127165318Y-67148200D01*
X127373364Y-67115248D01*
X127573688Y-67050160D01*
X127761370Y-66954530D01*
X127813268Y-66916823D01*
X127813268Y-66916822D01*
X127237419Y-66340973D01*
X127275689Y-66330719D01*
X127403111Y-66257151D01*
X127507151Y-66153111D01*
X127580719Y-66025689D01*
X127590973Y-65987419D01*
X128166822Y-66563268D01*
X128166823Y-66563268D01*
X128204530Y-66511370D01*
X128300160Y-66323688D01*
X128365248Y-66123364D01*
X128398200Y-65915318D01*
X128398200Y-65704681D01*
X128365248Y-65496635D01*
X128300160Y-65296311D01*
X128204534Y-65108637D01*
X128204526Y-65108624D01*
X128166823Y-65056730D01*
X128166822Y-65056729D01*
X127590972Y-65632579D01*
X127580719Y-65594311D01*
X127507151Y-65466889D01*
X127403111Y-65362849D01*
X127275689Y-65289281D01*
X127237419Y-65279026D01*
X127813269Y-64703177D01*
X127813268Y-64703176D01*
X127761370Y-64665469D01*
X127573688Y-64569839D01*
X127373364Y-64504751D01*
X127165318Y-64471800D01*
X126954682Y-64471800D01*
X126746635Y-64504751D01*
X126546311Y-64569839D01*
X126358633Y-64665467D01*
X126306730Y-64703176D01*
X126882580Y-65279026D01*
X126844311Y-65289281D01*
X126716889Y-65362849D01*
X126612849Y-65466889D01*
X126539281Y-65594311D01*
X126529026Y-65632580D01*
X125953176Y-65056730D01*
X125915467Y-65108633D01*
X125819839Y-65296311D01*
X125753245Y-65501271D01*
X125751204Y-65500608D01*
X125720805Y-65553439D01*
X125658749Y-65585545D01*
X125589186Y-65579004D01*
X125534202Y-65535894D01*
X125520544Y-65511273D01*
X125518784Y-65507025D01*
X125518784Y-65507022D01*
X125440484Y-65317991D01*
X125440483Y-65317990D01*
X125440480Y-65317984D01*
X125326811Y-65147867D01*
X125326808Y-65147863D01*
X125182136Y-65003191D01*
X125182132Y-65003188D01*
X125012015Y-64889519D01*
X125012006Y-64889514D01*
X124952813Y-64864996D01*
X124822978Y-64811216D01*
X124822970Y-64811214D01*
X124622307Y-64771300D01*
X124622303Y-64771300D01*
X124417697Y-64771300D01*
X124417692Y-64771300D01*
X124217029Y-64811214D01*
X124217021Y-64811216D01*
X124027994Y-64889514D01*
X124027984Y-64889519D01*
X123857867Y-65003188D01*
X123857863Y-65003191D01*
X123713191Y-65147863D01*
X123713188Y-65147867D01*
X123599519Y-65317984D01*
X123599514Y-65317994D01*
X123521216Y-65507021D01*
X123521214Y-65507029D01*
X123481300Y-65707692D01*
X123018699Y-65707692D01*
X122978784Y-65507022D01*
X122900484Y-65317991D01*
X122900482Y-65317988D01*
X122900480Y-65317984D01*
X122786811Y-65147867D01*
X122786808Y-65147863D01*
X122642136Y-65003191D01*
X122642132Y-65003188D01*
X122472015Y-64889519D01*
X122472005Y-64889514D01*
X122282978Y-64811216D01*
X122282970Y-64811214D01*
X122082307Y-64771300D01*
X122082303Y-64771300D01*
X121877697Y-64771300D01*
X121877692Y-64771300D01*
X121677029Y-64811214D01*
X121677021Y-64811216D01*
X121487994Y-64889514D01*
X121487984Y-64889519D01*
X121317867Y-65003188D01*
X121317863Y-65003191D01*
X121173191Y-65147863D01*
X121173188Y-65147867D01*
X121059519Y-65317984D01*
X121059514Y-65317994D01*
X120981216Y-65507021D01*
X120981214Y-65507029D01*
X120941300Y-65707692D01*
X120478700Y-65707692D01*
X120478700Y-64952049D01*
X120478699Y-64952047D01*
X120467068Y-64893570D01*
X120467067Y-64893569D01*
X120422752Y-64827247D01*
X120356430Y-64782932D01*
X120356429Y-64782931D01*
X120297952Y-64771300D01*
X120297948Y-64771300D01*
X118582052Y-64771300D01*
X118582047Y-64771300D01*
X118523570Y-64782931D01*
X118523569Y-64782932D01*
X118457247Y-64827247D01*
X118412932Y-64893569D01*
X118412931Y-64893570D01*
X118401300Y-64952047D01*
X83450500Y-64952047D01*
X83450500Y-61273963D01*
X83877199Y-61273963D01*
X83904118Y-61409290D01*
X83904121Y-61409300D01*
X83956921Y-61536772D01*
X83956928Y-61536785D01*
X84033585Y-61651509D01*
X84033588Y-61651513D01*
X84131154Y-61749079D01*
X84131158Y-61749082D01*
X84245882Y-61825739D01*
X84245895Y-61825746D01*
X84373367Y-61878546D01*
X84373372Y-61878548D01*
X84373376Y-61878548D01*
X84373377Y-61878549D01*
X84508704Y-61905468D01*
X84508707Y-61905468D01*
X85346695Y-61905468D01*
X85437741Y-61887357D01*
X85482028Y-61878548D01*
X85580624Y-61837708D01*
X85609504Y-61825746D01*
X85609504Y-61825745D01*
X85609511Y-61825743D01*
X85724242Y-61749082D01*
X85821814Y-61651510D01*
X85898475Y-61536779D01*
X85951280Y-61409296D01*
X85978194Y-61273993D01*
X87677199Y-61273993D01*
X87704118Y-61409320D01*
X87704121Y-61409330D01*
X87756921Y-61536802D01*
X87756928Y-61536815D01*
X87833585Y-61651539D01*
X87833588Y-61651543D01*
X87931154Y-61749109D01*
X87931158Y-61749112D01*
X88045882Y-61825769D01*
X88045895Y-61825776D01*
X88173302Y-61878549D01*
X88173372Y-61878578D01*
X88173376Y-61878578D01*
X88173377Y-61878579D01*
X88308704Y-61905498D01*
X88308707Y-61905498D01*
X89146695Y-61905498D01*
X89237741Y-61887387D01*
X89282028Y-61878578D01*
X89409511Y-61825773D01*
X89524242Y-61749112D01*
X89621814Y-61651540D01*
X89698475Y-61536809D01*
X89698488Y-61536779D01*
X89751278Y-61409330D01*
X89751280Y-61409326D01*
X89778200Y-61273991D01*
X89778200Y-61136005D01*
X89778200Y-61136002D01*
X89751281Y-61000675D01*
X89751280Y-61000674D01*
X89751280Y-61000670D01*
X89751266Y-61000635D01*
X89698478Y-60873193D01*
X89698471Y-60873180D01*
X89621814Y-60758456D01*
X89621811Y-60758452D01*
X89524245Y-60660886D01*
X89524241Y-60660883D01*
X89409517Y-60584226D01*
X89409504Y-60584219D01*
X89282032Y-60531419D01*
X89282022Y-60531416D01*
X89146695Y-60504498D01*
X89146693Y-60504498D01*
X88308707Y-60504498D01*
X88308705Y-60504498D01*
X88173377Y-60531416D01*
X88173367Y-60531419D01*
X88045895Y-60584219D01*
X88045882Y-60584226D01*
X87931158Y-60660883D01*
X87931154Y-60660886D01*
X87833588Y-60758452D01*
X87833585Y-60758456D01*
X87756928Y-60873180D01*
X87756921Y-60873193D01*
X87704121Y-61000665D01*
X87704118Y-61000675D01*
X87677200Y-61136002D01*
X87677200Y-61136005D01*
X87677200Y-61273991D01*
X87677200Y-61273993D01*
X87677199Y-61273993D01*
X85978194Y-61273993D01*
X85978200Y-61273961D01*
X85978200Y-61135975D01*
X85978200Y-61135972D01*
X85951281Y-61000645D01*
X85951280Y-61000644D01*
X85951280Y-61000640D01*
X85898490Y-60873193D01*
X85898478Y-60873163D01*
X85898471Y-60873150D01*
X85821814Y-60758426D01*
X85821811Y-60758422D01*
X85724245Y-60660856D01*
X85724241Y-60660853D01*
X85609517Y-60584196D01*
X85609504Y-60584189D01*
X85482032Y-60531389D01*
X85482022Y-60531386D01*
X85346695Y-60504468D01*
X85346693Y-60504468D01*
X84508707Y-60504468D01*
X84508705Y-60504468D01*
X84373377Y-60531386D01*
X84373367Y-60531389D01*
X84245895Y-60584189D01*
X84245882Y-60584196D01*
X84131158Y-60660853D01*
X84131154Y-60660856D01*
X84033588Y-60758422D01*
X84033585Y-60758426D01*
X83956928Y-60873150D01*
X83956921Y-60873163D01*
X83904121Y-61000635D01*
X83904118Y-61000645D01*
X83877200Y-61135972D01*
X83877200Y-61135975D01*
X83877200Y-61273961D01*
X83877200Y-61273963D01*
X83877199Y-61273963D01*
X83450500Y-61273963D01*
X83450500Y-58224108D01*
X99359500Y-58224108D01*
X99359500Y-58355891D01*
X99393608Y-58483187D01*
X99414562Y-58519480D01*
X99459500Y-58597314D01*
X99552686Y-58690500D01*
X99666814Y-58756392D01*
X99794108Y-58790500D01*
X99794110Y-58790500D01*
X99925890Y-58790500D01*
X99925892Y-58790500D01*
X100053186Y-58756392D01*
X100167314Y-58690500D01*
X100260500Y-58597314D01*
X100326392Y-58483186D01*
X100360500Y-58355892D01*
X100360500Y-58224108D01*
X101309500Y-58224108D01*
X101309500Y-58355891D01*
X101343608Y-58483187D01*
X101364562Y-58519480D01*
X101409500Y-58597314D01*
X101502686Y-58690500D01*
X101616814Y-58756392D01*
X101744108Y-58790500D01*
X101744110Y-58790500D01*
X101875890Y-58790500D01*
X101875892Y-58790500D01*
X102003186Y-58756392D01*
X102117314Y-58690500D01*
X102210500Y-58597314D01*
X102276392Y-58483186D01*
X102310500Y-58355892D01*
X102310500Y-58224108D01*
X103259500Y-58224108D01*
X103259500Y-58355891D01*
X103293608Y-58483187D01*
X103314562Y-58519480D01*
X103359500Y-58597314D01*
X103452686Y-58690500D01*
X103566814Y-58756392D01*
X103694108Y-58790500D01*
X103694110Y-58790500D01*
X103825890Y-58790500D01*
X103825892Y-58790500D01*
X103953186Y-58756392D01*
X104067314Y-58690500D01*
X104160500Y-58597314D01*
X104226392Y-58483186D01*
X104260500Y-58355892D01*
X104260500Y-58224108D01*
X104230916Y-58113697D01*
X104230916Y-58113696D01*
X104226392Y-58096815D01*
X104226392Y-58096814D01*
X104221125Y-58087692D01*
X118401300Y-58087692D01*
X118401300Y-58292307D01*
X118441214Y-58492970D01*
X118441216Y-58492978D01*
X118519514Y-58682005D01*
X118519519Y-58682015D01*
X118633188Y-58852132D01*
X118633191Y-58852136D01*
X118777863Y-58996808D01*
X118777867Y-58996811D01*
X118947984Y-59110480D01*
X118947988Y-59110482D01*
X118947991Y-59110484D01*
X119137022Y-59188784D01*
X119337692Y-59228699D01*
X119337696Y-59228700D01*
X119337697Y-59228700D01*
X119542304Y-59228700D01*
X119542305Y-59228699D01*
X119742978Y-59188784D01*
X119932009Y-59110484D01*
X120102133Y-58996811D01*
X120246811Y-58852133D01*
X120360484Y-58682009D01*
X120438784Y-58492978D01*
X120478700Y-58292303D01*
X120478700Y-58087697D01*
X120478699Y-58087692D01*
X120941300Y-58087692D01*
X120941300Y-58292307D01*
X120981214Y-58492970D01*
X120981216Y-58492978D01*
X121059514Y-58682005D01*
X121059519Y-58682015D01*
X121173188Y-58852132D01*
X121173191Y-58852136D01*
X121317863Y-58996808D01*
X121317867Y-58996811D01*
X121487984Y-59110480D01*
X121487988Y-59110482D01*
X121487991Y-59110484D01*
X121677022Y-59188784D01*
X121877692Y-59228699D01*
X121877696Y-59228700D01*
X121877697Y-59228700D01*
X122082304Y-59228700D01*
X122082305Y-59228699D01*
X122282978Y-59188784D01*
X122472009Y-59110484D01*
X122642133Y-58996811D01*
X122786811Y-58852133D01*
X122900484Y-58682009D01*
X122978784Y-58492978D01*
X123018700Y-58292303D01*
X123018700Y-58087697D01*
X123018699Y-58087692D01*
X123481300Y-58087692D01*
X123481300Y-58292307D01*
X123521214Y-58492970D01*
X123521216Y-58492978D01*
X123599514Y-58682005D01*
X123599519Y-58682015D01*
X123713188Y-58852132D01*
X123713191Y-58852136D01*
X123857863Y-58996808D01*
X123857867Y-58996811D01*
X124027984Y-59110480D01*
X124027988Y-59110482D01*
X124027991Y-59110484D01*
X124217022Y-59188784D01*
X124417692Y-59228699D01*
X124417696Y-59228700D01*
X124417697Y-59228700D01*
X124622304Y-59228700D01*
X124622305Y-59228699D01*
X124822978Y-59188784D01*
X125012009Y-59110484D01*
X125182133Y-58996811D01*
X125326811Y-58852133D01*
X125440484Y-58682009D01*
X125518784Y-58492978D01*
X125558700Y-58292303D01*
X125558700Y-58087697D01*
X125518784Y-57887022D01*
X125440484Y-57697991D01*
X125440482Y-57697988D01*
X125440480Y-57697984D01*
X125326811Y-57527867D01*
X125326808Y-57527863D01*
X125182136Y-57383191D01*
X125182132Y-57383188D01*
X125012015Y-57269519D01*
X125012005Y-57269514D01*
X124822978Y-57191216D01*
X124822970Y-57191214D01*
X124622307Y-57151300D01*
X124622303Y-57151300D01*
X124417697Y-57151300D01*
X124417692Y-57151300D01*
X124217029Y-57191214D01*
X124217021Y-57191216D01*
X124027994Y-57269514D01*
X124027984Y-57269519D01*
X123857867Y-57383188D01*
X123857863Y-57383191D01*
X123713191Y-57527863D01*
X123713188Y-57527867D01*
X123599519Y-57697984D01*
X123599514Y-57697994D01*
X123521216Y-57887021D01*
X123521214Y-57887029D01*
X123481300Y-58087692D01*
X123018699Y-58087692D01*
X122978784Y-57887022D01*
X122900484Y-57697991D01*
X122900482Y-57697988D01*
X122900480Y-57697984D01*
X122786811Y-57527867D01*
X122786808Y-57527863D01*
X122642136Y-57383191D01*
X122642132Y-57383188D01*
X122472015Y-57269519D01*
X122472005Y-57269514D01*
X122282978Y-57191216D01*
X122282970Y-57191214D01*
X122082307Y-57151300D01*
X122082303Y-57151300D01*
X121877697Y-57151300D01*
X121877692Y-57151300D01*
X121677029Y-57191214D01*
X121677021Y-57191216D01*
X121487994Y-57269514D01*
X121487984Y-57269519D01*
X121317867Y-57383188D01*
X121317863Y-57383191D01*
X121173191Y-57527863D01*
X121173188Y-57527867D01*
X121059519Y-57697984D01*
X121059514Y-57697994D01*
X120981216Y-57887021D01*
X120981214Y-57887029D01*
X120941300Y-58087692D01*
X120478699Y-58087692D01*
X120438784Y-57887022D01*
X120360484Y-57697991D01*
X120360482Y-57697988D01*
X120360480Y-57697984D01*
X120246811Y-57527867D01*
X120246808Y-57527863D01*
X120102136Y-57383191D01*
X120102132Y-57383188D01*
X119932015Y-57269519D01*
X119932005Y-57269514D01*
X119742978Y-57191216D01*
X119742970Y-57191214D01*
X119542307Y-57151300D01*
X119542303Y-57151300D01*
X119337697Y-57151300D01*
X119337692Y-57151300D01*
X119137029Y-57191214D01*
X119137021Y-57191216D01*
X118947994Y-57269514D01*
X118947984Y-57269519D01*
X118777867Y-57383188D01*
X118777863Y-57383191D01*
X118633191Y-57527863D01*
X118633188Y-57527867D01*
X118519519Y-57697984D01*
X118519514Y-57697994D01*
X118441216Y-57887021D01*
X118441214Y-57887029D01*
X118401300Y-58087692D01*
X104221125Y-58087692D01*
X104160500Y-57982686D01*
X104067314Y-57889500D01*
X103991125Y-57845512D01*
X103953187Y-57823608D01*
X103889539Y-57806554D01*
X103825892Y-57789500D01*
X103694108Y-57789500D01*
X103566812Y-57823608D01*
X103452686Y-57889500D01*
X103452683Y-57889502D01*
X103359502Y-57982683D01*
X103359500Y-57982686D01*
X103293608Y-58096812D01*
X103259500Y-58224108D01*
X102310500Y-58224108D01*
X102276392Y-58096814D01*
X102210500Y-57982686D01*
X102117314Y-57889500D01*
X102041125Y-57845512D01*
X102003187Y-57823608D01*
X101939539Y-57806554D01*
X101875892Y-57789500D01*
X101744108Y-57789500D01*
X101616812Y-57823608D01*
X101502686Y-57889500D01*
X101502683Y-57889502D01*
X101409502Y-57982683D01*
X101409500Y-57982686D01*
X101343608Y-58096812D01*
X101309500Y-58224108D01*
X100360500Y-58224108D01*
X100326392Y-58096814D01*
X100260500Y-57982686D01*
X100167314Y-57889500D01*
X100091125Y-57845512D01*
X100053187Y-57823608D01*
X99989539Y-57806554D01*
X99925892Y-57789500D01*
X99794108Y-57789500D01*
X99666812Y-57823608D01*
X99552686Y-57889500D01*
X99552683Y-57889502D01*
X99459502Y-57982683D01*
X99459500Y-57982686D01*
X99393608Y-58096812D01*
X99359500Y-58224108D01*
X83450500Y-58224108D01*
X83450500Y-56734108D01*
X99359500Y-56734108D01*
X99359500Y-56865891D01*
X99393608Y-56993187D01*
X99426554Y-57050250D01*
X99459500Y-57107314D01*
X99552686Y-57200500D01*
X99666814Y-57266392D01*
X99794108Y-57300500D01*
X99794110Y-57300500D01*
X99925890Y-57300500D01*
X99925892Y-57300500D01*
X100053186Y-57266392D01*
X100167314Y-57200500D01*
X100260500Y-57107314D01*
X100326392Y-56993186D01*
X100360500Y-56865892D01*
X100360500Y-56734108D01*
X101309500Y-56734108D01*
X101309500Y-56865891D01*
X101343608Y-56993187D01*
X101376554Y-57050250D01*
X101409500Y-57107314D01*
X101502686Y-57200500D01*
X101616814Y-57266392D01*
X101744108Y-57300500D01*
X101744110Y-57300500D01*
X101875890Y-57300500D01*
X101875892Y-57300500D01*
X102003186Y-57266392D01*
X102117314Y-57200500D01*
X102210500Y-57107314D01*
X102276392Y-56993186D01*
X102310500Y-56865892D01*
X102310500Y-56734108D01*
X103259500Y-56734108D01*
X103259500Y-56865891D01*
X103293608Y-56993187D01*
X103326554Y-57050250D01*
X103359500Y-57107314D01*
X103452686Y-57200500D01*
X103566814Y-57266392D01*
X103694108Y-57300500D01*
X103694110Y-57300500D01*
X103825890Y-57300500D01*
X103825892Y-57300500D01*
X103953186Y-57266392D01*
X104067314Y-57200500D01*
X104160500Y-57107314D01*
X104226392Y-56993186D01*
X104260500Y-56865892D01*
X104260500Y-56734108D01*
X104226392Y-56606814D01*
X104160500Y-56492686D01*
X104067314Y-56399500D01*
X103992034Y-56356037D01*
X103953187Y-56333608D01*
X103889539Y-56316554D01*
X103825892Y-56299500D01*
X103694108Y-56299500D01*
X103566812Y-56333608D01*
X103452686Y-56399500D01*
X103452683Y-56399502D01*
X103359502Y-56492683D01*
X103359500Y-56492686D01*
X103293608Y-56606812D01*
X103259500Y-56734108D01*
X102310500Y-56734108D01*
X102276392Y-56606814D01*
X102210500Y-56492686D01*
X102117314Y-56399500D01*
X102042034Y-56356037D01*
X102003187Y-56333608D01*
X101939539Y-56316554D01*
X101875892Y-56299500D01*
X101744108Y-56299500D01*
X101616812Y-56333608D01*
X101502686Y-56399500D01*
X101502683Y-56399502D01*
X101409502Y-56492683D01*
X101409500Y-56492686D01*
X101343608Y-56606812D01*
X101309500Y-56734108D01*
X100360500Y-56734108D01*
X100326392Y-56606814D01*
X100260500Y-56492686D01*
X100167314Y-56399500D01*
X100092034Y-56356037D01*
X100053187Y-56333608D01*
X99989539Y-56316554D01*
X99925892Y-56299500D01*
X99794108Y-56299500D01*
X99666812Y-56333608D01*
X99552686Y-56399500D01*
X99552683Y-56399502D01*
X99459502Y-56492683D01*
X99459500Y-56492686D01*
X99393608Y-56606812D01*
X99359500Y-56734108D01*
X83450500Y-56734108D01*
X83450500Y-52297682D01*
X94840151Y-52297682D01*
X94840151Y-52502317D01*
X94872160Y-52704417D01*
X94935395Y-52899031D01*
X95028292Y-53081350D01*
X95028298Y-53081359D01*
X95060674Y-53125921D01*
X95060675Y-53125922D01*
X95740151Y-52446446D01*
X95740151Y-52452661D01*
X95767410Y-52554394D01*
X95820071Y-52645606D01*
X95894545Y-52720080D01*
X95985757Y-52772741D01*
X96087490Y-52800000D01*
X96093704Y-52800000D01*
X95414227Y-53479474D01*
X95458801Y-53511859D01*
X95641119Y-53604755D01*
X95835733Y-53667990D01*
X96037834Y-53700000D01*
X96242468Y-53700000D01*
X96444568Y-53667990D01*
X96639182Y-53604755D01*
X96821500Y-53511859D01*
X96866072Y-53479474D01*
X96820706Y-53434108D01*
X113699500Y-53434108D01*
X113699500Y-53565891D01*
X113733608Y-53693187D01*
X113758397Y-53736122D01*
X113799500Y-53807314D01*
X113892686Y-53900500D01*
X113991521Y-53957563D01*
X114001425Y-53963281D01*
X114006814Y-53966392D01*
X114134108Y-54000500D01*
X114134110Y-54000500D01*
X114265890Y-54000500D01*
X114265892Y-54000500D01*
X114393186Y-53966392D01*
X114393194Y-53966387D01*
X114400696Y-53963281D01*
X114401249Y-53964618D01*
X114453937Y-53950500D01*
X117262035Y-53950500D01*
X117329074Y-53970185D01*
X117349716Y-53986819D01*
X119223386Y-55860489D01*
X119326113Y-55919799D01*
X119350321Y-55926284D01*
X119350324Y-55926286D01*
X119350325Y-55926286D01*
X119380447Y-55934357D01*
X119440691Y-55950500D01*
X124132035Y-55950500D01*
X124199074Y-55970185D01*
X124219716Y-55986819D01*
X126024088Y-57791191D01*
X126057573Y-57852514D01*
X126058025Y-57903062D01*
X126021300Y-58087698D01*
X126021300Y-58292307D01*
X126061214Y-58492970D01*
X126061216Y-58492978D01*
X126139514Y-58682005D01*
X126139519Y-58682015D01*
X126253188Y-58852132D01*
X126253191Y-58852136D01*
X126397863Y-58996808D01*
X126397867Y-58996811D01*
X126567984Y-59110480D01*
X126567988Y-59110482D01*
X126567991Y-59110484D01*
X126757022Y-59188784D01*
X126957692Y-59228699D01*
X126957696Y-59228700D01*
X126957697Y-59228700D01*
X127162304Y-59228700D01*
X127162305Y-59228699D01*
X127362978Y-59188784D01*
X127552009Y-59110484D01*
X127722133Y-58996811D01*
X127798001Y-58920943D01*
X129649500Y-58920943D01*
X129649500Y-59079057D01*
X129689597Y-59228699D01*
X129690423Y-59231783D01*
X129690426Y-59231790D01*
X129769475Y-59368709D01*
X129769479Y-59368714D01*
X129769480Y-59368716D01*
X129881284Y-59480520D01*
X129881286Y-59480521D01*
X129881290Y-59480524D01*
X130018209Y-59559573D01*
X130018216Y-59559577D01*
X130170943Y-59600500D01*
X130170945Y-59600500D01*
X130329055Y-59600500D01*
X130329057Y-59600500D01*
X130481784Y-59559577D01*
X130618716Y-59480520D01*
X130730520Y-59368716D01*
X130809577Y-59231784D01*
X130850500Y-59079057D01*
X130850500Y-58920943D01*
X130809577Y-58768216D01*
X130809573Y-58768209D01*
X130730524Y-58631290D01*
X130730518Y-58631282D01*
X130618717Y-58519481D01*
X130618709Y-58519475D01*
X130481790Y-58440426D01*
X130481786Y-58440424D01*
X130481784Y-58440423D01*
X130329057Y-58399500D01*
X130170943Y-58399500D01*
X130018216Y-58440423D01*
X130018209Y-58440426D01*
X129881290Y-58519475D01*
X129881282Y-58519481D01*
X129769481Y-58631282D01*
X129769475Y-58631290D01*
X129690426Y-58768209D01*
X129690423Y-58768216D01*
X129649500Y-58920943D01*
X127798001Y-58920943D01*
X127866811Y-58852133D01*
X127866839Y-58852090D01*
X127872297Y-58843924D01*
X127980480Y-58682015D01*
X127980480Y-58682014D01*
X127980484Y-58682009D01*
X128058784Y-58492978D01*
X128098700Y-58292303D01*
X128098700Y-58087697D01*
X128058784Y-57887022D01*
X127980484Y-57697991D01*
X127980482Y-57697988D01*
X127980480Y-57697984D01*
X127866811Y-57527867D01*
X127866808Y-57527863D01*
X127722136Y-57383191D01*
X127722132Y-57383188D01*
X127552015Y-57269519D01*
X127552005Y-57269514D01*
X127362978Y-57191216D01*
X127362970Y-57191214D01*
X127162307Y-57151300D01*
X127162303Y-57151300D01*
X126957697Y-57151300D01*
X126943681Y-57154088D01*
X126773062Y-57188025D01*
X126703471Y-57181796D01*
X126661191Y-57154088D01*
X124646616Y-55139513D01*
X124646614Y-55139511D01*
X124595250Y-55109856D01*
X124543888Y-55080201D01*
X124531780Y-55076957D01*
X124519673Y-55073713D01*
X124519670Y-55073712D01*
X124481478Y-55063478D01*
X124429309Y-55049500D01*
X124429308Y-55049500D01*
X119737965Y-55049500D01*
X119670926Y-55029815D01*
X119650284Y-55013181D01*
X117776616Y-53139513D01*
X117776614Y-53139511D01*
X117707314Y-53099500D01*
X117673888Y-53080201D01*
X117661780Y-53076957D01*
X117649673Y-53073713D01*
X117649670Y-53073712D01*
X117611478Y-53063478D01*
X117559309Y-53049500D01*
X117559308Y-53049500D01*
X114453937Y-53049500D01*
X114401249Y-53035381D01*
X114400696Y-53036719D01*
X114393188Y-53033609D01*
X114393186Y-53033608D01*
X114265892Y-52999500D01*
X114134108Y-52999500D01*
X114006812Y-53033608D01*
X113892686Y-53099500D01*
X113892683Y-53099502D01*
X113799502Y-53192683D01*
X113799500Y-53192686D01*
X113733608Y-53306812D01*
X113699500Y-53434108D01*
X96820706Y-53434108D01*
X96186598Y-52800000D01*
X96192812Y-52800000D01*
X96294545Y-52772741D01*
X96385757Y-52720080D01*
X96460231Y-52645606D01*
X96512892Y-52554394D01*
X96540151Y-52452661D01*
X96540151Y-52446447D01*
X97219625Y-53125921D01*
X97252010Y-53081349D01*
X97344906Y-52899031D01*
X97408141Y-52704417D01*
X97440151Y-52502317D01*
X97440151Y-52297682D01*
X97408141Y-52095582D01*
X97344906Y-51900968D01*
X97252010Y-51718650D01*
X97219625Y-51674076D01*
X96540151Y-52353551D01*
X96540151Y-52347339D01*
X96512892Y-52245606D01*
X96460231Y-52154394D01*
X96385757Y-52079920D01*
X96294545Y-52027259D01*
X96192812Y-52000000D01*
X96186597Y-52000000D01*
X96606350Y-51580247D01*
X98639651Y-51580247D01*
X98639651Y-53219752D01*
X98651282Y-53278229D01*
X98651283Y-53278230D01*
X98695598Y-53344552D01*
X98761920Y-53388867D01*
X98761921Y-53388868D01*
X98820398Y-53400499D01*
X98820401Y-53400500D01*
X98820403Y-53400500D01*
X100459901Y-53400500D01*
X100459902Y-53400499D01*
X100474719Y-53397552D01*
X100518380Y-53388868D01*
X100518380Y-53388867D01*
X100518382Y-53388867D01*
X100584703Y-53344552D01*
X100629018Y-53278231D01*
X100629018Y-53278229D01*
X100629019Y-53278229D01*
X100640650Y-53219752D01*
X100640651Y-53219750D01*
X100640651Y-52871247D01*
X119860500Y-52871247D01*
X119860500Y-54128752D01*
X119872131Y-54187229D01*
X119872132Y-54187230D01*
X119916447Y-54253552D01*
X119982769Y-54297867D01*
X119982770Y-54297868D01*
X120041247Y-54309499D01*
X120041250Y-54309500D01*
X120041252Y-54309500D01*
X121298750Y-54309500D01*
X121298751Y-54309499D01*
X121313568Y-54306552D01*
X121357229Y-54297868D01*
X121357229Y-54297867D01*
X121357231Y-54297867D01*
X121423552Y-54253552D01*
X121467867Y-54187231D01*
X121467867Y-54187229D01*
X121467868Y-54187229D01*
X121476552Y-54143568D01*
X121479500Y-54128748D01*
X121479500Y-53420266D01*
X122400500Y-53420266D01*
X122400500Y-53579733D01*
X122431606Y-53736114D01*
X122431608Y-53736122D01*
X122492628Y-53883439D01*
X122492633Y-53883448D01*
X122581219Y-54016025D01*
X122581222Y-54016029D01*
X122693970Y-54128777D01*
X122693974Y-54128780D01*
X122826551Y-54217366D01*
X122826557Y-54217369D01*
X122826558Y-54217370D01*
X122973878Y-54278392D01*
X123130266Y-54309499D01*
X123130270Y-54309500D01*
X123130271Y-54309500D01*
X123289730Y-54309500D01*
X123289731Y-54309499D01*
X123446122Y-54278392D01*
X123593442Y-54217370D01*
X123726026Y-54128780D01*
X123838780Y-54016026D01*
X123927370Y-53883442D01*
X123988392Y-53736122D01*
X124019500Y-53579729D01*
X124019500Y-53420271D01*
X124019499Y-53420266D01*
X124940500Y-53420266D01*
X124940500Y-53579733D01*
X124971606Y-53736114D01*
X124971608Y-53736122D01*
X125032628Y-53883439D01*
X125032633Y-53883448D01*
X125121219Y-54016025D01*
X125121222Y-54016029D01*
X125233970Y-54128777D01*
X125233974Y-54128780D01*
X125366551Y-54217366D01*
X125366557Y-54217369D01*
X125366558Y-54217370D01*
X125513878Y-54278392D01*
X125670266Y-54309499D01*
X125670270Y-54309500D01*
X125670271Y-54309500D01*
X125829730Y-54309500D01*
X125829731Y-54309499D01*
X125986122Y-54278392D01*
X126133442Y-54217370D01*
X126266026Y-54128780D01*
X126378780Y-54016026D01*
X126467370Y-53883442D01*
X126528392Y-53736122D01*
X126559500Y-53579729D01*
X126559500Y-53420271D01*
X126528392Y-53263878D01*
X126476878Y-53139513D01*
X126467371Y-53116560D01*
X126467366Y-53116551D01*
X126378780Y-52983974D01*
X126378777Y-52983970D01*
X126266029Y-52871222D01*
X126266025Y-52871219D01*
X126133448Y-52782633D01*
X126133439Y-52782628D01*
X125986122Y-52721608D01*
X125986114Y-52721606D01*
X125829733Y-52690500D01*
X125829729Y-52690500D01*
X125670271Y-52690500D01*
X125670266Y-52690500D01*
X125513885Y-52721606D01*
X125513877Y-52721608D01*
X125366560Y-52782628D01*
X125366551Y-52782633D01*
X125233974Y-52871219D01*
X125233970Y-52871222D01*
X125121222Y-52983970D01*
X125121219Y-52983974D01*
X125032633Y-53116551D01*
X125032628Y-53116560D01*
X124971608Y-53263877D01*
X124971606Y-53263885D01*
X124940500Y-53420266D01*
X124019499Y-53420266D01*
X123988392Y-53263878D01*
X123936878Y-53139513D01*
X123927371Y-53116560D01*
X123927366Y-53116551D01*
X123838780Y-52983974D01*
X123838777Y-52983970D01*
X123726029Y-52871222D01*
X123726025Y-52871219D01*
X123593448Y-52782633D01*
X123593439Y-52782628D01*
X123446122Y-52721608D01*
X123446114Y-52721606D01*
X123289733Y-52690500D01*
X123289729Y-52690500D01*
X123130271Y-52690500D01*
X123130266Y-52690500D01*
X122973885Y-52721606D01*
X122973877Y-52721608D01*
X122826560Y-52782628D01*
X122826551Y-52782633D01*
X122693974Y-52871219D01*
X122693970Y-52871222D01*
X122581222Y-52983970D01*
X122581219Y-52983974D01*
X122492633Y-53116551D01*
X122492628Y-53116560D01*
X122431608Y-53263877D01*
X122431606Y-53263885D01*
X122400500Y-53420266D01*
X121479500Y-53420266D01*
X121479500Y-52871252D01*
X121479500Y-52871249D01*
X121479499Y-52871247D01*
X121467868Y-52812770D01*
X121467867Y-52812769D01*
X121423552Y-52746447D01*
X121357230Y-52702132D01*
X121357229Y-52702131D01*
X121298752Y-52690500D01*
X121298748Y-52690500D01*
X120041252Y-52690500D01*
X120041247Y-52690500D01*
X119982770Y-52702131D01*
X119982769Y-52702132D01*
X119916447Y-52746447D01*
X119872132Y-52812769D01*
X119872131Y-52812770D01*
X119860500Y-52871247D01*
X100640651Y-52871247D01*
X100640651Y-51580249D01*
X100640650Y-51580247D01*
X100629019Y-51521770D01*
X100629018Y-51521769D01*
X100584703Y-51455447D01*
X100518381Y-51411132D01*
X100518380Y-51411131D01*
X100459903Y-51399500D01*
X100459899Y-51399500D01*
X98820403Y-51399500D01*
X98820398Y-51399500D01*
X98761921Y-51411131D01*
X98761920Y-51411132D01*
X98695598Y-51455447D01*
X98651283Y-51521769D01*
X98651282Y-51521770D01*
X98639651Y-51580247D01*
X96606350Y-51580247D01*
X96866073Y-51320524D01*
X96866072Y-51320523D01*
X96821510Y-51288147D01*
X96821501Y-51288141D01*
X96639182Y-51195244D01*
X96444568Y-51132009D01*
X96242468Y-51100000D01*
X96037834Y-51100000D01*
X95835733Y-51132009D01*
X95641119Y-51195244D01*
X95458795Y-51288143D01*
X95414228Y-51320523D01*
X95414228Y-51320524D01*
X96093705Y-52000000D01*
X96087490Y-52000000D01*
X95985757Y-52027259D01*
X95894545Y-52079920D01*
X95820071Y-52154394D01*
X95767410Y-52245606D01*
X95740151Y-52347339D01*
X95740151Y-52353553D01*
X95060675Y-51674077D01*
X95060674Y-51674077D01*
X95028294Y-51718644D01*
X94935395Y-51900968D01*
X94872160Y-52095582D01*
X94840151Y-52297682D01*
X83450500Y-52297682D01*
X83450500Y-48124500D01*
X83470185Y-48057461D01*
X83522989Y-48011706D01*
X83574500Y-48000500D01*
X139575500Y-48000500D01*
X139642539Y-48020185D01*
G37*
G04 #@! TD.AperFunction*
M02*
