G04 #@! TF.GenerationSoftware,KiCad,Pcbnew,9.0.4*
G04 #@! TF.CreationDate,2025-09-25T11:49:33+08:00*
G04 #@! TF.ProjectId,boost-convertor,626f6f73-742d-4636-9f6e-766572746f72,rev?*
G04 #@! TF.SameCoordinates,Original*
G04 #@! TF.FileFunction,Paste,Top*
G04 #@! TF.FilePolarity,Positive*
%FSLAX46Y46*%
G04 Gerber Fmt 4.6, Leading zero omitted, Abs format (unit mm)*
G04 Created by KiCad (PCBNEW 9.0.4) date 2025-09-25 11:49:33*
%MOMM*%
%LPD*%
G01*
G04 APERTURE LIST*
G04 Aperture macros list*
%AMRoundRect*
0 Rectangle with rounded corners*
0 $1 Rounding radius*
0 $2 $3 $4 $5 $6 $7 $8 $9 X,Y pos of 4 corners*
0 Add a 4 corners polygon primitive as box body*
4,1,4,$2,$3,$4,$5,$6,$7,$8,$9,$2,$3,0*
0 Add four circle primitives for the rounded corners*
1,1,$1+$1,$2,$3*
1,1,$1+$1,$4,$5*
1,1,$1+$1,$6,$7*
1,1,$1+$1,$8,$9*
0 Add four rect primitives between the rounded corners*
20,1,$1+$1,$2,$3,$4,$5,0*
20,1,$1+$1,$4,$5,$6,$7,0*
20,1,$1+$1,$6,$7,$8,$9,0*
20,1,$1+$1,$8,$9,$2,$3,0*%
G04 Aperture macros list end*
%ADD10C,0.010000*%
%ADD11RoundRect,0.250000X-0.625000X0.312500X-0.625000X-0.312500X0.625000X-0.312500X0.625000X0.312500X0*%
%ADD12R,0.507200X1.416799*%
%ADD13R,1.416799X0.507200*%
%ADD14RoundRect,0.200000X0.200000X0.275000X-0.200000X0.275000X-0.200000X-0.275000X0.200000X-0.275000X0*%
%ADD15RoundRect,0.225000X-0.250000X0.225000X-0.250000X-0.225000X0.250000X-0.225000X0.250000X0.225000X0*%
%ADD16RoundRect,0.225000X-0.225000X-0.250000X0.225000X-0.250000X0.225000X0.250000X-0.225000X0.250000X0*%
%ADD17R,3.780000X1.257000*%
%ADD18RoundRect,0.200000X-0.275000X0.200000X-0.275000X-0.200000X0.275000X-0.200000X0.275000X0.200000X0*%
%ADD19RoundRect,0.200000X-0.200000X-0.275000X0.200000X-0.275000X0.200000X0.275000X-0.200000X0.275000X0*%
%ADD20RoundRect,0.250000X0.250000X0.475000X-0.250000X0.475000X-0.250000X-0.475000X0.250000X-0.475000X0*%
%ADD21RoundRect,0.225000X0.225000X0.250000X-0.225000X0.250000X-0.225000X-0.250000X0.225000X-0.250000X0*%
%ADD22O,0.299999X1.350000*%
%ADD23RoundRect,0.137500X0.137500X-0.862500X0.137500X0.862500X-0.137500X0.862500X-0.137500X-0.862500X0*%
%ADD24R,1.200000X0.720000*%
%ADD25R,1.200000X0.820000*%
%ADD26R,1.200000X0.920000*%
%ADD27RoundRect,0.419642X-1.330358X0.755358X-1.330358X-0.755358X1.330358X-0.755358X1.330358X0.755358X0*%
%ADD28R,0.500000X2.800000*%
%ADD29RoundRect,0.250000X-1.000000X-0.650000X1.000000X-0.650000X1.000000X0.650000X-1.000000X0.650000X0*%
G04 APERTURE END LIST*
D10*
X128610000Y-73700000D02*
X127290000Y-73700000D01*
X127290000Y-71800000D01*
X128610000Y-71800000D01*
X128610000Y-73700000D01*
G36*
X128610000Y-73700000D02*
G01*
X127290000Y-73700000D01*
X127290000Y-71800000D01*
X128610000Y-71800000D01*
X128610000Y-73700000D01*
G37*
X128610000Y-79125442D02*
X127290000Y-79125442D01*
X127290000Y-77225442D01*
X128610000Y-77225442D01*
X128610000Y-79125442D01*
G36*
X128610000Y-79125442D02*
G01*
X127290000Y-79125442D01*
X127290000Y-77225442D01*
X128610000Y-77225442D01*
X128610000Y-79125442D01*
G37*
X130580000Y-73700000D02*
X129260000Y-73700000D01*
X129260000Y-71800000D01*
X130580000Y-71800000D01*
X130580000Y-73700000D01*
G36*
X130580000Y-73700000D02*
G01*
X129260000Y-73700000D01*
X129260000Y-71800000D01*
X130580000Y-71800000D01*
X130580000Y-73700000D01*
G37*
X130580000Y-79125442D02*
X129260000Y-79125442D01*
X129260000Y-77225442D01*
X130580000Y-77225442D01*
X130580000Y-79125442D01*
G36*
X130580000Y-79125442D02*
G01*
X129260000Y-79125442D01*
X129260000Y-77225442D01*
X130580000Y-77225442D01*
X130580000Y-79125442D01*
G37*
X132550000Y-73700000D02*
X131230000Y-73700000D01*
X131230000Y-71800000D01*
X132550000Y-71800000D01*
X132550000Y-73700000D01*
G36*
X132550000Y-73700000D02*
G01*
X131230000Y-73700000D01*
X131230000Y-71800000D01*
X132550000Y-71800000D01*
X132550000Y-73700000D01*
G37*
X132550000Y-79125442D02*
X131230000Y-79125442D01*
X131230000Y-77225442D01*
X132550000Y-77225442D01*
X132550000Y-79125442D01*
G36*
X132550000Y-79125442D02*
G01*
X131230000Y-79125442D01*
X131230000Y-77225442D01*
X132550000Y-77225442D01*
X132550000Y-79125442D01*
G37*
X134520000Y-73700000D02*
X133200000Y-73700000D01*
X133200000Y-71800000D01*
X134520000Y-71800000D01*
X134520000Y-73700000D01*
G36*
X134520000Y-73700000D02*
G01*
X133200000Y-73700000D01*
X133200000Y-71800000D01*
X134520000Y-71800000D01*
X134520000Y-73700000D01*
G37*
X134520000Y-79125442D02*
X133200000Y-79125442D01*
X133200000Y-77225442D01*
X134520000Y-77225442D01*
X134520000Y-79125442D01*
G36*
X134520000Y-79125442D02*
G01*
X133200000Y-79125442D01*
X133200000Y-77225442D01*
X134520000Y-77225442D01*
X134520000Y-79125442D01*
G37*
D11*
X107575000Y-50137500D03*
X107575000Y-53062500D03*
D12*
X123835598Y-89335599D03*
X123035600Y-89335599D03*
X122235599Y-89335599D03*
X121435598Y-89335599D03*
X120635600Y-89335599D03*
X119835599Y-89335599D03*
X119035600Y-89335599D03*
X118235600Y-89335599D03*
D13*
X116771198Y-90800001D03*
X116771198Y-91599999D03*
X116771198Y-92400000D03*
X116771198Y-93200001D03*
X116771198Y-93999999D03*
X116771198Y-94800000D03*
X116771198Y-95599999D03*
X116771198Y-96399999D03*
D12*
X118235600Y-97864401D03*
X119035598Y-97864401D03*
X119835599Y-97864401D03*
X120635600Y-97864401D03*
X121435598Y-97864401D03*
X122235599Y-97864401D03*
X123035598Y-97864401D03*
X123835598Y-97864401D03*
D13*
X125300000Y-96399999D03*
X125300000Y-95600001D03*
X125300000Y-94800000D03*
X125300000Y-93999999D03*
X125300000Y-93200001D03*
X125300000Y-92400000D03*
X125300000Y-91600001D03*
X125300000Y-90800001D03*
D14*
X135025000Y-63250000D03*
X133375000Y-63250000D03*
D15*
X107100000Y-94000000D03*
X107100000Y-95550000D03*
D16*
X118475000Y-86200000D03*
X120025000Y-86200000D03*
D15*
X107100000Y-88825000D03*
X107100000Y-90375000D03*
D11*
X111450000Y-50112500D03*
X111450000Y-53037500D03*
D17*
X120718000Y-72860000D03*
X120718000Y-77940000D03*
D18*
X103100000Y-62250000D03*
X103100000Y-63900000D03*
D19*
X114425000Y-55250000D03*
X116075000Y-55250000D03*
D20*
X95530000Y-79325000D03*
X93630000Y-79325000D03*
D19*
X114425000Y-52000000D03*
X116075000Y-52000000D03*
D14*
X133600000Y-99325000D03*
X131950000Y-99325000D03*
D21*
X123775000Y-86200000D03*
X122225000Y-86200000D03*
D19*
X133375000Y-60400000D03*
X135025000Y-60400000D03*
D14*
X133600000Y-96325000D03*
X131950000Y-96325000D03*
X133000000Y-88550000D03*
X131350000Y-88550000D03*
D22*
X138025001Y-94850001D03*
X137525002Y-94850001D03*
X137025000Y-94850001D03*
X136525001Y-94850001D03*
X136024999Y-94850001D03*
X136024999Y-99300002D03*
X136525001Y-99300002D03*
X137025000Y-99300002D03*
X137525002Y-99300002D03*
X138025001Y-99300002D03*
D19*
X93975000Y-84025000D03*
X95625000Y-84025000D03*
D23*
X87570596Y-97446899D03*
X88840596Y-97446899D03*
X90110596Y-97446899D03*
X91380596Y-97446899D03*
X92650596Y-97446899D03*
X93920596Y-97446899D03*
X95190596Y-97446899D03*
X96460596Y-97446899D03*
X97730596Y-97446899D03*
X99000596Y-97446899D03*
X100270596Y-97446899D03*
X101540596Y-97446899D03*
X101540596Y-88146899D03*
X100270596Y-88146899D03*
X99000596Y-88146899D03*
X97730596Y-88146899D03*
X96460596Y-88146899D03*
X95190596Y-88146899D03*
X93920596Y-88146899D03*
X92650596Y-88146899D03*
X91380596Y-88146899D03*
X90110596Y-88146899D03*
X88840596Y-88146899D03*
X87570596Y-88146899D03*
D18*
X130250000Y-52675000D03*
X130250000Y-54325000D03*
D24*
X89208000Y-65025001D03*
D25*
X89208000Y-67045000D03*
D26*
X89208000Y-68275000D03*
D24*
X89208000Y-66024999D03*
D25*
X89208000Y-64005000D03*
D26*
X89208000Y-62775000D03*
D27*
X112000000Y-59225000D03*
X112000000Y-65275000D03*
D16*
X133450000Y-65800000D03*
X135000000Y-65800000D03*
D18*
X100925000Y-62250000D03*
X100925000Y-63900000D03*
X136475000Y-86175000D03*
X136475000Y-87825000D03*
D28*
X111900000Y-89600000D03*
X111900000Y-95000000D03*
D19*
X110425000Y-55250000D03*
X112075000Y-55250000D03*
X93975000Y-74950000D03*
X95625000Y-74950000D03*
D29*
X110000000Y-72800000D03*
X114000000Y-72800000D03*
D14*
X133750000Y-102025000D03*
X132100000Y-102025000D03*
D16*
X132000000Y-93575000D03*
X133550000Y-93575000D03*
M02*
