G04 #@! TF.GenerationSoftware,KiCad,Pcbnew,9.0.0*
G04 #@! TF.CreationDate,2025-05-28T17:54:46+08:00*
G04 #@! TF.ProjectId,Converter_DC,436f6e76-6572-4746-9572-5f44432e6b69,v1.0*
G04 #@! TF.SameCoordinates,Original*
G04 #@! TF.FileFunction,Legend,Top*
G04 #@! TF.FilePolarity,Positive*
%FSLAX46Y46*%
G04 Gerber Fmt 4.6, Leading zero omitted, Abs format (unit mm)*
G04 Created by KiCad (PCBNEW 9.0.0) date 2025-05-28 17:54:46*
%MOMM*%
%LPD*%
G01*
G04 APERTURE LIST*
%ADD10C,0.150000*%
%ADD11C,0.120000*%
%ADD12C,0.100000*%
%ADD13C,0.152400*%
%ADD14C,0.010000*%
%ADD15C,0.050000*%
G04 APERTURE END LIST*
D10*
X132800000Y-108400000D02*
G75*
G02*
X131800000Y-108400000I-500000J0D01*
G01*
X131800000Y-108400000D02*
G75*
G02*
X132800000Y-108400000I500000J0D01*
G01*
X132150000Y-98850000D02*
X132150000Y-97850000D01*
X132800000Y-108400000D02*
X131800000Y-108400000D01*
X132300000Y-108900000D02*
X132300000Y-107900000D01*
X132650000Y-98350000D02*
G75*
G02*
X131650000Y-98350000I-500000J0D01*
G01*
X131650000Y-98350000D02*
G75*
G02*
X132650000Y-98350000I500000J0D01*
G01*
X167250000Y-108250000D02*
G75*
G02*
X166250000Y-108250000I-500000J0D01*
G01*
X166250000Y-108250000D02*
G75*
G02*
X167250000Y-108250000I500000J0D01*
G01*
X166000000Y-98250000D02*
X167000000Y-98250000D01*
X166750000Y-107750000D02*
X166750000Y-108750000D01*
X166500000Y-97750000D02*
X166500000Y-98750000D01*
X167000000Y-98250000D02*
G75*
G02*
X166000000Y-98250000I-500000J0D01*
G01*
X166000000Y-98250000D02*
G75*
G02*
X167000000Y-98250000I500000J0D01*
G01*
X154233333Y-101454819D02*
X153900000Y-100978628D01*
X153661905Y-101454819D02*
X153661905Y-100454819D01*
X153661905Y-100454819D02*
X154042857Y-100454819D01*
X154042857Y-100454819D02*
X154138095Y-100502438D01*
X154138095Y-100502438D02*
X154185714Y-100550057D01*
X154185714Y-100550057D02*
X154233333Y-100645295D01*
X154233333Y-100645295D02*
X154233333Y-100788152D01*
X154233333Y-100788152D02*
X154185714Y-100883390D01*
X154185714Y-100883390D02*
X154138095Y-100931009D01*
X154138095Y-100931009D02*
X154042857Y-100978628D01*
X154042857Y-100978628D02*
X153661905Y-100978628D01*
X154566667Y-100454819D02*
X155185714Y-100454819D01*
X155185714Y-100454819D02*
X154852381Y-100835771D01*
X154852381Y-100835771D02*
X154995238Y-100835771D01*
X154995238Y-100835771D02*
X155090476Y-100883390D01*
X155090476Y-100883390D02*
X155138095Y-100931009D01*
X155138095Y-100931009D02*
X155185714Y-101026247D01*
X155185714Y-101026247D02*
X155185714Y-101264342D01*
X155185714Y-101264342D02*
X155138095Y-101359580D01*
X155138095Y-101359580D02*
X155090476Y-101407200D01*
X155090476Y-101407200D02*
X154995238Y-101454819D01*
X154995238Y-101454819D02*
X154709524Y-101454819D01*
X154709524Y-101454819D02*
X154614286Y-101407200D01*
X154614286Y-101407200D02*
X154566667Y-101359580D01*
X145333333Y-87454819D02*
X145000000Y-86978628D01*
X144761905Y-87454819D02*
X144761905Y-86454819D01*
X144761905Y-86454819D02*
X145142857Y-86454819D01*
X145142857Y-86454819D02*
X145238095Y-86502438D01*
X145238095Y-86502438D02*
X145285714Y-86550057D01*
X145285714Y-86550057D02*
X145333333Y-86645295D01*
X145333333Y-86645295D02*
X145333333Y-86788152D01*
X145333333Y-86788152D02*
X145285714Y-86883390D01*
X145285714Y-86883390D02*
X145238095Y-86931009D01*
X145238095Y-86931009D02*
X145142857Y-86978628D01*
X145142857Y-86978628D02*
X144761905Y-86978628D01*
X145714286Y-87407200D02*
X145857143Y-87454819D01*
X145857143Y-87454819D02*
X146095238Y-87454819D01*
X146095238Y-87454819D02*
X146190476Y-87407200D01*
X146190476Y-87407200D02*
X146238095Y-87359580D01*
X146238095Y-87359580D02*
X146285714Y-87264342D01*
X146285714Y-87264342D02*
X146285714Y-87169104D01*
X146285714Y-87169104D02*
X146238095Y-87073866D01*
X146238095Y-87073866D02*
X146190476Y-87026247D01*
X146190476Y-87026247D02*
X146095238Y-86978628D01*
X146095238Y-86978628D02*
X145904762Y-86931009D01*
X145904762Y-86931009D02*
X145809524Y-86883390D01*
X145809524Y-86883390D02*
X145761905Y-86835771D01*
X145761905Y-86835771D02*
X145714286Y-86740533D01*
X145714286Y-86740533D02*
X145714286Y-86645295D01*
X145714286Y-86645295D02*
X145761905Y-86550057D01*
X145761905Y-86550057D02*
X145809524Y-86502438D01*
X145809524Y-86502438D02*
X145904762Y-86454819D01*
X145904762Y-86454819D02*
X146142857Y-86454819D01*
X146142857Y-86454819D02*
X146285714Y-86502438D01*
X147285714Y-87359580D02*
X147238095Y-87407200D01*
X147238095Y-87407200D02*
X147095238Y-87454819D01*
X147095238Y-87454819D02*
X147000000Y-87454819D01*
X147000000Y-87454819D02*
X146857143Y-87407200D01*
X146857143Y-87407200D02*
X146761905Y-87311961D01*
X146761905Y-87311961D02*
X146714286Y-87216723D01*
X146714286Y-87216723D02*
X146666667Y-87026247D01*
X146666667Y-87026247D02*
X146666667Y-86883390D01*
X146666667Y-86883390D02*
X146714286Y-86692914D01*
X146714286Y-86692914D02*
X146761905Y-86597676D01*
X146761905Y-86597676D02*
X146857143Y-86502438D01*
X146857143Y-86502438D02*
X147000000Y-86454819D01*
X147000000Y-86454819D02*
X147095238Y-86454819D01*
X147095238Y-86454819D02*
X147238095Y-86502438D01*
X147238095Y-86502438D02*
X147285714Y-86550057D01*
X158833333Y-101454819D02*
X158500000Y-100978628D01*
X158261905Y-101454819D02*
X158261905Y-100454819D01*
X158261905Y-100454819D02*
X158642857Y-100454819D01*
X158642857Y-100454819D02*
X158738095Y-100502438D01*
X158738095Y-100502438D02*
X158785714Y-100550057D01*
X158785714Y-100550057D02*
X158833333Y-100645295D01*
X158833333Y-100645295D02*
X158833333Y-100788152D01*
X158833333Y-100788152D02*
X158785714Y-100883390D01*
X158785714Y-100883390D02*
X158738095Y-100931009D01*
X158738095Y-100931009D02*
X158642857Y-100978628D01*
X158642857Y-100978628D02*
X158261905Y-100978628D01*
X159690476Y-100788152D02*
X159690476Y-101454819D01*
X159452381Y-100407200D02*
X159214286Y-101121485D01*
X159214286Y-101121485D02*
X159833333Y-101121485D01*
X145833333Y-90954819D02*
X145500000Y-90478628D01*
X145261905Y-90954819D02*
X145261905Y-89954819D01*
X145261905Y-89954819D02*
X145642857Y-89954819D01*
X145642857Y-89954819D02*
X145738095Y-90002438D01*
X145738095Y-90002438D02*
X145785714Y-90050057D01*
X145785714Y-90050057D02*
X145833333Y-90145295D01*
X145833333Y-90145295D02*
X145833333Y-90288152D01*
X145833333Y-90288152D02*
X145785714Y-90383390D01*
X145785714Y-90383390D02*
X145738095Y-90431009D01*
X145738095Y-90431009D02*
X145642857Y-90478628D01*
X145642857Y-90478628D02*
X145261905Y-90478628D01*
X146214286Y-90050057D02*
X146261905Y-90002438D01*
X146261905Y-90002438D02*
X146357143Y-89954819D01*
X146357143Y-89954819D02*
X146595238Y-89954819D01*
X146595238Y-89954819D02*
X146690476Y-90002438D01*
X146690476Y-90002438D02*
X146738095Y-90050057D01*
X146738095Y-90050057D02*
X146785714Y-90145295D01*
X146785714Y-90145295D02*
X146785714Y-90240533D01*
X146785714Y-90240533D02*
X146738095Y-90383390D01*
X146738095Y-90383390D02*
X146166667Y-90954819D01*
X146166667Y-90954819D02*
X146785714Y-90954819D01*
X138833333Y-91454819D02*
X138357143Y-91454819D01*
X138357143Y-91454819D02*
X138357143Y-90454819D01*
X139690476Y-91454819D02*
X139119048Y-91454819D01*
X139404762Y-91454819D02*
X139404762Y-90454819D01*
X139404762Y-90454819D02*
X139309524Y-90597676D01*
X139309524Y-90597676D02*
X139214286Y-90692914D01*
X139214286Y-90692914D02*
X139119048Y-90740533D01*
X145433333Y-109209580D02*
X145385714Y-109257200D01*
X145385714Y-109257200D02*
X145242857Y-109304819D01*
X145242857Y-109304819D02*
X145147619Y-109304819D01*
X145147619Y-109304819D02*
X145004762Y-109257200D01*
X145004762Y-109257200D02*
X144909524Y-109161961D01*
X144909524Y-109161961D02*
X144861905Y-109066723D01*
X144861905Y-109066723D02*
X144814286Y-108876247D01*
X144814286Y-108876247D02*
X144814286Y-108733390D01*
X144814286Y-108733390D02*
X144861905Y-108542914D01*
X144861905Y-108542914D02*
X144909524Y-108447676D01*
X144909524Y-108447676D02*
X145004762Y-108352438D01*
X145004762Y-108352438D02*
X145147619Y-108304819D01*
X145147619Y-108304819D02*
X145242857Y-108304819D01*
X145242857Y-108304819D02*
X145385714Y-108352438D01*
X145385714Y-108352438D02*
X145433333Y-108400057D01*
X145814286Y-108400057D02*
X145861905Y-108352438D01*
X145861905Y-108352438D02*
X145957143Y-108304819D01*
X145957143Y-108304819D02*
X146195238Y-108304819D01*
X146195238Y-108304819D02*
X146290476Y-108352438D01*
X146290476Y-108352438D02*
X146338095Y-108400057D01*
X146338095Y-108400057D02*
X146385714Y-108495295D01*
X146385714Y-108495295D02*
X146385714Y-108590533D01*
X146385714Y-108590533D02*
X146338095Y-108733390D01*
X146338095Y-108733390D02*
X145766667Y-109304819D01*
X145766667Y-109304819D02*
X146385714Y-109304819D01*
X137261905Y-114454819D02*
X137261905Y-113454819D01*
X137261905Y-113454819D02*
X137500000Y-113454819D01*
X137500000Y-113454819D02*
X137642857Y-113502438D01*
X137642857Y-113502438D02*
X137738095Y-113597676D01*
X137738095Y-113597676D02*
X137785714Y-113692914D01*
X137785714Y-113692914D02*
X137833333Y-113883390D01*
X137833333Y-113883390D02*
X137833333Y-114026247D01*
X137833333Y-114026247D02*
X137785714Y-114216723D01*
X137785714Y-114216723D02*
X137738095Y-114311961D01*
X137738095Y-114311961D02*
X137642857Y-114407200D01*
X137642857Y-114407200D02*
X137500000Y-114454819D01*
X137500000Y-114454819D02*
X137261905Y-114454819D01*
X138785714Y-114454819D02*
X138214286Y-114454819D01*
X138500000Y-114454819D02*
X138500000Y-113454819D01*
X138500000Y-113454819D02*
X138404762Y-113597676D01*
X138404762Y-113597676D02*
X138309524Y-113692914D01*
X138309524Y-113692914D02*
X138214286Y-113740533D01*
X144750476Y-98610896D02*
X144750476Y-99938515D01*
X144750476Y-99938515D02*
X144828571Y-100094705D01*
X144828571Y-100094705D02*
X144906666Y-100172801D01*
X144906666Y-100172801D02*
X145062857Y-100250896D01*
X145062857Y-100250896D02*
X145375238Y-100250896D01*
X145375238Y-100250896D02*
X145531428Y-100172801D01*
X145531428Y-100172801D02*
X145609523Y-100094705D01*
X145609523Y-100094705D02*
X145687619Y-99938515D01*
X145687619Y-99938515D02*
X145687619Y-98610896D01*
X147327618Y-100250896D02*
X146390475Y-100250896D01*
X146859047Y-100250896D02*
X146859047Y-98610896D01*
X146859047Y-98610896D02*
X146702856Y-98845181D01*
X146702856Y-98845181D02*
X146546666Y-99001372D01*
X146546666Y-99001372D02*
X146390475Y-99079467D01*
X140127219Y-103894199D02*
X140365314Y-103894199D01*
X140270076Y-104132294D02*
X140365314Y-103894199D01*
X140365314Y-103894199D02*
X140270076Y-103656104D01*
X140555790Y-104037056D02*
X140365314Y-103894199D01*
X140365314Y-103894199D02*
X140555790Y-103751342D01*
X161583333Y-89956929D02*
X161535714Y-90004549D01*
X161535714Y-90004549D02*
X161392857Y-90052168D01*
X161392857Y-90052168D02*
X161297619Y-90052168D01*
X161297619Y-90052168D02*
X161154762Y-90004549D01*
X161154762Y-90004549D02*
X161059524Y-89909310D01*
X161059524Y-89909310D02*
X161011905Y-89814072D01*
X161011905Y-89814072D02*
X160964286Y-89623596D01*
X160964286Y-89623596D02*
X160964286Y-89480739D01*
X160964286Y-89480739D02*
X161011905Y-89290263D01*
X161011905Y-89290263D02*
X161059524Y-89195025D01*
X161059524Y-89195025D02*
X161154762Y-89099787D01*
X161154762Y-89099787D02*
X161297619Y-89052168D01*
X161297619Y-89052168D02*
X161392857Y-89052168D01*
X161392857Y-89052168D02*
X161535714Y-89099787D01*
X161535714Y-89099787D02*
X161583333Y-89147406D01*
X162535714Y-90052168D02*
X161964286Y-90052168D01*
X162250000Y-90052168D02*
X162250000Y-89052168D01*
X162250000Y-89052168D02*
X162154762Y-89195025D01*
X162154762Y-89195025D02*
X162059524Y-89290263D01*
X162059524Y-89290263D02*
X161964286Y-89337882D01*
X154383333Y-112509580D02*
X154335714Y-112557200D01*
X154335714Y-112557200D02*
X154192857Y-112604819D01*
X154192857Y-112604819D02*
X154097619Y-112604819D01*
X154097619Y-112604819D02*
X153954762Y-112557200D01*
X153954762Y-112557200D02*
X153859524Y-112461961D01*
X153859524Y-112461961D02*
X153811905Y-112366723D01*
X153811905Y-112366723D02*
X153764286Y-112176247D01*
X153764286Y-112176247D02*
X153764286Y-112033390D01*
X153764286Y-112033390D02*
X153811905Y-111842914D01*
X153811905Y-111842914D02*
X153859524Y-111747676D01*
X153859524Y-111747676D02*
X153954762Y-111652438D01*
X153954762Y-111652438D02*
X154097619Y-111604819D01*
X154097619Y-111604819D02*
X154192857Y-111604819D01*
X154192857Y-111604819D02*
X154335714Y-111652438D01*
X154335714Y-111652438D02*
X154383333Y-111700057D01*
X154716667Y-111604819D02*
X155335714Y-111604819D01*
X155335714Y-111604819D02*
X155002381Y-111985771D01*
X155002381Y-111985771D02*
X155145238Y-111985771D01*
X155145238Y-111985771D02*
X155240476Y-112033390D01*
X155240476Y-112033390D02*
X155288095Y-112081009D01*
X155288095Y-112081009D02*
X155335714Y-112176247D01*
X155335714Y-112176247D02*
X155335714Y-112414342D01*
X155335714Y-112414342D02*
X155288095Y-112509580D01*
X155288095Y-112509580D02*
X155240476Y-112557200D01*
X155240476Y-112557200D02*
X155145238Y-112604819D01*
X155145238Y-112604819D02*
X154859524Y-112604819D01*
X154859524Y-112604819D02*
X154764286Y-112557200D01*
X154764286Y-112557200D02*
X154716667Y-112509580D01*
D11*
X137870000Y-91000000D02*
G75*
G02*
X127630000Y-91000000I-5120000J0D01*
G01*
X127630000Y-91000000D02*
G75*
G02*
X137870000Y-91000000I5120000J0D01*
G01*
D12*
X128200000Y-99700000D02*
X128200000Y-107300000D01*
X128200000Y-107300000D02*
X135800000Y-107300000D01*
X135800000Y-99700000D02*
X128200000Y-99700000D01*
X135800000Y-107300000D02*
X135800000Y-99700000D01*
X162700000Y-99450000D02*
X162700000Y-107050000D01*
X162700000Y-107050000D02*
X170300000Y-107050000D01*
X170300000Y-99450000D02*
X162700000Y-99450000D01*
X170300000Y-107050000D02*
X170300000Y-99450000D01*
D11*
X148220000Y-109905000D02*
X148220000Y-110220000D01*
X148220000Y-107480000D02*
X148220000Y-107795000D01*
X142980000Y-110220000D02*
X148220000Y-110220000D01*
X142980000Y-109905000D02*
X142980000Y-110220000D01*
X142980000Y-107480000D02*
X148220000Y-107480000D01*
X142980000Y-107480000D02*
X142980000Y-107795000D01*
D13*
X143468000Y-112730000D02*
X143468000Y-115270000D01*
X143468000Y-112730000D02*
X147532000Y-112730000D01*
X144865000Y-114000000D02*
X145500000Y-114000000D01*
X145500000Y-113365000D02*
X145500000Y-114000000D01*
X145500000Y-114000000D02*
X145500000Y-114635000D01*
X145500000Y-114000000D02*
X146516000Y-113365000D01*
X145500000Y-114000000D02*
X147024000Y-114000000D01*
X146516000Y-113365000D02*
X146516000Y-114635000D01*
X146516000Y-114635000D02*
X145500000Y-114000000D01*
X147532000Y-115270000D02*
X143468000Y-115270000D01*
X147532000Y-115270000D02*
X147532000Y-112730000D01*
D14*
X143468000Y-114381000D02*
X141563000Y-114381000D01*
X141563000Y-113619000D01*
X143468000Y-113619000D01*
X143468000Y-114381000D01*
G36*
X143468000Y-114381000D02*
G01*
X141563000Y-114381000D01*
X141563000Y-113619000D01*
X143468000Y-113619000D01*
X143468000Y-114381000D01*
G37*
X144357000Y-115270000D02*
X143849000Y-115270000D01*
X143849000Y-112730000D01*
X144357000Y-112730000D01*
X144357000Y-115270000D01*
G36*
X144357000Y-115270000D02*
G01*
X143849000Y-115270000D01*
X143849000Y-112730000D01*
X144357000Y-112730000D01*
X144357000Y-115270000D01*
G37*
X149437000Y-114381000D02*
X147532000Y-114381000D01*
X147532000Y-113619000D01*
X149437000Y-113619000D01*
X149437000Y-114381000D01*
G36*
X149437000Y-114381000D02*
G01*
X147532000Y-114381000D01*
X147532000Y-113619000D01*
X149437000Y-113619000D01*
X149437000Y-114381000D01*
G37*
D15*
X142000000Y-85800000D02*
X150000000Y-85800000D01*
X150000000Y-88200000D01*
X142000000Y-88200000D01*
X142000000Y-85800000D01*
D13*
X140697800Y-96426600D02*
X140697800Y-99195200D01*
X140697800Y-99195200D02*
X140697800Y-99804800D01*
X140697800Y-99804800D02*
X140697800Y-102014600D01*
X150502200Y-102573400D02*
X150502200Y-96426600D01*
D12*
X140697800Y-99195200D02*
G75*
G02*
X140697800Y-99804800I0J-304800D01*
G01*
D15*
X155600000Y-97000000D02*
X153200000Y-97000000D01*
X153200000Y-105000000D01*
X155600000Y-105000000D01*
X155600000Y-97000000D01*
D11*
X155460000Y-90318349D02*
X152483000Y-90318349D01*
X155460000Y-90358349D02*
X152490000Y-90358349D01*
X155460000Y-90398349D02*
X152498000Y-90398349D01*
X155460000Y-90438349D02*
X152506000Y-90438349D01*
X155460000Y-90478349D02*
X152515000Y-90478349D01*
X155460000Y-90518349D02*
X152524000Y-90518349D01*
X155460000Y-90558349D02*
X152533000Y-90558349D01*
X155460000Y-90598349D02*
X152543000Y-90598349D01*
X155460000Y-90638349D02*
X152553000Y-90638349D01*
X155460000Y-90678349D02*
X152564000Y-90678349D01*
X155460000Y-90718349D02*
X152575000Y-90718349D01*
X155460000Y-90758349D02*
X152586000Y-90758349D01*
X155460000Y-90798349D02*
X152598000Y-90798349D01*
X155460000Y-90838349D02*
X152611000Y-90838349D01*
X155460000Y-90878349D02*
X152623000Y-90878349D01*
X155460000Y-90918349D02*
X152637000Y-90918349D01*
X155460000Y-90958349D02*
X152650000Y-90958349D01*
X155460000Y-90998349D02*
X152665000Y-90998349D01*
X155460000Y-91038349D02*
X152679000Y-91038349D01*
X155460000Y-91078349D02*
X152695000Y-91078349D01*
X155460000Y-91118349D02*
X152710000Y-91118349D01*
X155460000Y-91158349D02*
X152726000Y-91158349D01*
X155460000Y-91198349D02*
X152743000Y-91198349D01*
X155460000Y-91238349D02*
X152760000Y-91238349D01*
X155460000Y-91278349D02*
X152778000Y-91278349D01*
X155460000Y-91318349D02*
X152796000Y-91318349D01*
X155460000Y-91358349D02*
X152814000Y-91358349D01*
X155460000Y-91398349D02*
X152834000Y-91398349D01*
X155460000Y-91438349D02*
X152853000Y-91438349D01*
X155460000Y-91478349D02*
X152873000Y-91478349D01*
X155460000Y-91518349D02*
X152894000Y-91518349D01*
X155460000Y-91558349D02*
X152916000Y-91558349D01*
X155460000Y-91598349D02*
X152938000Y-91598349D01*
X155460000Y-91638349D02*
X152960000Y-91638349D01*
X155460000Y-91678349D02*
X152983000Y-91678349D01*
X155460000Y-91718349D02*
X153007000Y-91718349D01*
X155460000Y-91758349D02*
X153031000Y-91758349D01*
X155460000Y-91798349D02*
X153056000Y-91798349D01*
X155460000Y-91838349D02*
X153082000Y-91838349D01*
X155460000Y-91878349D02*
X153108000Y-91878349D01*
X155460000Y-91918349D02*
X153135000Y-91918349D01*
X155460000Y-91958349D02*
X153162000Y-91958349D01*
X155460000Y-91998349D02*
X153191000Y-91998349D01*
X155460000Y-92038349D02*
X153220000Y-92038349D01*
X155460000Y-92078349D02*
X153250000Y-92078349D01*
X155460000Y-92118349D02*
X153280000Y-92118349D01*
X155460000Y-92158349D02*
X153311000Y-92158349D01*
X155460000Y-92198349D02*
X153344000Y-92198349D01*
X155460000Y-92238349D02*
X153376000Y-92238349D01*
X155460000Y-92278349D02*
X153410000Y-92278349D01*
X155460000Y-92318349D02*
X153445000Y-92318349D01*
X155460000Y-92358349D02*
X153481000Y-92358349D01*
X157033000Y-93678349D02*
X155967000Y-93678349D01*
X157268000Y-93638349D02*
X155732000Y-93638349D01*
X157448000Y-93598349D02*
X155552000Y-93598349D01*
X157598000Y-93558349D02*
X155402000Y-93558349D01*
X157729000Y-93518349D02*
X155271000Y-93518349D01*
X157846000Y-93478349D02*
X155154000Y-93478349D01*
X157953000Y-93438349D02*
X155047000Y-93438349D01*
X158052000Y-93398349D02*
X154948000Y-93398349D01*
X158145000Y-93358349D02*
X154855000Y-93358349D01*
X158231000Y-93318349D02*
X154769000Y-93318349D01*
X158313000Y-93278349D02*
X154687000Y-93278349D01*
X158390000Y-93238349D02*
X154610000Y-93238349D01*
X158464000Y-93198349D02*
X154536000Y-93198349D01*
X158534000Y-93158349D02*
X154466000Y-93158349D01*
X158602000Y-93118349D02*
X154398000Y-93118349D01*
X158666000Y-93078349D02*
X154334000Y-93078349D01*
X158728000Y-93038349D02*
X154272000Y-93038349D01*
X158787000Y-92998349D02*
X154213000Y-92998349D01*
X158815000Y-85187651D02*
X158815000Y-85987651D01*
X158845000Y-92958349D02*
X154155000Y-92958349D01*
X158900000Y-92918349D02*
X154100000Y-92918349D01*
X158954000Y-92878349D02*
X154046000Y-92878349D01*
X159005000Y-92838349D02*
X153995000Y-92838349D01*
X159056000Y-92798349D02*
X153944000Y-92798349D01*
X159104000Y-92758349D02*
X153896000Y-92758349D01*
X159151000Y-92718349D02*
X153849000Y-92718349D01*
X159197000Y-92678349D02*
X153803000Y-92678349D01*
X159215000Y-85587651D02*
X158415000Y-85587651D01*
X159241000Y-92638349D02*
X153759000Y-92638349D01*
X159284000Y-92598349D02*
X153716000Y-92598349D01*
X159326000Y-92558349D02*
X153674000Y-92558349D01*
X159367000Y-92518349D02*
X153633000Y-92518349D01*
X159407000Y-92478349D02*
X153593000Y-92478349D01*
X159445000Y-92438349D02*
X153555000Y-92438349D01*
X159483000Y-92398349D02*
X153517000Y-92398349D01*
X159519000Y-92358349D02*
X157540000Y-92358349D01*
X159555000Y-92318349D02*
X157540000Y-92318349D01*
X159590000Y-92278349D02*
X157540000Y-92278349D01*
X159624000Y-92238349D02*
X157540000Y-92238349D01*
X159656000Y-92198349D02*
X157540000Y-92198349D01*
X159689000Y-92158349D02*
X157540000Y-92158349D01*
X159720000Y-92118349D02*
X157540000Y-92118349D01*
X159750000Y-92078349D02*
X157540000Y-92078349D01*
X159780000Y-92038349D02*
X157540000Y-92038349D01*
X159809000Y-91998349D02*
X157540000Y-91998349D01*
X159838000Y-91958349D02*
X157540000Y-91958349D01*
X159865000Y-91918349D02*
X157540000Y-91918349D01*
X159892000Y-91878349D02*
X157540000Y-91878349D01*
X159918000Y-91838349D02*
X157540000Y-91838349D01*
X159944000Y-91798349D02*
X157540000Y-91798349D01*
X159969000Y-91758349D02*
X157540000Y-91758349D01*
X159993000Y-91718349D02*
X157540000Y-91718349D01*
X160017000Y-91678349D02*
X157540000Y-91678349D01*
X160040000Y-91638349D02*
X157540000Y-91638349D01*
X160062000Y-91598349D02*
X157540000Y-91598349D01*
X160084000Y-91558349D02*
X157540000Y-91558349D01*
X160106000Y-91518349D02*
X157540000Y-91518349D01*
X160127000Y-91478349D02*
X157540000Y-91478349D01*
X160147000Y-91438349D02*
X157540000Y-91438349D01*
X160166000Y-91398349D02*
X157540000Y-91398349D01*
X160186000Y-91358349D02*
X157540000Y-91358349D01*
X160204000Y-91318349D02*
X157540000Y-91318349D01*
X160222000Y-91278349D02*
X157540000Y-91278349D01*
X160240000Y-91238349D02*
X157540000Y-91238349D01*
X160257000Y-91198349D02*
X157540000Y-91198349D01*
X160274000Y-91158349D02*
X157540000Y-91158349D01*
X160290000Y-91118349D02*
X157540000Y-91118349D01*
X160305000Y-91078349D02*
X157540000Y-91078349D01*
X160321000Y-91038349D02*
X157540000Y-91038349D01*
X160335000Y-90998349D02*
X157540000Y-90998349D01*
X160350000Y-90958349D02*
X157540000Y-90958349D01*
X160363000Y-90918349D02*
X157540000Y-90918349D01*
X160377000Y-90878349D02*
X157540000Y-90878349D01*
X160389000Y-90838349D02*
X157540000Y-90838349D01*
X160402000Y-90798349D02*
X157540000Y-90798349D01*
X160414000Y-90758349D02*
X157540000Y-90758349D01*
X160425000Y-90718349D02*
X157540000Y-90718349D01*
X160436000Y-90678349D02*
X157540000Y-90678349D01*
X160447000Y-90638349D02*
X157540000Y-90638349D01*
X160457000Y-90598349D02*
X157540000Y-90598349D01*
X160467000Y-90558349D02*
X157540000Y-90558349D01*
X160476000Y-90518349D02*
X157540000Y-90518349D01*
X160485000Y-90478349D02*
X157540000Y-90478349D01*
X160494000Y-90438349D02*
X157540000Y-90438349D01*
X160502000Y-90398349D02*
X157540000Y-90398349D01*
X160510000Y-90358349D02*
X157540000Y-90358349D01*
X160517000Y-90318349D02*
X157540000Y-90318349D01*
X160524000Y-90277349D02*
X152476000Y-90277349D01*
X160530000Y-90237349D02*
X152470000Y-90237349D01*
X160537000Y-90197349D02*
X152463000Y-90197349D01*
X160542000Y-90157349D02*
X152458000Y-90157349D01*
X160548000Y-90117349D02*
X152452000Y-90117349D01*
X160552000Y-90077349D02*
X152448000Y-90077349D01*
X160557000Y-90037349D02*
X152443000Y-90037349D01*
X160561000Y-89997349D02*
X152439000Y-89997349D01*
X160565000Y-89957349D02*
X152435000Y-89957349D01*
X160568000Y-89917349D02*
X152432000Y-89917349D01*
X160571000Y-89877349D02*
X152429000Y-89877349D01*
X160574000Y-89837349D02*
X152426000Y-89837349D01*
X160576000Y-89797349D02*
X152424000Y-89797349D01*
X160577000Y-89757349D02*
X152423000Y-89757349D01*
X160579000Y-89717349D02*
X152421000Y-89717349D01*
X160580000Y-89597349D02*
X152420000Y-89597349D01*
X160580000Y-89637349D02*
X152420000Y-89637349D01*
X160580000Y-89677349D02*
X152420000Y-89677349D01*
X160620000Y-89597349D02*
G75*
G02*
X152380000Y-89597349I-4120000J0D01*
G01*
X152380000Y-89597349D02*
G75*
G02*
X160620000Y-89597349I4120000J0D01*
G01*
D15*
X142000000Y-89300000D02*
X150000000Y-89300000D01*
X150000000Y-91700000D01*
X142000000Y-91700000D01*
X142000000Y-89300000D01*
D11*
X155720000Y-112070000D02*
X163880000Y-112070000D01*
X155720000Y-112110000D02*
X163880000Y-112110000D01*
X155720000Y-112150000D02*
X163880000Y-112150000D01*
X155721000Y-112030000D02*
X163879000Y-112030000D01*
X155723000Y-111990000D02*
X163877000Y-111990000D01*
X155724000Y-111950000D02*
X163876000Y-111950000D01*
X155726000Y-111910000D02*
X163874000Y-111910000D01*
X155729000Y-111870000D02*
X163871000Y-111870000D01*
X155732000Y-111830000D02*
X163868000Y-111830000D01*
X155735000Y-111790000D02*
X163865000Y-111790000D01*
X155739000Y-111750000D02*
X163861000Y-111750000D01*
X155743000Y-111710000D02*
X163857000Y-111710000D01*
X155748000Y-111670000D02*
X163852000Y-111670000D01*
X155752000Y-111630000D02*
X163848000Y-111630000D01*
X155758000Y-111590000D02*
X163842000Y-111590000D01*
X155763000Y-111550000D02*
X163837000Y-111550000D01*
X155770000Y-111510000D02*
X163830000Y-111510000D01*
X155776000Y-111470000D02*
X163824000Y-111470000D01*
X155783000Y-111429000D02*
X158760000Y-111429000D01*
X155790000Y-111389000D02*
X158760000Y-111389000D01*
X155798000Y-111349000D02*
X158760000Y-111349000D01*
X155806000Y-111309000D02*
X158760000Y-111309000D01*
X155815000Y-111269000D02*
X158760000Y-111269000D01*
X155824000Y-111229000D02*
X158760000Y-111229000D01*
X155833000Y-111189000D02*
X158760000Y-111189000D01*
X155843000Y-111149000D02*
X158760000Y-111149000D01*
X155853000Y-111109000D02*
X158760000Y-111109000D01*
X155864000Y-111069000D02*
X158760000Y-111069000D01*
X155875000Y-111029000D02*
X158760000Y-111029000D01*
X155886000Y-110989000D02*
X158760000Y-110989000D01*
X155898000Y-110949000D02*
X158760000Y-110949000D01*
X155911000Y-110909000D02*
X158760000Y-110909000D01*
X155923000Y-110869000D02*
X158760000Y-110869000D01*
X155937000Y-110829000D02*
X158760000Y-110829000D01*
X155950000Y-110789000D02*
X158760000Y-110789000D01*
X155965000Y-110749000D02*
X158760000Y-110749000D01*
X155979000Y-110709000D02*
X158760000Y-110709000D01*
X155995000Y-110669000D02*
X158760000Y-110669000D01*
X156010000Y-110629000D02*
X158760000Y-110629000D01*
X156026000Y-110589000D02*
X158760000Y-110589000D01*
X156043000Y-110549000D02*
X158760000Y-110549000D01*
X156060000Y-110509000D02*
X158760000Y-110509000D01*
X156078000Y-110469000D02*
X158760000Y-110469000D01*
X156096000Y-110429000D02*
X158760000Y-110429000D01*
X156114000Y-110389000D02*
X158760000Y-110389000D01*
X156134000Y-110349000D02*
X158760000Y-110349000D01*
X156153000Y-110309000D02*
X158760000Y-110309000D01*
X156173000Y-110269000D02*
X158760000Y-110269000D01*
X156194000Y-110229000D02*
X158760000Y-110229000D01*
X156216000Y-110189000D02*
X158760000Y-110189000D01*
X156238000Y-110149000D02*
X158760000Y-110149000D01*
X156260000Y-110109000D02*
X158760000Y-110109000D01*
X156283000Y-110069000D02*
X158760000Y-110069000D01*
X156307000Y-110029000D02*
X158760000Y-110029000D01*
X156331000Y-109989000D02*
X158760000Y-109989000D01*
X156356000Y-109949000D02*
X158760000Y-109949000D01*
X156382000Y-109909000D02*
X158760000Y-109909000D01*
X156408000Y-109869000D02*
X158760000Y-109869000D01*
X156435000Y-109829000D02*
X158760000Y-109829000D01*
X156462000Y-109789000D02*
X158760000Y-109789000D01*
X156491000Y-109749000D02*
X158760000Y-109749000D01*
X156520000Y-109709000D02*
X158760000Y-109709000D01*
X156550000Y-109669000D02*
X158760000Y-109669000D01*
X156580000Y-109629000D02*
X158760000Y-109629000D01*
X156611000Y-109589000D02*
X158760000Y-109589000D01*
X156644000Y-109549000D02*
X158760000Y-109549000D01*
X156676000Y-109509000D02*
X158760000Y-109509000D01*
X156710000Y-109469000D02*
X158760000Y-109469000D01*
X156745000Y-109429000D02*
X158760000Y-109429000D01*
X156781000Y-109389000D02*
X158760000Y-109389000D01*
X156817000Y-109349000D02*
X162783000Y-109349000D01*
X156855000Y-109309000D02*
X162745000Y-109309000D01*
X156893000Y-109269000D02*
X162707000Y-109269000D01*
X156933000Y-109229000D02*
X162667000Y-109229000D01*
X156974000Y-109189000D02*
X162626000Y-109189000D01*
X157016000Y-109149000D02*
X162584000Y-109149000D01*
X157059000Y-109109000D02*
X162541000Y-109109000D01*
X157085000Y-116159698D02*
X157885000Y-116159698D01*
X157103000Y-109069000D02*
X162497000Y-109069000D01*
X157149000Y-109029000D02*
X162451000Y-109029000D01*
X157196000Y-108989000D02*
X162404000Y-108989000D01*
X157244000Y-108949000D02*
X162356000Y-108949000D01*
X157295000Y-108909000D02*
X162305000Y-108909000D01*
X157346000Y-108869000D02*
X162254000Y-108869000D01*
X157400000Y-108829000D02*
X162200000Y-108829000D01*
X157455000Y-108789000D02*
X162145000Y-108789000D01*
X157485000Y-116559698D02*
X157485000Y-115759698D01*
X157513000Y-108749000D02*
X162087000Y-108749000D01*
X157572000Y-108709000D02*
X162028000Y-108709000D01*
X157634000Y-108669000D02*
X161966000Y-108669000D01*
X157698000Y-108629000D02*
X161902000Y-108629000D01*
X157766000Y-108589000D02*
X161834000Y-108589000D01*
X157836000Y-108549000D02*
X161764000Y-108549000D01*
X157910000Y-108509000D02*
X161690000Y-108509000D01*
X157987000Y-108469000D02*
X161613000Y-108469000D01*
X158069000Y-108429000D02*
X161531000Y-108429000D01*
X158155000Y-108389000D02*
X161445000Y-108389000D01*
X158248000Y-108349000D02*
X161352000Y-108349000D01*
X158347000Y-108309000D02*
X161253000Y-108309000D01*
X158454000Y-108269000D02*
X161146000Y-108269000D01*
X158571000Y-108229000D02*
X161029000Y-108229000D01*
X158702000Y-108189000D02*
X160898000Y-108189000D01*
X158852000Y-108149000D02*
X160748000Y-108149000D01*
X159032000Y-108109000D02*
X160568000Y-108109000D01*
X159267000Y-108069000D02*
X160333000Y-108069000D01*
X160840000Y-109389000D02*
X162819000Y-109389000D01*
X160840000Y-109429000D02*
X162855000Y-109429000D01*
X160840000Y-109469000D02*
X162890000Y-109469000D01*
X160840000Y-109509000D02*
X162924000Y-109509000D01*
X160840000Y-109549000D02*
X162956000Y-109549000D01*
X160840000Y-109589000D02*
X162989000Y-109589000D01*
X160840000Y-109629000D02*
X163020000Y-109629000D01*
X160840000Y-109669000D02*
X163050000Y-109669000D01*
X160840000Y-109709000D02*
X163080000Y-109709000D01*
X160840000Y-109749000D02*
X163109000Y-109749000D01*
X160840000Y-109789000D02*
X163138000Y-109789000D01*
X160840000Y-109829000D02*
X163165000Y-109829000D01*
X160840000Y-109869000D02*
X163192000Y-109869000D01*
X160840000Y-109909000D02*
X163218000Y-109909000D01*
X160840000Y-109949000D02*
X163244000Y-109949000D01*
X160840000Y-109989000D02*
X163269000Y-109989000D01*
X160840000Y-110029000D02*
X163293000Y-110029000D01*
X160840000Y-110069000D02*
X163317000Y-110069000D01*
X160840000Y-110109000D02*
X163340000Y-110109000D01*
X160840000Y-110149000D02*
X163362000Y-110149000D01*
X160840000Y-110189000D02*
X163384000Y-110189000D01*
X160840000Y-110229000D02*
X163406000Y-110229000D01*
X160840000Y-110269000D02*
X163427000Y-110269000D01*
X160840000Y-110309000D02*
X163447000Y-110309000D01*
X160840000Y-110349000D02*
X163466000Y-110349000D01*
X160840000Y-110389000D02*
X163486000Y-110389000D01*
X160840000Y-110429000D02*
X163504000Y-110429000D01*
X160840000Y-110469000D02*
X163522000Y-110469000D01*
X160840000Y-110509000D02*
X163540000Y-110509000D01*
X160840000Y-110549000D02*
X163557000Y-110549000D01*
X160840000Y-110589000D02*
X163574000Y-110589000D01*
X160840000Y-110629000D02*
X163590000Y-110629000D01*
X160840000Y-110669000D02*
X163605000Y-110669000D01*
X160840000Y-110709000D02*
X163621000Y-110709000D01*
X160840000Y-110749000D02*
X163635000Y-110749000D01*
X160840000Y-110789000D02*
X163650000Y-110789000D01*
X160840000Y-110829000D02*
X163663000Y-110829000D01*
X160840000Y-110869000D02*
X163677000Y-110869000D01*
X160840000Y-110909000D02*
X163689000Y-110909000D01*
X160840000Y-110949000D02*
X163702000Y-110949000D01*
X160840000Y-110989000D02*
X163714000Y-110989000D01*
X160840000Y-111029000D02*
X163725000Y-111029000D01*
X160840000Y-111069000D02*
X163736000Y-111069000D01*
X160840000Y-111109000D02*
X163747000Y-111109000D01*
X160840000Y-111149000D02*
X163757000Y-111149000D01*
X160840000Y-111189000D02*
X163767000Y-111189000D01*
X160840000Y-111229000D02*
X163776000Y-111229000D01*
X160840000Y-111269000D02*
X163785000Y-111269000D01*
X160840000Y-111309000D02*
X163794000Y-111309000D01*
X160840000Y-111349000D02*
X163802000Y-111349000D01*
X160840000Y-111389000D02*
X163810000Y-111389000D01*
X160840000Y-111429000D02*
X163817000Y-111429000D01*
X163920000Y-112150000D02*
G75*
G02*
X155680000Y-112150000I-4120000J0D01*
G01*
X155680000Y-112150000D02*
G75*
G02*
X163920000Y-112150000I4120000J0D01*
G01*
D15*
X160200000Y-97000000D02*
X157800000Y-97000000D01*
X157800000Y-105000000D01*
X160200000Y-105000000D01*
X160200000Y-97000000D01*
M02*
