G04 #@! TF.GenerationSoftware,KiCad,Pcbnew,9.0.4*
G04 #@! TF.CreationDate,2025-09-12T18:01:42+08:00*
G04 #@! TF.ProjectId,boost-convertor,626f6f73-742d-4636-9f6e-766572746f72,rev?*
G04 #@! TF.SameCoordinates,Original*
G04 #@! TF.FileFunction,Copper,L4,Bot*
G04 #@! TF.FilePolarity,Positive*
%FSLAX46Y46*%
G04 Gerber Fmt 4.6, Leading zero omitted, Abs format (unit mm)*
G04 Created by KiCad (PCBNEW 9.0.4) date 2025-09-12 18:01:42*
%MOMM*%
%LPD*%
G01*
G04 APERTURE LIST*
G04 #@! TA.AperFunction,WasherPad*
%ADD10O,1.700000X1.000000*%
G04 #@! TD*
G04 #@! TA.AperFunction,ComponentPad*
%ADD11C,1.700000*%
G04 #@! TD*
G04 #@! TA.AperFunction,ComponentPad*
%ADD12C,1.200000*%
G04 #@! TD*
G04 #@! TA.AperFunction,ComponentPad*
%ADD13R,1.676400X1.676400*%
G04 #@! TD*
G04 #@! TA.AperFunction,ComponentPad*
%ADD14C,1.676400*%
G04 #@! TD*
G04 #@! TA.AperFunction,ComponentPad*
%ADD15R,1.600000X1.600000*%
G04 #@! TD*
G04 #@! TA.AperFunction,ComponentPad*
%ADD16C,1.600000*%
G04 #@! TD*
G04 #@! TA.AperFunction,ComponentPad*
%ADD17R,1.218000X1.218000*%
G04 #@! TD*
G04 #@! TA.AperFunction,ComponentPad*
%ADD18C,1.218000*%
G04 #@! TD*
G04 #@! TA.AperFunction,ViaPad*
%ADD19C,0.600000*%
G04 #@! TD*
G04 #@! TA.AperFunction,ViaPad*
%ADD20C,0.800000*%
G04 #@! TD*
G04 #@! TA.AperFunction,Conductor*
%ADD21C,0.200000*%
G04 #@! TD*
G04 #@! TA.AperFunction,Conductor*
%ADD22C,0.500000*%
G04 #@! TD*
G04 APERTURE END LIST*
D10*
X90078900Y-69820032D03*
X93878900Y-69820002D03*
X93878900Y-61179998D03*
X90078900Y-61179968D03*
D11*
X135900000Y-64500000D03*
X135900000Y-68000000D03*
D12*
X111400000Y-102000000D03*
X108860000Y-91840000D03*
X106320000Y-91840000D03*
X98700000Y-91840000D03*
X103780000Y-102000000D03*
X108860000Y-102000000D03*
X103780000Y-91840000D03*
X98700000Y-102000000D03*
X101240000Y-102000000D03*
X106320000Y-102000000D03*
X111400000Y-91840000D03*
X101240000Y-91840000D03*
D13*
X119440000Y-65810000D03*
D14*
X121980000Y-65810000D03*
X124520000Y-65810000D03*
X127060000Y-65810000D03*
X127060000Y-58190000D03*
X124520000Y-58190000D03*
X121980000Y-58190000D03*
X119440000Y-58190000D03*
D15*
X101250000Y-53250000D03*
D16*
X104750000Y-53250000D03*
D11*
X124450000Y-92695000D03*
X124450000Y-95235000D03*
X124450000Y-97775000D03*
X124450000Y-100315000D03*
X124450000Y-102855000D03*
D14*
X108920000Y-69500000D03*
X119080000Y-69500000D03*
D15*
X137750000Y-53250000D03*
D16*
X134250000Y-53250000D03*
D17*
X120670000Y-53500000D03*
D18*
X123210000Y-53500000D03*
X125750000Y-53500000D03*
D19*
X98125000Y-81575000D03*
X93500000Y-81550000D03*
X92375000Y-80225000D03*
X105625000Y-87125000D03*
X104550000Y-81325000D03*
X94300000Y-83550000D03*
X137500000Y-88250000D03*
D20*
X99250000Y-59000000D03*
X130250000Y-60750000D03*
X107750000Y-49250000D03*
D19*
X135400000Y-76750000D03*
X122535598Y-89764402D03*
X119800000Y-76000000D03*
D20*
X98000000Y-71500000D03*
D19*
X101650000Y-75400000D03*
D20*
X130500000Y-74500000D03*
D19*
X135500000Y-79500000D03*
D20*
X96250000Y-57250000D03*
X128750000Y-50750000D03*
D19*
X127250000Y-77500000D03*
D20*
X101250000Y-63500000D03*
D19*
X103525000Y-81950000D03*
X124935598Y-89835598D03*
X139000000Y-79500000D03*
X138250000Y-79250000D03*
X108800000Y-82200000D03*
X124250000Y-77500000D03*
D20*
X96250000Y-73750000D03*
D19*
X130775000Y-81775000D03*
X121710000Y-89750000D03*
X116370000Y-88030000D03*
D20*
X105500000Y-65000000D03*
X97800000Y-64975000D03*
D19*
X113750000Y-53500000D03*
X130600000Y-78000000D03*
X139000000Y-87400000D03*
X130600000Y-83800000D03*
X132400000Y-87300000D03*
X138100000Y-87400000D03*
X105350000Y-80450000D03*
X116225000Y-86950000D03*
X103700000Y-85800000D03*
X101540000Y-88030000D03*
X93370000Y-78500000D03*
X93300000Y-86925000D03*
D21*
X98425000Y-81875000D02*
X98125000Y-81575000D01*
X99300000Y-88850000D02*
X98425000Y-87975000D01*
X101350000Y-88850000D02*
X99300000Y-88850000D01*
X108410000Y-88850000D02*
X101350000Y-88850000D01*
X98425000Y-87975000D02*
X98425000Y-81875000D01*
X111400000Y-91840000D02*
X108410000Y-88850000D01*
X97250000Y-83825000D02*
X95550000Y-82125000D01*
X98275000Y-89450000D02*
X97250000Y-88425000D01*
X97250000Y-88425000D02*
X97250000Y-83825000D01*
X95550000Y-82125000D02*
X94075000Y-82125000D01*
X98425000Y-89450000D02*
X98275000Y-89450000D01*
X101390000Y-89450000D02*
X98425000Y-89450000D01*
X94075000Y-82125000D02*
X93500000Y-81550000D01*
X103780000Y-91840000D02*
X101390000Y-89450000D01*
X101240000Y-91015000D02*
X101240000Y-91840000D01*
X100350000Y-90125000D02*
X101240000Y-91015000D01*
X96425000Y-88650000D02*
X97900000Y-90125000D01*
X97900000Y-90125000D02*
X100350000Y-90125000D01*
X93425000Y-82950000D02*
X95025000Y-82950000D01*
X92375000Y-81900000D02*
X93425000Y-82950000D01*
X95025000Y-82950000D02*
X96425000Y-84350000D01*
X96425000Y-84350000D02*
X96425000Y-88650000D01*
X92375000Y-80225000D02*
X92375000Y-81900000D01*
X105625000Y-82400000D02*
X105625000Y-87125000D01*
X104550000Y-81325000D02*
X105625000Y-82400000D01*
X101855000Y-100075000D02*
X103780000Y-102000000D01*
X94600000Y-100075000D02*
X101855000Y-100075000D01*
X103170000Y-98850000D02*
X106320000Y-102000000D01*
X95600000Y-98850000D02*
X103170000Y-98850000D01*
X94200000Y-97450000D02*
X95600000Y-98850000D01*
X94200000Y-83650000D02*
X94200000Y-97450000D01*
X94300000Y-83550000D02*
X94200000Y-83650000D01*
X93300000Y-98775000D02*
X94600000Y-100075000D01*
X129550000Y-90775000D02*
X129550000Y-95215000D01*
X126200000Y-81775000D02*
X126200000Y-87425000D01*
X126200000Y-87425000D02*
X129550000Y-90775000D01*
X130775000Y-81775000D02*
X126200000Y-81775000D01*
X129550000Y-95215000D02*
X124450000Y-100315000D01*
X94490000Y-77380000D02*
X109480000Y-77380000D01*
X117875000Y-88425000D02*
X119200000Y-89750000D01*
X109480000Y-77380000D02*
X117875000Y-85775000D01*
X121710000Y-89750000D02*
X121710000Y-95035000D01*
X119200000Y-89750000D02*
X121710000Y-89750000D01*
X117875000Y-85775000D02*
X117875000Y-88425000D01*
X121710000Y-95035000D02*
X124450000Y-97775000D01*
D22*
X97800000Y-64975000D02*
X97825000Y-65000000D01*
X97825000Y-65000000D02*
X105500000Y-65000000D01*
X119500000Y-55500000D02*
X124370000Y-55500000D01*
X117500000Y-53500000D02*
X119500000Y-55500000D01*
X124370000Y-55500000D02*
X127060000Y-58190000D01*
X113750000Y-53500000D02*
X117500000Y-53500000D01*
D21*
X130600000Y-83800000D02*
X138600000Y-83800000D01*
X139600000Y-84800000D02*
X139600000Y-86800000D01*
X131800000Y-78000000D02*
X133225000Y-79425000D01*
X133225000Y-82250000D02*
X131675000Y-83800000D01*
X131675000Y-83800000D02*
X130600000Y-83800000D01*
X139600000Y-86800000D02*
X139000000Y-87400000D01*
X138600000Y-83800000D02*
X139600000Y-84800000D01*
X130600000Y-78000000D02*
X131800000Y-78000000D01*
X133225000Y-79425000D02*
X133225000Y-82250000D01*
X132400000Y-87300000D02*
X138050057Y-87300000D01*
X138050057Y-87300000D02*
X138100000Y-87349943D01*
X138100000Y-87349943D02*
X138100000Y-87400000D01*
X106375000Y-81475000D02*
X106375000Y-83475000D01*
X105350000Y-80450000D02*
X106375000Y-81475000D01*
X112750000Y-83475000D02*
X116225000Y-86950000D01*
X106375000Y-83475000D02*
X112750000Y-83475000D01*
X116370000Y-88030000D02*
X101540000Y-88030000D01*
X93370000Y-78500000D02*
X94490000Y-77380000D01*
X93300000Y-86925000D02*
X93300000Y-98775000D01*
M02*
