G04 #@! TF.GenerationSoftware,KiCad,Pcbnew,9.0.4*
G04 #@! TF.CreationDate,2025-09-12T18:01:42+08:00*
G04 #@! TF.ProjectId,boost-convertor,626f6f73-742d-4636-9f6e-766572746f72,rev?*
G04 #@! TF.SameCoordinates,Original*
G04 #@! TF.FileFunction,Soldermask,Top*
G04 #@! TF.FilePolarity,Negative*
%FSLAX46Y46*%
G04 Gerber Fmt 4.6, Leading zero omitted, Abs format (unit mm)*
G04 Created by KiCad (PCBNEW 9.0.4) date 2025-09-12 18:01:42*
%MOMM*%
%LPD*%
G01*
G04 APERTURE LIST*
G04 Aperture macros list*
%AMRoundRect*
0 Rectangle with rounded corners*
0 $1 Rounding radius*
0 $2 $3 $4 $5 $6 $7 $8 $9 X,Y pos of 4 corners*
0 Add a 4 corners polygon primitive as box body*
4,1,4,$2,$3,$4,$5,$6,$7,$8,$9,$2,$3,0*
0 Add four circle primitives for the rounded corners*
1,1,$1+$1,$2,$3*
1,1,$1+$1,$4,$5*
1,1,$1+$1,$6,$7*
1,1,$1+$1,$8,$9*
0 Add four rect primitives between the rounded corners*
20,1,$1+$1,$2,$3,$4,$5,0*
20,1,$1+$1,$4,$5,$6,$7,0*
20,1,$1+$1,$6,$7,$8,$9,0*
20,1,$1+$1,$8,$9,$2,$3,0*%
G04 Aperture macros list end*
%ADD10R,1.200000X0.920000*%
%ADD11R,1.200000X0.820000*%
%ADD12R,1.200000X0.720000*%
%ADD13O,1.700000X1.000000*%
%ADD14C,1.700000*%
%ADD15RoundRect,0.059250X0.617750X0.177750X-0.617750X0.177750X-0.617750X-0.177750X0.617750X-0.177750X0*%
%ADD16C,1.200000*%
%ADD17O,0.299999X1.350000*%
%ADD18R,0.507200X1.416799*%
%ADD19R,1.416799X0.507200*%
%ADD20RoundRect,0.225000X-0.250000X0.225000X-0.250000X-0.225000X0.250000X-0.225000X0.250000X0.225000X0*%
%ADD21RoundRect,0.102000X0.838200X-0.838200X0.838200X0.838200X-0.838200X0.838200X-0.838200X-0.838200X0*%
%ADD22C,1.880400*%
%ADD23RoundRect,0.225000X-0.225000X-0.250000X0.225000X-0.250000X0.225000X0.250000X-0.225000X0.250000X0*%
%ADD24RoundRect,0.200000X-0.200000X-0.275000X0.200000X-0.275000X0.200000X0.275000X-0.200000X0.275000X0*%
%ADD25RoundRect,0.200000X-0.275000X0.200000X-0.275000X-0.200000X0.275000X-0.200000X0.275000X0.200000X0*%
%ADD26RoundRect,0.250000X-0.250000X-0.475000X0.250000X-0.475000X0.250000X0.475000X-0.250000X0.475000X0*%
%ADD27RoundRect,0.200000X0.200000X0.275000X-0.200000X0.275000X-0.200000X-0.275000X0.200000X-0.275000X0*%
%ADD28RoundRect,0.225000X0.225000X0.250000X-0.225000X0.250000X-0.225000X-0.250000X0.225000X-0.250000X0*%
%ADD29R,1.600000X1.600000*%
%ADD30C,1.600000*%
%ADD31RoundRect,0.419642X-1.330358X0.755358X-1.330358X-0.755358X1.330358X-0.755358X1.330358X0.755358X0*%
%ADD32R,0.500000X2.800000*%
%ADD33RoundRect,0.200000X0.275000X-0.200000X0.275000X0.200000X-0.275000X0.200000X-0.275000X-0.200000X0*%
%ADD34RoundRect,0.102000X-0.609000X-0.609000X0.609000X-0.609000X0.609000X0.609000X-0.609000X0.609000X0*%
%ADD35C,1.422000*%
G04 APERTURE END LIST*
D10*
X94359200Y-62750000D03*
D11*
X94359200Y-63980000D03*
D12*
X94359200Y-65999999D03*
D10*
X94359200Y-68250000D03*
D11*
X94359200Y-67020000D03*
D12*
X94359200Y-65000001D03*
D13*
X90078900Y-69820032D03*
X93878900Y-69820002D03*
X93878900Y-61179998D03*
X90078900Y-61179968D03*
D14*
X135900000Y-64500000D03*
X135900000Y-68000000D03*
D15*
X96210000Y-86585000D03*
X96210000Y-85955000D03*
X96210000Y-85325000D03*
X96210000Y-84695000D03*
X96210000Y-84065000D03*
X96210000Y-83435000D03*
X96210000Y-82805000D03*
X96210000Y-82175000D03*
X96210000Y-81545000D03*
X96210000Y-80915000D03*
X96210000Y-80285000D03*
X96210000Y-79655000D03*
X101210000Y-79655000D03*
X101210000Y-80285000D03*
X101210000Y-80915000D03*
X101210000Y-81545000D03*
X101210000Y-82175000D03*
X101210000Y-82805000D03*
X101210000Y-83435000D03*
X101210000Y-84065000D03*
X101210000Y-84695000D03*
X101210000Y-85325000D03*
X101210000Y-85955000D03*
X101210000Y-86585000D03*
D16*
X111400000Y-102000000D03*
X108860000Y-91840000D03*
X106320000Y-91840000D03*
X98700000Y-91840000D03*
X103780000Y-102000000D03*
X108860000Y-102000000D03*
X103780000Y-91840000D03*
X98700000Y-102000000D03*
X101240000Y-102000000D03*
X106320000Y-102000000D03*
X111400000Y-91840000D03*
X101240000Y-91840000D03*
D17*
X138500001Y-81525001D03*
X138000002Y-81525001D03*
X137500000Y-81525001D03*
X137000001Y-81525001D03*
X136499999Y-81525001D03*
X136499999Y-85975002D03*
X137000001Y-85975002D03*
X137500000Y-85975002D03*
X138000002Y-85975002D03*
X138500001Y-85975002D03*
D18*
X127335598Y-79135599D03*
X126535600Y-79135599D03*
X125735599Y-79135599D03*
X124935598Y-79135599D03*
X124135600Y-79135599D03*
X123335599Y-79135599D03*
X122535600Y-79135599D03*
X121735600Y-79135599D03*
D19*
X120271198Y-80600001D03*
X120271198Y-81399999D03*
X120271198Y-82200000D03*
X120271198Y-83000001D03*
X120271198Y-83799999D03*
X120271198Y-84600000D03*
X120271198Y-85399999D03*
X120271198Y-86199999D03*
D18*
X121735600Y-87664401D03*
X122535598Y-87664401D03*
X123335599Y-87664401D03*
X124135600Y-87664401D03*
X124935598Y-87664401D03*
X125735599Y-87664401D03*
X126535598Y-87664401D03*
X127335598Y-87664401D03*
D19*
X128800000Y-86199999D03*
X128800000Y-85400001D03*
X128800000Y-84600000D03*
X128800000Y-83799999D03*
X128800000Y-83000001D03*
X128800000Y-82200000D03*
X128800000Y-81400001D03*
X128800000Y-80600001D03*
D20*
X110600000Y-83800000D03*
X110600000Y-85350000D03*
D21*
X119440000Y-65810000D03*
D22*
X121980000Y-65810000D03*
X124520000Y-65810000D03*
X127060000Y-65810000D03*
X127060000Y-58190000D03*
X124520000Y-58190000D03*
X121980000Y-58190000D03*
X119440000Y-58190000D03*
D23*
X121975000Y-76000000D03*
X123525000Y-76000000D03*
D20*
X110600000Y-78625000D03*
X110600000Y-80175000D03*
D24*
X110425000Y-52000000D03*
X112075000Y-52000000D03*
D25*
X99300000Y-61675000D03*
X99300000Y-63325000D03*
D24*
X114425000Y-55250000D03*
X116075000Y-55250000D03*
D26*
X105800000Y-74375000D03*
X107700000Y-74375000D03*
D24*
X114425000Y-52000000D03*
X116075000Y-52000000D03*
D27*
X134075000Y-86000000D03*
X132425000Y-86000000D03*
D28*
X127275000Y-76000000D03*
X125725000Y-76000000D03*
D27*
X134075000Y-83000000D03*
X132425000Y-83000000D03*
X134075000Y-74500000D03*
X132425000Y-74500000D03*
D29*
X101250000Y-53250000D03*
D30*
X104750000Y-53250000D03*
D27*
X99600000Y-76475000D03*
X97950000Y-76475000D03*
D25*
X130250000Y-52675000D03*
X130250000Y-54325000D03*
D31*
X112000000Y-59225000D03*
X112000000Y-65275000D03*
D23*
X121975000Y-69750000D03*
X123525000Y-69750000D03*
D25*
X104000000Y-61675000D03*
X104000000Y-63325000D03*
D24*
X136850000Y-74500000D03*
X138500000Y-74500000D03*
D14*
X124450000Y-92695000D03*
X124450000Y-95235000D03*
X124450000Y-97775000D03*
X124450000Y-100315000D03*
X124450000Y-102855000D03*
D32*
X115400000Y-79400000D03*
X115400000Y-84800000D03*
D24*
X110425000Y-55250000D03*
X112075000Y-55250000D03*
D33*
X104000000Y-68225000D03*
X104000000Y-66575000D03*
D22*
X108920000Y-69500000D03*
X119080000Y-69500000D03*
D27*
X134150000Y-78000000D03*
X132500000Y-78000000D03*
D23*
X132475000Y-80250000D03*
X134025000Y-80250000D03*
D29*
X137750000Y-53250000D03*
D30*
X134250000Y-53250000D03*
D34*
X120670000Y-53500000D03*
D35*
X123210000Y-53500000D03*
X125750000Y-53500000D03*
M02*
