G04 #@! TF.GenerationSoftware,KiCad,Pcbnew,9.0.4*
G04 #@! TF.CreationDate,2025-09-12T18:01:42+08:00*
G04 #@! TF.ProjectId,boost-convertor,626f6f73-742d-4636-9f6e-766572746f72,rev?*
G04 #@! TF.SameCoordinates,Original*
G04 #@! TF.FileFunction,Copper,L1,Top*
G04 #@! TF.FilePolarity,Positive*
%FSLAX46Y46*%
G04 Gerber Fmt 4.6, Leading zero omitted, Abs format (unit mm)*
G04 Created by KiCad (PCBNEW 9.0.4) date 2025-09-12 18:01:42*
%MOMM*%
%LPD*%
G01*
G04 APERTURE LIST*
G04 Aperture macros list*
%AMRoundRect*
0 Rectangle with rounded corners*
0 $1 Rounding radius*
0 $2 $3 $4 $5 $6 $7 $8 $9 X,Y pos of 4 corners*
0 Add a 4 corners polygon primitive as box body*
4,1,4,$2,$3,$4,$5,$6,$7,$8,$9,$2,$3,0*
0 Add four circle primitives for the rounded corners*
1,1,$1+$1,$2,$3*
1,1,$1+$1,$4,$5*
1,1,$1+$1,$6,$7*
1,1,$1+$1,$8,$9*
0 Add four rect primitives between the rounded corners*
20,1,$1+$1,$2,$3,$4,$5,0*
20,1,$1+$1,$4,$5,$6,$7,0*
20,1,$1+$1,$6,$7,$8,$9,0*
20,1,$1+$1,$8,$9,$2,$3,0*%
G04 Aperture macros list end*
G04 #@! TA.AperFunction,SMDPad,CuDef*
%ADD10R,1.200000X0.920000*%
G04 #@! TD*
G04 #@! TA.AperFunction,SMDPad,CuDef*
%ADD11R,1.200000X0.820000*%
G04 #@! TD*
G04 #@! TA.AperFunction,SMDPad,CuDef*
%ADD12R,1.200000X0.720000*%
G04 #@! TD*
G04 #@! TA.AperFunction,WasherPad*
%ADD13O,1.700000X1.000000*%
G04 #@! TD*
G04 #@! TA.AperFunction,ComponentPad*
%ADD14C,1.700000*%
G04 #@! TD*
G04 #@! TA.AperFunction,SMDPad,CuDef*
%ADD15RoundRect,0.033750X0.541250X0.101250X-0.541250X0.101250X-0.541250X-0.101250X0.541250X-0.101250X0*%
G04 #@! TD*
G04 #@! TA.AperFunction,ComponentPad*
%ADD16C,1.200000*%
G04 #@! TD*
G04 #@! TA.AperFunction,SMDPad,CuDef*
%ADD17O,0.299999X1.350000*%
G04 #@! TD*
G04 #@! TA.AperFunction,SMDPad,CuDef*
%ADD18R,0.507200X1.416799*%
G04 #@! TD*
G04 #@! TA.AperFunction,SMDPad,CuDef*
%ADD19R,1.416799X0.507200*%
G04 #@! TD*
G04 #@! TA.AperFunction,SMDPad,CuDef*
%ADD20RoundRect,0.225000X-0.250000X0.225000X-0.250000X-0.225000X0.250000X-0.225000X0.250000X0.225000X0*%
G04 #@! TD*
G04 #@! TA.AperFunction,ComponentPad*
%ADD21R,1.676400X1.676400*%
G04 #@! TD*
G04 #@! TA.AperFunction,ComponentPad*
%ADD22C,1.676400*%
G04 #@! TD*
G04 #@! TA.AperFunction,SMDPad,CuDef*
%ADD23RoundRect,0.225000X-0.225000X-0.250000X0.225000X-0.250000X0.225000X0.250000X-0.225000X0.250000X0*%
G04 #@! TD*
G04 #@! TA.AperFunction,SMDPad,CuDef*
%ADD24RoundRect,0.200000X-0.200000X-0.275000X0.200000X-0.275000X0.200000X0.275000X-0.200000X0.275000X0*%
G04 #@! TD*
G04 #@! TA.AperFunction,SMDPad,CuDef*
%ADD25RoundRect,0.200000X-0.275000X0.200000X-0.275000X-0.200000X0.275000X-0.200000X0.275000X0.200000X0*%
G04 #@! TD*
G04 #@! TA.AperFunction,SMDPad,CuDef*
%ADD26RoundRect,0.250000X-0.250000X-0.475000X0.250000X-0.475000X0.250000X0.475000X-0.250000X0.475000X0*%
G04 #@! TD*
G04 #@! TA.AperFunction,SMDPad,CuDef*
%ADD27RoundRect,0.200000X0.200000X0.275000X-0.200000X0.275000X-0.200000X-0.275000X0.200000X-0.275000X0*%
G04 #@! TD*
G04 #@! TA.AperFunction,SMDPad,CuDef*
%ADD28RoundRect,0.225000X0.225000X0.250000X-0.225000X0.250000X-0.225000X-0.250000X0.225000X-0.250000X0*%
G04 #@! TD*
G04 #@! TA.AperFunction,ComponentPad*
%ADD29R,1.600000X1.600000*%
G04 #@! TD*
G04 #@! TA.AperFunction,ComponentPad*
%ADD30C,1.600000*%
G04 #@! TD*
G04 #@! TA.AperFunction,SMDPad,CuDef*
%ADD31RoundRect,0.419642X-1.330358X0.755358X-1.330358X-0.755358X1.330358X-0.755358X1.330358X0.755358X0*%
G04 #@! TD*
G04 #@! TA.AperFunction,SMDPad,CuDef*
%ADD32R,0.500000X2.800000*%
G04 #@! TD*
G04 #@! TA.AperFunction,SMDPad,CuDef*
%ADD33RoundRect,0.200000X0.275000X-0.200000X0.275000X0.200000X-0.275000X0.200000X-0.275000X-0.200000X0*%
G04 #@! TD*
G04 #@! TA.AperFunction,ComponentPad*
%ADD34R,1.218000X1.218000*%
G04 #@! TD*
G04 #@! TA.AperFunction,ComponentPad*
%ADD35C,1.218000*%
G04 #@! TD*
G04 #@! TA.AperFunction,ViaPad*
%ADD36C,0.600000*%
G04 #@! TD*
G04 #@! TA.AperFunction,ViaPad*
%ADD37C,0.800000*%
G04 #@! TD*
G04 #@! TA.AperFunction,Conductor*
%ADD38C,0.500000*%
G04 #@! TD*
G04 #@! TA.AperFunction,Conductor*
%ADD39C,0.200000*%
G04 #@! TD*
G04 APERTURE END LIST*
D10*
X94359200Y-62750000D03*
D11*
X94359200Y-63980000D03*
D12*
X94359200Y-65999999D03*
D10*
X94359200Y-68250000D03*
D11*
X94359200Y-67020000D03*
D12*
X94359200Y-65000001D03*
D13*
X90078900Y-69820032D03*
X93878900Y-69820002D03*
X93878900Y-61179998D03*
X90078900Y-61179968D03*
D14*
X135900000Y-64500000D03*
X135900000Y-68000000D03*
D15*
X96210000Y-86585000D03*
X96210000Y-85955000D03*
X96210000Y-85325000D03*
X96210000Y-84695000D03*
X96210000Y-84065000D03*
X96210000Y-83435000D03*
X96210000Y-82805000D03*
X96210000Y-82175000D03*
X96210000Y-81545000D03*
X96210000Y-80915000D03*
X96210000Y-80285000D03*
X96210000Y-79655000D03*
X101210000Y-79655000D03*
X101210000Y-80285000D03*
X101210000Y-80915000D03*
X101210000Y-81545000D03*
X101210000Y-82175000D03*
X101210000Y-82805000D03*
X101210000Y-83435000D03*
X101210000Y-84065000D03*
X101210000Y-84695000D03*
X101210000Y-85325000D03*
X101210000Y-85955000D03*
X101210000Y-86585000D03*
D16*
X111400000Y-102000000D03*
X108860000Y-91840000D03*
X106320000Y-91840000D03*
X98700000Y-91840000D03*
X103780000Y-102000000D03*
X108860000Y-102000000D03*
X103780000Y-91840000D03*
X98700000Y-102000000D03*
X101240000Y-102000000D03*
X106320000Y-102000000D03*
X111400000Y-91840000D03*
X101240000Y-91840000D03*
D17*
X138500001Y-81525001D03*
X138000002Y-81525001D03*
X137500000Y-81525001D03*
X137000001Y-81525001D03*
X136499999Y-81525001D03*
X136499999Y-85975002D03*
X137000001Y-85975002D03*
X137500000Y-85975002D03*
X138000002Y-85975002D03*
X138500001Y-85975002D03*
D18*
X127335598Y-79135599D03*
X126535600Y-79135599D03*
X125735599Y-79135599D03*
X124935598Y-79135599D03*
X124135600Y-79135599D03*
X123335599Y-79135599D03*
X122535600Y-79135599D03*
X121735600Y-79135599D03*
D19*
X120271198Y-80600001D03*
X120271198Y-81399999D03*
X120271198Y-82200000D03*
X120271198Y-83000001D03*
X120271198Y-83799999D03*
X120271198Y-84600000D03*
X120271198Y-85399999D03*
X120271198Y-86199999D03*
D18*
X121735600Y-87664401D03*
X122535598Y-87664401D03*
X123335599Y-87664401D03*
X124135600Y-87664401D03*
X124935598Y-87664401D03*
X125735599Y-87664401D03*
X126535598Y-87664401D03*
X127335598Y-87664401D03*
D19*
X128800000Y-86199999D03*
X128800000Y-85400001D03*
X128800000Y-84600000D03*
X128800000Y-83799999D03*
X128800000Y-83000001D03*
X128800000Y-82200000D03*
X128800000Y-81400001D03*
X128800000Y-80600001D03*
D20*
X110600000Y-83800000D03*
X110600000Y-85350000D03*
D21*
X119440000Y-65810000D03*
D22*
X121980000Y-65810000D03*
X124520000Y-65810000D03*
X127060000Y-65810000D03*
X127060000Y-58190000D03*
X124520000Y-58190000D03*
X121980000Y-58190000D03*
X119440000Y-58190000D03*
D23*
X121975000Y-76000000D03*
X123525000Y-76000000D03*
D20*
X110600000Y-78625000D03*
X110600000Y-80175000D03*
D24*
X110425000Y-52000000D03*
X112075000Y-52000000D03*
D25*
X99300000Y-61675000D03*
X99300000Y-63325000D03*
D24*
X114425000Y-55250000D03*
X116075000Y-55250000D03*
D26*
X105800000Y-74375000D03*
X107700000Y-74375000D03*
D24*
X114425000Y-52000000D03*
X116075000Y-52000000D03*
D27*
X134075000Y-86000000D03*
X132425000Y-86000000D03*
D28*
X127275000Y-76000000D03*
X125725000Y-76000000D03*
D27*
X134075000Y-83000000D03*
X132425000Y-83000000D03*
X134075000Y-74500000D03*
X132425000Y-74500000D03*
D29*
X101250000Y-53250000D03*
D30*
X104750000Y-53250000D03*
D27*
X99600000Y-76475000D03*
X97950000Y-76475000D03*
D25*
X130250000Y-52675000D03*
X130250000Y-54325000D03*
D31*
X112000000Y-59225000D03*
X112000000Y-65275000D03*
D23*
X121975000Y-69750000D03*
X123525000Y-69750000D03*
D25*
X104000000Y-61675000D03*
X104000000Y-63325000D03*
D24*
X136850000Y-74500000D03*
X138500000Y-74500000D03*
D14*
X124450000Y-92695000D03*
X124450000Y-95235000D03*
X124450000Y-97775000D03*
X124450000Y-100315000D03*
X124450000Y-102855000D03*
D32*
X115400000Y-79400000D03*
X115400000Y-84800000D03*
D24*
X110425000Y-55250000D03*
X112075000Y-55250000D03*
D33*
X104000000Y-68225000D03*
X104000000Y-66575000D03*
D22*
X108920000Y-69500000D03*
X119080000Y-69500000D03*
D27*
X134150000Y-78000000D03*
X132500000Y-78000000D03*
D23*
X132475000Y-80250000D03*
X134025000Y-80250000D03*
D29*
X137750000Y-53250000D03*
D30*
X134250000Y-53250000D03*
D34*
X120670000Y-53500000D03*
D35*
X123210000Y-53500000D03*
X125750000Y-53500000D03*
D36*
X98125000Y-81575000D03*
X93500000Y-81550000D03*
X92375000Y-80225000D03*
X105625000Y-87125000D03*
X104550000Y-81325000D03*
X94300000Y-83550000D03*
X137500000Y-88250000D03*
D37*
X99250000Y-59000000D03*
X130250000Y-60750000D03*
X107750000Y-49250000D03*
D36*
X135400000Y-76750000D03*
X122535598Y-89764402D03*
X119800000Y-76000000D03*
D37*
X98000000Y-71500000D03*
D36*
X101650000Y-75400000D03*
D37*
X130500000Y-74500000D03*
D36*
X135500000Y-79500000D03*
D37*
X96250000Y-57250000D03*
X128750000Y-50750000D03*
D36*
X127250000Y-77500000D03*
D37*
X101250000Y-63500000D03*
D36*
X103525000Y-81950000D03*
X124935598Y-89835598D03*
X139000000Y-79500000D03*
X138250000Y-79250000D03*
X108800000Y-82200000D03*
X124250000Y-77500000D03*
D37*
X96250000Y-73750000D03*
D36*
X130775000Y-81775000D03*
X121710000Y-89750000D03*
X116370000Y-88030000D03*
D37*
X105500000Y-65000000D03*
X97800000Y-64975000D03*
D36*
X113750000Y-53500000D03*
X130600000Y-78000000D03*
X139000000Y-87400000D03*
X130600000Y-83800000D03*
X132400000Y-87300000D03*
X138100000Y-87400000D03*
X105350000Y-80450000D03*
X116225000Y-86950000D03*
X103700000Y-85800000D03*
X101540000Y-88030000D03*
X93370000Y-78500000D03*
X93300000Y-86925000D03*
D38*
X126250000Y-72000000D02*
X130250000Y-68000000D01*
X118170000Y-62000000D02*
X121980000Y-58190000D01*
X114775000Y-62000000D02*
X118170000Y-62000000D01*
X112000000Y-59225000D02*
X114775000Y-62000000D01*
X110425000Y-55250000D02*
X110425000Y-57650000D01*
X110425000Y-57650000D02*
X112000000Y-59225000D01*
D39*
X96240000Y-81575000D02*
X96210000Y-81545000D01*
X98125000Y-81575000D02*
X96240000Y-81575000D01*
X98615000Y-83435000D02*
X96210000Y-83435000D01*
X99600000Y-82450000D02*
X98615000Y-83435000D01*
X99600000Y-76475000D02*
X99600000Y-82450000D01*
X97995000Y-82805000D02*
X96210000Y-82805000D01*
X98850000Y-77375000D02*
X98850000Y-81950000D01*
X98850000Y-81950000D02*
X97995000Y-82805000D01*
X97950000Y-76475000D02*
X98850000Y-77375000D01*
X94135000Y-80915000D02*
X96210000Y-80915000D01*
X93500000Y-81550000D02*
X94135000Y-80915000D01*
X92435000Y-80285000D02*
X92375000Y-80225000D01*
X96210000Y-80285000D02*
X92435000Y-80285000D01*
X105625000Y-91145000D02*
X106320000Y-91840000D01*
X105625000Y-87125000D02*
X105625000Y-91145000D01*
X103510000Y-80285000D02*
X104550000Y-81325000D01*
X101210000Y-80285000D02*
X103510000Y-80285000D01*
X94815000Y-84065000D02*
X94300000Y-83550000D01*
X96210000Y-84065000D02*
X94815000Y-84065000D01*
X95635000Y-85955000D02*
X96210000Y-85955000D01*
X94125000Y-87465000D02*
X95635000Y-85955000D01*
X94125000Y-97900000D02*
X94125000Y-87465000D01*
X96275000Y-100050000D02*
X94125000Y-97900000D01*
X99290000Y-100050000D02*
X96275000Y-100050000D01*
X101240000Y-102000000D02*
X99290000Y-100050000D01*
X92175000Y-100200000D02*
X92175000Y-86725000D01*
X93975000Y-102000000D02*
X92175000Y-100200000D01*
X92175000Y-86725000D02*
X94205000Y-84695000D01*
X94205000Y-84695000D02*
X96210000Y-84695000D01*
X98700000Y-102000000D02*
X93975000Y-102000000D01*
X108860000Y-87510000D02*
X104785000Y-83435000D01*
X104785000Y-83435000D02*
X101210000Y-83435000D01*
X108860000Y-91840000D02*
X108860000Y-87510000D01*
X100620000Y-85955000D02*
X101210000Y-85955000D01*
X98700000Y-87875000D02*
X100620000Y-85955000D01*
X98700000Y-91840000D02*
X98700000Y-87875000D01*
X111525000Y-86625000D02*
X109725000Y-86625000D01*
X109725000Y-86625000D02*
X105905000Y-82805000D01*
X115100000Y-90200000D02*
X111525000Y-86625000D01*
X115100000Y-100025000D02*
X115100000Y-90200000D01*
X113125000Y-102000000D02*
X115100000Y-100025000D01*
X105905000Y-82805000D02*
X101210000Y-82805000D01*
X111400000Y-102000000D02*
X113125000Y-102000000D01*
X135750000Y-88250000D02*
X137500000Y-88250000D01*
X100675000Y-75400000D02*
X99600000Y-76475000D01*
X123335599Y-79135599D02*
X123335599Y-79899597D01*
X124371196Y-80500000D02*
X124935598Y-79935598D01*
X121975000Y-76000000D02*
X123335599Y-77360599D01*
X132475000Y-79675000D02*
X134150000Y-78000000D01*
X127275000Y-76000000D02*
X124935598Y-78339402D01*
D38*
X99250000Y-59000000D02*
X97500000Y-60750000D01*
D39*
X137500000Y-88250000D02*
X137500000Y-85975002D01*
X132475000Y-80250000D02*
X132475000Y-79675000D01*
D38*
X98000000Y-71500000D02*
X100725000Y-71500000D01*
X96520000Y-63980000D02*
X94359200Y-63980000D01*
X96270000Y-67020000D02*
X94359200Y-67020000D01*
D39*
X124935598Y-79935598D02*
X124935598Y-79135599D01*
X101650000Y-75400000D02*
X100675000Y-75400000D01*
X134075000Y-81850000D02*
X132475000Y-80250000D01*
D38*
X100725000Y-71500000D02*
X104000000Y-68225000D01*
X97500000Y-60750000D02*
X97500000Y-63000000D01*
D39*
X123335599Y-77360599D02*
X123335599Y-79135599D01*
X119800000Y-76000000D02*
X121975000Y-76000000D01*
X123936002Y-80500000D02*
X124371196Y-80500000D01*
D38*
X97250000Y-70750000D02*
X97250000Y-68000000D01*
X107750000Y-49250000D02*
X107750000Y-49325000D01*
X107750000Y-49325000D02*
X110425000Y-52000000D01*
D39*
X134075000Y-83000000D02*
X134075000Y-81850000D01*
D38*
X130250000Y-60750000D02*
X127080000Y-60750000D01*
X98000000Y-71500000D02*
X97250000Y-70750000D01*
D39*
X135400000Y-76750000D02*
X134150000Y-78000000D01*
X124935598Y-78339402D02*
X124935598Y-79135599D01*
D38*
X127080000Y-60750000D02*
X124520000Y-58190000D01*
D39*
X134075000Y-86000000D02*
X134075000Y-86575000D01*
X134075000Y-86575000D02*
X135750000Y-88250000D01*
X122535598Y-89764402D02*
X122535598Y-87664401D01*
X123335599Y-79899597D02*
X123936002Y-80500000D01*
D38*
X97500000Y-63000000D02*
X96520000Y-63980000D01*
X97250000Y-68000000D02*
X96270000Y-67020000D01*
D39*
X121750000Y-76225000D02*
X121975000Y-76000000D01*
D38*
X121975000Y-68355000D02*
X124520000Y-65810000D01*
X121975000Y-69750000D02*
X121975000Y-68355000D01*
X123210000Y-53500000D02*
X123210000Y-51723636D01*
X114425000Y-55250000D02*
X115351000Y-56176000D01*
X123210000Y-51723636D02*
X125634636Y-49299000D01*
X120534000Y-56176000D02*
X123210000Y-53500000D01*
X121580000Y-72000000D02*
X126250000Y-72000000D01*
X119080000Y-69500000D02*
X121580000Y-72000000D01*
X133799000Y-49299000D02*
X137750000Y-53250000D01*
X125634636Y-49299000D02*
X133799000Y-49299000D01*
X115351000Y-56176000D02*
X120534000Y-56176000D01*
D39*
X101210000Y-84695000D02*
X102595000Y-84695000D01*
X125735599Y-79135599D02*
X125735599Y-78227200D01*
D38*
X99300000Y-61675000D02*
X99425000Y-61675000D01*
D39*
X124135600Y-79135599D02*
X124135600Y-77614400D01*
D38*
X95500000Y-68250000D02*
X95750000Y-68500000D01*
D39*
X135500000Y-79500000D02*
X134750000Y-80250000D01*
X137500000Y-80000000D02*
X137500000Y-81525001D01*
X139000000Y-79500000D02*
X138500001Y-79999999D01*
X125735599Y-78227200D02*
X126462799Y-77500000D01*
D38*
X105175000Y-73750000D02*
X96250000Y-73750000D01*
D39*
X108800000Y-82200000D02*
X108800000Y-81975000D01*
X124250000Y-77475000D02*
X125725000Y-76000000D01*
D38*
X95750000Y-62750000D02*
X96250000Y-62250000D01*
X96250000Y-69000000D02*
X96250000Y-72750000D01*
D39*
X124135600Y-77614400D02*
X124250000Y-77500000D01*
X108800000Y-81975000D02*
X110600000Y-80175000D01*
D38*
X105800000Y-74375000D02*
X105175000Y-73750000D01*
D39*
X108800000Y-83550000D02*
X108800000Y-82200000D01*
D38*
X128750000Y-50750000D02*
X130250000Y-52250000D01*
X125750000Y-69750000D02*
X127060000Y-68440000D01*
D39*
X102595000Y-84695000D02*
X103700000Y-85800000D01*
D38*
X130250000Y-52250000D02*
X130250000Y-52675000D01*
D39*
X134750000Y-80250000D02*
X134025000Y-80250000D01*
X138250000Y-79250000D02*
X137500000Y-80000000D01*
D38*
X99425000Y-61675000D02*
X101250000Y-63500000D01*
D39*
X124250000Y-77500000D02*
X124250000Y-77475000D01*
X103120000Y-81545000D02*
X103525000Y-81950000D01*
X123525000Y-76775000D02*
X124250000Y-77500000D01*
D38*
X102175000Y-63500000D02*
X104000000Y-61675000D01*
D39*
X126462799Y-77500000D02*
X127250000Y-77500000D01*
D38*
X95750000Y-68500000D02*
X96250000Y-69000000D01*
X94359200Y-62750000D02*
X95750000Y-62750000D01*
X96250000Y-62250000D02*
X96250000Y-58000000D01*
D39*
X123525000Y-76000000D02*
X123525000Y-76775000D01*
D38*
X132425000Y-74500000D02*
X130500000Y-74500000D01*
D39*
X101210000Y-81545000D02*
X103120000Y-81545000D01*
D38*
X123525000Y-69750000D02*
X125750000Y-69750000D01*
X94359200Y-68250000D02*
X95500000Y-68250000D01*
X127060000Y-68440000D02*
X127060000Y-65810000D01*
D39*
X110600000Y-85350000D02*
X108800000Y-83550000D01*
D38*
X96250000Y-72750000D02*
X96250000Y-73750000D01*
X101250000Y-63500000D02*
X102175000Y-63500000D01*
D39*
X138500001Y-79999999D02*
X138500001Y-81525001D01*
D38*
X96250000Y-58000000D02*
X96250000Y-57250000D01*
D39*
X124935598Y-89835598D02*
X124935598Y-87664401D01*
X116673800Y-78126200D02*
X115400000Y-79400000D01*
X110600000Y-78625000D02*
X112225000Y-78625000D01*
X113000000Y-79400000D02*
X115400000Y-79400000D01*
X122290200Y-78126200D02*
X116673800Y-78126200D01*
X112225000Y-78625000D02*
X113000000Y-79400000D01*
X122535600Y-78371600D02*
X122290200Y-78126200D01*
X122535600Y-79135599D02*
X122535600Y-78371600D01*
X121735600Y-79135599D02*
X120171601Y-79135599D01*
X110600000Y-83800000D02*
X111700000Y-83800000D01*
X112700000Y-84800000D02*
X115400000Y-84800000D01*
X115400000Y-83907200D02*
X115400000Y-84800000D01*
X120171601Y-79135599D02*
X115400000Y-83907200D01*
X111700000Y-83800000D02*
X112700000Y-84800000D01*
D38*
X119440000Y-65810000D02*
X115750000Y-69500000D01*
X115750000Y-69500000D02*
X108920000Y-69500000D01*
X108920000Y-68355000D02*
X108920000Y-69500000D01*
X112000000Y-65275000D02*
X108920000Y-68355000D01*
X105550000Y-68125000D02*
X105550000Y-71475000D01*
X105550000Y-71475000D02*
X107700000Y-73625000D01*
X104000000Y-66575000D02*
X105550000Y-68125000D01*
X103925000Y-66500000D02*
X104000000Y-66575000D01*
X107700000Y-73625000D02*
X107700000Y-74375000D01*
D39*
X128800000Y-83000001D02*
X129549999Y-83000001D01*
X129549999Y-83000001D02*
X130775000Y-81775000D01*
X121735600Y-89697251D02*
X121735600Y-87664401D01*
X121710000Y-89722851D02*
X121735600Y-89697251D01*
X121710000Y-89750000D02*
X121710000Y-89722851D01*
X124450000Y-92695000D02*
X123247919Y-92695000D01*
X123247919Y-92695000D02*
X120271198Y-89718279D01*
X120271198Y-89718279D02*
X120271198Y-86199999D01*
X119000001Y-85399999D02*
X120271198Y-85399999D01*
X101210000Y-87700000D02*
X101540000Y-88030000D01*
X119210000Y-95235000D02*
X116370000Y-92395000D01*
X124450000Y-95235000D02*
X119210000Y-95235000D01*
X116370000Y-88030000D02*
X119000001Y-85399999D01*
X116370000Y-92395000D02*
X116370000Y-88030000D01*
X101210000Y-86585000D02*
X101210000Y-87700000D01*
D38*
X105500000Y-64000000D02*
X104825000Y-63325000D01*
X94359200Y-65000001D02*
X97774999Y-65000001D01*
X105500000Y-65000000D02*
X105500000Y-64000000D01*
X104825000Y-63325000D02*
X104000000Y-63325000D01*
X97774999Y-65000001D02*
X97800000Y-64975000D01*
X94359200Y-65999999D02*
X97978497Y-65999999D01*
X99300000Y-64678496D02*
X99300000Y-63325000D01*
X97978497Y-65999999D02*
X99300000Y-64678496D01*
X112075000Y-52000000D02*
X112075000Y-53600000D01*
X112075000Y-53600000D02*
X110425000Y-55250000D01*
D39*
X100635000Y-82805000D02*
X101210000Y-82805000D01*
D38*
X135001000Y-75426000D02*
X134075000Y-74500000D01*
X137000000Y-75426000D02*
X135001000Y-75426000D01*
X137574000Y-75426000D02*
X137000000Y-75426000D01*
D39*
X137000001Y-81525001D02*
X137000000Y-75426000D01*
D38*
X138500000Y-74500000D02*
X137574000Y-75426000D01*
X112075000Y-55250000D02*
X115015000Y-58190000D01*
X115015000Y-58190000D02*
X119440000Y-58190000D01*
X116075000Y-52000000D02*
X116075000Y-53500000D01*
X130250000Y-54325000D02*
X130250000Y-55000000D01*
X116075000Y-54000000D02*
X116075000Y-55250000D01*
X130250000Y-55000000D02*
X127060000Y-58190000D01*
X130325000Y-54325000D02*
X130500000Y-54500000D01*
X116075000Y-53500000D02*
X113750000Y-53500000D01*
X116075000Y-53500000D02*
X116075000Y-54000000D01*
X130250000Y-54325000D02*
X130325000Y-54325000D01*
X114425000Y-52000000D02*
X115351000Y-51074000D01*
X115351000Y-51074000D02*
X118244000Y-51074000D01*
X118244000Y-51074000D02*
X120670000Y-53500000D01*
D39*
X138500001Y-85975002D02*
X138500001Y-86900001D01*
X128800000Y-83799999D02*
X130600000Y-83800000D01*
X132500000Y-78000000D02*
X130600000Y-78000000D01*
X138500001Y-86900001D02*
X139000000Y-87400000D01*
X138000002Y-85975002D02*
X138000002Y-87300002D01*
X138000002Y-87300002D02*
X138100000Y-87400000D01*
X128800000Y-84600000D02*
X131025000Y-84600000D01*
X131025000Y-84600000D02*
X132425000Y-86000000D01*
X132425000Y-87275000D02*
X132400000Y-87300000D01*
X132425000Y-86000000D02*
X132425000Y-87275000D01*
X132425000Y-83000000D02*
X132425000Y-81725000D01*
X135900003Y-84500000D02*
X133925000Y-84500000D01*
X133925000Y-84500000D02*
X132425000Y-83000000D01*
X132425000Y-81725000D02*
X131300001Y-80600001D01*
X131300001Y-80600001D02*
X128800000Y-80600001D01*
X138000002Y-82400001D02*
X135900003Y-84500000D01*
X138000002Y-81525001D02*
X138000002Y-82400001D01*
X101210000Y-79655000D02*
X104555000Y-79655000D01*
X104555000Y-79655000D02*
X105350000Y-80450000D01*
X118575000Y-84600000D02*
X120271198Y-84600000D01*
X116225000Y-86950000D02*
X118575000Y-84600000D01*
X96210000Y-79655000D02*
X94525000Y-79655000D01*
X94525000Y-79655000D02*
X93370000Y-78500000D01*
X91850000Y-82175000D02*
X96210000Y-82175000D01*
X90450000Y-83575000D02*
X91850000Y-82175000D01*
X90450000Y-104050000D02*
X90450000Y-83575000D01*
X90500000Y-104100000D02*
X90450000Y-104050000D01*
X106760000Y-104100000D02*
X90500000Y-104100000D01*
X108860000Y-102000000D02*
X106760000Y-104100000D01*
X96210000Y-85325000D02*
X94900000Y-85325000D01*
X94900000Y-85325000D02*
X93300000Y-86925000D01*
D38*
X137750000Y-53250000D02*
X137750000Y-66150000D01*
X135900000Y-68000000D02*
X135900000Y-68150000D01*
X136850000Y-69100000D02*
X136850000Y-74500000D01*
X135900000Y-68150000D02*
X136850000Y-69100000D01*
X137750000Y-66150000D02*
X135900000Y-68000000D01*
X130250000Y-68000000D02*
X135900000Y-68000000D01*
M02*
