M48
; DRILL file {KiCad 9.0.4} date 2025-09-12T17:58:38+0800
; FORMAT={-:-/ absolute / metric / decimal}
; #@! TF.CreationDate,2025-09-12T17:58:38+08:00
; #@! TF.GenerationSoftware,Kicad,Pcbnew,9.0.4
; #@! TF.FileFunction,Plated,1,4,PTH
FMAT,2
METRIC
; #@! TA.AperFunction,Plated,PTH,ViaDrill
T1C0.300
; #@! TA.AperFunction,Plated,PTH,ViaDrill
T2C0.500
; #@! TA.AperFunction,Plated,PTH,ComponentDrill
T3C0.700
; #@! TA.AperFunction,Plated,PTH,ComponentDrill
T4C0.710
; #@! TA.AperFunction,Plated,PTH,ComponentDrill
T5C0.800
; #@! TA.AperFunction,Plated,PTH,ComponentDrill
T6C0.850
; #@! TA.AperFunction,Plated,PTH,ComponentDrill
T7C1.100
; #@! TA.AperFunction,Plated,PTH,ComponentDrill
T8C1.118
%
G90
G05
T1
X92.375Y-80.225
X93.3Y-86.925
X93.37Y-78.5
X93.5Y-81.55
X94.3Y-83.55
X98.125Y-81.575
X101.54Y-88.03
X101.65Y-75.4
X103.525Y-81.95
X103.7Y-85.8
X104.55Y-81.325
X105.35Y-80.45
X105.625Y-87.125
X108.8Y-82.2
X113.75Y-53.5
X116.225Y-86.95
X116.37Y-88.03
X119.8Y-76.0
X121.71Y-89.75
X122.536Y-89.764
X124.25Y-77.5
X124.936Y-89.836
X127.25Y-77.5
X130.6Y-78.0
X130.6Y-83.8
X130.775Y-81.775
X132.4Y-87.3
X135.4Y-76.75
X135.5Y-79.5
X137.5Y-88.25
X138.1Y-87.4
X138.25Y-79.25
X139.0Y-79.5
X139.0Y-87.4
T2
X96.25Y-57.25
X96.25Y-73.75
X97.8Y-64.975
X98.0Y-71.5
X99.25Y-59.0
X101.25Y-63.5
X105.5Y-65.0
X107.75Y-49.25
X128.75Y-50.75
X130.25Y-60.75
X130.5Y-74.5
T3
X98.7Y-91.84
X98.7Y-102.0
X101.24Y-91.84
X101.24Y-102.0
X103.78Y-91.84
X103.78Y-102.0
X106.32Y-91.84
X106.32Y-102.0
X108.86Y-91.84
X108.86Y-102.0
X111.4Y-91.84
X111.4Y-102.0
T4
X120.67Y-53.5
X123.21Y-53.5
X125.75Y-53.5
T5
X101.25Y-53.25
X104.75Y-53.25
X134.25Y-53.25
X137.75Y-53.25
T6
X135.9Y-64.5
X135.9Y-68.0
T7
X124.45Y-92.695
X124.45Y-95.235
X124.45Y-97.775
X124.45Y-100.315
X124.45Y-102.855
T8
X108.92Y-69.5
X119.08Y-69.5
X119.44Y-58.19
X119.44Y-65.81
X121.98Y-58.19
X121.98Y-65.81
X124.52Y-58.19
X124.52Y-65.81
X127.06Y-58.19
X127.06Y-65.81
M30
