G04 #@! TF.GenerationSoftware,KiCad,Pcbnew,9.0.4*
G04 #@! TF.CreationDate,2025-09-12T18:01:42+08:00*
G04 #@! TF.ProjectId,boost-convertor,626f6f73-742d-4636-9f6e-766572746f72,rev?*
G04 #@! TF.SameCoordinates,Original*
G04 #@! TF.FileFunction,Copper,L3,Inr*
G04 #@! TF.FilePolarity,Positive*
%FSLAX46Y46*%
G04 Gerber Fmt 4.6, Leading zero omitted, Abs format (unit mm)*
G04 Created by KiCad (PCBNEW 9.0.4) date 2025-09-12 18:01:42*
%MOMM*%
%LPD*%
G01*
G04 APERTURE LIST*
G04 #@! TA.AperFunction,ComponentPad*
%ADD10C,1.700000*%
G04 #@! TD*
G04 #@! TA.AperFunction,ComponentPad*
%ADD11C,1.200000*%
G04 #@! TD*
G04 #@! TA.AperFunction,ComponentPad*
%ADD12R,1.676400X1.676400*%
G04 #@! TD*
G04 #@! TA.AperFunction,ComponentPad*
%ADD13C,1.676400*%
G04 #@! TD*
G04 #@! TA.AperFunction,ComponentPad*
%ADD14R,1.600000X1.600000*%
G04 #@! TD*
G04 #@! TA.AperFunction,ComponentPad*
%ADD15C,1.600000*%
G04 #@! TD*
G04 #@! TA.AperFunction,ComponentPad*
%ADD16R,1.218000X1.218000*%
G04 #@! TD*
G04 #@! TA.AperFunction,ComponentPad*
%ADD17C,1.218000*%
G04 #@! TD*
G04 #@! TA.AperFunction,ViaPad*
%ADD18C,0.600000*%
G04 #@! TD*
G04 #@! TA.AperFunction,ViaPad*
%ADD19C,0.800000*%
G04 #@! TD*
G04 APERTURE END LIST*
D10*
X135900000Y-64500000D03*
X135900000Y-68000000D03*
D11*
X111400000Y-102000000D03*
X108860000Y-91840000D03*
X106320000Y-91840000D03*
X98700000Y-91840000D03*
X103780000Y-102000000D03*
X108860000Y-102000000D03*
X103780000Y-91840000D03*
X98700000Y-102000000D03*
X101240000Y-102000000D03*
X106320000Y-102000000D03*
X111400000Y-91840000D03*
X101240000Y-91840000D03*
D12*
X119440000Y-65810000D03*
D13*
X121980000Y-65810000D03*
X124520000Y-65810000D03*
X127060000Y-65810000D03*
X127060000Y-58190000D03*
X124520000Y-58190000D03*
X121980000Y-58190000D03*
X119440000Y-58190000D03*
D14*
X101250000Y-53250000D03*
D15*
X104750000Y-53250000D03*
D10*
X124450000Y-92695000D03*
X124450000Y-95235000D03*
X124450000Y-97775000D03*
X124450000Y-100315000D03*
X124450000Y-102855000D03*
D13*
X108920000Y-69500000D03*
X119080000Y-69500000D03*
D14*
X137750000Y-53250000D03*
D15*
X134250000Y-53250000D03*
D16*
X120670000Y-53500000D03*
D17*
X123210000Y-53500000D03*
X125750000Y-53500000D03*
D18*
X98125000Y-81575000D03*
X93500000Y-81550000D03*
X92375000Y-80225000D03*
X105625000Y-87125000D03*
X104550000Y-81325000D03*
X94300000Y-83550000D03*
X137500000Y-88250000D03*
D19*
X99250000Y-59000000D03*
X130250000Y-60750000D03*
X107750000Y-49250000D03*
D18*
X135400000Y-76750000D03*
X122535598Y-89764402D03*
X119800000Y-76000000D03*
D19*
X98000000Y-71500000D03*
D18*
X101650000Y-75400000D03*
D19*
X130500000Y-74500000D03*
D18*
X135500000Y-79500000D03*
D19*
X96250000Y-57250000D03*
X128750000Y-50750000D03*
D18*
X127250000Y-77500000D03*
D19*
X101250000Y-63500000D03*
D18*
X103525000Y-81950000D03*
X124935598Y-89835598D03*
X139000000Y-79500000D03*
X138250000Y-79250000D03*
X108800000Y-82200000D03*
X124250000Y-77500000D03*
D19*
X96250000Y-73750000D03*
D18*
X130775000Y-81775000D03*
X121710000Y-89750000D03*
X116370000Y-88030000D03*
D19*
X105500000Y-65000000D03*
X97800000Y-64975000D03*
D18*
X113750000Y-53500000D03*
X130600000Y-78000000D03*
X139000000Y-87400000D03*
X130600000Y-83800000D03*
X132400000Y-87300000D03*
X138100000Y-87400000D03*
X105350000Y-80450000D03*
X116225000Y-86950000D03*
X103700000Y-85800000D03*
X101540000Y-88030000D03*
X93370000Y-78500000D03*
X93300000Y-86925000D03*
G04 #@! TA.AperFunction,Conductor*
G36*
X141642539Y-46620185D02*
G01*
X141688294Y-46672989D01*
X141699500Y-46724500D01*
X141699500Y-105775500D01*
X141679815Y-105842539D01*
X141627011Y-105888294D01*
X141575500Y-105899500D01*
X88724500Y-105899500D01*
X88657461Y-105879815D01*
X88611706Y-105827011D01*
X88600500Y-105775500D01*
X88600500Y-101913389D01*
X97599500Y-101913389D01*
X97599500Y-102086611D01*
X97626598Y-102257701D01*
X97680127Y-102422445D01*
X97758768Y-102576788D01*
X97860586Y-102716928D01*
X97983072Y-102839414D01*
X98123212Y-102941232D01*
X98277555Y-103019873D01*
X98442299Y-103073402D01*
X98613389Y-103100500D01*
X98613390Y-103100500D01*
X98786610Y-103100500D01*
X98786611Y-103100500D01*
X98957701Y-103073402D01*
X99122445Y-103019873D01*
X99276788Y-102941232D01*
X99416928Y-102839414D01*
X99539414Y-102716928D01*
X99641232Y-102576788D01*
X99719873Y-102422445D01*
X99773402Y-102257701D01*
X99800500Y-102086611D01*
X99800500Y-101913389D01*
X100139500Y-101913389D01*
X100139500Y-102086611D01*
X100166598Y-102257701D01*
X100220127Y-102422445D01*
X100298768Y-102576788D01*
X100400586Y-102716928D01*
X100523072Y-102839414D01*
X100663212Y-102941232D01*
X100817555Y-103019873D01*
X100982299Y-103073402D01*
X101153389Y-103100500D01*
X101153390Y-103100500D01*
X101326610Y-103100500D01*
X101326611Y-103100500D01*
X101497701Y-103073402D01*
X101662445Y-103019873D01*
X101816788Y-102941232D01*
X101956928Y-102839414D01*
X102079414Y-102716928D01*
X102181232Y-102576788D01*
X102259873Y-102422445D01*
X102313402Y-102257701D01*
X102340500Y-102086611D01*
X102340500Y-101913389D01*
X102679500Y-101913389D01*
X102679500Y-102086611D01*
X102706598Y-102257701D01*
X102760127Y-102422445D01*
X102838768Y-102576788D01*
X102940586Y-102716928D01*
X103063072Y-102839414D01*
X103203212Y-102941232D01*
X103357555Y-103019873D01*
X103522299Y-103073402D01*
X103693389Y-103100500D01*
X103693390Y-103100500D01*
X103866610Y-103100500D01*
X103866611Y-103100500D01*
X104037701Y-103073402D01*
X104202445Y-103019873D01*
X104356788Y-102941232D01*
X104496928Y-102839414D01*
X104619414Y-102716928D01*
X104721232Y-102576788D01*
X104799873Y-102422445D01*
X104853402Y-102257701D01*
X104880500Y-102086611D01*
X104880500Y-101913389D01*
X105219500Y-101913389D01*
X105219500Y-102086611D01*
X105246598Y-102257701D01*
X105300127Y-102422445D01*
X105378768Y-102576788D01*
X105480586Y-102716928D01*
X105603072Y-102839414D01*
X105743212Y-102941232D01*
X105897555Y-103019873D01*
X106062299Y-103073402D01*
X106233389Y-103100500D01*
X106233390Y-103100500D01*
X106406610Y-103100500D01*
X106406611Y-103100500D01*
X106577701Y-103073402D01*
X106742445Y-103019873D01*
X106896788Y-102941232D01*
X107036928Y-102839414D01*
X107159414Y-102716928D01*
X107261232Y-102576788D01*
X107339873Y-102422445D01*
X107393402Y-102257701D01*
X107420500Y-102086611D01*
X107420500Y-101913389D01*
X107759500Y-101913389D01*
X107759500Y-102086611D01*
X107786598Y-102257701D01*
X107840127Y-102422445D01*
X107918768Y-102576788D01*
X108020586Y-102716928D01*
X108143072Y-102839414D01*
X108283212Y-102941232D01*
X108437555Y-103019873D01*
X108602299Y-103073402D01*
X108773389Y-103100500D01*
X108773390Y-103100500D01*
X108946610Y-103100500D01*
X108946611Y-103100500D01*
X109117701Y-103073402D01*
X109282445Y-103019873D01*
X109436788Y-102941232D01*
X109576928Y-102839414D01*
X109699414Y-102716928D01*
X109801232Y-102576788D01*
X109879873Y-102422445D01*
X109933402Y-102257701D01*
X109960500Y-102086611D01*
X109960500Y-101913389D01*
X110299500Y-101913389D01*
X110299500Y-102086611D01*
X110326598Y-102257701D01*
X110380127Y-102422445D01*
X110458768Y-102576788D01*
X110560586Y-102716928D01*
X110683072Y-102839414D01*
X110823212Y-102941232D01*
X110977555Y-103019873D01*
X111142299Y-103073402D01*
X111313389Y-103100500D01*
X111313390Y-103100500D01*
X111486610Y-103100500D01*
X111486611Y-103100500D01*
X111657701Y-103073402D01*
X111822445Y-103019873D01*
X111976788Y-102941232D01*
X112116928Y-102839414D01*
X112239414Y-102716928D01*
X112341232Y-102576788D01*
X112419873Y-102422445D01*
X112473402Y-102257701D01*
X112500500Y-102086611D01*
X112500500Y-101913389D01*
X112473402Y-101742299D01*
X112419873Y-101577555D01*
X112341232Y-101423212D01*
X112239414Y-101283072D01*
X112116928Y-101160586D01*
X111976788Y-101058768D01*
X111822445Y-100980127D01*
X111657701Y-100926598D01*
X111657699Y-100926597D01*
X111657698Y-100926597D01*
X111526271Y-100905781D01*
X111486611Y-100899500D01*
X111313389Y-100899500D01*
X111273728Y-100905781D01*
X111142302Y-100926597D01*
X110977552Y-100980128D01*
X110823211Y-101058768D01*
X110743256Y-101116859D01*
X110683072Y-101160586D01*
X110683070Y-101160588D01*
X110683069Y-101160588D01*
X110560588Y-101283069D01*
X110560588Y-101283070D01*
X110560586Y-101283072D01*
X110516859Y-101343256D01*
X110458768Y-101423211D01*
X110380128Y-101577552D01*
X110326597Y-101742302D01*
X110313517Y-101824890D01*
X110299500Y-101913389D01*
X109960500Y-101913389D01*
X109933402Y-101742299D01*
X109879873Y-101577555D01*
X109801232Y-101423212D01*
X109699414Y-101283072D01*
X109576928Y-101160586D01*
X109436788Y-101058768D01*
X109282445Y-100980127D01*
X109117701Y-100926598D01*
X109117699Y-100926597D01*
X109117698Y-100926597D01*
X108986271Y-100905781D01*
X108946611Y-100899500D01*
X108773389Y-100899500D01*
X108733728Y-100905781D01*
X108602302Y-100926597D01*
X108437552Y-100980128D01*
X108283211Y-101058768D01*
X108203256Y-101116859D01*
X108143072Y-101160586D01*
X108143070Y-101160588D01*
X108143069Y-101160588D01*
X108020588Y-101283069D01*
X108020588Y-101283070D01*
X108020586Y-101283072D01*
X107976859Y-101343256D01*
X107918768Y-101423211D01*
X107840128Y-101577552D01*
X107786597Y-101742302D01*
X107773517Y-101824890D01*
X107759500Y-101913389D01*
X107420500Y-101913389D01*
X107393402Y-101742299D01*
X107339873Y-101577555D01*
X107261232Y-101423212D01*
X107159414Y-101283072D01*
X107036928Y-101160586D01*
X106896788Y-101058768D01*
X106742445Y-100980127D01*
X106577701Y-100926598D01*
X106577699Y-100926597D01*
X106577698Y-100926597D01*
X106446271Y-100905781D01*
X106406611Y-100899500D01*
X106233389Y-100899500D01*
X106193728Y-100905781D01*
X106062302Y-100926597D01*
X105897552Y-100980128D01*
X105743211Y-101058768D01*
X105663256Y-101116859D01*
X105603072Y-101160586D01*
X105603070Y-101160588D01*
X105603069Y-101160588D01*
X105480588Y-101283069D01*
X105480588Y-101283070D01*
X105480586Y-101283072D01*
X105436859Y-101343256D01*
X105378768Y-101423211D01*
X105300128Y-101577552D01*
X105246597Y-101742302D01*
X105233517Y-101824890D01*
X105219500Y-101913389D01*
X104880500Y-101913389D01*
X104853402Y-101742299D01*
X104799873Y-101577555D01*
X104721232Y-101423212D01*
X104619414Y-101283072D01*
X104496928Y-101160586D01*
X104356788Y-101058768D01*
X104202445Y-100980127D01*
X104037701Y-100926598D01*
X104037699Y-100926597D01*
X104037698Y-100926597D01*
X103906271Y-100905781D01*
X103866611Y-100899500D01*
X103693389Y-100899500D01*
X103653728Y-100905781D01*
X103522302Y-100926597D01*
X103357552Y-100980128D01*
X103203211Y-101058768D01*
X103123256Y-101116859D01*
X103063072Y-101160586D01*
X103063070Y-101160588D01*
X103063069Y-101160588D01*
X102940588Y-101283069D01*
X102940588Y-101283070D01*
X102940586Y-101283072D01*
X102896859Y-101343256D01*
X102838768Y-101423211D01*
X102760128Y-101577552D01*
X102706597Y-101742302D01*
X102693517Y-101824890D01*
X102679500Y-101913389D01*
X102340500Y-101913389D01*
X102313402Y-101742299D01*
X102259873Y-101577555D01*
X102181232Y-101423212D01*
X102079414Y-101283072D01*
X101956928Y-101160586D01*
X101816788Y-101058768D01*
X101662445Y-100980127D01*
X101497701Y-100926598D01*
X101497699Y-100926597D01*
X101497698Y-100926597D01*
X101366271Y-100905781D01*
X101326611Y-100899500D01*
X101153389Y-100899500D01*
X101113728Y-100905781D01*
X100982302Y-100926597D01*
X100817552Y-100980128D01*
X100663211Y-101058768D01*
X100583256Y-101116859D01*
X100523072Y-101160586D01*
X100523070Y-101160588D01*
X100523069Y-101160588D01*
X100400588Y-101283069D01*
X100400588Y-101283070D01*
X100400586Y-101283072D01*
X100356859Y-101343256D01*
X100298768Y-101423211D01*
X100220128Y-101577552D01*
X100166597Y-101742302D01*
X100153517Y-101824890D01*
X100139500Y-101913389D01*
X99800500Y-101913389D01*
X99773402Y-101742299D01*
X99719873Y-101577555D01*
X99641232Y-101423212D01*
X99539414Y-101283072D01*
X99416928Y-101160586D01*
X99276788Y-101058768D01*
X99122445Y-100980127D01*
X98957701Y-100926598D01*
X98957699Y-100926597D01*
X98957698Y-100926597D01*
X98826271Y-100905781D01*
X98786611Y-100899500D01*
X98613389Y-100899500D01*
X98573728Y-100905781D01*
X98442302Y-100926597D01*
X98277552Y-100980128D01*
X98123211Y-101058768D01*
X98043256Y-101116859D01*
X97983072Y-101160586D01*
X97983070Y-101160588D01*
X97983069Y-101160588D01*
X97860588Y-101283069D01*
X97860588Y-101283070D01*
X97860586Y-101283072D01*
X97816859Y-101343256D01*
X97758768Y-101423211D01*
X97680128Y-101577552D01*
X97626597Y-101742302D01*
X97613517Y-101824890D01*
X97599500Y-101913389D01*
X88600500Y-101913389D01*
X88600500Y-91753389D01*
X97599500Y-91753389D01*
X97599500Y-91926611D01*
X97626598Y-92097701D01*
X97680127Y-92262445D01*
X97758768Y-92416788D01*
X97860586Y-92556928D01*
X97983072Y-92679414D01*
X98123212Y-92781232D01*
X98277555Y-92859873D01*
X98442299Y-92913402D01*
X98613389Y-92940500D01*
X98613390Y-92940500D01*
X98786610Y-92940500D01*
X98786611Y-92940500D01*
X98957701Y-92913402D01*
X99122445Y-92859873D01*
X99276788Y-92781232D01*
X99416928Y-92679414D01*
X99539414Y-92556928D01*
X99641232Y-92416788D01*
X99719873Y-92262445D01*
X99773402Y-92097701D01*
X99800500Y-91926611D01*
X99800500Y-91753389D01*
X100139500Y-91753389D01*
X100139500Y-91926611D01*
X100166598Y-92097701D01*
X100220127Y-92262445D01*
X100298768Y-92416788D01*
X100400586Y-92556928D01*
X100523072Y-92679414D01*
X100663212Y-92781232D01*
X100817555Y-92859873D01*
X100982299Y-92913402D01*
X101153389Y-92940500D01*
X101153390Y-92940500D01*
X101326610Y-92940500D01*
X101326611Y-92940500D01*
X101497701Y-92913402D01*
X101662445Y-92859873D01*
X101816788Y-92781232D01*
X101956928Y-92679414D01*
X102079414Y-92556928D01*
X102181232Y-92416788D01*
X102259873Y-92262445D01*
X102313402Y-92097701D01*
X102340500Y-91926611D01*
X102340500Y-91753389D01*
X102679500Y-91753389D01*
X102679500Y-91926611D01*
X102706598Y-92097701D01*
X102760127Y-92262445D01*
X102838768Y-92416788D01*
X102940586Y-92556928D01*
X103063072Y-92679414D01*
X103203212Y-92781232D01*
X103357555Y-92859873D01*
X103522299Y-92913402D01*
X103693389Y-92940500D01*
X103693390Y-92940500D01*
X103866610Y-92940500D01*
X103866611Y-92940500D01*
X104037701Y-92913402D01*
X104202445Y-92859873D01*
X104356788Y-92781232D01*
X104496928Y-92679414D01*
X104619414Y-92556928D01*
X104721232Y-92416788D01*
X104799873Y-92262445D01*
X104853402Y-92097701D01*
X104880500Y-91926611D01*
X104880500Y-91753389D01*
X105219500Y-91753389D01*
X105219500Y-91926611D01*
X105246598Y-92097701D01*
X105300127Y-92262445D01*
X105378768Y-92416788D01*
X105480586Y-92556928D01*
X105603072Y-92679414D01*
X105743212Y-92781232D01*
X105897555Y-92859873D01*
X106062299Y-92913402D01*
X106233389Y-92940500D01*
X106233390Y-92940500D01*
X106406610Y-92940500D01*
X106406611Y-92940500D01*
X106577701Y-92913402D01*
X106742445Y-92859873D01*
X106896788Y-92781232D01*
X107036928Y-92679414D01*
X107159414Y-92556928D01*
X107261232Y-92416788D01*
X107339873Y-92262445D01*
X107393402Y-92097701D01*
X107420500Y-91926611D01*
X107420500Y-91753389D01*
X107759500Y-91753389D01*
X107759500Y-91926611D01*
X107786598Y-92097701D01*
X107840127Y-92262445D01*
X107918768Y-92416788D01*
X108020586Y-92556928D01*
X108143072Y-92679414D01*
X108283212Y-92781232D01*
X108437555Y-92859873D01*
X108602299Y-92913402D01*
X108773389Y-92940500D01*
X108773390Y-92940500D01*
X108946610Y-92940500D01*
X108946611Y-92940500D01*
X109117701Y-92913402D01*
X109282445Y-92859873D01*
X109436788Y-92781232D01*
X109576928Y-92679414D01*
X109699414Y-92556928D01*
X109801232Y-92416788D01*
X109879873Y-92262445D01*
X109933402Y-92097701D01*
X109960500Y-91926611D01*
X109960500Y-91753389D01*
X110299500Y-91753389D01*
X110299500Y-91926611D01*
X110326598Y-92097701D01*
X110380127Y-92262445D01*
X110458768Y-92416788D01*
X110560586Y-92556928D01*
X110683072Y-92679414D01*
X110823212Y-92781232D01*
X110977555Y-92859873D01*
X111142299Y-92913402D01*
X111313389Y-92940500D01*
X111313390Y-92940500D01*
X111486610Y-92940500D01*
X111486611Y-92940500D01*
X111657701Y-92913402D01*
X111822445Y-92859873D01*
X111976788Y-92781232D01*
X112116928Y-92679414D01*
X112207629Y-92588713D01*
X123099500Y-92588713D01*
X123099500Y-92801286D01*
X123132753Y-93011239D01*
X123198444Y-93213414D01*
X123294951Y-93402820D01*
X123419890Y-93574786D01*
X123570213Y-93725109D01*
X123742182Y-93850050D01*
X123750946Y-93854516D01*
X123801742Y-93902491D01*
X123818536Y-93970312D01*
X123795998Y-94036447D01*
X123750946Y-94075484D01*
X123742182Y-94079949D01*
X123570213Y-94204890D01*
X123419890Y-94355213D01*
X123294951Y-94527179D01*
X123198444Y-94716585D01*
X123132753Y-94918760D01*
X123099500Y-95128713D01*
X123099500Y-95341286D01*
X123132753Y-95551239D01*
X123198444Y-95753414D01*
X123294951Y-95942820D01*
X123419890Y-96114786D01*
X123570213Y-96265109D01*
X123742182Y-96390050D01*
X123750946Y-96394516D01*
X123801742Y-96442491D01*
X123818536Y-96510312D01*
X123795998Y-96576447D01*
X123750946Y-96615484D01*
X123742182Y-96619949D01*
X123570213Y-96744890D01*
X123419890Y-96895213D01*
X123294951Y-97067179D01*
X123198444Y-97256585D01*
X123132753Y-97458760D01*
X123099500Y-97668713D01*
X123099500Y-97881286D01*
X123132753Y-98091239D01*
X123198444Y-98293414D01*
X123294951Y-98482820D01*
X123419890Y-98654786D01*
X123570213Y-98805109D01*
X123742182Y-98930050D01*
X123750946Y-98934516D01*
X123801742Y-98982491D01*
X123818536Y-99050312D01*
X123795998Y-99116447D01*
X123750946Y-99155484D01*
X123742182Y-99159949D01*
X123570213Y-99284890D01*
X123419890Y-99435213D01*
X123294951Y-99607179D01*
X123198444Y-99796585D01*
X123132753Y-99998760D01*
X123099500Y-100208713D01*
X123099500Y-100421286D01*
X123132753Y-100631239D01*
X123198444Y-100833414D01*
X123294951Y-101022820D01*
X123419890Y-101194786D01*
X123570213Y-101345109D01*
X123742182Y-101470050D01*
X123750946Y-101474516D01*
X123801742Y-101522491D01*
X123818536Y-101590312D01*
X123795998Y-101656447D01*
X123750946Y-101695484D01*
X123742182Y-101699949D01*
X123570213Y-101824890D01*
X123419890Y-101975213D01*
X123294951Y-102147179D01*
X123198444Y-102336585D01*
X123132753Y-102538760D01*
X123099500Y-102748713D01*
X123099500Y-102961286D01*
X123132753Y-103171239D01*
X123198444Y-103373414D01*
X123294951Y-103562820D01*
X123419890Y-103734786D01*
X123570213Y-103885109D01*
X123742179Y-104010048D01*
X123742181Y-104010049D01*
X123742184Y-104010051D01*
X123931588Y-104106557D01*
X124133757Y-104172246D01*
X124343713Y-104205500D01*
X124343714Y-104205500D01*
X124556286Y-104205500D01*
X124556287Y-104205500D01*
X124766243Y-104172246D01*
X124968412Y-104106557D01*
X125157816Y-104010051D01*
X125179789Y-103994086D01*
X125329786Y-103885109D01*
X125329788Y-103885106D01*
X125329792Y-103885104D01*
X125480104Y-103734792D01*
X125480106Y-103734788D01*
X125480109Y-103734786D01*
X125605048Y-103562820D01*
X125605047Y-103562820D01*
X125605051Y-103562816D01*
X125701557Y-103373412D01*
X125767246Y-103171243D01*
X125800500Y-102961287D01*
X125800500Y-102748713D01*
X125767246Y-102538757D01*
X125701557Y-102336588D01*
X125605051Y-102147184D01*
X125605049Y-102147181D01*
X125605048Y-102147179D01*
X125480109Y-101975213D01*
X125329786Y-101824890D01*
X125157820Y-101699951D01*
X125157115Y-101699591D01*
X125149054Y-101695485D01*
X125098259Y-101647512D01*
X125081463Y-101579692D01*
X125103999Y-101513556D01*
X125149054Y-101474515D01*
X125157816Y-101470051D01*
X125222286Y-101423211D01*
X125329786Y-101345109D01*
X125329788Y-101345106D01*
X125329792Y-101345104D01*
X125480104Y-101194792D01*
X125480106Y-101194788D01*
X125480109Y-101194786D01*
X125605048Y-101022820D01*
X125605047Y-101022820D01*
X125605051Y-101022816D01*
X125701557Y-100833412D01*
X125767246Y-100631243D01*
X125800500Y-100421287D01*
X125800500Y-100208713D01*
X125767246Y-99998757D01*
X125701557Y-99796588D01*
X125605051Y-99607184D01*
X125605049Y-99607181D01*
X125605048Y-99607179D01*
X125480109Y-99435213D01*
X125329786Y-99284890D01*
X125157820Y-99159951D01*
X125157115Y-99159591D01*
X125149054Y-99155485D01*
X125098259Y-99107512D01*
X125081463Y-99039692D01*
X125103999Y-98973556D01*
X125149054Y-98934515D01*
X125157816Y-98930051D01*
X125179789Y-98914086D01*
X125329786Y-98805109D01*
X125329788Y-98805106D01*
X125329792Y-98805104D01*
X125480104Y-98654792D01*
X125480106Y-98654788D01*
X125480109Y-98654786D01*
X125605048Y-98482820D01*
X125605047Y-98482820D01*
X125605051Y-98482816D01*
X125701557Y-98293412D01*
X125767246Y-98091243D01*
X125800500Y-97881287D01*
X125800500Y-97668713D01*
X125767246Y-97458757D01*
X125701557Y-97256588D01*
X125605051Y-97067184D01*
X125605049Y-97067181D01*
X125605048Y-97067179D01*
X125480109Y-96895213D01*
X125329786Y-96744890D01*
X125157820Y-96619951D01*
X125157115Y-96619591D01*
X125149054Y-96615485D01*
X125098259Y-96567512D01*
X125081463Y-96499692D01*
X125103999Y-96433556D01*
X125149054Y-96394515D01*
X125157816Y-96390051D01*
X125179789Y-96374086D01*
X125329786Y-96265109D01*
X125329788Y-96265106D01*
X125329792Y-96265104D01*
X125480104Y-96114792D01*
X125480106Y-96114788D01*
X125480109Y-96114786D01*
X125605048Y-95942820D01*
X125605047Y-95942820D01*
X125605051Y-95942816D01*
X125701557Y-95753412D01*
X125767246Y-95551243D01*
X125800500Y-95341287D01*
X125800500Y-95128713D01*
X125767246Y-94918757D01*
X125701557Y-94716588D01*
X125605051Y-94527184D01*
X125605049Y-94527181D01*
X125605048Y-94527179D01*
X125480109Y-94355213D01*
X125329786Y-94204890D01*
X125157820Y-94079951D01*
X125157115Y-94079591D01*
X125149054Y-94075485D01*
X125098259Y-94027512D01*
X125081463Y-93959692D01*
X125103999Y-93893556D01*
X125149054Y-93854515D01*
X125157816Y-93850051D01*
X125179789Y-93834086D01*
X125329786Y-93725109D01*
X125329788Y-93725106D01*
X125329792Y-93725104D01*
X125480104Y-93574792D01*
X125480106Y-93574788D01*
X125480109Y-93574786D01*
X125605048Y-93402820D01*
X125605047Y-93402820D01*
X125605051Y-93402816D01*
X125701557Y-93213412D01*
X125767246Y-93011243D01*
X125800500Y-92801287D01*
X125800500Y-92588713D01*
X125767246Y-92378757D01*
X125701557Y-92176588D01*
X125605051Y-91987184D01*
X125605049Y-91987181D01*
X125605048Y-91987179D01*
X125480109Y-91815213D01*
X125329786Y-91664890D01*
X125157820Y-91539951D01*
X124968414Y-91443444D01*
X124968413Y-91443443D01*
X124968412Y-91443443D01*
X124766243Y-91377754D01*
X124766241Y-91377753D01*
X124766240Y-91377753D01*
X124604957Y-91352208D01*
X124556287Y-91344500D01*
X124343713Y-91344500D01*
X124295042Y-91352208D01*
X124133760Y-91377753D01*
X123931585Y-91443444D01*
X123742179Y-91539951D01*
X123570213Y-91664890D01*
X123419890Y-91815213D01*
X123294951Y-91987179D01*
X123198444Y-92176585D01*
X123132753Y-92378760D01*
X123099500Y-92588713D01*
X112207629Y-92588713D01*
X112239414Y-92556928D01*
X112341232Y-92416788D01*
X112419873Y-92262445D01*
X112473402Y-92097701D01*
X112500500Y-91926611D01*
X112500500Y-91753389D01*
X112473402Y-91582299D01*
X112419873Y-91417555D01*
X112341232Y-91263212D01*
X112239414Y-91123072D01*
X112116928Y-91000586D01*
X111976788Y-90898768D01*
X111822445Y-90820127D01*
X111657701Y-90766598D01*
X111657699Y-90766597D01*
X111657698Y-90766597D01*
X111526271Y-90745781D01*
X111486611Y-90739500D01*
X111313389Y-90739500D01*
X111273728Y-90745781D01*
X111142302Y-90766597D01*
X110977552Y-90820128D01*
X110823211Y-90898768D01*
X110743256Y-90956859D01*
X110683072Y-91000586D01*
X110683070Y-91000588D01*
X110683069Y-91000588D01*
X110560588Y-91123069D01*
X110560588Y-91123070D01*
X110560586Y-91123072D01*
X110516859Y-91183256D01*
X110458768Y-91263211D01*
X110380128Y-91417552D01*
X110326597Y-91582302D01*
X110313517Y-91664890D01*
X110299500Y-91753389D01*
X109960500Y-91753389D01*
X109933402Y-91582299D01*
X109879873Y-91417555D01*
X109801232Y-91263212D01*
X109699414Y-91123072D01*
X109576928Y-91000586D01*
X109436788Y-90898768D01*
X109282445Y-90820127D01*
X109117701Y-90766598D01*
X109117699Y-90766597D01*
X109117698Y-90766597D01*
X108986271Y-90745781D01*
X108946611Y-90739500D01*
X108773389Y-90739500D01*
X108733728Y-90745781D01*
X108602302Y-90766597D01*
X108437552Y-90820128D01*
X108283211Y-90898768D01*
X108203256Y-90956859D01*
X108143072Y-91000586D01*
X108143070Y-91000588D01*
X108143069Y-91000588D01*
X108020588Y-91123069D01*
X108020588Y-91123070D01*
X108020586Y-91123072D01*
X107976859Y-91183256D01*
X107918768Y-91263211D01*
X107840128Y-91417552D01*
X107786597Y-91582302D01*
X107773517Y-91664890D01*
X107759500Y-91753389D01*
X107420500Y-91753389D01*
X107393402Y-91582299D01*
X107339873Y-91417555D01*
X107261232Y-91263212D01*
X107159414Y-91123072D01*
X107036928Y-91000586D01*
X106896788Y-90898768D01*
X106742445Y-90820127D01*
X106577701Y-90766598D01*
X106577699Y-90766597D01*
X106577698Y-90766597D01*
X106446271Y-90745781D01*
X106406611Y-90739500D01*
X106233389Y-90739500D01*
X106193728Y-90745781D01*
X106062302Y-90766597D01*
X105897552Y-90820128D01*
X105743211Y-90898768D01*
X105663256Y-90956859D01*
X105603072Y-91000586D01*
X105603070Y-91000588D01*
X105603069Y-91000588D01*
X105480588Y-91123069D01*
X105480588Y-91123070D01*
X105480586Y-91123072D01*
X105436859Y-91183256D01*
X105378768Y-91263211D01*
X105300128Y-91417552D01*
X105246597Y-91582302D01*
X105233517Y-91664890D01*
X105219500Y-91753389D01*
X104880500Y-91753389D01*
X104853402Y-91582299D01*
X104799873Y-91417555D01*
X104721232Y-91263212D01*
X104619414Y-91123072D01*
X104496928Y-91000586D01*
X104356788Y-90898768D01*
X104202445Y-90820127D01*
X104037701Y-90766598D01*
X104037699Y-90766597D01*
X104037698Y-90766597D01*
X103906271Y-90745781D01*
X103866611Y-90739500D01*
X103693389Y-90739500D01*
X103653728Y-90745781D01*
X103522302Y-90766597D01*
X103357552Y-90820128D01*
X103203211Y-90898768D01*
X103123256Y-90956859D01*
X103063072Y-91000586D01*
X103063070Y-91000588D01*
X103063069Y-91000588D01*
X102940588Y-91123069D01*
X102940588Y-91123070D01*
X102940586Y-91123072D01*
X102896859Y-91183256D01*
X102838768Y-91263211D01*
X102760128Y-91417552D01*
X102706597Y-91582302D01*
X102693517Y-91664890D01*
X102679500Y-91753389D01*
X102340500Y-91753389D01*
X102313402Y-91582299D01*
X102259873Y-91417555D01*
X102181232Y-91263212D01*
X102079414Y-91123072D01*
X101956928Y-91000586D01*
X101816788Y-90898768D01*
X101662445Y-90820127D01*
X101497701Y-90766598D01*
X101497699Y-90766597D01*
X101497698Y-90766597D01*
X101366271Y-90745781D01*
X101326611Y-90739500D01*
X101153389Y-90739500D01*
X101113728Y-90745781D01*
X100982302Y-90766597D01*
X100817552Y-90820128D01*
X100663211Y-90898768D01*
X100583256Y-90956859D01*
X100523072Y-91000586D01*
X100523070Y-91000588D01*
X100523069Y-91000588D01*
X100400588Y-91123069D01*
X100400588Y-91123070D01*
X100400586Y-91123072D01*
X100356859Y-91183256D01*
X100298768Y-91263211D01*
X100220128Y-91417552D01*
X100166597Y-91582302D01*
X100153517Y-91664890D01*
X100139500Y-91753389D01*
X99800500Y-91753389D01*
X99773402Y-91582299D01*
X99719873Y-91417555D01*
X99641232Y-91263212D01*
X99539414Y-91123072D01*
X99416928Y-91000586D01*
X99276788Y-90898768D01*
X99122445Y-90820127D01*
X98957701Y-90766598D01*
X98957699Y-90766597D01*
X98957698Y-90766597D01*
X98826271Y-90745781D01*
X98786611Y-90739500D01*
X98613389Y-90739500D01*
X98573728Y-90745781D01*
X98442302Y-90766597D01*
X98277552Y-90820128D01*
X98123211Y-90898768D01*
X98043256Y-90956859D01*
X97983072Y-91000586D01*
X97983070Y-91000588D01*
X97983069Y-91000588D01*
X97860588Y-91123069D01*
X97860588Y-91123070D01*
X97860586Y-91123072D01*
X97816859Y-91183256D01*
X97758768Y-91263211D01*
X97680128Y-91417552D01*
X97626597Y-91582302D01*
X97613517Y-91664890D01*
X97599500Y-91753389D01*
X88600500Y-91753389D01*
X88600500Y-89671153D01*
X120909500Y-89671153D01*
X120909500Y-89828846D01*
X120940261Y-89983489D01*
X120940264Y-89983501D01*
X121000602Y-90129172D01*
X121000609Y-90129185D01*
X121088210Y-90260288D01*
X121088213Y-90260292D01*
X121199707Y-90371786D01*
X121199711Y-90371789D01*
X121330814Y-90459390D01*
X121330827Y-90459397D01*
X121476498Y-90519735D01*
X121476503Y-90519737D01*
X121603468Y-90544992D01*
X121631153Y-90550499D01*
X121631156Y-90550500D01*
X121631158Y-90550500D01*
X121788844Y-90550500D01*
X121788845Y-90550499D01*
X121943497Y-90519737D01*
X122089179Y-90459394D01*
X122220289Y-90371789D01*
X122331789Y-90260289D01*
X122419394Y-90129179D01*
X122479737Y-89983497D01*
X122510500Y-89828842D01*
X122510500Y-89756751D01*
X124135098Y-89756751D01*
X124135098Y-89914444D01*
X124165859Y-90069087D01*
X124165862Y-90069099D01*
X124226200Y-90214770D01*
X124226207Y-90214783D01*
X124313808Y-90345886D01*
X124313811Y-90345890D01*
X124425305Y-90457384D01*
X124425309Y-90457387D01*
X124556412Y-90544988D01*
X124556425Y-90544995D01*
X124702096Y-90605333D01*
X124702101Y-90605335D01*
X124856751Y-90636097D01*
X124856754Y-90636098D01*
X124856756Y-90636098D01*
X125014442Y-90636098D01*
X125014443Y-90636097D01*
X125169095Y-90605335D01*
X125281764Y-90558665D01*
X125314770Y-90544995D01*
X125314770Y-90544994D01*
X125314777Y-90544992D01*
X125445887Y-90457387D01*
X125557387Y-90345887D01*
X125644992Y-90214777D01*
X125705335Y-90069095D01*
X125736098Y-89914440D01*
X125736098Y-89756756D01*
X125736098Y-89756753D01*
X125736097Y-89756751D01*
X125705336Y-89602108D01*
X125705335Y-89602101D01*
X125705333Y-89602096D01*
X125644995Y-89456425D01*
X125644988Y-89456412D01*
X125557387Y-89325309D01*
X125557384Y-89325305D01*
X125445890Y-89213811D01*
X125445886Y-89213808D01*
X125314783Y-89126207D01*
X125314770Y-89126200D01*
X125169099Y-89065862D01*
X125169087Y-89065859D01*
X125014443Y-89035098D01*
X125014440Y-89035098D01*
X124856756Y-89035098D01*
X124856753Y-89035098D01*
X124702108Y-89065859D01*
X124702096Y-89065862D01*
X124556425Y-89126200D01*
X124556412Y-89126207D01*
X124425309Y-89213808D01*
X124425305Y-89213811D01*
X124313811Y-89325305D01*
X124313808Y-89325309D01*
X124226207Y-89456412D01*
X124226200Y-89456425D01*
X124165862Y-89602096D01*
X124165859Y-89602108D01*
X124135098Y-89756751D01*
X122510500Y-89756751D01*
X122510500Y-89671158D01*
X122510500Y-89671155D01*
X122510499Y-89671153D01*
X122496765Y-89602108D01*
X122479737Y-89516503D01*
X122454847Y-89456412D01*
X122419397Y-89370827D01*
X122419390Y-89370814D01*
X122331789Y-89239711D01*
X122331786Y-89239707D01*
X122220292Y-89128213D01*
X122220288Y-89128210D01*
X122089185Y-89040609D01*
X122089172Y-89040602D01*
X121943501Y-88980264D01*
X121943489Y-88980261D01*
X121788845Y-88949500D01*
X121788842Y-88949500D01*
X121631158Y-88949500D01*
X121631155Y-88949500D01*
X121476510Y-88980261D01*
X121476498Y-88980264D01*
X121330827Y-89040602D01*
X121330814Y-89040609D01*
X121199711Y-89128210D01*
X121199707Y-89128213D01*
X121088213Y-89239707D01*
X121088210Y-89239711D01*
X121000609Y-89370814D01*
X121000602Y-89370827D01*
X120940264Y-89516498D01*
X120940261Y-89516510D01*
X120909500Y-89671153D01*
X88600500Y-89671153D01*
X88600500Y-87951153D01*
X100739500Y-87951153D01*
X100739500Y-88108846D01*
X100770261Y-88263489D01*
X100770264Y-88263501D01*
X100830602Y-88409172D01*
X100830609Y-88409185D01*
X100918210Y-88540288D01*
X100918213Y-88540292D01*
X101029707Y-88651786D01*
X101029711Y-88651789D01*
X101160814Y-88739390D01*
X101160827Y-88739397D01*
X101306498Y-88799735D01*
X101306503Y-88799737D01*
X101461153Y-88830499D01*
X101461156Y-88830500D01*
X101461158Y-88830500D01*
X101618844Y-88830500D01*
X101618845Y-88830499D01*
X101773497Y-88799737D01*
X101919179Y-88739394D01*
X102050289Y-88651789D01*
X102161789Y-88540289D01*
X102249394Y-88409179D01*
X102309737Y-88263497D01*
X102340500Y-88108842D01*
X102340500Y-87951158D01*
X102340500Y-87951155D01*
X102340499Y-87951153D01*
X102334658Y-87921789D01*
X102309737Y-87796503D01*
X102280327Y-87725500D01*
X102249397Y-87650827D01*
X102249390Y-87650814D01*
X102161789Y-87519711D01*
X102161786Y-87519707D01*
X102050292Y-87408213D01*
X102050288Y-87408210D01*
X101919185Y-87320609D01*
X101919172Y-87320602D01*
X101773501Y-87260264D01*
X101773489Y-87260261D01*
X101618845Y-87229500D01*
X101618842Y-87229500D01*
X101461158Y-87229500D01*
X101461155Y-87229500D01*
X101306510Y-87260261D01*
X101306498Y-87260264D01*
X101160827Y-87320602D01*
X101160814Y-87320609D01*
X101029711Y-87408210D01*
X101029707Y-87408213D01*
X100918213Y-87519707D01*
X100918210Y-87519711D01*
X100830609Y-87650814D01*
X100830602Y-87650827D01*
X100770264Y-87796498D01*
X100770261Y-87796510D01*
X100739500Y-87951153D01*
X88600500Y-87951153D01*
X88600500Y-86846153D01*
X92499500Y-86846153D01*
X92499500Y-87003846D01*
X92530261Y-87158489D01*
X92530264Y-87158501D01*
X92590602Y-87304172D01*
X92590609Y-87304185D01*
X92678210Y-87435288D01*
X92678213Y-87435292D01*
X92789707Y-87546786D01*
X92789711Y-87546789D01*
X92920814Y-87634390D01*
X92920827Y-87634397D01*
X93066498Y-87694735D01*
X93066503Y-87694737D01*
X93221153Y-87725499D01*
X93221156Y-87725500D01*
X93221158Y-87725500D01*
X93378844Y-87725500D01*
X93378845Y-87725499D01*
X93533497Y-87694737D01*
X93646166Y-87648067D01*
X93679172Y-87634397D01*
X93679172Y-87634396D01*
X93679179Y-87634394D01*
X93810289Y-87546789D01*
X93921789Y-87435289D01*
X94009394Y-87304179D01*
X94069737Y-87158497D01*
X94084715Y-87083194D01*
X94092084Y-87046153D01*
X104824500Y-87046153D01*
X104824500Y-87203846D01*
X104855261Y-87358489D01*
X104855264Y-87358501D01*
X104915602Y-87504172D01*
X104915609Y-87504185D01*
X105003210Y-87635288D01*
X105003213Y-87635292D01*
X105114707Y-87746786D01*
X105114711Y-87746789D01*
X105245814Y-87834390D01*
X105245827Y-87834397D01*
X105391498Y-87894735D01*
X105391503Y-87894737D01*
X105527487Y-87921786D01*
X105546153Y-87925499D01*
X105546156Y-87925500D01*
X105546158Y-87925500D01*
X105703844Y-87925500D01*
X105703845Y-87925499D01*
X105858497Y-87894737D01*
X106004179Y-87834394D01*
X106135289Y-87746789D01*
X106246789Y-87635289D01*
X106334394Y-87504179D01*
X106394737Y-87358497D01*
X106425500Y-87203842D01*
X106425500Y-87046158D01*
X106425500Y-87046155D01*
X106425499Y-87046153D01*
X106394739Y-86891512D01*
X106394738Y-86891509D01*
X106394737Y-86891503D01*
X106386308Y-86871153D01*
X115424500Y-86871153D01*
X115424500Y-87028846D01*
X115455261Y-87183489D01*
X115455264Y-87183501D01*
X115515602Y-87329172D01*
X115515609Y-87329185D01*
X115603210Y-87460288D01*
X115603213Y-87460292D01*
X115641974Y-87499053D01*
X115675459Y-87560376D01*
X115670475Y-87630068D01*
X115662812Y-87645090D01*
X115663479Y-87645447D01*
X115660602Y-87650828D01*
X115600264Y-87796498D01*
X115600261Y-87796510D01*
X115569500Y-87951153D01*
X115569500Y-88108846D01*
X115600261Y-88263489D01*
X115600264Y-88263501D01*
X115660602Y-88409172D01*
X115660609Y-88409185D01*
X115748210Y-88540288D01*
X115748213Y-88540292D01*
X115859707Y-88651786D01*
X115859711Y-88651789D01*
X115990814Y-88739390D01*
X115990827Y-88739397D01*
X116136498Y-88799735D01*
X116136503Y-88799737D01*
X116291153Y-88830499D01*
X116291156Y-88830500D01*
X116291158Y-88830500D01*
X116448844Y-88830500D01*
X116448845Y-88830499D01*
X116603497Y-88799737D01*
X116749179Y-88739394D01*
X116880289Y-88651789D01*
X116991789Y-88540289D01*
X117079394Y-88409179D01*
X117139737Y-88263497D01*
X117170500Y-88108842D01*
X117170500Y-87951158D01*
X117170500Y-87951155D01*
X117170499Y-87951153D01*
X117164658Y-87921789D01*
X117139737Y-87796503D01*
X117110327Y-87725500D01*
X117079397Y-87650827D01*
X117079390Y-87650814D01*
X116991789Y-87519711D01*
X116991786Y-87519707D01*
X116953025Y-87480946D01*
X116919540Y-87419623D01*
X116924524Y-87349931D01*
X116926195Y-87345691D01*
X116930853Y-87334476D01*
X116934394Y-87329179D01*
X116979139Y-87221153D01*
X131599500Y-87221153D01*
X131599500Y-87378846D01*
X131630261Y-87533489D01*
X131630264Y-87533501D01*
X131690602Y-87679172D01*
X131690609Y-87679185D01*
X131778210Y-87810288D01*
X131778213Y-87810292D01*
X131889707Y-87921786D01*
X131889711Y-87921789D01*
X132020814Y-88009390D01*
X132020827Y-88009397D01*
X132147998Y-88062072D01*
X132166503Y-88069737D01*
X132254426Y-88087226D01*
X132321153Y-88100499D01*
X132321156Y-88100500D01*
X132321158Y-88100500D01*
X132478844Y-88100500D01*
X132478845Y-88100499D01*
X132633497Y-88069737D01*
X132779179Y-88009394D01*
X132910289Y-87921789D01*
X133021789Y-87810289D01*
X133109394Y-87679179D01*
X133169737Y-87533497D01*
X133200500Y-87378842D01*
X133200500Y-87321153D01*
X137299500Y-87321153D01*
X137299500Y-87478846D01*
X137330261Y-87633489D01*
X137330264Y-87633501D01*
X137390602Y-87779172D01*
X137390609Y-87779185D01*
X137478210Y-87910288D01*
X137478213Y-87910292D01*
X137589707Y-88021786D01*
X137589711Y-88021789D01*
X137720814Y-88109390D01*
X137720827Y-88109397D01*
X137866498Y-88169735D01*
X137866503Y-88169737D01*
X138021153Y-88200499D01*
X138021156Y-88200500D01*
X138021158Y-88200500D01*
X138178844Y-88200500D01*
X138178845Y-88200499D01*
X138333497Y-88169737D01*
X138479179Y-88109394D01*
X138481110Y-88108103D01*
X138482276Y-88107737D01*
X138484546Y-88106525D01*
X138484776Y-88106955D01*
X138547786Y-88087226D01*
X138615166Y-88105710D01*
X138618850Y-88108077D01*
X138620821Y-88109394D01*
X138620824Y-88109395D01*
X138620827Y-88109397D01*
X138766498Y-88169735D01*
X138766503Y-88169737D01*
X138921153Y-88200499D01*
X138921156Y-88200500D01*
X138921158Y-88200500D01*
X139078844Y-88200500D01*
X139078845Y-88200499D01*
X139233497Y-88169737D01*
X139379179Y-88109394D01*
X139510289Y-88021789D01*
X139621789Y-87910289D01*
X139709394Y-87779179D01*
X139769737Y-87633497D01*
X139800500Y-87478842D01*
X139800500Y-87321158D01*
X139800500Y-87321155D01*
X139800499Y-87321153D01*
X139782268Y-87229500D01*
X139769737Y-87166503D01*
X139769735Y-87166498D01*
X139709397Y-87020827D01*
X139709390Y-87020814D01*
X139621789Y-86889711D01*
X139621786Y-86889707D01*
X139510292Y-86778213D01*
X139510288Y-86778210D01*
X139379185Y-86690609D01*
X139379172Y-86690602D01*
X139233501Y-86630264D01*
X139233489Y-86630261D01*
X139078845Y-86599500D01*
X139078842Y-86599500D01*
X138921158Y-86599500D01*
X138921155Y-86599500D01*
X138766510Y-86630261D01*
X138766498Y-86630264D01*
X138620822Y-86690604D01*
X138620820Y-86690605D01*
X138618885Y-86691899D01*
X138617717Y-86692264D01*
X138615451Y-86693476D01*
X138615221Y-86693045D01*
X138552206Y-86712773D01*
X138484827Y-86694285D01*
X138481115Y-86691899D01*
X138479179Y-86690605D01*
X138479177Y-86690604D01*
X138333501Y-86630264D01*
X138333489Y-86630261D01*
X138178845Y-86599500D01*
X138178842Y-86599500D01*
X138021158Y-86599500D01*
X138021155Y-86599500D01*
X137866510Y-86630261D01*
X137866498Y-86630264D01*
X137720827Y-86690602D01*
X137720814Y-86690609D01*
X137589711Y-86778210D01*
X137589707Y-86778213D01*
X137478213Y-86889707D01*
X137478210Y-86889711D01*
X137390609Y-87020814D01*
X137390602Y-87020827D01*
X137330264Y-87166498D01*
X137330261Y-87166510D01*
X137299500Y-87321153D01*
X133200500Y-87321153D01*
X133200500Y-87221158D01*
X133200500Y-87221155D01*
X133200499Y-87221153D01*
X133197056Y-87203842D01*
X133169737Y-87066503D01*
X133154138Y-87028844D01*
X133109397Y-86920827D01*
X133109390Y-86920814D01*
X133021789Y-86789711D01*
X133021786Y-86789707D01*
X132910292Y-86678213D01*
X132910288Y-86678210D01*
X132779185Y-86590609D01*
X132779172Y-86590602D01*
X132633501Y-86530264D01*
X132633489Y-86530261D01*
X132478845Y-86499500D01*
X132478842Y-86499500D01*
X132321158Y-86499500D01*
X132321155Y-86499500D01*
X132166510Y-86530261D01*
X132166498Y-86530264D01*
X132020827Y-86590602D01*
X132020814Y-86590609D01*
X131889711Y-86678210D01*
X131889707Y-86678213D01*
X131778213Y-86789707D01*
X131778210Y-86789711D01*
X131690609Y-86920814D01*
X131690602Y-86920827D01*
X131630264Y-87066498D01*
X131630261Y-87066510D01*
X131599500Y-87221153D01*
X116979139Y-87221153D01*
X116994737Y-87183497D01*
X116998118Y-87166503D01*
X117018010Y-87066498D01*
X117025500Y-87028842D01*
X117025500Y-86871158D01*
X117025500Y-86871155D01*
X117025499Y-86871153D01*
X117020527Y-86846158D01*
X116994737Y-86716503D01*
X116985199Y-86693476D01*
X116934397Y-86570827D01*
X116934390Y-86570814D01*
X116846789Y-86439711D01*
X116846786Y-86439707D01*
X116735292Y-86328213D01*
X116735288Y-86328210D01*
X116604185Y-86240609D01*
X116604172Y-86240602D01*
X116458501Y-86180264D01*
X116458489Y-86180261D01*
X116303845Y-86149500D01*
X116303842Y-86149500D01*
X116146158Y-86149500D01*
X116146155Y-86149500D01*
X115991510Y-86180261D01*
X115991498Y-86180264D01*
X115845827Y-86240602D01*
X115845814Y-86240609D01*
X115714711Y-86328210D01*
X115714707Y-86328213D01*
X115603213Y-86439707D01*
X115603210Y-86439711D01*
X115515609Y-86570814D01*
X115515602Y-86570827D01*
X115455264Y-86716498D01*
X115455261Y-86716510D01*
X115424500Y-86871153D01*
X106386308Y-86871153D01*
X106375955Y-86846158D01*
X106334397Y-86745827D01*
X106334390Y-86745814D01*
X106246789Y-86614711D01*
X106246786Y-86614707D01*
X106135292Y-86503213D01*
X106135288Y-86503210D01*
X106004185Y-86415609D01*
X106004172Y-86415602D01*
X105858501Y-86355264D01*
X105858489Y-86355261D01*
X105703845Y-86324500D01*
X105703842Y-86324500D01*
X105546158Y-86324500D01*
X105546155Y-86324500D01*
X105391510Y-86355261D01*
X105391498Y-86355264D01*
X105245827Y-86415602D01*
X105245814Y-86415609D01*
X105114711Y-86503210D01*
X105114707Y-86503213D01*
X105003213Y-86614707D01*
X105003210Y-86614711D01*
X104915609Y-86745814D01*
X104915602Y-86745827D01*
X104855264Y-86891498D01*
X104855261Y-86891510D01*
X104824500Y-87046153D01*
X94092084Y-87046153D01*
X94098107Y-87015875D01*
X94098107Y-87015874D01*
X94100500Y-87003844D01*
X94100500Y-86846155D01*
X94100499Y-86846153D01*
X94080543Y-86745827D01*
X94069737Y-86691503D01*
X94069367Y-86690609D01*
X94009397Y-86545827D01*
X94009390Y-86545814D01*
X93921789Y-86414711D01*
X93921786Y-86414707D01*
X93810292Y-86303213D01*
X93810288Y-86303210D01*
X93679185Y-86215609D01*
X93679172Y-86215602D01*
X93533501Y-86155264D01*
X93533489Y-86155261D01*
X93378845Y-86124500D01*
X93378842Y-86124500D01*
X93221158Y-86124500D01*
X93221155Y-86124500D01*
X93066510Y-86155261D01*
X93066498Y-86155264D01*
X92920827Y-86215602D01*
X92920814Y-86215609D01*
X92789711Y-86303210D01*
X92789707Y-86303213D01*
X92678213Y-86414707D01*
X92678210Y-86414711D01*
X92590609Y-86545814D01*
X92590602Y-86545827D01*
X92530264Y-86691498D01*
X92530261Y-86691510D01*
X92499500Y-86846153D01*
X88600500Y-86846153D01*
X88600500Y-85721153D01*
X102899500Y-85721153D01*
X102899500Y-85878846D01*
X102930261Y-86033489D01*
X102930264Y-86033501D01*
X102990602Y-86179172D01*
X102990609Y-86179185D01*
X103078210Y-86310288D01*
X103078213Y-86310292D01*
X103189707Y-86421786D01*
X103189711Y-86421789D01*
X103320814Y-86509390D01*
X103320827Y-86509397D01*
X103466498Y-86569735D01*
X103466503Y-86569737D01*
X103616131Y-86599500D01*
X103621153Y-86600499D01*
X103621156Y-86600500D01*
X103621158Y-86600500D01*
X103778844Y-86600500D01*
X103778845Y-86600499D01*
X103933497Y-86569737D01*
X104079179Y-86509394D01*
X104210289Y-86421789D01*
X104321789Y-86310289D01*
X104409394Y-86179179D01*
X104469737Y-86033497D01*
X104500500Y-85878842D01*
X104500500Y-85721158D01*
X104500500Y-85721155D01*
X104500499Y-85721153D01*
X104469738Y-85566510D01*
X104469737Y-85566503D01*
X104469735Y-85566498D01*
X104409397Y-85420827D01*
X104409390Y-85420814D01*
X104321789Y-85289711D01*
X104321786Y-85289707D01*
X104210292Y-85178213D01*
X104210288Y-85178210D01*
X104079185Y-85090609D01*
X104079172Y-85090602D01*
X103933501Y-85030264D01*
X103933489Y-85030261D01*
X103778845Y-84999500D01*
X103778842Y-84999500D01*
X103621158Y-84999500D01*
X103621155Y-84999500D01*
X103466510Y-85030261D01*
X103466498Y-85030264D01*
X103320827Y-85090602D01*
X103320814Y-85090609D01*
X103189711Y-85178210D01*
X103189707Y-85178213D01*
X103078213Y-85289707D01*
X103078210Y-85289711D01*
X102990609Y-85420814D01*
X102990602Y-85420827D01*
X102930264Y-85566498D01*
X102930261Y-85566510D01*
X102899500Y-85721153D01*
X88600500Y-85721153D01*
X88600500Y-83471153D01*
X93499500Y-83471153D01*
X93499500Y-83628846D01*
X93530261Y-83783489D01*
X93530264Y-83783501D01*
X93590602Y-83929172D01*
X93590609Y-83929185D01*
X93678210Y-84060288D01*
X93678213Y-84060292D01*
X93789707Y-84171786D01*
X93789711Y-84171789D01*
X93920814Y-84259390D01*
X93920827Y-84259397D01*
X94066498Y-84319735D01*
X94066503Y-84319737D01*
X94221153Y-84350499D01*
X94221156Y-84350500D01*
X94221158Y-84350500D01*
X94378844Y-84350500D01*
X94378845Y-84350499D01*
X94533497Y-84319737D01*
X94679179Y-84259394D01*
X94810289Y-84171789D01*
X94921789Y-84060289D01*
X95009394Y-83929179D01*
X95069737Y-83783497D01*
X95082138Y-83721153D01*
X129799500Y-83721153D01*
X129799500Y-83878846D01*
X129830261Y-84033489D01*
X129830264Y-84033501D01*
X129890602Y-84179172D01*
X129890609Y-84179185D01*
X129978210Y-84310288D01*
X129978213Y-84310292D01*
X130089707Y-84421786D01*
X130089711Y-84421789D01*
X130220814Y-84509390D01*
X130220827Y-84509397D01*
X130366498Y-84569735D01*
X130366503Y-84569737D01*
X130521153Y-84600499D01*
X130521156Y-84600500D01*
X130521158Y-84600500D01*
X130678844Y-84600500D01*
X130678845Y-84600499D01*
X130833497Y-84569737D01*
X130979179Y-84509394D01*
X131110289Y-84421789D01*
X131221789Y-84310289D01*
X131309394Y-84179179D01*
X131369737Y-84033497D01*
X131400500Y-83878842D01*
X131400500Y-83721158D01*
X131400500Y-83721155D01*
X131400499Y-83721153D01*
X131369738Y-83566510D01*
X131369737Y-83566503D01*
X131330242Y-83471153D01*
X131309397Y-83420827D01*
X131309390Y-83420814D01*
X131221789Y-83289711D01*
X131221786Y-83289707D01*
X131110292Y-83178213D01*
X131110288Y-83178210D01*
X130979185Y-83090609D01*
X130979172Y-83090602D01*
X130833501Y-83030264D01*
X130833489Y-83030261D01*
X130678845Y-82999500D01*
X130678842Y-82999500D01*
X130521158Y-82999500D01*
X130521155Y-82999500D01*
X130366510Y-83030261D01*
X130366498Y-83030264D01*
X130220827Y-83090602D01*
X130220814Y-83090609D01*
X130089711Y-83178210D01*
X130089707Y-83178213D01*
X129978213Y-83289707D01*
X129978210Y-83289711D01*
X129890609Y-83420814D01*
X129890602Y-83420827D01*
X129830264Y-83566498D01*
X129830261Y-83566510D01*
X129799500Y-83721153D01*
X95082138Y-83721153D01*
X95088161Y-83690874D01*
X95100500Y-83628844D01*
X95100500Y-83471155D01*
X95100499Y-83471153D01*
X95069738Y-83316510D01*
X95069737Y-83316503D01*
X95069735Y-83316498D01*
X95009397Y-83170827D01*
X95009390Y-83170814D01*
X94921789Y-83039711D01*
X94921786Y-83039707D01*
X94810292Y-82928213D01*
X94810288Y-82928210D01*
X94679185Y-82840609D01*
X94679172Y-82840602D01*
X94533501Y-82780264D01*
X94533489Y-82780261D01*
X94378845Y-82749500D01*
X94378842Y-82749500D01*
X94221158Y-82749500D01*
X94221155Y-82749500D01*
X94066510Y-82780261D01*
X94066498Y-82780264D01*
X93920827Y-82840602D01*
X93920814Y-82840609D01*
X93789711Y-82928210D01*
X93789707Y-82928213D01*
X93678213Y-83039707D01*
X93678210Y-83039711D01*
X93590609Y-83170814D01*
X93590602Y-83170827D01*
X93530264Y-83316498D01*
X93530261Y-83316510D01*
X93499500Y-83471153D01*
X88600500Y-83471153D01*
X88600500Y-80146153D01*
X91574500Y-80146153D01*
X91574500Y-80303846D01*
X91605261Y-80458489D01*
X91605264Y-80458501D01*
X91665602Y-80604172D01*
X91665609Y-80604185D01*
X91753210Y-80735288D01*
X91753213Y-80735292D01*
X91864707Y-80846786D01*
X91864711Y-80846789D01*
X91995814Y-80934390D01*
X91995827Y-80934397D01*
X92086649Y-80972016D01*
X92141503Y-80994737D01*
X92296153Y-81025499D01*
X92296156Y-81025500D01*
X92296158Y-81025500D01*
X92453844Y-81025500D01*
X92453845Y-81025499D01*
X92608497Y-80994737D01*
X92645319Y-80979484D01*
X92714787Y-80972016D01*
X92777267Y-81003291D01*
X92812919Y-81063380D01*
X92810425Y-81133205D01*
X92795874Y-81162935D01*
X92790611Y-81170811D01*
X92790602Y-81170827D01*
X92730264Y-81316498D01*
X92730261Y-81316510D01*
X92699500Y-81471153D01*
X92699500Y-81628846D01*
X92730261Y-81783489D01*
X92730264Y-81783501D01*
X92790602Y-81929172D01*
X92790609Y-81929185D01*
X92878210Y-82060288D01*
X92878213Y-82060292D01*
X92989707Y-82171786D01*
X92989711Y-82171789D01*
X93120814Y-82259390D01*
X93120827Y-82259397D01*
X93266498Y-82319735D01*
X93266503Y-82319737D01*
X93392176Y-82344735D01*
X93421153Y-82350499D01*
X93421156Y-82350500D01*
X93421158Y-82350500D01*
X93578844Y-82350500D01*
X93578845Y-82350499D01*
X93733497Y-82319737D01*
X93879179Y-82259394D01*
X94010289Y-82171789D01*
X94121789Y-82060289D01*
X94209394Y-81929179D01*
X94269737Y-81783497D01*
X94300500Y-81628842D01*
X94300500Y-81496153D01*
X97324500Y-81496153D01*
X97324500Y-81653846D01*
X97355261Y-81808489D01*
X97355264Y-81808501D01*
X97415602Y-81954172D01*
X97415609Y-81954185D01*
X97503210Y-82085288D01*
X97503213Y-82085292D01*
X97614707Y-82196786D01*
X97614711Y-82196789D01*
X97745814Y-82284390D01*
X97745827Y-82284397D01*
X97891498Y-82344735D01*
X97891503Y-82344737D01*
X98046153Y-82375499D01*
X98046156Y-82375500D01*
X98046158Y-82375500D01*
X98203844Y-82375500D01*
X98203845Y-82375499D01*
X98358497Y-82344737D01*
X98504179Y-82284394D01*
X98635289Y-82196789D01*
X98746789Y-82085289D01*
X98834394Y-81954179D01*
X98868784Y-81871153D01*
X102724500Y-81871153D01*
X102724500Y-82028846D01*
X102755261Y-82183489D01*
X102755264Y-82183501D01*
X102815602Y-82329172D01*
X102815609Y-82329185D01*
X102903210Y-82460288D01*
X102903213Y-82460292D01*
X103014707Y-82571786D01*
X103014711Y-82571789D01*
X103145814Y-82659390D01*
X103145827Y-82659397D01*
X103291498Y-82719735D01*
X103291503Y-82719737D01*
X103441131Y-82749500D01*
X103446153Y-82750499D01*
X103446156Y-82750500D01*
X103446158Y-82750500D01*
X103603844Y-82750500D01*
X103603845Y-82750499D01*
X103758497Y-82719737D01*
X103904179Y-82659394D01*
X104035289Y-82571789D01*
X104146789Y-82460289D01*
X104234394Y-82329179D01*
X104291418Y-82191508D01*
X104335256Y-82137109D01*
X104401550Y-82115043D01*
X104430169Y-82117347D01*
X104471155Y-82125500D01*
X104471158Y-82125500D01*
X104628844Y-82125500D01*
X104628845Y-82125499D01*
X104650694Y-82121153D01*
X107999500Y-82121153D01*
X107999500Y-82278846D01*
X108030261Y-82433489D01*
X108030264Y-82433501D01*
X108090602Y-82579172D01*
X108090609Y-82579185D01*
X108178210Y-82710288D01*
X108178213Y-82710292D01*
X108289707Y-82821786D01*
X108289711Y-82821789D01*
X108420814Y-82909390D01*
X108420827Y-82909397D01*
X108466254Y-82928213D01*
X108566503Y-82969737D01*
X108716131Y-82999500D01*
X108721153Y-83000499D01*
X108721156Y-83000500D01*
X108721158Y-83000500D01*
X108878844Y-83000500D01*
X108878845Y-83000499D01*
X109033497Y-82969737D01*
X109179179Y-82909394D01*
X109310289Y-82821789D01*
X109421789Y-82710289D01*
X109509394Y-82579179D01*
X109569737Y-82433497D01*
X109600500Y-82278842D01*
X109600500Y-82121158D01*
X109600500Y-82121155D01*
X109600499Y-82121153D01*
X109595245Y-82094738D01*
X109569737Y-81966503D01*
X109561570Y-81946786D01*
X109509397Y-81820827D01*
X109509390Y-81820814D01*
X109468058Y-81758957D01*
X109426093Y-81696153D01*
X129974500Y-81696153D01*
X129974500Y-81853846D01*
X130005261Y-82008489D01*
X130005264Y-82008501D01*
X130065602Y-82154172D01*
X130065609Y-82154185D01*
X130153210Y-82285288D01*
X130153213Y-82285292D01*
X130264707Y-82396786D01*
X130264711Y-82396789D01*
X130395814Y-82484390D01*
X130395827Y-82484397D01*
X130541498Y-82544735D01*
X130541503Y-82544737D01*
X130677487Y-82571786D01*
X130696153Y-82575499D01*
X130696156Y-82575500D01*
X130696158Y-82575500D01*
X130853844Y-82575500D01*
X130853845Y-82575499D01*
X131008497Y-82544737D01*
X131154179Y-82484394D01*
X131285289Y-82396789D01*
X131396789Y-82285289D01*
X131484394Y-82154179D01*
X131544737Y-82008497D01*
X131575500Y-81853842D01*
X131575500Y-81696158D01*
X131575500Y-81696155D01*
X131575499Y-81696153D01*
X131574217Y-81689707D01*
X131544737Y-81541503D01*
X131525955Y-81496158D01*
X131484397Y-81395827D01*
X131484390Y-81395814D01*
X131396789Y-81264711D01*
X131396786Y-81264707D01*
X131285292Y-81153213D01*
X131285288Y-81153210D01*
X131154185Y-81065609D01*
X131154172Y-81065602D01*
X131008501Y-81005264D01*
X131008489Y-81005261D01*
X130853845Y-80974500D01*
X130853842Y-80974500D01*
X130696158Y-80974500D01*
X130696155Y-80974500D01*
X130541510Y-81005261D01*
X130541498Y-81005264D01*
X130395827Y-81065602D01*
X130395814Y-81065609D01*
X130264711Y-81153210D01*
X130264707Y-81153213D01*
X130153213Y-81264707D01*
X130153210Y-81264711D01*
X130065609Y-81395814D01*
X130065602Y-81395827D01*
X130005264Y-81541498D01*
X130005261Y-81541510D01*
X129974500Y-81696153D01*
X109426093Y-81696153D01*
X109421789Y-81689711D01*
X109421786Y-81689707D01*
X109310292Y-81578213D01*
X109310287Y-81578209D01*
X109179185Y-81490609D01*
X109179172Y-81490602D01*
X109033501Y-81430264D01*
X109033489Y-81430261D01*
X108878845Y-81399500D01*
X108878842Y-81399500D01*
X108721158Y-81399500D01*
X108721155Y-81399500D01*
X108566510Y-81430261D01*
X108566498Y-81430264D01*
X108420827Y-81490602D01*
X108420814Y-81490609D01*
X108289713Y-81578209D01*
X108289707Y-81578213D01*
X108178213Y-81689707D01*
X108178210Y-81689711D01*
X108090609Y-81820814D01*
X108090602Y-81820827D01*
X108030264Y-81966498D01*
X108030261Y-81966510D01*
X107999500Y-82121153D01*
X104650694Y-82121153D01*
X104783497Y-82094737D01*
X104929179Y-82034394D01*
X104937488Y-82028842D01*
X104962749Y-82011964D01*
X105030792Y-81966498D01*
X105060289Y-81946789D01*
X105171789Y-81835289D01*
X105259394Y-81704179D01*
X105262719Y-81696153D01*
X105290598Y-81628846D01*
X105319737Y-81558497D01*
X105350500Y-81403842D01*
X105350500Y-81367847D01*
X105370185Y-81300808D01*
X105422989Y-81255053D01*
X105450309Y-81246230D01*
X105478602Y-81240602D01*
X105583497Y-81219737D01*
X105701592Y-81170821D01*
X105729172Y-81159397D01*
X105729172Y-81159396D01*
X105729179Y-81159394D01*
X105860289Y-81071789D01*
X105971789Y-80960289D01*
X106059394Y-80829179D01*
X106065389Y-80814707D01*
X106079655Y-80780264D01*
X106119737Y-80683497D01*
X106150500Y-80528842D01*
X106150500Y-80371158D01*
X106150500Y-80371155D01*
X106150499Y-80371153D01*
X106130326Y-80269737D01*
X106119737Y-80216503D01*
X106116791Y-80209390D01*
X106059397Y-80070827D01*
X106059390Y-80070814D01*
X105971789Y-79939711D01*
X105971786Y-79939707D01*
X105860292Y-79828213D01*
X105860288Y-79828210D01*
X105729185Y-79740609D01*
X105729172Y-79740602D01*
X105583501Y-79680264D01*
X105583489Y-79680261D01*
X105428845Y-79649500D01*
X105428842Y-79649500D01*
X105271158Y-79649500D01*
X105271155Y-79649500D01*
X105116510Y-79680261D01*
X105116498Y-79680264D01*
X104970827Y-79740602D01*
X104970814Y-79740609D01*
X104839711Y-79828210D01*
X104839707Y-79828213D01*
X104728213Y-79939707D01*
X104728210Y-79939711D01*
X104640609Y-80070814D01*
X104640602Y-80070827D01*
X104580264Y-80216498D01*
X104580261Y-80216510D01*
X104549500Y-80371153D01*
X104549500Y-80407152D01*
X104529815Y-80474191D01*
X104477011Y-80519946D01*
X104449692Y-80528769D01*
X104316508Y-80555261D01*
X104316498Y-80555264D01*
X104170827Y-80615602D01*
X104170814Y-80615609D01*
X104039711Y-80703210D01*
X104039707Y-80703213D01*
X103928213Y-80814707D01*
X103928210Y-80814711D01*
X103840609Y-80945814D01*
X103840604Y-80945824D01*
X103783582Y-81083488D01*
X103739741Y-81137891D01*
X103673447Y-81159956D01*
X103644831Y-81157653D01*
X103603842Y-81149500D01*
X103446158Y-81149500D01*
X103446155Y-81149500D01*
X103291510Y-81180261D01*
X103291498Y-81180264D01*
X103145827Y-81240602D01*
X103145814Y-81240609D01*
X103014711Y-81328210D01*
X103014707Y-81328213D01*
X102903213Y-81439707D01*
X102903210Y-81439711D01*
X102815609Y-81570814D01*
X102815602Y-81570827D01*
X102755264Y-81716498D01*
X102755261Y-81716510D01*
X102724500Y-81871153D01*
X98868784Y-81871153D01*
X98883638Y-81835292D01*
X98890958Y-81817621D01*
X98890958Y-81817619D01*
X98894737Y-81808497D01*
X98925500Y-81653842D01*
X98925500Y-81496158D01*
X98925500Y-81496155D01*
X98925499Y-81496153D01*
X98920527Y-81471158D01*
X98894737Y-81341503D01*
X98862929Y-81264711D01*
X98834397Y-81195827D01*
X98834390Y-81195814D01*
X98746789Y-81064711D01*
X98746786Y-81064707D01*
X98635292Y-80953213D01*
X98635288Y-80953210D01*
X98504185Y-80865609D01*
X98504172Y-80865602D01*
X98358501Y-80805264D01*
X98358489Y-80805261D01*
X98203845Y-80774500D01*
X98203842Y-80774500D01*
X98046158Y-80774500D01*
X98046155Y-80774500D01*
X97891510Y-80805261D01*
X97891498Y-80805264D01*
X97745827Y-80865602D01*
X97745814Y-80865609D01*
X97614711Y-80953210D01*
X97614707Y-80953213D01*
X97503213Y-81064707D01*
X97503210Y-81064711D01*
X97415609Y-81195814D01*
X97415602Y-81195827D01*
X97355264Y-81341498D01*
X97355261Y-81341510D01*
X97324500Y-81496153D01*
X94300500Y-81496153D01*
X94300500Y-81471158D01*
X94300500Y-81471155D01*
X94300499Y-81471153D01*
X94286246Y-81399500D01*
X94269737Y-81316503D01*
X94219752Y-81195827D01*
X94209397Y-81170827D01*
X94209390Y-81170814D01*
X94121789Y-81039711D01*
X94121786Y-81039707D01*
X94010292Y-80928213D01*
X94010288Y-80928210D01*
X93879185Y-80840609D01*
X93879172Y-80840602D01*
X93733501Y-80780264D01*
X93733489Y-80780261D01*
X93578845Y-80749500D01*
X93578842Y-80749500D01*
X93421158Y-80749500D01*
X93421155Y-80749500D01*
X93266510Y-80780261D01*
X93266498Y-80780264D01*
X93229678Y-80795515D01*
X93160208Y-80802982D01*
X93097730Y-80771706D01*
X93062079Y-80711616D01*
X93064575Y-80641791D01*
X93079128Y-80612060D01*
X93084394Y-80604179D01*
X93144737Y-80458497D01*
X93175500Y-80303842D01*
X93175500Y-80146158D01*
X93175500Y-80146155D01*
X93175499Y-80146153D01*
X93170652Y-80121786D01*
X93144737Y-79991503D01*
X93144735Y-79991498D01*
X93084397Y-79845827D01*
X93084390Y-79845814D01*
X92996789Y-79714711D01*
X92996786Y-79714707D01*
X92885292Y-79603213D01*
X92885288Y-79603210D01*
X92754185Y-79515609D01*
X92754172Y-79515602D01*
X92608501Y-79455264D01*
X92608489Y-79455261D01*
X92453845Y-79424500D01*
X92453842Y-79424500D01*
X92296158Y-79424500D01*
X92296155Y-79424500D01*
X92141510Y-79455261D01*
X92141498Y-79455264D01*
X91995827Y-79515602D01*
X91995814Y-79515609D01*
X91864711Y-79603210D01*
X91864707Y-79603213D01*
X91753213Y-79714707D01*
X91753210Y-79714711D01*
X91665609Y-79845814D01*
X91665602Y-79845827D01*
X91605264Y-79991498D01*
X91605261Y-79991510D01*
X91574500Y-80146153D01*
X88600500Y-80146153D01*
X88600500Y-79421153D01*
X134699500Y-79421153D01*
X134699500Y-79578846D01*
X134730261Y-79733489D01*
X134730264Y-79733501D01*
X134790602Y-79879172D01*
X134790609Y-79879185D01*
X134878210Y-80010288D01*
X134878213Y-80010292D01*
X134989707Y-80121786D01*
X134989711Y-80121789D01*
X135120814Y-80209390D01*
X135120827Y-80209397D01*
X135266498Y-80269735D01*
X135266503Y-80269737D01*
X135421153Y-80300499D01*
X135421156Y-80300500D01*
X135421158Y-80300500D01*
X135578844Y-80300500D01*
X135578845Y-80300499D01*
X135733497Y-80269737D01*
X135879179Y-80209394D01*
X136010289Y-80121789D01*
X136121789Y-80010289D01*
X136209394Y-79879179D01*
X136269737Y-79733497D01*
X136300500Y-79578842D01*
X136300500Y-79421158D01*
X136300500Y-79421155D01*
X136300499Y-79421153D01*
X136269738Y-79266510D01*
X136269737Y-79266503D01*
X136230242Y-79171153D01*
X137449500Y-79171153D01*
X137449500Y-79328846D01*
X137480261Y-79483489D01*
X137480264Y-79483501D01*
X137540602Y-79629172D01*
X137540609Y-79629185D01*
X137628210Y-79760288D01*
X137628213Y-79760292D01*
X137739707Y-79871786D01*
X137739711Y-79871789D01*
X137870814Y-79959390D01*
X137870827Y-79959397D01*
X138016498Y-80019735D01*
X138016503Y-80019737D01*
X138161450Y-80048569D01*
X138171153Y-80050499D01*
X138171156Y-80050500D01*
X138171158Y-80050500D01*
X138328842Y-80050500D01*
X138338548Y-80048569D01*
X138408138Y-80054792D01*
X138450427Y-80082505D01*
X138489707Y-80121786D01*
X138489711Y-80121789D01*
X138620814Y-80209390D01*
X138620827Y-80209397D01*
X138766498Y-80269735D01*
X138766503Y-80269737D01*
X138921153Y-80300499D01*
X138921156Y-80300500D01*
X138921158Y-80300500D01*
X139078844Y-80300500D01*
X139078845Y-80300499D01*
X139233497Y-80269737D01*
X139379179Y-80209394D01*
X139510289Y-80121789D01*
X139621789Y-80010289D01*
X139709394Y-79879179D01*
X139769737Y-79733497D01*
X139800500Y-79578842D01*
X139800500Y-79421158D01*
X139800500Y-79421155D01*
X139800499Y-79421153D01*
X139769738Y-79266510D01*
X139769737Y-79266503D01*
X139769735Y-79266498D01*
X139709397Y-79120827D01*
X139709390Y-79120814D01*
X139621789Y-78989711D01*
X139621786Y-78989707D01*
X139510292Y-78878213D01*
X139510288Y-78878210D01*
X139379185Y-78790609D01*
X139379172Y-78790602D01*
X139233501Y-78730264D01*
X139233489Y-78730261D01*
X139078845Y-78699500D01*
X139078842Y-78699500D01*
X138921158Y-78699500D01*
X138921154Y-78699500D01*
X138911441Y-78701432D01*
X138841850Y-78695202D01*
X138799572Y-78667494D01*
X138760292Y-78628213D01*
X138760288Y-78628210D01*
X138629185Y-78540609D01*
X138629172Y-78540602D01*
X138483501Y-78480264D01*
X138483489Y-78480261D01*
X138328845Y-78449500D01*
X138328842Y-78449500D01*
X138171158Y-78449500D01*
X138171155Y-78449500D01*
X138016510Y-78480261D01*
X138016498Y-78480264D01*
X137870827Y-78540602D01*
X137870814Y-78540609D01*
X137739711Y-78628210D01*
X137739707Y-78628213D01*
X137628213Y-78739707D01*
X137628210Y-78739711D01*
X137540609Y-78870814D01*
X137540602Y-78870827D01*
X137480264Y-79016498D01*
X137480261Y-79016510D01*
X137449500Y-79171153D01*
X136230242Y-79171153D01*
X136209794Y-79121786D01*
X136209397Y-79120827D01*
X136209390Y-79120814D01*
X136121789Y-78989711D01*
X136121786Y-78989707D01*
X136010292Y-78878213D01*
X136010288Y-78878210D01*
X135879185Y-78790609D01*
X135879172Y-78790602D01*
X135733501Y-78730264D01*
X135733489Y-78730261D01*
X135578845Y-78699500D01*
X135578842Y-78699500D01*
X135421158Y-78699500D01*
X135421155Y-78699500D01*
X135266510Y-78730261D01*
X135266498Y-78730264D01*
X135120827Y-78790602D01*
X135120814Y-78790609D01*
X134989711Y-78878210D01*
X134989707Y-78878213D01*
X134878213Y-78989707D01*
X134878210Y-78989711D01*
X134790609Y-79120814D01*
X134790602Y-79120827D01*
X134730264Y-79266498D01*
X134730261Y-79266510D01*
X134699500Y-79421153D01*
X88600500Y-79421153D01*
X88600500Y-78421153D01*
X92569500Y-78421153D01*
X92569500Y-78578846D01*
X92600261Y-78733489D01*
X92600264Y-78733501D01*
X92660602Y-78879172D01*
X92660609Y-78879185D01*
X92748210Y-79010288D01*
X92748213Y-79010292D01*
X92859707Y-79121786D01*
X92859711Y-79121789D01*
X92990814Y-79209390D01*
X92990827Y-79209397D01*
X93128683Y-79266498D01*
X93136503Y-79269737D01*
X93291153Y-79300499D01*
X93291156Y-79300500D01*
X93291158Y-79300500D01*
X93448844Y-79300500D01*
X93448845Y-79300499D01*
X93459179Y-79298443D01*
X93484287Y-79293450D01*
X93484292Y-79293449D01*
X93569800Y-79276439D01*
X93603497Y-79269737D01*
X93741635Y-79212519D01*
X93749172Y-79209397D01*
X93749172Y-79209396D01*
X93749179Y-79209394D01*
X93880289Y-79121789D01*
X93991789Y-79010289D01*
X94079394Y-78879179D01*
X94082854Y-78870827D01*
X94111984Y-78800499D01*
X94139737Y-78733497D01*
X94170500Y-78578842D01*
X94170500Y-78421158D01*
X94170500Y-78421155D01*
X94170499Y-78421153D01*
X94139738Y-78266510D01*
X94139737Y-78266503D01*
X94079794Y-78121786D01*
X94079397Y-78120827D01*
X94079390Y-78120814D01*
X93991789Y-77989711D01*
X93991786Y-77989707D01*
X93880292Y-77878213D01*
X93880288Y-77878210D01*
X93749185Y-77790609D01*
X93749172Y-77790602D01*
X93603501Y-77730264D01*
X93603489Y-77730261D01*
X93448845Y-77699500D01*
X93448842Y-77699500D01*
X93291158Y-77699500D01*
X93291155Y-77699500D01*
X93136510Y-77730261D01*
X93136498Y-77730264D01*
X92990827Y-77790602D01*
X92990814Y-77790609D01*
X92859711Y-77878210D01*
X92859707Y-77878213D01*
X92748213Y-77989707D01*
X92748210Y-77989711D01*
X92660609Y-78120814D01*
X92660602Y-78120827D01*
X92600264Y-78266498D01*
X92600261Y-78266510D01*
X92569500Y-78421153D01*
X88600500Y-78421153D01*
X88600500Y-77421153D01*
X123449500Y-77421153D01*
X123449500Y-77578846D01*
X123480261Y-77733489D01*
X123480264Y-77733501D01*
X123540602Y-77879172D01*
X123540609Y-77879185D01*
X123628210Y-78010288D01*
X123628213Y-78010292D01*
X123739707Y-78121786D01*
X123739711Y-78121789D01*
X123870814Y-78209390D01*
X123870827Y-78209397D01*
X124008683Y-78266498D01*
X124016503Y-78269737D01*
X124171153Y-78300499D01*
X124171156Y-78300500D01*
X124171158Y-78300500D01*
X124328844Y-78300500D01*
X124328845Y-78300499D01*
X124483497Y-78269737D01*
X124629179Y-78209394D01*
X124760289Y-78121789D01*
X124871789Y-78010289D01*
X124959394Y-77879179D01*
X125019737Y-77733497D01*
X125050500Y-77578842D01*
X125050500Y-77421158D01*
X125050500Y-77421155D01*
X125050499Y-77421153D01*
X126449500Y-77421153D01*
X126449500Y-77578846D01*
X126480261Y-77733489D01*
X126480264Y-77733501D01*
X126540602Y-77879172D01*
X126540609Y-77879185D01*
X126628210Y-78010288D01*
X126628213Y-78010292D01*
X126739707Y-78121786D01*
X126739711Y-78121789D01*
X126870814Y-78209390D01*
X126870827Y-78209397D01*
X127008683Y-78266498D01*
X127016503Y-78269737D01*
X127171153Y-78300499D01*
X127171156Y-78300500D01*
X127171158Y-78300500D01*
X127328844Y-78300500D01*
X127328845Y-78300499D01*
X127483497Y-78269737D01*
X127629179Y-78209394D01*
X127760289Y-78121789D01*
X127871789Y-78010289D01*
X127931348Y-77921153D01*
X129799500Y-77921153D01*
X129799500Y-78078846D01*
X129830261Y-78233489D01*
X129830264Y-78233501D01*
X129890602Y-78379172D01*
X129890609Y-78379185D01*
X129978210Y-78510288D01*
X129978213Y-78510292D01*
X130089707Y-78621786D01*
X130089711Y-78621789D01*
X130220814Y-78709390D01*
X130220827Y-78709397D01*
X130294013Y-78739711D01*
X130366503Y-78769737D01*
X130521153Y-78800499D01*
X130521156Y-78800500D01*
X130521158Y-78800500D01*
X130678844Y-78800500D01*
X130678845Y-78800499D01*
X130833497Y-78769737D01*
X130979179Y-78709394D01*
X131110289Y-78621789D01*
X131221789Y-78510289D01*
X131309394Y-78379179D01*
X131369737Y-78233497D01*
X131400500Y-78078842D01*
X131400500Y-77921158D01*
X131400500Y-77921155D01*
X131400499Y-77921153D01*
X131374531Y-77790606D01*
X131369737Y-77766503D01*
X131356062Y-77733489D01*
X131309397Y-77620827D01*
X131309390Y-77620814D01*
X131221789Y-77489711D01*
X131221786Y-77489707D01*
X131110292Y-77378213D01*
X131110288Y-77378210D01*
X130979185Y-77290609D01*
X130979172Y-77290602D01*
X130833501Y-77230264D01*
X130833489Y-77230261D01*
X130678845Y-77199500D01*
X130678842Y-77199500D01*
X130521158Y-77199500D01*
X130521155Y-77199500D01*
X130366510Y-77230261D01*
X130366498Y-77230264D01*
X130220827Y-77290602D01*
X130220814Y-77290609D01*
X130089711Y-77378210D01*
X130089707Y-77378213D01*
X129978213Y-77489707D01*
X129978210Y-77489711D01*
X129890609Y-77620814D01*
X129890602Y-77620827D01*
X129830264Y-77766498D01*
X129830261Y-77766510D01*
X129799500Y-77921153D01*
X127931348Y-77921153D01*
X127959394Y-77879179D01*
X128019737Y-77733497D01*
X128050500Y-77578842D01*
X128050500Y-77421158D01*
X128050500Y-77421155D01*
X128050499Y-77421153D01*
X128024531Y-77290606D01*
X128019737Y-77266503D01*
X128019735Y-77266498D01*
X127959397Y-77120827D01*
X127959390Y-77120814D01*
X127871789Y-76989711D01*
X127871786Y-76989707D01*
X127760292Y-76878213D01*
X127760288Y-76878210D01*
X127629185Y-76790609D01*
X127629172Y-76790602D01*
X127483501Y-76730264D01*
X127483489Y-76730261D01*
X127328845Y-76699500D01*
X127328842Y-76699500D01*
X127171158Y-76699500D01*
X127171155Y-76699500D01*
X127016510Y-76730261D01*
X127016498Y-76730264D01*
X126870827Y-76790602D01*
X126870814Y-76790609D01*
X126739711Y-76878210D01*
X126739707Y-76878213D01*
X126628213Y-76989707D01*
X126628210Y-76989711D01*
X126540609Y-77120814D01*
X126540602Y-77120827D01*
X126480264Y-77266498D01*
X126480261Y-77266510D01*
X126449500Y-77421153D01*
X125050499Y-77421153D01*
X125024531Y-77290606D01*
X125019737Y-77266503D01*
X125019735Y-77266498D01*
X124959397Y-77120827D01*
X124959390Y-77120814D01*
X124871789Y-76989711D01*
X124871786Y-76989707D01*
X124760292Y-76878213D01*
X124760288Y-76878210D01*
X124629185Y-76790609D01*
X124629172Y-76790602D01*
X124483501Y-76730264D01*
X124483489Y-76730261D01*
X124328845Y-76699500D01*
X124328842Y-76699500D01*
X124171158Y-76699500D01*
X124171155Y-76699500D01*
X124016510Y-76730261D01*
X124016498Y-76730264D01*
X123870827Y-76790602D01*
X123870814Y-76790609D01*
X123739711Y-76878210D01*
X123739707Y-76878213D01*
X123628213Y-76989707D01*
X123628210Y-76989711D01*
X123540609Y-77120814D01*
X123540602Y-77120827D01*
X123480264Y-77266498D01*
X123480261Y-77266510D01*
X123449500Y-77421153D01*
X88600500Y-77421153D01*
X88600500Y-73661304D01*
X95349500Y-73661304D01*
X95349500Y-73838695D01*
X95384103Y-74012658D01*
X95384106Y-74012667D01*
X95451983Y-74176540D01*
X95451990Y-74176553D01*
X95550535Y-74324034D01*
X95550538Y-74324038D01*
X95675961Y-74449461D01*
X95675965Y-74449464D01*
X95823446Y-74548009D01*
X95823459Y-74548016D01*
X95921659Y-74588691D01*
X95987334Y-74615894D01*
X95987336Y-74615894D01*
X95987341Y-74615896D01*
X96161304Y-74650499D01*
X96161307Y-74650500D01*
X96161309Y-74650500D01*
X96338693Y-74650500D01*
X96338694Y-74650499D01*
X96396682Y-74638964D01*
X96512658Y-74615896D01*
X96512661Y-74615894D01*
X96512666Y-74615894D01*
X96676547Y-74548013D01*
X96824035Y-74449464D01*
X96862195Y-74411304D01*
X129599500Y-74411304D01*
X129599500Y-74588695D01*
X129634103Y-74762658D01*
X129634106Y-74762667D01*
X129701983Y-74926540D01*
X129701990Y-74926553D01*
X129800535Y-75074034D01*
X129800538Y-75074038D01*
X129925961Y-75199461D01*
X129925965Y-75199464D01*
X130073446Y-75298009D01*
X130073459Y-75298016D01*
X130196363Y-75348923D01*
X130237334Y-75365894D01*
X130237336Y-75365894D01*
X130237341Y-75365896D01*
X130411304Y-75400499D01*
X130411307Y-75400500D01*
X130411309Y-75400500D01*
X130588693Y-75400500D01*
X130588694Y-75400499D01*
X130646682Y-75388964D01*
X130762658Y-75365896D01*
X130762661Y-75365894D01*
X130762666Y-75365894D01*
X130926547Y-75298013D01*
X131074035Y-75199464D01*
X131199464Y-75074035D01*
X131298013Y-74926547D01*
X131365894Y-74762666D01*
X131400500Y-74588691D01*
X131400500Y-74411309D01*
X131400500Y-74411306D01*
X131400499Y-74411304D01*
X131365896Y-74237341D01*
X131365893Y-74237332D01*
X131298016Y-74073459D01*
X131298009Y-74073446D01*
X131199464Y-73925965D01*
X131199461Y-73925961D01*
X131074038Y-73800538D01*
X131074034Y-73800535D01*
X130926553Y-73701990D01*
X130926540Y-73701983D01*
X130762667Y-73634106D01*
X130762658Y-73634103D01*
X130588694Y-73599500D01*
X130588691Y-73599500D01*
X130411309Y-73599500D01*
X130411306Y-73599500D01*
X130237341Y-73634103D01*
X130237332Y-73634106D01*
X130073459Y-73701983D01*
X130073446Y-73701990D01*
X129925965Y-73800535D01*
X129925961Y-73800538D01*
X129800538Y-73925961D01*
X129800535Y-73925965D01*
X129701990Y-74073446D01*
X129701983Y-74073459D01*
X129634106Y-74237332D01*
X129634103Y-74237341D01*
X129599500Y-74411304D01*
X96862195Y-74411304D01*
X96949464Y-74324035D01*
X97048013Y-74176547D01*
X97115894Y-74012666D01*
X97150500Y-73838691D01*
X97150500Y-73661309D01*
X97150500Y-73661306D01*
X97150499Y-73661304D01*
X97115896Y-73487341D01*
X97115893Y-73487332D01*
X97048016Y-73323459D01*
X97048009Y-73323446D01*
X96949464Y-73175965D01*
X96949461Y-73175961D01*
X96824038Y-73050538D01*
X96824034Y-73050535D01*
X96676553Y-72951990D01*
X96676540Y-72951983D01*
X96512667Y-72884106D01*
X96512658Y-72884103D01*
X96338694Y-72849500D01*
X96338691Y-72849500D01*
X96161309Y-72849500D01*
X96161306Y-72849500D01*
X95987341Y-72884103D01*
X95987332Y-72884106D01*
X95823459Y-72951983D01*
X95823446Y-72951990D01*
X95675965Y-73050535D01*
X95675961Y-73050538D01*
X95550538Y-73175961D01*
X95550535Y-73175965D01*
X95451990Y-73323446D01*
X95451983Y-73323459D01*
X95384106Y-73487332D01*
X95384103Y-73487341D01*
X95349500Y-73661304D01*
X88600500Y-73661304D01*
X88600500Y-69772571D01*
X89368400Y-69772571D01*
X89368400Y-69867492D01*
X89392967Y-69959181D01*
X89416697Y-70000282D01*
X89440428Y-70041384D01*
X89507548Y-70108504D01*
X89589752Y-70155965D01*
X89681439Y-70180532D01*
X89681441Y-70180532D01*
X90476359Y-70180532D01*
X90476361Y-70180532D01*
X90568048Y-70155965D01*
X90650252Y-70108504D01*
X90717372Y-70041384D01*
X90764833Y-69959180D01*
X90789400Y-69867493D01*
X90789400Y-69772571D01*
X90789392Y-69772541D01*
X93168400Y-69772541D01*
X93168400Y-69867462D01*
X93192967Y-69959151D01*
X93216697Y-70000252D01*
X93240428Y-70041354D01*
X93307548Y-70108474D01*
X93389752Y-70155935D01*
X93481439Y-70180502D01*
X93481441Y-70180502D01*
X94276359Y-70180502D01*
X94276361Y-70180502D01*
X94368048Y-70155935D01*
X94450252Y-70108474D01*
X94517372Y-70041354D01*
X94564833Y-69959150D01*
X94589400Y-69867463D01*
X94589400Y-69772541D01*
X94564833Y-69680854D01*
X94517372Y-69598650D01*
X94450252Y-69531530D01*
X94450249Y-69531528D01*
X94450245Y-69531525D01*
X94390719Y-69497157D01*
X94390718Y-69497157D01*
X94368051Y-69484070D01*
X94368048Y-69484069D01*
X94276361Y-69459502D01*
X93481439Y-69459502D01*
X93389750Y-69484069D01*
X93307548Y-69531530D01*
X93307545Y-69531532D01*
X93240430Y-69598647D01*
X93240428Y-69598650D01*
X93192967Y-69680852D01*
X93168400Y-69772541D01*
X90789392Y-69772541D01*
X90764833Y-69680884D01*
X90717372Y-69598680D01*
X90650252Y-69531560D01*
X90590665Y-69497157D01*
X90568049Y-69484099D01*
X90522204Y-69471815D01*
X90476361Y-69459532D01*
X89681439Y-69459532D01*
X89589750Y-69484099D01*
X89507548Y-69531560D01*
X89507545Y-69531562D01*
X89440430Y-69598677D01*
X89440428Y-69598680D01*
X89392967Y-69680882D01*
X89368400Y-69772571D01*
X88600500Y-69772571D01*
X88600500Y-69394636D01*
X107581300Y-69394636D01*
X107581300Y-69605363D01*
X107614262Y-69813480D01*
X107679379Y-70013887D01*
X107727588Y-70108501D01*
X107764289Y-70180531D01*
X107775043Y-70201635D01*
X107898890Y-70372099D01*
X108047900Y-70521109D01*
X108207415Y-70637001D01*
X108218368Y-70644959D01*
X108338000Y-70705914D01*
X108406112Y-70740620D01*
X108406114Y-70740620D01*
X108406117Y-70740622D01*
X108513538Y-70775525D01*
X108606519Y-70805737D01*
X108814637Y-70838700D01*
X108814642Y-70838700D01*
X109025363Y-70838700D01*
X109233480Y-70805737D01*
X109433883Y-70740622D01*
X109621632Y-70644959D01*
X109717344Y-70575420D01*
X109792099Y-70521109D01*
X109792101Y-70521106D01*
X109792105Y-70521104D01*
X109941104Y-70372105D01*
X109941106Y-70372101D01*
X109941109Y-70372099D01*
X109995420Y-70297344D01*
X110064959Y-70201632D01*
X110160622Y-70013883D01*
X110225737Y-69813480D01*
X110246738Y-69680884D01*
X110258700Y-69605363D01*
X110258700Y-69394636D01*
X117741300Y-69394636D01*
X117741300Y-69605363D01*
X117774262Y-69813480D01*
X117839379Y-70013887D01*
X117887588Y-70108501D01*
X117924289Y-70180531D01*
X117935043Y-70201635D01*
X118058890Y-70372099D01*
X118207900Y-70521109D01*
X118367415Y-70637001D01*
X118378368Y-70644959D01*
X118498000Y-70705914D01*
X118566112Y-70740620D01*
X118566114Y-70740620D01*
X118566117Y-70740622D01*
X118673538Y-70775525D01*
X118766519Y-70805737D01*
X118974637Y-70838700D01*
X118974642Y-70838700D01*
X119185363Y-70838700D01*
X119393480Y-70805737D01*
X119593883Y-70740622D01*
X119781632Y-70644959D01*
X119877344Y-70575420D01*
X119952099Y-70521109D01*
X119952101Y-70521106D01*
X119952105Y-70521104D01*
X120101104Y-70372105D01*
X120101106Y-70372101D01*
X120101109Y-70372099D01*
X120155420Y-70297344D01*
X120224959Y-70201632D01*
X120320622Y-70013883D01*
X120385737Y-69813480D01*
X120406738Y-69680884D01*
X120418700Y-69605363D01*
X120418700Y-69394636D01*
X120385737Y-69186519D01*
X120320620Y-68986112D01*
X120285914Y-68918000D01*
X120224959Y-68798368D01*
X120217001Y-68787415D01*
X120101109Y-68627900D01*
X119952099Y-68478890D01*
X119781635Y-68355043D01*
X119781634Y-68355042D01*
X119781632Y-68355041D01*
X119705479Y-68316239D01*
X119593887Y-68259379D01*
X119393480Y-68194262D01*
X119185363Y-68161300D01*
X119185358Y-68161300D01*
X118974642Y-68161300D01*
X118974637Y-68161300D01*
X118766519Y-68194262D01*
X118566112Y-68259379D01*
X118378364Y-68355043D01*
X118207900Y-68478890D01*
X118058890Y-68627900D01*
X117935043Y-68798364D01*
X117839379Y-68986112D01*
X117774262Y-69186519D01*
X117741300Y-69394636D01*
X110258700Y-69394636D01*
X110225737Y-69186519D01*
X110160620Y-68986112D01*
X110125914Y-68918000D01*
X110064959Y-68798368D01*
X110057001Y-68787415D01*
X109941109Y-68627900D01*
X109792099Y-68478890D01*
X109621635Y-68355043D01*
X109621634Y-68355042D01*
X109621632Y-68355041D01*
X109545479Y-68316239D01*
X109433887Y-68259379D01*
X109233480Y-68194262D01*
X109025363Y-68161300D01*
X109025358Y-68161300D01*
X108814642Y-68161300D01*
X108814637Y-68161300D01*
X108606519Y-68194262D01*
X108406112Y-68259379D01*
X108218364Y-68355043D01*
X108047900Y-68478890D01*
X107898890Y-68627900D01*
X107775043Y-68798364D01*
X107679379Y-68986112D01*
X107614262Y-69186519D01*
X107581300Y-69394636D01*
X88600500Y-69394636D01*
X88600500Y-67893713D01*
X134549500Y-67893713D01*
X134549500Y-68106286D01*
X134573747Y-68259379D01*
X134582754Y-68316243D01*
X134635603Y-68478896D01*
X134648444Y-68518414D01*
X134744951Y-68707820D01*
X134869890Y-68879786D01*
X135020213Y-69030109D01*
X135192179Y-69155048D01*
X135192181Y-69155049D01*
X135192184Y-69155051D01*
X135381588Y-69251557D01*
X135583757Y-69317246D01*
X135793713Y-69350500D01*
X135793714Y-69350500D01*
X136006286Y-69350500D01*
X136006287Y-69350500D01*
X136216243Y-69317246D01*
X136418412Y-69251557D01*
X136607816Y-69155051D01*
X136629789Y-69139086D01*
X136779786Y-69030109D01*
X136779788Y-69030106D01*
X136779792Y-69030104D01*
X136930104Y-68879792D01*
X136930106Y-68879788D01*
X136930109Y-68879786D01*
X137055048Y-68707820D01*
X137055047Y-68707820D01*
X137055051Y-68707816D01*
X137151557Y-68518412D01*
X137217246Y-68316243D01*
X137250500Y-68106287D01*
X137250500Y-67893713D01*
X137217246Y-67683757D01*
X137151557Y-67481588D01*
X137055051Y-67292184D01*
X137055049Y-67292181D01*
X137055048Y-67292179D01*
X136930109Y-67120213D01*
X136779786Y-66969890D01*
X136607820Y-66844951D01*
X136418414Y-66748444D01*
X136418413Y-66748443D01*
X136418412Y-66748443D01*
X136216243Y-66682754D01*
X136216241Y-66682753D01*
X136216240Y-66682753D01*
X136054957Y-66657208D01*
X136006287Y-66649500D01*
X135793713Y-66649500D01*
X135745042Y-66657208D01*
X135583760Y-66682753D01*
X135381585Y-66748444D01*
X135192179Y-66844951D01*
X135020213Y-66969890D01*
X134869890Y-67120213D01*
X134744951Y-67292179D01*
X134648444Y-67481585D01*
X134582753Y-67683760D01*
X134549500Y-67893713D01*
X88600500Y-67893713D01*
X88600500Y-64886304D01*
X96899500Y-64886304D01*
X96899500Y-65063695D01*
X96934103Y-65237658D01*
X96934106Y-65237667D01*
X97001983Y-65401540D01*
X97001990Y-65401553D01*
X97100535Y-65549034D01*
X97100538Y-65549038D01*
X97225961Y-65674461D01*
X97225965Y-65674464D01*
X97373446Y-65773009D01*
X97373459Y-65773016D01*
X97433816Y-65798016D01*
X97537334Y-65840894D01*
X97537336Y-65840894D01*
X97537341Y-65840896D01*
X97711304Y-65875499D01*
X97711307Y-65875500D01*
X97711309Y-65875500D01*
X97888693Y-65875500D01*
X97888694Y-65875499D01*
X97946682Y-65863964D01*
X98062658Y-65840896D01*
X98062661Y-65840894D01*
X98062666Y-65840894D01*
X98226547Y-65773013D01*
X98374035Y-65674464D01*
X98499464Y-65549035D01*
X98598013Y-65401547D01*
X98665894Y-65237666D01*
X98700500Y-65063691D01*
X98700500Y-64911304D01*
X104599500Y-64911304D01*
X104599500Y-65088695D01*
X104634103Y-65262658D01*
X104634106Y-65262667D01*
X104701983Y-65426540D01*
X104701990Y-65426553D01*
X104800535Y-65574034D01*
X104800538Y-65574038D01*
X104925961Y-65699461D01*
X104925965Y-65699464D01*
X105073446Y-65798009D01*
X105073459Y-65798016D01*
X105176978Y-65840894D01*
X105237334Y-65865894D01*
X105237336Y-65865894D01*
X105237341Y-65865896D01*
X105411304Y-65900499D01*
X105411307Y-65900500D01*
X105411309Y-65900500D01*
X105588693Y-65900500D01*
X105588694Y-65900499D01*
X105646682Y-65888964D01*
X105762658Y-65865896D01*
X105762661Y-65865894D01*
X105762666Y-65865894D01*
X105926547Y-65798013D01*
X106074035Y-65699464D01*
X106199464Y-65574035D01*
X106298013Y-65426547D01*
X106365894Y-65262666D01*
X106370869Y-65237658D01*
X106400499Y-65088695D01*
X106400500Y-65088693D01*
X106400500Y-64923935D01*
X118101300Y-64923935D01*
X118101300Y-66696070D01*
X118101301Y-66696076D01*
X118107708Y-66755683D01*
X118158002Y-66890528D01*
X118158006Y-66890535D01*
X118244252Y-67005744D01*
X118244255Y-67005747D01*
X118359464Y-67091993D01*
X118359471Y-67091997D01*
X118494317Y-67142291D01*
X118494316Y-67142291D01*
X118501244Y-67143035D01*
X118553927Y-67148700D01*
X120326072Y-67148699D01*
X120385683Y-67142291D01*
X120520531Y-67091996D01*
X120635746Y-67005746D01*
X120721996Y-66890531D01*
X120772291Y-66755683D01*
X120772290Y-66755683D01*
X120775002Y-66748415D01*
X120777823Y-66749467D01*
X120805401Y-66700961D01*
X120867290Y-66668534D01*
X120936886Y-66674714D01*
X120979245Y-66702454D01*
X121107900Y-66831109D01*
X121267415Y-66947001D01*
X121278368Y-66954959D01*
X121378039Y-67005744D01*
X121466112Y-67050620D01*
X121466114Y-67050620D01*
X121466117Y-67050622D01*
X121573538Y-67085525D01*
X121666519Y-67115737D01*
X121874637Y-67148700D01*
X121874642Y-67148700D01*
X122085363Y-67148700D01*
X122293480Y-67115737D01*
X122493883Y-67050622D01*
X122681632Y-66954959D01*
X122777344Y-66885420D01*
X122852099Y-66831109D01*
X122852101Y-66831106D01*
X122852105Y-66831104D01*
X123001104Y-66682105D01*
X123001106Y-66682101D01*
X123001109Y-66682099D01*
X123124956Y-66511636D01*
X123124957Y-66511635D01*
X123124959Y-66511632D01*
X123139515Y-66483063D01*
X123187490Y-66432268D01*
X123255311Y-66415473D01*
X123321446Y-66438010D01*
X123360485Y-66483064D01*
X123375043Y-66511636D01*
X123498890Y-66682099D01*
X123647900Y-66831109D01*
X123807415Y-66947001D01*
X123818368Y-66954959D01*
X123918039Y-67005744D01*
X124006112Y-67050620D01*
X124006114Y-67050620D01*
X124006117Y-67050622D01*
X124113538Y-67085525D01*
X124206519Y-67115737D01*
X124414637Y-67148700D01*
X124414642Y-67148700D01*
X124625363Y-67148700D01*
X124833480Y-67115737D01*
X125033883Y-67050622D01*
X125221632Y-66954959D01*
X125317344Y-66885420D01*
X125392099Y-66831109D01*
X125392101Y-66831106D01*
X125392105Y-66831104D01*
X125541104Y-66682105D01*
X125541106Y-66682101D01*
X125541109Y-66682099D01*
X125664956Y-66511636D01*
X125664957Y-66511635D01*
X125664959Y-66511632D01*
X125679515Y-66483063D01*
X125727490Y-66432268D01*
X125795311Y-66415473D01*
X125861446Y-66438010D01*
X125900485Y-66483064D01*
X125915043Y-66511636D01*
X126038890Y-66682099D01*
X126187900Y-66831109D01*
X126347415Y-66947001D01*
X126358368Y-66954959D01*
X126458039Y-67005744D01*
X126546112Y-67050620D01*
X126546114Y-67050620D01*
X126546117Y-67050622D01*
X126653538Y-67085525D01*
X126746519Y-67115737D01*
X126954637Y-67148700D01*
X126954642Y-67148700D01*
X127165363Y-67148700D01*
X127373480Y-67115737D01*
X127573883Y-67050622D01*
X127761632Y-66954959D01*
X127857344Y-66885420D01*
X127932099Y-66831109D01*
X127932101Y-66831106D01*
X127932105Y-66831104D01*
X128081104Y-66682105D01*
X128081106Y-66682101D01*
X128081109Y-66682099D01*
X128135420Y-66607344D01*
X128204959Y-66511632D01*
X128300622Y-66323883D01*
X128365737Y-66123480D01*
X128398700Y-65915363D01*
X128398700Y-65704636D01*
X128365737Y-65496519D01*
X128300620Y-65296112D01*
X128242470Y-65181988D01*
X128204959Y-65108368D01*
X128190663Y-65088691D01*
X128081109Y-64937900D01*
X127932099Y-64788890D01*
X127761635Y-64665043D01*
X127761634Y-64665042D01*
X127761632Y-64665041D01*
X127703001Y-64635167D01*
X127573887Y-64569379D01*
X127381203Y-64506772D01*
X127381202Y-64506771D01*
X127373483Y-64504263D01*
X127165363Y-64471300D01*
X127165358Y-64471300D01*
X126954642Y-64471300D01*
X126954637Y-64471300D01*
X126746519Y-64504262D01*
X126546112Y-64569379D01*
X126358364Y-64665043D01*
X126187900Y-64788890D01*
X126038890Y-64937900D01*
X125915041Y-65108366D01*
X125900484Y-65136936D01*
X125852509Y-65187732D01*
X125784688Y-65204526D01*
X125718553Y-65181988D01*
X125679516Y-65136936D01*
X125664958Y-65108366D01*
X125541109Y-64937900D01*
X125392099Y-64788890D01*
X125221635Y-64665043D01*
X125221634Y-64665042D01*
X125221632Y-64665041D01*
X125163001Y-64635167D01*
X125033887Y-64569379D01*
X124833480Y-64504262D01*
X124625363Y-64471300D01*
X124625358Y-64471300D01*
X124414642Y-64471300D01*
X124414637Y-64471300D01*
X124206519Y-64504262D01*
X124006112Y-64569379D01*
X123818364Y-64665043D01*
X123647900Y-64788890D01*
X123498890Y-64937900D01*
X123375041Y-65108366D01*
X123360484Y-65136936D01*
X123312509Y-65187732D01*
X123244688Y-65204526D01*
X123178553Y-65181988D01*
X123139516Y-65136936D01*
X123124958Y-65108366D01*
X123001109Y-64937900D01*
X122852099Y-64788890D01*
X122681635Y-64665043D01*
X122681634Y-64665042D01*
X122681632Y-64665041D01*
X122623001Y-64635167D01*
X122493887Y-64569379D01*
X122293480Y-64504262D01*
X122085363Y-64471300D01*
X122085358Y-64471300D01*
X121874642Y-64471300D01*
X121874637Y-64471300D01*
X121666519Y-64504262D01*
X121466112Y-64569379D01*
X121278364Y-64665043D01*
X121107902Y-64788889D01*
X120979245Y-64917546D01*
X120917922Y-64951030D01*
X120848230Y-64946046D01*
X120792297Y-64904174D01*
X120776764Y-64870927D01*
X120775002Y-64871585D01*
X120721997Y-64729471D01*
X120721993Y-64729464D01*
X120635747Y-64614255D01*
X120635744Y-64614252D01*
X120520535Y-64528006D01*
X120520528Y-64528002D01*
X120385682Y-64477708D01*
X120385683Y-64477708D01*
X120326083Y-64471301D01*
X120326081Y-64471300D01*
X120326073Y-64471300D01*
X120326064Y-64471300D01*
X118553929Y-64471300D01*
X118553923Y-64471301D01*
X118494316Y-64477708D01*
X118359471Y-64528002D01*
X118359464Y-64528006D01*
X118244255Y-64614252D01*
X118244252Y-64614255D01*
X118158006Y-64729464D01*
X118158002Y-64729471D01*
X118107708Y-64864317D01*
X118101301Y-64923916D01*
X118101300Y-64923935D01*
X106400500Y-64923935D01*
X106400500Y-64911306D01*
X106400499Y-64911304D01*
X106365896Y-64737341D01*
X106365893Y-64737332D01*
X106298016Y-64573459D01*
X106298009Y-64573446D01*
X106199464Y-64425965D01*
X106199461Y-64425961D01*
X106167213Y-64393713D01*
X134549500Y-64393713D01*
X134549500Y-64606286D01*
X134578422Y-64788896D01*
X134582754Y-64816243D01*
X134622281Y-64937895D01*
X134648444Y-65018414D01*
X134744951Y-65207820D01*
X134869890Y-65379786D01*
X135020213Y-65530109D01*
X135192179Y-65655048D01*
X135192181Y-65655049D01*
X135192184Y-65655051D01*
X135381588Y-65751557D01*
X135583757Y-65817246D01*
X135793713Y-65850500D01*
X135793714Y-65850500D01*
X136006286Y-65850500D01*
X136006287Y-65850500D01*
X136216243Y-65817246D01*
X136418412Y-65751557D01*
X136607816Y-65655051D01*
X136719326Y-65574035D01*
X136779786Y-65530109D01*
X136779788Y-65530106D01*
X136779792Y-65530104D01*
X136930104Y-65379792D01*
X136930106Y-65379788D01*
X136930109Y-65379786D01*
X137055048Y-65207820D01*
X137055047Y-65207820D01*
X137055051Y-65207816D01*
X137151557Y-65018412D01*
X137217246Y-64816243D01*
X137250500Y-64606287D01*
X137250500Y-64393713D01*
X137217246Y-64183757D01*
X137151557Y-63981588D01*
X137055051Y-63792184D01*
X137055049Y-63792181D01*
X137055048Y-63792179D01*
X136930109Y-63620213D01*
X136779786Y-63469890D01*
X136607820Y-63344951D01*
X136418414Y-63248444D01*
X136418413Y-63248443D01*
X136418412Y-63248443D01*
X136216243Y-63182754D01*
X136216241Y-63182753D01*
X136216240Y-63182753D01*
X136054957Y-63157208D01*
X136006287Y-63149500D01*
X135793713Y-63149500D01*
X135745042Y-63157208D01*
X135583760Y-63182753D01*
X135381585Y-63248444D01*
X135192179Y-63344951D01*
X135020213Y-63469890D01*
X134869890Y-63620213D01*
X134744951Y-63792179D01*
X134648444Y-63981585D01*
X134582753Y-64183760D01*
X134549500Y-64393713D01*
X106167213Y-64393713D01*
X106074038Y-64300538D01*
X106074034Y-64300535D01*
X105926553Y-64201990D01*
X105926540Y-64201983D01*
X105762667Y-64134106D01*
X105762658Y-64134103D01*
X105588694Y-64099500D01*
X105588691Y-64099500D01*
X105411309Y-64099500D01*
X105411306Y-64099500D01*
X105237341Y-64134103D01*
X105237332Y-64134106D01*
X105073459Y-64201983D01*
X105073446Y-64201990D01*
X104925965Y-64300535D01*
X104925961Y-64300538D01*
X104800538Y-64425961D01*
X104800535Y-64425965D01*
X104701990Y-64573446D01*
X104701983Y-64573459D01*
X104634106Y-64737332D01*
X104634103Y-64737341D01*
X104599500Y-64911304D01*
X98700500Y-64911304D01*
X98700500Y-64886309D01*
X98700500Y-64886306D01*
X98700499Y-64886304D01*
X98665896Y-64712341D01*
X98665893Y-64712332D01*
X98598016Y-64548459D01*
X98598009Y-64548446D01*
X98499464Y-64400965D01*
X98499461Y-64400961D01*
X98374038Y-64275538D01*
X98374034Y-64275535D01*
X98226553Y-64176990D01*
X98226540Y-64176983D01*
X98062667Y-64109106D01*
X98062658Y-64109103D01*
X97888694Y-64074500D01*
X97888691Y-64074500D01*
X97711309Y-64074500D01*
X97711306Y-64074500D01*
X97537341Y-64109103D01*
X97537332Y-64109106D01*
X97373459Y-64176983D01*
X97373446Y-64176990D01*
X97225965Y-64275535D01*
X97225961Y-64275538D01*
X97100538Y-64400961D01*
X97100535Y-64400965D01*
X97001990Y-64548446D01*
X97001983Y-64548459D01*
X96934106Y-64712332D01*
X96934103Y-64712341D01*
X96899500Y-64886304D01*
X88600500Y-64886304D01*
X88600500Y-63411304D01*
X100349500Y-63411304D01*
X100349500Y-63588695D01*
X100384103Y-63762658D01*
X100384106Y-63762667D01*
X100451983Y-63926540D01*
X100451990Y-63926553D01*
X100550535Y-64074034D01*
X100550538Y-64074038D01*
X100675961Y-64199461D01*
X100675965Y-64199464D01*
X100823446Y-64298009D01*
X100823459Y-64298016D01*
X100946363Y-64348923D01*
X100987334Y-64365894D01*
X100987336Y-64365894D01*
X100987341Y-64365896D01*
X101161304Y-64400499D01*
X101161307Y-64400500D01*
X101161309Y-64400500D01*
X101338693Y-64400500D01*
X101338694Y-64400499D01*
X101396682Y-64388964D01*
X101512658Y-64365896D01*
X101512661Y-64365894D01*
X101512666Y-64365894D01*
X101676547Y-64298013D01*
X101824035Y-64199464D01*
X101949464Y-64074035D01*
X102048013Y-63926547D01*
X102115894Y-63762666D01*
X102150500Y-63588691D01*
X102150500Y-63411309D01*
X102150500Y-63411306D01*
X102150499Y-63411304D01*
X102115896Y-63237341D01*
X102115893Y-63237332D01*
X102048016Y-63073459D01*
X102048009Y-63073446D01*
X101949464Y-62925965D01*
X101949461Y-62925961D01*
X101824038Y-62800538D01*
X101824034Y-62800535D01*
X101676553Y-62701990D01*
X101676540Y-62701983D01*
X101512667Y-62634106D01*
X101512658Y-62634103D01*
X101338694Y-62599500D01*
X101338691Y-62599500D01*
X101161309Y-62599500D01*
X101161306Y-62599500D01*
X100987341Y-62634103D01*
X100987332Y-62634106D01*
X100823459Y-62701983D01*
X100823446Y-62701990D01*
X100675965Y-62800535D01*
X100675961Y-62800538D01*
X100550538Y-62925961D01*
X100550535Y-62925965D01*
X100451990Y-63073446D01*
X100451983Y-63073459D01*
X100384106Y-63237332D01*
X100384103Y-63237341D01*
X100349500Y-63411304D01*
X88600500Y-63411304D01*
X88600500Y-61132507D01*
X89368400Y-61132507D01*
X89368400Y-61227428D01*
X89392967Y-61319117D01*
X89416697Y-61360218D01*
X89440428Y-61401320D01*
X89507548Y-61468440D01*
X89589752Y-61515901D01*
X89681439Y-61540468D01*
X89681441Y-61540468D01*
X90476359Y-61540468D01*
X90476361Y-61540468D01*
X90568048Y-61515901D01*
X90650252Y-61468440D01*
X90717372Y-61401320D01*
X90764833Y-61319116D01*
X90789400Y-61227429D01*
X90789400Y-61132537D01*
X93168400Y-61132537D01*
X93168400Y-61227458D01*
X93192967Y-61319147D01*
X93216697Y-61360248D01*
X93240428Y-61401350D01*
X93307548Y-61468470D01*
X93389752Y-61515931D01*
X93481439Y-61540498D01*
X93481441Y-61540498D01*
X94276359Y-61540498D01*
X94276361Y-61540498D01*
X94368048Y-61515931D01*
X94450252Y-61468470D01*
X94517372Y-61401350D01*
X94564833Y-61319146D01*
X94589400Y-61227459D01*
X94589400Y-61132537D01*
X94564833Y-61040850D01*
X94517372Y-60958646D01*
X94450252Y-60891526D01*
X94409150Y-60867795D01*
X94368049Y-60844065D01*
X94322204Y-60831781D01*
X94276361Y-60819498D01*
X93481439Y-60819498D01*
X93389750Y-60844065D01*
X93307548Y-60891526D01*
X93307545Y-60891528D01*
X93240430Y-60958643D01*
X93240428Y-60958646D01*
X93192967Y-61040848D01*
X93168400Y-61132537D01*
X90789400Y-61132537D01*
X90789400Y-61132507D01*
X90764833Y-61040820D01*
X90717372Y-60958616D01*
X90650252Y-60891496D01*
X90609150Y-60867765D01*
X90568049Y-60844035D01*
X90522204Y-60831751D01*
X90476361Y-60819468D01*
X89681439Y-60819468D01*
X89589750Y-60844035D01*
X89507548Y-60891496D01*
X89507545Y-60891498D01*
X89440430Y-60958613D01*
X89440428Y-60958616D01*
X89392967Y-61040818D01*
X89368400Y-61132507D01*
X88600500Y-61132507D01*
X88600500Y-57161304D01*
X95349500Y-57161304D01*
X95349500Y-57338695D01*
X95384103Y-57512658D01*
X95384106Y-57512667D01*
X95451983Y-57676540D01*
X95451990Y-57676553D01*
X95550535Y-57824034D01*
X95550538Y-57824038D01*
X95675961Y-57949461D01*
X95675965Y-57949464D01*
X95823446Y-58048009D01*
X95823459Y-58048016D01*
X95911884Y-58084642D01*
X95987334Y-58115894D01*
X95987336Y-58115894D01*
X95987341Y-58115896D01*
X96161304Y-58150499D01*
X96161307Y-58150500D01*
X96161309Y-58150500D01*
X96338693Y-58150500D01*
X96338694Y-58150499D01*
X96396682Y-58138964D01*
X96512658Y-58115896D01*
X96512661Y-58115894D01*
X96512666Y-58115894D01*
X96588130Y-58084636D01*
X118101300Y-58084636D01*
X118101300Y-58295363D01*
X118134262Y-58503480D01*
X118199379Y-58703887D01*
X118246045Y-58795473D01*
X118294906Y-58891368D01*
X118295043Y-58891635D01*
X118418890Y-59062099D01*
X118567900Y-59211109D01*
X118727415Y-59327001D01*
X118738368Y-59334959D01*
X118858000Y-59395914D01*
X118926112Y-59430620D01*
X118926114Y-59430620D01*
X118926117Y-59430622D01*
X119033538Y-59465525D01*
X119126519Y-59495737D01*
X119334637Y-59528700D01*
X119334642Y-59528700D01*
X119545363Y-59528700D01*
X119753480Y-59495737D01*
X119754985Y-59495248D01*
X119953883Y-59430622D01*
X120141632Y-59334959D01*
X120237344Y-59265420D01*
X120312099Y-59211109D01*
X120312101Y-59211106D01*
X120312105Y-59211104D01*
X120461104Y-59062105D01*
X120461106Y-59062101D01*
X120461109Y-59062099D01*
X120584956Y-58891636D01*
X120584958Y-58891633D01*
X120584959Y-58891632D01*
X120599515Y-58863063D01*
X120647490Y-58812268D01*
X120715311Y-58795473D01*
X120781446Y-58818010D01*
X120820485Y-58863064D01*
X120835043Y-58891636D01*
X120958890Y-59062099D01*
X121107900Y-59211109D01*
X121267415Y-59327001D01*
X121278368Y-59334959D01*
X121398000Y-59395914D01*
X121466112Y-59430620D01*
X121466114Y-59430620D01*
X121466117Y-59430622D01*
X121573538Y-59465525D01*
X121666519Y-59495737D01*
X121874637Y-59528700D01*
X121874642Y-59528700D01*
X122085363Y-59528700D01*
X122293480Y-59495737D01*
X122294985Y-59495248D01*
X122493883Y-59430622D01*
X122681632Y-59334959D01*
X122777344Y-59265420D01*
X122852099Y-59211109D01*
X122852101Y-59211106D01*
X122852105Y-59211104D01*
X123001104Y-59062105D01*
X123001106Y-59062101D01*
X123001109Y-59062099D01*
X123124956Y-58891636D01*
X123124958Y-58891633D01*
X123124959Y-58891632D01*
X123139795Y-58862513D01*
X123187768Y-58811718D01*
X123255588Y-58794922D01*
X123321724Y-58817458D01*
X123360764Y-58862511D01*
X123375469Y-58891370D01*
X123413176Y-58943268D01*
X123413177Y-58943269D01*
X123989026Y-58367419D01*
X123999281Y-58405689D01*
X124072849Y-58533111D01*
X124176889Y-58637151D01*
X124304311Y-58710719D01*
X124342580Y-58720973D01*
X123766729Y-59296822D01*
X123766730Y-59296823D01*
X123818624Y-59334526D01*
X123818637Y-59334534D01*
X124006311Y-59430160D01*
X124206635Y-59495248D01*
X124414682Y-59528200D01*
X124625318Y-59528200D01*
X124833364Y-59495248D01*
X125033688Y-59430160D01*
X125221370Y-59334530D01*
X125273268Y-59296823D01*
X125273268Y-59296822D01*
X124697419Y-58720973D01*
X124735689Y-58710719D01*
X124863111Y-58637151D01*
X124967151Y-58533111D01*
X125040719Y-58405689D01*
X125050973Y-58367419D01*
X125626822Y-58943268D01*
X125626823Y-58943268D01*
X125664532Y-58891368D01*
X125664532Y-58891367D01*
X125679234Y-58862514D01*
X125727208Y-58811718D01*
X125795029Y-58794922D01*
X125861164Y-58817459D01*
X125900203Y-58862512D01*
X125915041Y-58891633D01*
X126038890Y-59062099D01*
X126187900Y-59211109D01*
X126347415Y-59327001D01*
X126358368Y-59334959D01*
X126478000Y-59395914D01*
X126546112Y-59430620D01*
X126546114Y-59430620D01*
X126546117Y-59430622D01*
X126653538Y-59465525D01*
X126746519Y-59495737D01*
X126954637Y-59528700D01*
X126954642Y-59528700D01*
X127165363Y-59528700D01*
X127373480Y-59495737D01*
X127374985Y-59495248D01*
X127573883Y-59430622D01*
X127761632Y-59334959D01*
X127857344Y-59265420D01*
X127932099Y-59211109D01*
X127932101Y-59211106D01*
X127932105Y-59211104D01*
X128081104Y-59062105D01*
X128081106Y-59062101D01*
X128081109Y-59062099D01*
X128135420Y-58987344D01*
X128204959Y-58891632D01*
X128300622Y-58703883D01*
X128365737Y-58503480D01*
X128398700Y-58295363D01*
X128398700Y-58084636D01*
X128365737Y-57876519D01*
X128330000Y-57766533D01*
X128300622Y-57676117D01*
X128300620Y-57676114D01*
X128300620Y-57676112D01*
X128245678Y-57568284D01*
X128204959Y-57488368D01*
X128167442Y-57436730D01*
X128081109Y-57317900D01*
X127932099Y-57168890D01*
X127761635Y-57045043D01*
X127761634Y-57045042D01*
X127761632Y-57045041D01*
X127703001Y-57015167D01*
X127573887Y-56949379D01*
X127373480Y-56884262D01*
X127165363Y-56851300D01*
X127165358Y-56851300D01*
X126954642Y-56851300D01*
X126954637Y-56851300D01*
X126746519Y-56884262D01*
X126546112Y-56949379D01*
X126358364Y-57045043D01*
X126187900Y-57168890D01*
X126038890Y-57317900D01*
X125915042Y-57488364D01*
X125900203Y-57517488D01*
X125852227Y-57568283D01*
X125784406Y-57585077D01*
X125718272Y-57562538D01*
X125679235Y-57517487D01*
X125664537Y-57488642D01*
X125664526Y-57488624D01*
X125626823Y-57436730D01*
X125626822Y-57436729D01*
X125050972Y-58012579D01*
X125040719Y-57974311D01*
X124967151Y-57846889D01*
X124863111Y-57742849D01*
X124735689Y-57669281D01*
X124697419Y-57659026D01*
X125273269Y-57083177D01*
X125273268Y-57083176D01*
X125221370Y-57045469D01*
X125033688Y-56949839D01*
X124833364Y-56884751D01*
X124625318Y-56851800D01*
X124414682Y-56851800D01*
X124206635Y-56884751D01*
X124006311Y-56949839D01*
X123818633Y-57045467D01*
X123766730Y-57083176D01*
X124342580Y-57659026D01*
X124304311Y-57669281D01*
X124176889Y-57742849D01*
X124072849Y-57846889D01*
X123999281Y-57974311D01*
X123989026Y-58012580D01*
X123413176Y-57436730D01*
X123375465Y-57488636D01*
X123375464Y-57488637D01*
X123360763Y-57517489D01*
X123312787Y-57568284D01*
X123244966Y-57585077D01*
X123178831Y-57562537D01*
X123139795Y-57517485D01*
X123124958Y-57488366D01*
X123001109Y-57317900D01*
X122852099Y-57168890D01*
X122681635Y-57045043D01*
X122681634Y-57045042D01*
X122681632Y-57045041D01*
X122623001Y-57015167D01*
X122493887Y-56949379D01*
X122293480Y-56884262D01*
X122085363Y-56851300D01*
X122085358Y-56851300D01*
X121874642Y-56851300D01*
X121874637Y-56851300D01*
X121666519Y-56884262D01*
X121466112Y-56949379D01*
X121278364Y-57045043D01*
X121107900Y-57168890D01*
X120958890Y-57317900D01*
X120835041Y-57488366D01*
X120820484Y-57516936D01*
X120772509Y-57567732D01*
X120704688Y-57584526D01*
X120638553Y-57561988D01*
X120599516Y-57516936D01*
X120584958Y-57488366D01*
X120461109Y-57317900D01*
X120312099Y-57168890D01*
X120141635Y-57045043D01*
X120141634Y-57045042D01*
X120141632Y-57045041D01*
X120083001Y-57015167D01*
X119953887Y-56949379D01*
X119753480Y-56884262D01*
X119545363Y-56851300D01*
X119545358Y-56851300D01*
X119334642Y-56851300D01*
X119334637Y-56851300D01*
X119126519Y-56884262D01*
X118926112Y-56949379D01*
X118738364Y-57045043D01*
X118567900Y-57168890D01*
X118418890Y-57317900D01*
X118295043Y-57488364D01*
X118199379Y-57676112D01*
X118134262Y-57876519D01*
X118101300Y-58084636D01*
X96588130Y-58084636D01*
X96676547Y-58048013D01*
X96824035Y-57949464D01*
X96949464Y-57824035D01*
X97048013Y-57676547D01*
X97115894Y-57512666D01*
X97120677Y-57488624D01*
X97150499Y-57338695D01*
X97150500Y-57338693D01*
X97150500Y-57161306D01*
X97150499Y-57161304D01*
X97115896Y-56987341D01*
X97115893Y-56987332D01*
X97048016Y-56823459D01*
X97048009Y-56823446D01*
X96949464Y-56675965D01*
X96949461Y-56675961D01*
X96824038Y-56550538D01*
X96824034Y-56550535D01*
X96676553Y-56451990D01*
X96676540Y-56451983D01*
X96512667Y-56384106D01*
X96512658Y-56384103D01*
X96338694Y-56349500D01*
X96338691Y-56349500D01*
X96161309Y-56349500D01*
X96161306Y-56349500D01*
X95987341Y-56384103D01*
X95987332Y-56384106D01*
X95823459Y-56451983D01*
X95823446Y-56451990D01*
X95675965Y-56550535D01*
X95675961Y-56550538D01*
X95550538Y-56675961D01*
X95550535Y-56675965D01*
X95451990Y-56823446D01*
X95451983Y-56823459D01*
X95384106Y-56987332D01*
X95384103Y-56987341D01*
X95349500Y-57161304D01*
X88600500Y-57161304D01*
X88600500Y-52402155D01*
X99950000Y-52402155D01*
X99950000Y-53000000D01*
X100934314Y-53000000D01*
X100929920Y-53004394D01*
X100877259Y-53095606D01*
X100850000Y-53197339D01*
X100850000Y-53302661D01*
X100877259Y-53404394D01*
X100929920Y-53495606D01*
X100934314Y-53500000D01*
X99950000Y-53500000D01*
X99950000Y-54097844D01*
X99956401Y-54157372D01*
X99956403Y-54157379D01*
X100006645Y-54292086D01*
X100006649Y-54292093D01*
X100092809Y-54407187D01*
X100092812Y-54407190D01*
X100207906Y-54493350D01*
X100207913Y-54493354D01*
X100342620Y-54543596D01*
X100342627Y-54543598D01*
X100402155Y-54549999D01*
X100402172Y-54550000D01*
X101000000Y-54550000D01*
X101000000Y-53565686D01*
X101004394Y-53570080D01*
X101095606Y-53622741D01*
X101197339Y-53650000D01*
X101302661Y-53650000D01*
X101404394Y-53622741D01*
X101495606Y-53570080D01*
X101500000Y-53565686D01*
X101500000Y-54550000D01*
X102097828Y-54550000D01*
X102097844Y-54549999D01*
X102157372Y-54543598D01*
X102157379Y-54543596D01*
X102292086Y-54493354D01*
X102292093Y-54493350D01*
X102407187Y-54407190D01*
X102407190Y-54407187D01*
X102493350Y-54292093D01*
X102493354Y-54292086D01*
X102543596Y-54157379D01*
X102543598Y-54157372D01*
X102549999Y-54097844D01*
X102550000Y-54097827D01*
X102550000Y-53500000D01*
X101565686Y-53500000D01*
X101570080Y-53495606D01*
X101622741Y-53404394D01*
X101650000Y-53302661D01*
X101650000Y-53197339D01*
X101636685Y-53147648D01*
X103449500Y-53147648D01*
X103449500Y-53352351D01*
X103481522Y-53554534D01*
X103544781Y-53749223D01*
X103608691Y-53874653D01*
X103610994Y-53879172D01*
X103637715Y-53931613D01*
X103758028Y-54097213D01*
X103902786Y-54241971D01*
X104046354Y-54346277D01*
X104068390Y-54362287D01*
X104156517Y-54407190D01*
X104250776Y-54455218D01*
X104250778Y-54455218D01*
X104250781Y-54455220D01*
X104355137Y-54489127D01*
X104445465Y-54518477D01*
X104506923Y-54528211D01*
X104647648Y-54550500D01*
X104647649Y-54550500D01*
X104852351Y-54550500D01*
X104852352Y-54550500D01*
X105054534Y-54518477D01*
X105249219Y-54455220D01*
X105431610Y-54362287D01*
X105558994Y-54269738D01*
X105597213Y-54241971D01*
X105597215Y-54241968D01*
X105597219Y-54241966D01*
X105741966Y-54097219D01*
X105741968Y-54097215D01*
X105741971Y-54097213D01*
X105805124Y-54010289D01*
X105862287Y-53931610D01*
X105955220Y-53749219D01*
X106018477Y-53554534D01*
X106039603Y-53421153D01*
X112949500Y-53421153D01*
X112949500Y-53578846D01*
X112980261Y-53733489D01*
X112980264Y-53733501D01*
X113040602Y-53879172D01*
X113040609Y-53879185D01*
X113128210Y-54010288D01*
X113128213Y-54010292D01*
X113239707Y-54121786D01*
X113239711Y-54121789D01*
X113370814Y-54209390D01*
X113370827Y-54209397D01*
X113449457Y-54241966D01*
X113516503Y-54269737D01*
X113671153Y-54300499D01*
X113671156Y-54300500D01*
X113671158Y-54300500D01*
X113828844Y-54300500D01*
X113828845Y-54300499D01*
X113983497Y-54269737D01*
X114129179Y-54209394D01*
X114260289Y-54121789D01*
X114371789Y-54010289D01*
X114459394Y-53879179D01*
X114519737Y-53733497D01*
X114550500Y-53578842D01*
X114550500Y-53421158D01*
X114550500Y-53421155D01*
X114550499Y-53421153D01*
X114545429Y-53395667D01*
X114519737Y-53266503D01*
X114519735Y-53266498D01*
X114459397Y-53120827D01*
X114459390Y-53120814D01*
X114371789Y-52989711D01*
X114371786Y-52989707D01*
X114260292Y-52878213D01*
X114260288Y-52878210D01*
X114207795Y-52843135D01*
X119560500Y-52843135D01*
X119560500Y-54156870D01*
X119560501Y-54156876D01*
X119566908Y-54216483D01*
X119617202Y-54351328D01*
X119617206Y-54351335D01*
X119703452Y-54466544D01*
X119703455Y-54466547D01*
X119818664Y-54552793D01*
X119818671Y-54552797D01*
X119953517Y-54603091D01*
X119953516Y-54603091D01*
X119960444Y-54603835D01*
X120013127Y-54609500D01*
X121326872Y-54609499D01*
X121386483Y-54603091D01*
X121521331Y-54552796D01*
X121636546Y-54466546D01*
X121722796Y-54351331D01*
X121773091Y-54216483D01*
X121779500Y-54156873D01*
X121779499Y-53412674D01*
X122100500Y-53412674D01*
X122100500Y-53587325D01*
X122110427Y-53650000D01*
X122127819Y-53759809D01*
X122181786Y-53925900D01*
X122261070Y-54081505D01*
X122363721Y-54222791D01*
X122487209Y-54346279D01*
X122628495Y-54448930D01*
X122784100Y-54528214D01*
X122950191Y-54582181D01*
X123036435Y-54595840D01*
X123122675Y-54609500D01*
X123122680Y-54609500D01*
X123297325Y-54609500D01*
X123375724Y-54597082D01*
X123469809Y-54582181D01*
X123635900Y-54528214D01*
X123791505Y-54448930D01*
X123932791Y-54346279D01*
X124056279Y-54222791D01*
X124158930Y-54081505D01*
X124238214Y-53925900D01*
X124292181Y-53759809D01*
X124313890Y-53622741D01*
X124319500Y-53587325D01*
X124319500Y-53412674D01*
X124640500Y-53412674D01*
X124640500Y-53587325D01*
X124650427Y-53650000D01*
X124667819Y-53759809D01*
X124721786Y-53925900D01*
X124801070Y-54081505D01*
X124903721Y-54222791D01*
X125027209Y-54346279D01*
X125168495Y-54448930D01*
X125324100Y-54528214D01*
X125490191Y-54582181D01*
X125576435Y-54595840D01*
X125662675Y-54609500D01*
X125662680Y-54609500D01*
X125837325Y-54609500D01*
X125915724Y-54597082D01*
X126009809Y-54582181D01*
X126175900Y-54528214D01*
X126331505Y-54448930D01*
X126472791Y-54346279D01*
X126596279Y-54222791D01*
X126698930Y-54081505D01*
X126778214Y-53925900D01*
X126832181Y-53759809D01*
X126853890Y-53622741D01*
X126859500Y-53587325D01*
X126859500Y-53412674D01*
X126836348Y-53266503D01*
X126832181Y-53240191D01*
X126802112Y-53147648D01*
X132949500Y-53147648D01*
X132949500Y-53352351D01*
X132981522Y-53554534D01*
X133044781Y-53749223D01*
X133108691Y-53874653D01*
X133110994Y-53879172D01*
X133137715Y-53931613D01*
X133258028Y-54097213D01*
X133402786Y-54241971D01*
X133546354Y-54346277D01*
X133568390Y-54362287D01*
X133656517Y-54407190D01*
X133750776Y-54455218D01*
X133750778Y-54455218D01*
X133750781Y-54455220D01*
X133855137Y-54489127D01*
X133945465Y-54518477D01*
X134006923Y-54528211D01*
X134147648Y-54550500D01*
X134147649Y-54550500D01*
X134352351Y-54550500D01*
X134352352Y-54550500D01*
X134554534Y-54518477D01*
X134749219Y-54455220D01*
X134931610Y-54362287D01*
X135058994Y-54269738D01*
X135097213Y-54241971D01*
X135097215Y-54241968D01*
X135097219Y-54241966D01*
X135241966Y-54097219D01*
X135241968Y-54097215D01*
X135241971Y-54097213D01*
X135305124Y-54010289D01*
X135362287Y-53931610D01*
X135455220Y-53749219D01*
X135518477Y-53554534D01*
X135550500Y-53352352D01*
X135550500Y-53147648D01*
X135538850Y-53074095D01*
X135518477Y-52945465D01*
X135468160Y-52790606D01*
X135455220Y-52750781D01*
X135455218Y-52750778D01*
X135455218Y-52750776D01*
X135362287Y-52568390D01*
X135292032Y-52471691D01*
X135292031Y-52471688D01*
X135241971Y-52402787D01*
X135241967Y-52402782D01*
X135241320Y-52402135D01*
X136449500Y-52402135D01*
X136449500Y-54097870D01*
X136449501Y-54097876D01*
X136455908Y-54157483D01*
X136506202Y-54292328D01*
X136506206Y-54292335D01*
X136592452Y-54407544D01*
X136592455Y-54407547D01*
X136707664Y-54493793D01*
X136707671Y-54493797D01*
X136842517Y-54544091D01*
X136842516Y-54544091D01*
X136849444Y-54544835D01*
X136902127Y-54550500D01*
X138597872Y-54550499D01*
X138657483Y-54544091D01*
X138792331Y-54493796D01*
X138907546Y-54407546D01*
X138993796Y-54292331D01*
X139044091Y-54157483D01*
X139050500Y-54097873D01*
X139050499Y-52402128D01*
X139044091Y-52342517D01*
X138993884Y-52207906D01*
X138993797Y-52207671D01*
X138993793Y-52207664D01*
X138907547Y-52092455D01*
X138907544Y-52092452D01*
X138792335Y-52006206D01*
X138792328Y-52006202D01*
X138657482Y-51955908D01*
X138657483Y-51955908D01*
X138597883Y-51949501D01*
X138597881Y-51949500D01*
X138597873Y-51949500D01*
X138597864Y-51949500D01*
X136902129Y-51949500D01*
X136902123Y-51949501D01*
X136842516Y-51955908D01*
X136707671Y-52006202D01*
X136707664Y-52006206D01*
X136592455Y-52092452D01*
X136592452Y-52092455D01*
X136506206Y-52207664D01*
X136506202Y-52207671D01*
X136455908Y-52342517D01*
X136450750Y-52390500D01*
X136449501Y-52402123D01*
X136449500Y-52402135D01*
X135241320Y-52402135D01*
X135097213Y-52258028D01*
X134931613Y-52137715D01*
X134931612Y-52137714D01*
X134931610Y-52137713D01*
X134843487Y-52092812D01*
X134749223Y-52044781D01*
X134554534Y-51981522D01*
X134379995Y-51953878D01*
X134352352Y-51949500D01*
X134147648Y-51949500D01*
X134123329Y-51953351D01*
X133945465Y-51981522D01*
X133750776Y-52044781D01*
X133568386Y-52137715D01*
X133402786Y-52258028D01*
X133258028Y-52402786D01*
X133137715Y-52568386D01*
X133044781Y-52750776D01*
X132981522Y-52945465D01*
X132949500Y-53147648D01*
X126802112Y-53147648D01*
X126778214Y-53074100D01*
X126778212Y-53074097D01*
X126778212Y-53074095D01*
X126712672Y-52945466D01*
X126698930Y-52918495D01*
X126596279Y-52777209D01*
X126472791Y-52653721D01*
X126331505Y-52551070D01*
X126175900Y-52471786D01*
X126009809Y-52417819D01*
X126009803Y-52417818D01*
X125837325Y-52390500D01*
X125837320Y-52390500D01*
X125662680Y-52390500D01*
X125662675Y-52390500D01*
X125490196Y-52417818D01*
X125490194Y-52417818D01*
X125490191Y-52417819D01*
X125324100Y-52471786D01*
X125324097Y-52471787D01*
X125324095Y-52471788D01*
X125168494Y-52551070D01*
X125027207Y-52653722D01*
X124903722Y-52777207D01*
X124801070Y-52918494D01*
X124721788Y-53074095D01*
X124721787Y-53074097D01*
X124721786Y-53074100D01*
X124667819Y-53240191D01*
X124667819Y-53240193D01*
X124667818Y-53240196D01*
X124640500Y-53412674D01*
X124319500Y-53412674D01*
X124296348Y-53266503D01*
X124292181Y-53240191D01*
X124238214Y-53074100D01*
X124158930Y-52918495D01*
X124056279Y-52777209D01*
X123932791Y-52653721D01*
X123791505Y-52551070D01*
X123635900Y-52471786D01*
X123469809Y-52417819D01*
X123469803Y-52417818D01*
X123297325Y-52390500D01*
X123297320Y-52390500D01*
X123122680Y-52390500D01*
X123122675Y-52390500D01*
X122950196Y-52417818D01*
X122950194Y-52417818D01*
X122950191Y-52417819D01*
X122784100Y-52471786D01*
X122784097Y-52471787D01*
X122784095Y-52471788D01*
X122628494Y-52551070D01*
X122487207Y-52653722D01*
X122363722Y-52777207D01*
X122261070Y-52918494D01*
X122181788Y-53074095D01*
X122181787Y-53074097D01*
X122181786Y-53074100D01*
X122127819Y-53240191D01*
X122127819Y-53240193D01*
X122127818Y-53240196D01*
X122100500Y-53412674D01*
X121779499Y-53412674D01*
X121779499Y-52843128D01*
X121773091Y-52783517D01*
X121770738Y-52777209D01*
X121722797Y-52648671D01*
X121722793Y-52648664D01*
X121636547Y-52533455D01*
X121636544Y-52533452D01*
X121521335Y-52447206D01*
X121521328Y-52447202D01*
X121386482Y-52396908D01*
X121386483Y-52396908D01*
X121326883Y-52390501D01*
X121326881Y-52390500D01*
X121326873Y-52390500D01*
X121326864Y-52390500D01*
X120013129Y-52390500D01*
X120013123Y-52390501D01*
X119953516Y-52396908D01*
X119818671Y-52447202D01*
X119818664Y-52447206D01*
X119703455Y-52533452D01*
X119703452Y-52533455D01*
X119617206Y-52648664D01*
X119617202Y-52648671D01*
X119566908Y-52783517D01*
X119566146Y-52790609D01*
X119560501Y-52843123D01*
X119560500Y-52843135D01*
X114207795Y-52843135D01*
X114129185Y-52790609D01*
X114129172Y-52790602D01*
X113983501Y-52730264D01*
X113983489Y-52730261D01*
X113828845Y-52699500D01*
X113828842Y-52699500D01*
X113671158Y-52699500D01*
X113671155Y-52699500D01*
X113516510Y-52730261D01*
X113516498Y-52730264D01*
X113370827Y-52790602D01*
X113370814Y-52790609D01*
X113239711Y-52878210D01*
X113239707Y-52878213D01*
X113128213Y-52989707D01*
X113128210Y-52989711D01*
X113040609Y-53120814D01*
X113040602Y-53120827D01*
X112980264Y-53266498D01*
X112980261Y-53266510D01*
X112949500Y-53421153D01*
X106039603Y-53421153D01*
X106050500Y-53352352D01*
X106050500Y-53147648D01*
X106038850Y-53074095D01*
X106018477Y-52945465D01*
X105968160Y-52790606D01*
X105955220Y-52750781D01*
X105955218Y-52750778D01*
X105955218Y-52750776D01*
X105903191Y-52648669D01*
X105862287Y-52568390D01*
X105849703Y-52551070D01*
X105741971Y-52402786D01*
X105597213Y-52258028D01*
X105431613Y-52137715D01*
X105431612Y-52137714D01*
X105431610Y-52137713D01*
X105343487Y-52092812D01*
X105249223Y-52044781D01*
X105054534Y-51981522D01*
X104879995Y-51953878D01*
X104852352Y-51949500D01*
X104647648Y-51949500D01*
X104623329Y-51953351D01*
X104445465Y-51981522D01*
X104250776Y-52044781D01*
X104068386Y-52137715D01*
X103902786Y-52258028D01*
X103758028Y-52402786D01*
X103637715Y-52568386D01*
X103544781Y-52750776D01*
X103481522Y-52945465D01*
X103449500Y-53147648D01*
X101636685Y-53147648D01*
X101622741Y-53095606D01*
X101570080Y-53004394D01*
X101565686Y-53000000D01*
X102550000Y-53000000D01*
X102550000Y-52402172D01*
X102549999Y-52402155D01*
X102543598Y-52342627D01*
X102543596Y-52342620D01*
X102493354Y-52207913D01*
X102493350Y-52207906D01*
X102407190Y-52092812D01*
X102407187Y-52092809D01*
X102292093Y-52006649D01*
X102292086Y-52006645D01*
X102157379Y-51956403D01*
X102157372Y-51956401D01*
X102097844Y-51950000D01*
X101500000Y-51950000D01*
X101500000Y-52934314D01*
X101495606Y-52929920D01*
X101404394Y-52877259D01*
X101302661Y-52850000D01*
X101197339Y-52850000D01*
X101095606Y-52877259D01*
X101004394Y-52929920D01*
X101000000Y-52934314D01*
X101000000Y-51950000D01*
X100402155Y-51950000D01*
X100342627Y-51956401D01*
X100342620Y-51956403D01*
X100207913Y-52006645D01*
X100207906Y-52006649D01*
X100092812Y-52092809D01*
X100092809Y-52092812D01*
X100006649Y-52207906D01*
X100006645Y-52207913D01*
X99956403Y-52342620D01*
X99956401Y-52342627D01*
X99950000Y-52402155D01*
X88600500Y-52402155D01*
X88600500Y-50661304D01*
X127849500Y-50661304D01*
X127849500Y-50838695D01*
X127884103Y-51012658D01*
X127884106Y-51012667D01*
X127951983Y-51176540D01*
X127951990Y-51176553D01*
X128050535Y-51324034D01*
X128050538Y-51324038D01*
X128175961Y-51449461D01*
X128175965Y-51449464D01*
X128323446Y-51548009D01*
X128323459Y-51548016D01*
X128446363Y-51598923D01*
X128487334Y-51615894D01*
X128487336Y-51615894D01*
X128487341Y-51615896D01*
X128661304Y-51650499D01*
X128661307Y-51650500D01*
X128661309Y-51650500D01*
X128838693Y-51650500D01*
X128838694Y-51650499D01*
X128896682Y-51638964D01*
X129012658Y-51615896D01*
X129012661Y-51615894D01*
X129012666Y-51615894D01*
X129176547Y-51548013D01*
X129324035Y-51449464D01*
X129449464Y-51324035D01*
X129548013Y-51176547D01*
X129615894Y-51012666D01*
X129650500Y-50838691D01*
X129650500Y-50661309D01*
X129650500Y-50661306D01*
X129650499Y-50661304D01*
X129615896Y-50487341D01*
X129615893Y-50487332D01*
X129548016Y-50323459D01*
X129548009Y-50323446D01*
X129449464Y-50175965D01*
X129449461Y-50175961D01*
X129324038Y-50050538D01*
X129324034Y-50050535D01*
X129176553Y-49951990D01*
X129176540Y-49951983D01*
X129012667Y-49884106D01*
X129012658Y-49884103D01*
X128838694Y-49849500D01*
X128838691Y-49849500D01*
X128661309Y-49849500D01*
X128661306Y-49849500D01*
X128487341Y-49884103D01*
X128487332Y-49884106D01*
X128323459Y-49951983D01*
X128323446Y-49951990D01*
X128175965Y-50050535D01*
X128175961Y-50050538D01*
X128050538Y-50175961D01*
X128050535Y-50175965D01*
X127951990Y-50323446D01*
X127951983Y-50323459D01*
X127884106Y-50487332D01*
X127884103Y-50487341D01*
X127849500Y-50661304D01*
X88600500Y-50661304D01*
X88600500Y-46724500D01*
X88620185Y-46657461D01*
X88672989Y-46611706D01*
X88724500Y-46600500D01*
X141575500Y-46600500D01*
X141642539Y-46620185D01*
G37*
G04 #@! TD.AperFunction*
M02*
